<svg xmlns="http://www.w3.org/2000/svg" width="20" height="20" viewBox="0 0 20 20">
  <path fill="#a4c639" d="m 5.78125,2 c -0.00155,0.010339 -0.00155,0.020911 0,0.03125 -0.010339,-0.00155 -0.020911,-0.00155 -0.03125,0 -0.00155,0.010339 -0.00155,0.020911 0,0.03125 -0.00155,0.010339 -0.00155,0.020911 0,0.03125 -0.00155,0.010339 -0.00155,0.020911 0,0.03125 -0.00155,0.010339 -0.00155,0.020911 0,0.03125 L 6.625,3.625 C 5.9445396,4.3022596 5.5134919,5.1886446 5.5,6.15625 l 9,0 C 14.486508,5.1886446 14.05546,4.3022596 13.375,3.625 L 14.25,2.15625 c 0.0016,-0.010339 0.0016,-0.020911 0,-0.03125 0.0016,-0.010339 0.0016,-0.020911 0,-0.03125 0.0016,-0.010339 0.0016,-0.020911 0,-0.03125 -0.0081,-0.012465 -0.01878,-0.023194 -0.03125,-0.03125 C 14.210694,2.0187849 14.199965,2.0080563 14.1875,2 c -0.01034,-0.00155 -0.02091,-0.00155 -0.03125,0 -0.01034,-0.00155 -0.02091,-0.00155 -0.03125,0 -0.01034,-0.00155 -0.02091,-0.00155 -0.03125,0 -0.0016,0.010339 -0.0016,0.020911 0,0.03125 -0.01034,-0.00155 -0.02091,-0.00155 -0.03125,0 -0.0016,0.010339 -0.0016,0.020911 0,0.03125 L 13.21875,3.5 C 12.508811,2.8579404 11.574169,2.4161295 10.5,2.3125 l -1,0 C 8.4258309,2.4161295 7.4911892,2.8579404 6.78125,3.5 L 5.9375,2.0625 c 0.00155,-0.010339 0.00155,-0.020911 0,-0.03125 -0.010339,-0.00155 -0.020911,-0.00155 -0.03125,0 C 5.8981937,2.0187849 5.8874651,2.0080563 5.875,2 5.8646606,1.9984471 5.8540894,1.9984471 5.84375,2 5.8334106,1.9984471 5.8228394,1.9984471 5.8125,2 5.8021606,1.9984471 5.7915894,1.9984471 5.78125,2 z M 8,3.84375 c 0.020808,-0.00123 0.041692,-0.00123 0.0625,0 0.2933398,-0.043249 0.5943541,0.2102369 0.59375,0.5 C 8.6738727,4.6179758 8.4219324,4.8799872 8.140625,4.8799872 7.8593176,4.8799872 7.6073773,4.6179758 7.625,4.34375 7.6183882,4.1213788 7.7809375,3.9046463 8,3.84375 z m 3.84375,0 c 0.02081,-0.00123 0.04169,-0.00123 0.0625,0 0.29334,-0.043249 0.594354,0.2102369 0.59375,0.5 0.01762,0.2742258 -0.234318,0.5362372 -0.515625,0.5362372 -0.281307,0 -0.533248,-0.2620114 -0.515625,-0.5362372 -0.0066,-0.2223712 0.155938,-0.4391037 0.375,-0.5 z m -6.375,2.71875 c -2.995e-4,2.2008535 0,4.418486 0,6.625 0,0.698086 0.5327963,1.25 1.21875,1.25 l 0.0625,0 0,2.5625 c 0,0.553265 0.4467345,1 1,1 0.5532655,0 1,-0.446735 1,-1 l 0,-2.5625 2.5,0 0,2.5625 c 0,0.553265 0.446735,1 1,1 0.553265,0 1,-0.446735 1,-1 l 0,-2.5625 0.0625,0 c 0.68596,0 1.21875,-0.551914 1.21875,-1.25 10e-7,-2.205262 0,-4.4258583 0,-6.625 z m -1.625,0.59375 c -0.5532655,0 -1,0.4467345 -1,1 l 0,4.28125 c 0,0.553265 0.4467345,1 1,1 0.5532655,0 1,-0.446735 1,-1 l 0,-4.28125 c 0,-0.5532655 -0.4467345,-1 -1,-1 z m 12.3125,0 c -0.553265,0 -1,0.4467345 -1,1 l 0,4.28125 c 0,0.553265 0.446735,1 1,1 0.553265,0 1,-0.446735 1,-1 l 0,-4.28125 c 0,-0.5532655 -0.446735,-1 -1,-1 z"/>
</svg>