<?xml version="1.0" encoding="UTF-8" standalone="no"?>
<!-- Created with Inkscape (http://www.inkscape.org/) -->
<svg id="svg7384" xmlns:rdf="http://www.w3.org/1999/02/22-rdf-syntax-ns#" xmlns="http://www.w3.org/2000/svg" height="16" width="16" version="1.1" xmlns:cc="http://creativecommons.org/ns#" xmlns:dc="http://purl.org/dc/elements/1.1/">
 <metadata id="metadata90">
  <rdf:RDF>
   <cc:Work rdf:about="">
    <dc:format>image/svg+xml</dc:format>
    <dc:type rdf:resource="http://purl.org/dc/dcmitype/StillImage"/>
    <dc:title>Gnome Symbolic Icon Theme</dc:title>
   </cc:Work>
  </rdf:RDF>
 </metadata>
 <title id="title9167">Gnome Symbolic Icon Theme</title>
 <g id="layer12" transform="translate(-160 -646)">
  <path id="rect3845-5-8" style="fill:#555555" d="m160.53 651c-0.28913 0-0.53125 0.2421-0.53125 0.5313v9.9375c0 0.2985 0.23264 0.5312 0.53125 0.5312h13.812c0.2986 0 0.53125-0.2326 0.53125-0.5312l1.125-4.9159c0-0.2891-0.24212-0.5312-0.53125-0.5312h-11.594l-0.875 3.4783c0 0.277-0.223 0.5-0.5 0.5s-0.5-0.223-0.5-0.5v-4.9966c0-0.277 0.223-0.5 0.5-0.5h0.46615v-3.0034z"/>
  <path id="path1234-3" style="block-progression:tb;text-indent:0;color:#555555;text-transform:none;fill:#555555" d="m164.81 647c-0.4584 0.0875-0.82072 0.5334-0.8125 1v7h2v-6h4v3h3v3h2v-3.4375c0.006-0.2641-0.0976-0.529-0.28125-0.7188l-3.5625-3.5624c-0.18978-0.1837-0.45469-0.28737-0.71875-0.28125h-5.4375c-0.0312-0.001-0.0625-0.001-0.0937 0-0.0312-0.001-0.0625-0.001-0.0937 0z"/>
 </g>
</svg>
