<svg xmlns="http://www.w3.org/2000/svg" height="16" width="16" viewBox="0 0 16 16" version="1.1">
  <g transform="translate(-241 -627)">
    <path d="m253.9 629a1 1 0 0 0-0.1 0 1 1 0 0 0-0.8 1v1.7c-0.4-0.6-0.8-1.1-1.4-1.5-1.2-0.9-2.5-1.3-3.9-1.2-0.2 0-0.4 0-0.6 0.1-1.5 0.2-3 1-4 2.3-2 2.6-1.4 6.4 1.2 8.4s6.4 1.4 8.4-1.2a1 1 0 0 0 0.2-0.6 1 1 0 0 0 0-0.2v-0.8h-0.8-0.1a1 1 0 0 0-0.1 0 1 1 0 0 0-0.8 0.4c-1.3 1.8-3.8 2.1-5.6 0.8-1.8-1.3-2.1-3.8-0.8-5.6 1.3-1.8 3.8-2.1 5.6-0.8 0.4 0.3 0.8 0.7 1 1.2h-1.4a1 1 0 0 0-1 1 1 1 0 0 0 0 0.2v0.8h0.8 0.2 4 1v-1-4a1 1 0 0 0 0-0.2v-0.8h-0.8a1 1 0 0 0-0.30z" fill="#555"/>
  </g>
</svg>