<svg xmlns:svg="http://www.w3.org/2000/svg" xmlns="http://www.w3.org/2000/svg" height="16" width="16" viewBox="0 0 16 16" version="1.1">
  <g transform="translate(-41.0002,-767)">
    <path d="M42.8 776A1 1 0 0 0 42 777l0 4a1 1 0 0 0 1 1l4 0a1 1 0 1 0 0-2l-3 0 0-3a1 1 0 0 0-1.2-1zM47.4 775.5a1 1 0 0 0-0.6 0.3l-4.5 4.5a1 1 0 1 0 1.4 1.4l4.5-4.5A1 1 0 0 0 47.4 775.5z" fill="#555"/>
    <rect height="1" width="1" x="42" y="781" fill="#555"/>
    <path d="M50.9 768A1 1 0 1 0 51 770l3 0 0 3a1 1 0 1 0 2 0l0-4a1 1 0 0 0-1-1l-4 0a1 1 0 0 0-0.1 0z" fill="#555"/>
    <rect height="1" width="1" x="55" y="768" fill="#555"/>
    <path d="m54.8 768a1 1 0 0 0-0.5 0.3l-4.5 4.5a1 1 0 1 0 1.4 1.4l4.5-4.5A1 1 0 0 0 54.8 768z" fill="#555"/>
    <rect height="1" width="1" x="42" y="776" fill="#555"/>
    <rect height="1" width="1" x="47" y="781" fill="#555"/>
    <rect height="1" width="1" x="55" y="773" fill="#555"/>
    <rect height="1" width="1" x="50" y="768" fill="#555"/>
  </g>
</svg>