<svg xmlns="http://www.w3.org/2000/svg" height="16" width="16" viewBox="0 0 16 16" version="1.1">
  <g transform="translate(-40.984 -646.99)" fill="#ccc">
    <path d="m41.8 657a1 1 0 0 0-0.8 1v4a1 1 0 0 0 1 1h4a1 1 0 1 0 0-2h-3v-3a1 1 0 0 0-1.2-1zM46.9 656a1 1 0 0 0-0.6 0.3l-5 5a1 1 0 1 0 1.4 1.4l5-5a1 1 0 0 0-0.8-1.7z"/>
    <rect height="1" width="1" y="662" x="41"/>
    <path d="m51.9 647a1 1 0 1 0 0.1 2h3v3a1 1 0 1 0 2 0v-4a1 1 0 0 0-1-1h-4a1 1 0 0 0-0.1 0z"/>
    <rect height="1" width="1" y="647" x="56"/>
    <path d="m55.9 647a1 1 0 0 0-0.6 0.3l-5 5a1 1 0 1 0 1.4 1.4l5-5a1 1 0 0 0-0.8-1.7z"/>
    <rect height="1" width="1" y="657" x="41"/>
    <rect height="1" width="1" y="662" x="46"/>
    <rect height="1" width="1" y="652" x="56"/>
    <rect height="1" width="1" y="647" x="51"/>
  </g>
</svg>