<svg xmlns="http://www.w3.org/2000/svg" height="16" width="16" viewBox="0 0 16 16" version="1.1">
  <g transform="translate(-60.952 -646.98)" fill="#ccc">
    <path d="m71.8 647a1 1 0 0 0-0.8 1v4a1 1 0 0 0 1 1h4a1 1 0 1 0 0-2h-3v-3a1 1 0 0 0-1.2-1zM75.9 647a1 1 0 0 0-0.6 0.3l-4 4a1 1 0 1 0 1.4 1.4l4-4a1 1 0 0 0-0.8-1.7z"/>
    <rect height="1" width="1" y="652" x="71"/>
    <path d="m61.9 653a1 1 0 0 0-0.9 1v8a1 1 0 0 0 1 1h8a1 1 0 0 0 1-1v-8a1 1 0 0 0-1-1h-8a1 1 0 0 0-0.1 0zm1.1 2h6v6h-6v-6z"/>
    <path d="m61.9 655a1 1 0 1 0 0.1 2h8a1 1 0 1 0 0-2h-8a1 1 0 0 0-0.1 0z"/>
    <rect height="1" width="1" y="652" x="76"/>
    <rect height="1" width="1" y="647" x="71"/>
    <rect height="1" width="1" y="662" x="70"/>
    <rect height="1" width="1" y="662" x="61"/>
  </g>
</svg>