<?xml version="1.0" encoding="UTF-8" standalone="no"?>
<svg
   xmlns:dc="http://purl.org/dc/elements/1.1/"
   xmlns:cc="http://creativecommons.org/ns#"
   xmlns:rdf="http://www.w3.org/1999/02/22-rdf-syntax-ns#"
   xmlns:svg="http://www.w3.org/2000/svg"
   xmlns="http://www.w3.org/2000/svg"
   xmlns:sodipodi="http://sodipodi.sourceforge.net/DTD/sodipodi-0.dtd"
   xmlns:inkscape="http://www.inkscape.org/namespaces/inkscape"
   height="24"
   width="24"
   viewBox="0 0 24 24"
   version="1.1"
   id="svg2"
   inkscape:version="0.48.4 r9939"
   sodipodi:docname="aud.svg">
  <metadata
     id="metadata10">
    <rdf:RDF>
      <cc:Work
         rdf:about="">
        <dc:format>image/svg+xml</dc:format>
        <dc:type
           rdf:resource="http://purl.org/dc/dcmitype/StillImage" />
        <dc:title />
      </cc:Work>
    </rdf:RDF>
  </metadata>
  <defs
     id="defs8" />
  <sodipodi:namedview
     pagecolor="#ffffff"
     bordercolor="#666666"
     borderopacity="1"
     objecttolerance="10"
     gridtolerance="10"
     guidetolerance="10"
     inkscape:pageopacity="0"
     inkscape:pageshadow="2"
     inkscape:window-width="1871"
     inkscape:window-height="1056"
     id="namedview6"
     showgrid="true"
     inkscape:zoom="39.333334"
     inkscape:cx="4.4514337"
     inkscape:cy="10.912262"
     inkscape:window-x="49"
     inkscape:window-y="24"
     inkscape:window-maximized="1"
     inkscape:current-layer="svg2">
    <inkscape:grid
       type="xygrid"
       id="grid2987"
       empspacing="5"
       visible="true"
       enabled="true"
       snapvisiblegridlinesonly="true" />
  </sodipodi:namedview>
  <path
     style="fill:#555555;fill-opacity:1;fill-rule:nonzero;stroke:none"
     d="M 6 2 C 4.892 2 4 2.892 4 4 L 4 20 C 4 21.108 4.892 22 6 22 L 18 22 C 19.108 22 20 21.108 20 20 L 20 4 C 20 2.892 19.108 2 18 2 L 6 2 z M 13.125 7.125 C 15.352778 7.630556 17 9.6222227 17 12 C 17 14.377778 15.352778 16.369444 13.125 16.875 L 13.125 15.71875 C 14.730556 15.240972 15.875 13.761111 15.875 12 C 15.875 10.238888 14.730556 8.759028 13.125 8.28125 L 13.125 7.125 z M 12 7.5625 L 12 16.4375 L 9.21875 13.65625 L 7 13.65625 L 7 10.34375 L 9.21875 10.34375 L 12 7.5625 z M 13.125 9.75 C 13.947223 10.16111 14.5 11.016666 14.5 12 C 14.5 12.983333 13.947223 13.813195 13.125 14.21875 L 13.125 9.75 z "
     id="rect2989" />
</svg>
