<svg xmlns:svg="http://www.w3.org/2000/svg" xmlns="http://www.w3.org/2000/svg" height="96" width="96" viewBox="0 0 96 96" version="1.1">
  <path d="M12 6 12 90 84 90 84 24 66 6zm6 6 45.6 0L78 26.6 78 84 18 84z" fill="#555"/>
  <g transform="translate(2.5793231,-3.2660688)">
    <path transform="matrix(1.353211,0,0,0.99662165,-14.954127,-1.1081069)" d="m48 65.8c0 4.2-3.3 7.5-7.4 7.5-4.1 0-7.4-3.4-7.4-7.5 0-4.2 3.3-7.5 7.4-7.5 4.1 0 7.4 3.4 7.4 7.5z" fill="#555"/>
    <rect y="35" x="44" height="30" width="6" fill="#555"/>
    <rect transform="matrix(0.69076685,-0.72307756,0.72307756,0.69076685,0,0)" y="55.9" x="5.2" height="17.6" width="6" fill="#555"/>
  </g>
</svg>
