<svg xmlns:svg="http://www.w3.org/2000/svg" xmlns="http://www.w3.org/2000/svg" height="24" width="24" viewBox="0 0 24 24" version="1.1">
  <path d="M6 2C4.9 2 4 2.9 4 4L4 20C4 21.1 4.9 22 6 22L18 22C19.1 22 20 21.1 20 20L20 4C20 2.9 19.1 2 18 2L6 2zM13.1 7.1C15.4 7.6 17 9.6 17 12 17 14.4 15.4 16.4 13.1 16.9L13.1 15.7C14.7 15.2 15.9 13.8 15.9 12 15.9 10.2 14.7 8.8 13.1 8.3L13.1 7.1zM12 7.6L12 16.4 9.2 13.7 7 13.7 7 10.3 9.2 10.3 12 7.6zM13.1 9.8C13.9 10.2 14.5 11 14.5 12 14.5 13 13.9 13.8 13.1 14.2L13.1 9.8z" fill="#555"/>
</svg>