<?xml version="1.0" encoding="UTF-8" standalone="no"?>
<svg
   xmlns:dc="http://purl.org/dc/elements/1.1/"
   xmlns:cc="http://creativecommons.org/ns#"
   xmlns:rdf="http://www.w3.org/1999/02/22-rdf-syntax-ns#"
   xmlns:svg="http://www.w3.org/2000/svg"
   xmlns="http://www.w3.org/2000/svg"
   xmlns:sodipodi="http://sodipodi.sourceforge.net/DTD/sodipodi-0.dtd"
   xmlns:inkscape="http://www.inkscape.org/namespaces/inkscape"
   height="24"
   width="24"
   viewBox="0 0 24 24"
   version="1.1"
   id="svg2"
   inkscape:version="0.48.4 r9939"
   sodipodi:docname="aud.svg">
  <metadata
     id="metadata10">
    <rdf:RDF>
      <cc:Work
         rdf:about="">
        <dc:format>image/svg+xml</dc:format>
        <dc:type
           rdf:resource="http://purl.org/dc/dcmitype/StillImage" />
        <dc:title></dc:title>
      </cc:Work>
    </rdf:RDF>
  </metadata>
  <defs
     id="defs8" />
  <sodipodi:namedview
     pagecolor="#ffffff"
     bordercolor="#666666"
     borderopacity="1"
     objecttolerance="10"
     gridtolerance="10"
     guidetolerance="10"
     inkscape:pageopacity="0"
     inkscape:pageshadow="2"
     inkscape:window-width="1871"
     inkscape:window-height="1056"
     id="namedview6"
     showgrid="true"
     inkscape:zoom="39.333334"
     inkscape:cx="10.6976"
     inkscape:cy="11.929211"
     inkscape:window-x="49"
     inkscape:window-y="24"
     inkscape:window-maximized="1"
     inkscape:current-layer="svg2">
    <inkscape:grid
       type="xygrid"
       id="grid2987"
       empspacing="5"
       visible="true"
       enabled="true"
       snapvisiblegridlinesonly="true" />
  </sodipodi:namedview>
  <path
     style="fill:#555555;fill-opacity:1;fill-rule:nonzero;stroke:none"
     d="M 6 2 C 4.892 2 4 2.892 4 4 L 4 20 C 4 21.108 4.892 22 6 22 L 18 22 C 19.108 22 20 21.108 20 20 L 20 4 C 20 2.892 19.108 2 18 2 L 6 2 z M 6 4 L 18 4 L 18 20 L 6 20 L 6 4 z M 13 7 L 11 9 L 11 13.03125 C 10.663553 13.11256 10.3107 13.240075 9.96875 13.4375 C 8.7730184 14.127856 8.1170364 15.282561 8.53125 16 C 8.9454636 16.717439 10.273018 16.721606 11.46875 16.03125 C 12.409945 15.487851 12.99224 14.675541 13 14 L 13 9.8125 L 13.71875 10.53125 L 15.125 9.125 L 13 7 z "
     id="rect2989" />
</svg>
