<?xml version="1.0" encoding="UTF-8" standalone="no"?>
<svg
   xmlns:dc="http://purl.org/dc/elements/1.1/"
   xmlns:cc="http://creativecommons.org/ns#"
   xmlns:rdf="http://www.w3.org/1999/02/22-rdf-syntax-ns#"
   xmlns:svg="http://www.w3.org/2000/svg"
   xmlns="http://www.w3.org/2000/svg"
   xmlns:sodipodi="http://sodipodi.sourceforge.net/DTD/sodipodi-0.dtd"
   xmlns:inkscape="http://www.inkscape.org/namespaces/inkscape"
   height="24"
   width="24"
   viewBox="0 0 24 24"
   version="1.1"
   id="svg2"
   inkscape:version="0.48.4 r9939"
   sodipodi:docname="bin.svg"
   inkscape:export-filename="/home/lars/env/workspace/web/h5ai/src/_h5ai/client/images/fallback/file.png"
   inkscape:export-xdpi="90"
   inkscape:export-ydpi="90">
  <metadata
     id="metadata10">
    <rdf:RDF>
      <cc:Work
         rdf:about="">
        <dc:format>image/svg+xml</dc:format>
        <dc:type
           rdf:resource="http://purl.org/dc/dcmitype/StillImage" />
        <dc:title />
      </cc:Work>
    </rdf:RDF>
  </metadata>
  <defs
     id="defs8" />
  <sodipodi:namedview
     pagecolor="#ffffff"
     bordercolor="#666666"
     borderopacity="1"
     objecttolerance="10"
     gridtolerance="10"
     guidetolerance="10"
     inkscape:pageopacity="0"
     inkscape:pageshadow="2"
     inkscape:window-width="1871"
     inkscape:window-height="1056"
     id="namedview6"
     showgrid="true"
     inkscape:zoom="19.666667"
     inkscape:cx="1.9854868"
     inkscape:cy="9.1262198"
     inkscape:window-x="49"
     inkscape:window-y="24"
     inkscape:window-maximized="1"
     inkscape:current-layer="svg2">
    <inkscape:grid
       type="xygrid"
       id="grid2987"
       empspacing="5"
       visible="true"
       enabled="true"
       snapvisiblegridlinesonly="true" />
  </sodipodi:namedview>
  <path
     style="fill:#555555;fill-opacity:1;fill-rule:nonzero;stroke:none"
     d="M 5 3 C 3.892 3 3 3.892 3 5 L 3 19 C 3 20.108 3.892 21 5 21 L 19 21 C 20.108 21 21 20.108 21 19 L 21 5 C 21 3.892 20.108 3 19 3 L 5 3 z M 10.78125 6 L 13.21875 6 C 13.368695 6 13.482015 6.1045 13.5 6.25 L 13.75 7.8125 C 14.115834 7.9619 14.406887 8.1975 14.71875 8.4375 L 16.21875 7.8125 C 16.35069 7.76615 16.52178 7.83525 16.59375 7.96875 L 17.8125 10.03125 C 17.884455 10.1631 17.83269 10.33575 17.71875 10.40625 L 16.46875 11.375 C 16.49275 11.567 16.5 11.796 16.5 12 C 16.5 12.20385 16.49273 12.433 16.46875 12.625 L 17.71875 13.59375 C 17.83271 13.683 17.88447 13.83525 17.8125 13.96875 L 16.59375 16.03125 C 16.521782 16.164875 16.35669 16.252 16.21875 16.1875 L 14.71875 15.5625 C 14.406887 15.7971 14.115834 16.03705 13.75 16.1875 L 13.5 17.75 C 13.482009 17.898355 13.368675 18 13.21875 18 L 10.78125 18 C 10.63131 18 10.517985 17.8955 10.5 17.75 L 10.28125 16.1875 C 9.9154091 16.0381 9.593114 15.8025 9.28125 15.5625 L 7.78125 16.1875 C 7.649307 16.23385 7.47822 16.16475 7.40625 16.03125 L 6.1875 13.96875 C 6.11553 13.8369 6.16731 13.66425 6.28125 13.59375 L 7.5625 12.625 C 7.5385 12.433 7.5 12.19815 7.5 12 C 7.5 11.80185 7.538515 11.567 7.5625 11.375 L 6.28125 10.40625 C 6.167295 10.317 6.10953 10.16475 6.1875 10.03125 L 7.40625 7.96875 C 7.4782185 7.835255 7.64331 7.7495 7.78125 7.8125 L 9.28125 8.4375 C 9.593114 8.2029 9.9154091 7.96295 10.28125 7.8125 L 10.5 6.25 C 10.517993 6.10165 10.631325 6 10.78125 6 z M 12 9.875 C 10.842512 9.875 9.90625 10.84185 9.90625 12 C 9.90625 13.15815 10.842512 14.125 12 14.125 C 13.15749 14.125 14.125 13.15815 14.125 12 C 14.125 10.84185 13.15749 9.875 12 9.875 z "
     id="rect2989" />
  <g
     id="g4"
     transform="translate(-28,-1027.3622)" />
</svg>
