<svg xmlns:svg="http://www.w3.org/2000/svg" xmlns="http://www.w3.org/2000/svg" height="24" width="24" viewBox="0 0 24 24" version="1.1">
  <path d="M5 3C3.9 3 3 3.9 3 5L3 19C3 20.1 3.9 21 5 21L19 21C20.1 21 21 20.1 21 19L21 5C21 3.9 20.1 3 19 3L5 3zM10.8 6L13.2 6C13.4 6 13.5 6.1 13.5 6.3L13.8 7.8C14.1 8 14.4 8.2 14.7 8.4L16.2 7.8C16.4 7.8 16.5 7.8 16.6 8L17.8 10C17.9 10.2 17.8 10.3 17.7 10.4L16.5 11.4C16.5 11.6 16.5 11.8 16.5 12 16.5 12.2 16.5 12.4 16.5 12.6L17.7 13.6C17.8 13.7 17.9 13.8 17.8 14L16.6 16C16.5 16.2 16.4 16.3 16.2 16.2L14.7 15.6C14.4 15.8 14.1 16 13.8 16.2L13.5 17.8C13.5 17.9 13.4 18 13.2 18L10.8 18C10.6 18 10.5 17.9 10.5 17.8L10.3 16.2C9.9 16 9.6 15.8 9.3 15.6L7.8 16.2C7.6 16.2 7.5 16.2 7.4 16L6.2 14C6.1 13.8 6.2 13.7 6.3 13.6L7.6 12.6C7.5 12.4 7.5 12.2 7.5 12 7.5 11.8 7.5 11.6 7.6 11.4L6.3 10.4C6.2 10.3 6.1 10.2 6.2 10L7.4 8C7.5 7.8 7.6 7.7 7.8 7.8L9.3 8.4C9.6 8.2 9.9 8 10.3 7.8L10.5 6.3C10.5 6.1 10.6 6 10.8 6zM12 9.9C10.8 9.9 9.9 10.8 9.9 12 9.9 13.2 10.8 14.1 12 14.1 13.2 14.1 14.1 13.2 14.1 12 14.1 10.8 13.2 9.9 12 9.9z" fill="#555"/>
</svg>