<svg xmlns:svg="http://www.w3.org/2000/svg" xmlns="http://www.w3.org/2000/svg" width="96" height="96" viewBox="0 0 96 96" version="1.1">
  <g transform="translate(-321.00015,-587)">
    <g transform="matrix(4.836272,0,0,4.836272,-1221.151,-2629.537)" fill="#555">
      <path d="m325 673 0 2 6.5 0c0.8 0 1.5 0.7 1.5 1.5 0 0.8-0.7 1.5-1.5 1.5l-0.5 0 0 2 0.5 0c1.9 0 3.5-1.6 3.5-3.5 0-1.9-1.6-3.5-3.5-3.5l-6.5 0z"/>
      <path d="m328 670 0 1c0 0.3-0.1 0.5-0.3 0.7l-2.3 2.3 2.3 2.3c0.2 0.2 0.3 0.5 0.3 0.7l0 1-1 0c-0.3 0-0.6-0.1-0.7-0.3l-3.7-3.7 3.7-3.7c0.2-0.2 0.4-0.3 0.8-0.3z"/>
    </g>
  </g>
</svg>