<svg xmlns:svg="http://www.w3.org/2000/svg" xmlns="http://www.w3.org/2000/svg" height="96" width="96" viewBox="0 0 96 96" version="1.1">
  <path d="m -24,53.237289 a 15,15 0 1 1 -30,0 15,15 0 1 1 30,0 z" transform="matrix(0.4,0,0,0.4,75.6,14.705084)" fill="#555"/>
  <path d="M6 12 6 84 90 84 90 30 72 12zm6 6 57.6 0L84 32.6 84 78 12 78zM35.4 42 46.6 58 56.4 52 69 72 27 72zM-24 53.2a15 15 0 1 1-30 0 15 15 0 1 1 30 0z" fill="#555"/>
  <rect width="6" height="60" x="18" y="18" fill="#555"/>
  <rect width="6" height="6" x="12" y="26.7" fill="#555"/>
  <rect width="6" height="6" x="12" y="39" fill="#555"/>
  <rect width="6" height="6" x="12" y="51" fill="#555"/>
  <rect width="6" height="6" x="12" y="63" fill="#555"/>
  <rect width="6" height="6" x="12" y="75" fill="#555"/>
  <rect width="6" height="60" x="72" y="18" fill="#555"/>
  <rect width="6" height="6" x="78" y="26.7" fill="#555"/>
  <rect width="6" height="6" x="78" y="39" fill="#555"/>
  <rect width="6" height="6" x="78" y="51" fill="#555"/>
  <rect width="6" height="6" x="78" y="63" fill="#555"/>
  <rect width="6" height="6" x="78" y="75" fill="#555"/>
  <rect width="6" height="6" x="12" y="15" fill="#555"/>
</svg>