<?xml version="1.0" encoding="UTF-8" standalone="no"?>
<!-- Created with Inkscape (http://www.inkscape.org/) -->

<svg
   xmlns:dc="http://purl.org/dc/elements/1.1/"
   xmlns:cc="http://creativecommons.org/ns#"
   xmlns:rdf="http://www.w3.org/1999/02/22-rdf-syntax-ns#"
   xmlns:svg="http://www.w3.org/2000/svg"
   xmlns="http://www.w3.org/2000/svg"
   xmlns:xlink="http://www.w3.org/1999/xlink"
   xmlns:sodipodi="http://sodipodi.sourceforge.net/DTD/sodipodi-0.dtd"
   xmlns:inkscape="http://www.inkscape.org/namespaces/inkscape"
   version="1.1"
   width="64"
   height="64"
   id="svg13094"
   inkscape:version="0.48.3.1 r9886"
   sodipodi:docname="package-ace.svg">
  <sodipodi:namedview
     pagecolor="#ffffff"
     bordercolor="#666666"
     borderopacity="1"
     objecttolerance="10"
     gridtolerance="10"
     guidetolerance="10"
     inkscape:pageopacity="0"
     inkscape:pageshadow="2"
     inkscape:window-width="1920"
     inkscape:window-height="1033"
     id="namedview49"
     showgrid="true"
     inkscape:zoom="14.75"
     inkscape:cx="37.132415"
     inkscape:cy="26.531846"
     inkscape:window-x="-2"
     inkscape:window-y="25"
     inkscape:window-maximized="1"
     inkscape:current-layer="svg13094">
    <inkscape:grid
       type="xygrid"
       id="grid3018" />
  </sodipodi:namedview>
  <defs
     id="defs11">
    <linearGradient
       id="linearGradient3817">
      <stop
         id="stop3819"
         style="stop-color:#00132d;stop-opacity:0.10684581;"
         offset="0" />
      <stop
         id="stop3821"
         style="stop-color:#000000;stop-opacity:0;"
         offset="1" />
    </linearGradient>
    <radialGradient
       cx="29.99848"
       cy="52.804661"
       r="16"
       id="radialGradient3823"
       xlink:href="#linearGradient3817"
       gradientUnits="userSpaceOnUse"
       gradientTransform="matrix(1.9776652e-8,-0.44005103,1.4375,-4.0708531e-6,-30.8125,22.174921)" />
    <radialGradient
       cx="46.159752"
       cy="36.935829"
       r="16"
       id="radialGradient3825"
       xlink:href="#linearGradient3817"
       gradientUnits="userSpaceOnUse"
       gradientTransform="matrix(2.096279e-8,-0.32631713,2.725932,-1.1477746e-5,-67.57524,16.90477)" />
    <radialGradient
       cx="47.140202"
       cy="17.89163"
       r="16"
       id="radialGradient3827"
       xlink:href="#linearGradient3817"
       gradientUnits="userSpaceOnUse"
       gradientTransform="matrix(2.1712014e-5,-0.67853516,2.2165484,0,-33.970716,33.417004)" />
    <radialGradient
       cx="29.0648"
       cy="42.199619"
       r="16"
       id="radialGradient3829"
       xlink:href="#linearGradient3817"
       gradientUnits="userSpaceOnUse"
       gradientTransform="matrix(1.9776659e-8,-0.44005103,1.4375,-4.0708531e-6,-30.8125,22.174921)" />
    <radialGradient
       cx="20.92057"
       cy="34.206097"
       r="16"
       id="radialGradient3837"
       xlink:href="#linearGradient3817"
       gradientUnits="userSpaceOnUse"
       gradientTransform="matrix(-1.3019008e-5,-1.4052387,-1.4052387,0,93.472788,86.44508)"
       fx="20.92057"
       fy="34.206097" />
    <radialGradient
       cx="29.62351"
       cy="37.284019"
       r="16"
       id="radialGradient3841"
       xlink:href="#linearGradient3817"
       gradientUnits="userSpaceOnUse"
       gradientTransform="matrix(-2.096279e-8,-1.0659693,-2.725932,-3.7493971e-5,131.57524,70.22225)"
       fx="29.62351"
       fy="37.284019" />
    <radialGradient
       cx="40.227631"
       cy="21.806778"
       r="16"
       id="radialGradient3845"
       xlink:href="#linearGradient3817"
       gradientUnits="userSpaceOnUse"
       gradientTransform="matrix(-2.1712014e-5,-2.2165482,-2.2165484,0,97.970716,124.16221)"
       fx="40.227631"
       fy="21.806778" />
    <radialGradient
       cx="19.151089"
       cy="46.107533"
       r="16"
       id="radialGradient3849"
       xlink:href="#linearGradient3817"
       gradientUnits="userSpaceOnUse"
       gradientTransform="matrix(-1.9776652e-8,-1.4375,-1.4375,-1.329812e-5,94.8125,87.43807)"
       fx="19.151089"
       fy="46.107533" />
    <radialGradient
       cx="59.89941"
       cy="2.0516231"
       r="32"
       id="radialGradient3857"
       gradientUnits="userSpaceOnUse"
       gradientTransform="matrix(-2.298935e-8,1.2105557,-1.4259153,-2.7079188e-8,49.162732,-22.737782)">
      <stop
         id="stop3853"
         style="stop-color:#88b7f4;stop-opacity:0.33589253;"
         offset="0" />
      <stop
         id="stop3855"
         style="stop-color:#6d99e2;stop-opacity:0;"
         offset="1" />
    </radialGradient>
  </defs>
  <metadata
     id="metadata13099">
    <rdf:RDF>
      <cc:Work
         rdf:about="">
        <dc:format>image/svg+xml</dc:format>
        <dc:type
           rdf:resource="http://purl.org/dc/dcmitype/StillImage" />
        <dc:title />
      </cc:Work>
    </rdf:RDF>
  </metadata>
  <path
     d="M 0,1 2,0 62,0 64,1 64,16 0,16 z"
     id="path3029"
     style="fill:#749ad7;fill-opacity:1;fill-rule:nonzero;color:#000000;stroke-width:1;stroke-linecap:butt;stroke-linejoin:miter;stroke-miterlimit:4;stroke-opacity:1;stroke-dasharray:none;stroke-dashoffset:0;marker:none;visibility:visible;display:inline;overflow:visible;enable-background:accumulate" />
  <path
     d="m 0,15 64,0 0,47 -2,2 -60,0 -2,-2 z"
     id="path3809"
     style="fill:#3f588c;fill-opacity:1;fill-rule:nonzero" />
  <path
     d="m 0,15 64,0 0,47 -2,2 -60,0 -2,-2 z"
     id="path3831"
     style="fill:url(#radialGradient3857);fill-rule:nonzero" />
  <path
     d="m 64,62 -2,2 -30,0 0,-24 32,0 z"
     id="path3835"
     style="fill:url(#radialGradient3837);fill-rule:nonzero" />
  <path
     d="m 0,62 2,2 30,0 0,-24 -32,0 z"
     id="path3847"
     style="fill:url(#radialGradient3849);fill-rule:nonzero" />
  <path
     d="m 0,15 32,0 0,25 -32,0 z"
     id="path3839"
     style="fill:url(#radialGradient3841);fill-rule:nonzero" />
  <path
     d="m 64,15 -32,0 0,25 32,0 z"
     id="path3843"
     style="fill:url(#radialGradient3845);fill-rule:nonzero" />
  <path
     d="M 63,0.5 63,63 1,63 2,64 62,64 64,62 64,1 z"
     id="path3807"
     style="fill:#000000;fill-opacity:0.11130587;fill-rule:nonzero" />
  <path
     d="m 64,15 -32,0 0,-7.346939 32,0 z"
     id="path3813"
     style="fill:url(#radialGradient3823);fill-rule:nonzero" />
  <path
     d="m 0,15 32,0 0,-7.346939 -32,0 z"
     id="path3811"
     style="fill:url(#radialGradient3829);fill-rule:nonzero" />
  <path
     d="m 64,1 -2,-1 -30,0 0,7.653061 32,0 z"
     id="path3815"
     style="fill:url(#radialGradient3825);fill-rule:nonzero" />
  <path
     d="m 0,1 2,-1 30,0 0,7.653061 -32,0 z"
     id="path3960"
     style="fill:url(#radialGradient3827);fill-rule:nonzero" />
  <path
     d="m 38.99998,56.20001 0,-2.80001 2.799985,0 2.800022,0 0,2.80001 0,2.79999 -2.800022,0 -2.799985,0 0,-2.79999 z m 4.8,0 0,-2.00001 -2.000015,0 -1.999979,0 0,2.00001 0,1.99999 1.999979,0 2.000015,0 0,-1.99999 z m -3.200005,0 0,-1.20001 1.19999,0 1.20001,0 0,1.20001 0,1.2 -1.20001,0 -1.19999,0 0,-1.2 z m 4.800019,1.2 0,-1.60001 0.399986,0 0.400002,0 0,-0.4 0,-0.4 0.400005,0 0.400002,0 0,-0.79999 0,-0.8 -0.800007,0 -0.799988,0 0,-1.20001 0,-1.19999 0.399986,0 0.400002,0 0,-0.40001 0,-0.39999 -0.799988,0 -0.800007,0 0,0.39999 0,0.40001 -0.400002,0 -0.400005,0 0,0.39999 0,0.40001 0.400005,0 0.400002,0 0,0.39999 0,0.40001 -1.19999,0 -1.200012,0 0,-0.40001 0,-0.39999 -0.40002,0 -0.399984,0 0,0.39999 0,0.40001 -0.400004,0 -0.400002,0 0,-0.8 0,-0.8 -0.400004,0 -0.399985,0 0,0.39999 0,0.40001 -0.400003,0 -0.400003,0 0,-0.40001 0,-0.39999 0.400003,0 0.400003,0 0,-1.20001 0,-1.19999 -0.400003,0 -0.400003,0 0,-0.8 0,-0.8 0.400003,0 0.400003,0 0,-0.40001 0,-0.39999 -0.400003,0 -0.400003,0 0,-0.40001 0,-0.4 1.599995,0 1.60001,0 0,0.4 0,0.40001 0.79999,0 0.800005,0 0,-0.40001 0,-0.4 0.400005,0 0.400002,0 0,0.4 0,0.40001 -0.400002,0 -0.400005,0 0,0.39999 0,0.40001 0.400005,0 0.400002,0 0,0.39999 0,0.40001 -0.400002,0 -0.400005,0 0,0.39999 0,0.40001 0.400005,0 0.400002,0 0,0.39999 0,0.40001 0.400005,0 0.400002,0 0,-0.40001 0,-0.39999 0.399986,0 0.400002,0 0,-0.40001 0,-0.39999 -0.400002,0 -0.399986,0 0,-1.20001 0,-1.2 0.399986,0 0.400002,0 0,0.80001 0,0.8 0.400005,0 0.400002,0 0,-2.00001 0,-2 0.400003,0 0.399985,0 0,1.2 0,1.2 0.800007,0 0.800007,0 0,0.4 0,0.40001 -0.400004,0 -0.400003,0 0,0.39999 0,0.40001 0.800007,0 0.800005,0 0,-2.80001 0,-2.8 -0.400002,0 -0.400003,0 0,0.8 0,0.8 -0.400004,0 -0.400003,0 0,-0.8 0,-0.8 0.400003,0 0.400004,0 0,-0.40001 0,-0.39999 -0.800007,0 -0.800007,0 0,0.8 0,0.8 -0.799988,0 -0.800007,0 0,0.4 0,0.4 -0.400002,0 -0.399986,0 0,-1.20001 0,-1.19999 0.399986,0 0.400002,0 0,-0.40001 0,-0.39999 -0.400002,0 -0.399986,0 0,-0.40001 0,-0.39999 0.399986,0 0.400002,0 0,0.39999 0,0.40001 1.20001,0 1.199992,0 0,-0.40001 0,-0.39999 0.400003,0 0.400004,0 0,0.8 0,0.8 0.400003,0 0.400002,0 0,-0.40001 0,-0.39999 0.399986,0 0.400002,0 0,0.39999 0,0.40001 -0.400002,0 -0.399986,0 0,0.39999 0,0.40001 0.399986,0 0.400002,0 0,0.39999 0,0.40001 0.400004,0 0.400003,0 0,-1.20001 0,-1.19999 0.399985,0 0.400003,0 0,2.4 0,2.4 -0.400003,0 -0.399985,0 0,0.4 0,0.4 0.799988,0 0.800007,0 0,0.4 0,0.40001 -0.400003,0 -0.400004,0 0,0.39999 0,0.40001 0.800007,0 0.799988,0 0,-0.40001 0,-0.39999 0.400004,0 0.400022,0 0,-0.40001 0,-0.4 1.200008,0 1.199993,0 0,1.2 0,1.20001 0.799989,0 0.800005,0 0,1.19999 0,1.20001 -0.400003,0 -0.400002,0 0,0.39999 0,0.40001 0.400002,0 0.400003,0 0,0.8 0,0.8 -0.800005,0 -0.799989,0 0,0.39999 0,0.40001 0.799989,0 0.800005,0 0,0.39999 0,0.40001 -1.199992,0 -1.200008,0 0,-0.8 0,-0.8 -0.399987,0 -0.400039,0 0,1.6 0,1.6 0.400039,0 0.399987,0 0,0.4 0,0.4 -0.399987,0 -0.400039,0 0,0.4 0,0.4 0.800026,0 0.800006,0 0,-1.2 0,-1.20001 0.799989,0 h 0.79998 v 1.60001 h -0.800005 v 0.8 H 57.399941 V 58.2 H 58.99993 V 59 H 55.799909 V 57.40001 H 54.99994 V 59 H 54.199914 V 58.2 H 52.599919 V 55.80001 H 51.799931 V 55 h -0.800007 v 0.80001 h -0.799988 v 0.8 h 1.599995 v 0.8 H 50.999925 V 58.2 H 50.199937 V 59 h -1.600012 v -0.8 h 0.800007 V 55.80001 H 48.599926 V 55 h 0.800007 v 0.80001 h 0.800005 v -1.6 h -0.800005 v -0.8 H 47.79992 V 55 h -0.799988 v 1.60001 h 1.599995 v 0.8 H 47.799914 V 58.2 H 46.999926 V 59 h -1.599995 v -1.59999 z m 9.6,-1.2 0,-0.40001 h -0.800026 v 0.80001 h 0.800026 v -0.4 z m 0,-2.40001 V 52.6 H 52.599973 V 55 h 2.400019 v -1.2 z m -1.600014,0 0,-0.4 0.400002,0 0.399986,0 0,0.4 0,0.4 -0.399986,0 -0.400002,0 0,-0.4 z m -1.599995,-0.8 0,-1.19999 -0.800007,0 -0.799988,0 0,-0.40001 0,-0.39999 0.799988,0 0.800007,0 0,-0.40001 0,-0.39999 0.399985,0 0.400003,0 0,-0.80002 0,-0.79998 -0.400003,0 -0.399985,0 0,-0.40001 0,-0.39999 0.399985,0 0.400003,0 0,-0.40001 0,-0.39999 -0.400003,0 -0.399985,0 0,-0.8 0,-0.80001 -0.400003,0 -0.400004,0 0,1.2 0,1.20001 -0.400002,0 -0.399986,0 0,0.39999 0,0.40001 0.799988,0 0.800007,0 0,0.79998 0,0.80002 -0.800007,0 -0.799988,0 0,-0.40001 0,-0.40001 -0.400002,0 -0.400003,0 0,-0.39999 0,-0.39999 -0.400004,0 -0.400003,0 0,-0.40001 0,-0.39999 -0.400002,0 -0.400005,0 0,0.8 0,0.79998 -0.399985,0 -0.400003,0 0,0.8 0,0.80002 0.799988,0 0.800007,0 0,0.39999 0,0.39999 -0.400002,0 -0.400005,0 0,0.40001 0,0.4 -0.399985,0 -0.400003,0 0,-0.4 0,-0.40001 -0.400002,0 -0.400005,0 0,0.40001 0,0.4 0.400005,0 0.400002,0 0,0.4 0,0.4 0.400003,0 0.399985,0 0,-0.4 0,-0.4 0.800007,0 0.800007,0 0,0.4 0,0.4 0.800005,0 0.799988,0 0,0.4 0,0.4 0.400004,0 0.400003,0 0,-1.2 z m -2.4,-0.8 0,-0.39999 0.400003,0 0.400002,0 0,0.39999 0,0.40001 -0.400002,0 -0.400003,0 0,-0.40001 z m -0.800007,-1.99999 0,-0.8 0.400003,0 0.400004,0 0,0.39999 0,0.40001 0.400003,0 0.400002,0 0,0.39999 0,0.40001 -0.800005,0 -0.800007,0 0,-0.8 z m 5.59999,1.19999 0,-0.39999 0.400004,0 0.400022,0 0,0.39999 0,0.40001 1.200008,0 1.199993,0 0,-0.8 0,-0.8 -2.000018,0 -1.999997,0 0,0.8 0,0.8 0.400002,0 0.399986,0 0,-0.40001 z m -12.79999,-0.8 0,-0.39999 1.599994,0 1.600012,0 0,-0.40001 0,-0.39999 -0.400002,0 -0.400005,0 0,-0.40001 0,-0.39999 -0.399983,0 -0.400022,0 0,-0.40001 0,-0.39999 0.400022,0 0.399983,0 0,-0.40001 0,-0.39999 -0.800005,0 -0.79999,0 0,-0.40001 0,-0.39999 -0.40002,0 -0.399984,0 0,0.39999 0,0.40001 -0.800006,0 -0.799989,0 0,0.39999 0,0.40001 0.799989,0 0.800006,0 0,0.8 0,0.79998 -0.400004,0 -0.400002,0 0,0.80002 0,0.8 0.400002,0 0.400004,0 0,-0.40001 z m 0,-3.2 0,-0.39999 0.399984,0 0.40002,0 0,0.39999 0,0.40001 -0.40002,0 -0.399984,0 0,-0.40001 z m 16.80001,1.6 0,-0.39999 -0.399987,0 -0.400002,0 0,0.39999 0,0.40001 0.400002,0 0.399987,0 0,-0.40001 z m -4.000016,-0.8 0,-0.39999 -0.399986,0 -0.400002,0 0,0.39999 0,0.40001 0.400002,0 0.399986,0 0,-0.40001 z m 1.599995,-0.39999 0,-0.8 0.400039,0 0.399987,0 0,-0.40001 0,-0.39999 -0.800026,0 -0.799969,0 0,1.19999 0,1.20001 0.399983,0 0.399986,0 0,-0.8 z M 51.799977,43.8 V 43 H 50.99997 v 1.6 h 0.800007 v -0.8 z m 6.399999,2 0,-0.4 0.400002,0 0.400003,0 0,0.4 0,0.40001 -0.400003,0 -0.400002,0 0,-0.40001 z m -19.20001,-4.00001 0,-2.79999 2.799985,0 2.800022,0 0,2.79999 0,2.80001 -2.800022,0 -2.799985,0 0,-2.80001 z m 4.8,0 0,-1.99999 -2.000015,0 -1.999979,0 0,1.99999 0,2.00001 1.999979,0 2.000015,0 0,-2.00001 z m -3.200005,0 0,-1.19999 1.19999,0 1.20001,0 0,1.19999 0,1.20001 -1.20001,0 -1.19999,0 0,-1.20001 z M 45.39998,44.2 l 0,-0.4 0.399986,0 0.400002,0 0,0.4 0,0.4 -0.400002,0 -0.399986,0 0,-0.4 z m 3.19999,0 0,-0.4 0.400003,0 0.400004,0 0,0.4 0,0.4 -0.400004,0 -0.400003,0 0,-0.4 z m 4.800002,-2.40001 0,-2.79999 2.800022,0 h 2.79999 v 5.6 h -5.600009 v -2.80001 z m 4.800004,0 0,-1.99999 -1.999982,0 -2.000034,0 0,1.99999 0,2.00001 2.000034,0 1.999982,0 0,-2.00001 z m -3.19999,0 0,-1.19999 1.200008,0 1.199993,0 0,1.19999 0,1.20001 -1.199993,0 -1.200008,0 0,-1.20001 z"
     id="path3108"
     style="fill:#000000;fill-opacity:0.21731448" />
  <g
     transform="matrix(0.19352967,0,0,0.19352967,665.8856,-34.235041)"
     id="g3964"
     style="fill:#000000;fill-opacity:0.21731448;fill-rule:nonzero">
    <path
       d="m -3413.832,424.9234 c -0.2259,1.3e-4 -0.4362,0.18988 -0.4586,0.41459 0,0 -0.7862,7.84501 -0.5804,11.05104 0.1031,1.6188 0.7646,5.58629 2.0267,9.83478 1.2623,4.24849 3.1009,8.7474 5.6972,11.34366 -2e-4,1.2e-4 0.02,0.0145 0.02,0.0145 1.1678,1.07005 1.69,1.89795 1.9766,3.33668 0.2864,1.43879 0.2927,3.50116 0.2927,6.8341 -2e-4,3.83149 0.04,3.20302 -0.1019,5.90948 -0.071,1.35299 -0.1865,2.4742 -0.3649,3.24535 -0.089,0.38559 -0.1948,0.68379 -0.2946,0.86366 -0.1019,0.17974 -0.1763,0.21611 -0.1928,0.22096 -1.3829,0.37066 -2.993,1.02505 -4.3753,1.708 -1.3823,0.68279 -2.4973,1.3259 -3.0224,1.93807 -0.1075,0.13807 -0.143,0.33297 -0.069,0.49254 0.072,0.15879 0.2442,0.26767 0.4189,0.26796 l 9.9956,-7e-5 9.9929,-4e-5 c 0.1763,4.3e-4 0.3459,-0.10858 0.4196,-0.26717 0.072,-0.15858 0.045,-0.35958 -0.069,-0.49247 -0.5248,-0.61227 -1.6399,-1.25528 -3.0223,-1.9382 -1.3823,-0.68276 -2.9921,-1.33722 -4.3752,-1.70785 -0.02,-0.008 -0.091,-0.0409 -0.1907,-0.2209 -0.102,-0.18035 -0.2052,-0.47801 -0.2953,-0.86356 -0.1783,-0.77117 -0.2945,-1.89234 -0.3646,-3.24558 -0.141,-2.70637 -0.102,-2.07778 -0.102,-5.90942 0,-3.33178 0,-5.39338 0.2926,-6.83165 0.2862,-1.43825 0.8074,-2.26804 1.9745,-3.33893 0,-0.003 0,-0.008 0.02,-0.0124 2.6506,-2.65071 4.4937,-7.15119 5.7425,-11.38683 1.2485,-4.23566 1.88,-8.17993 1.9838,-9.794 0.2053,-3.20684 -0.5781,-11.00534 -0.5781,-11.00534 4e-4,-0.24084 -0.2195,-0.46058 -0.4607,-0.46058 h -21.9269 z"
       id="path4101"
       style="opacity:0.74089755999999984;fill:#000000;fill-opacity:0.21731448" />
    <path
       d="m -3368.107,424.9234 -14.2063,19.75025 9.4709,0 0,35.31947 -13.0052,0 0,2.40238 10.418,0 14.6453,0 10.418,0 0,-2.40238 -13.0052,0 0,-35.31947 9.4708,0 z"
       id="rect3930"
       style="opacity:0.74089755999999984;fill:#000000;fill-opacity:0.21731448" />
    <path
       d="m -3311.699,424.9249 c -0.4839,0.004 -0.9154,0.60292 -1.0183,1.46769 -15.5499,0.36495 -29.3196,10.01703 -32.6754,23.88816 1.0426,-2.20623 3.6079,-3.66653 6.4427,-3.68019 0.4637,-0.002 0.9354,0.035 1.408,0.11315 2.5736,0.426 4.6186,2.01225 5.3396,4.0793 l 0.2545,0.002 c 1.1831,-2.61305 4.4899,-4.20765 7.8852,-3.64561 2.4406,0.40398 4.4083,1.85064 5.2201,3.76189 h 0.057 c 0.8484,-2.39634 3.4339,-4.04229 6.3547,-4.15788 -0.011,5.54098 -0.02,13.29022 -0.011,18.80944 l -0.924,0.10692 c 0.1912,1.62598 -0.4947,5.58712 0.1697,9.25544 0.3323,1.83416 1.063,3.6992 2.5896,5.11014 1.5268,1.41095 3.7593,2.25768 6.7036,2.35708 l 0.098,0.002 0.1008,-0.009 c 3.9787,-0.3756 6.3805,-2.23105 7.3855,-4.4973 1.005,-2.26624 0.8266,-4.65256 0.8266,-6.37353 h -3.0736 c 0,1.84154 0.032,3.7862 -0.5626,5.129 -0.5892,1.32865 -1.5902,2.35161 -4.7708,2.67135 -2.365,-0.0964 -3.7333,-0.71745 -4.6198,-1.53682 -0.8997,-0.83145 -1.3952,-1.97661 -1.6532,-3.40048 -0.5156,-2.84772 0.1769,-6.38641 -0.1381,-9.06687 l -0.7071,0.0818 c -0.013,-5.48752 0,-13.08528 0.011,-18.57376 0.09,0.012 0.1799,0.0228 0.2703,0.0378 2.6132,0.43255 4.6808,2.06306 5.371,4.17673 h 0.2326 c 1.0203,-2.83874 4.4774,-4.62121 8.036,-4.03217 2.6042,0.43107 4.6672,2.05163 5.3647,4.15474 h 0.089 c 1.031,-2.82538 4.4807,-4.59451 8.0297,-4.00701 2.5927,0.42915 4.6487,2.03686 5.3553,4.12644 l 0.3394,0.002 c -2.4757,-12.23854 -13.2547,-21.89096 -27.1504,-24.31243 -1.8764,-0.32696 -3.7461,-0.51145 -5.5972,-0.56568 -0.084,-0.72651 -0.4058,-1.29745 -0.8203,-1.44254 -0.071,-0.0248 -0.141,-0.0352 -0.2105,-0.0345 z"
       id="path2985"
       style="opacity:0.74089755999999984;fill:#000000;fill-opacity:0.21731448" />
  </g>
  <path
     d="m 64,17 -2,-2 2,-1 z"
     id="path3028"
     style="fill:#1f0700;fill-opacity:0.13759861" />
  <path
     style="color:#000000;fill:#a1afbd;fill-opacity:1;fill-rule:nonzero;stroke:none;stroke-width:1;marker:none;visibility:visible;display:inline;overflow:visible;enable-background:accumulate"
     d="m 0,21 0,20 35,0 c 2.216,0 4,-1.784 4,-4 l 0,-12 c 0,-2.216 -1.784,-4 -4,-4 z m 21.28125,3.875 c 1.391581,1.2e-5 2.567417,0.324408 3.53125,0.96875 L 24.125,27.5 c -0.925929,-0.568538 -1.844508,-0.84374 -2.78125,-0.84375 -1.093784,10e-6 -1.954815,0.396958 -2.59375,1.1875 -0.633528,0.785146 -0.968753,1.829646 -0.96875,3.15625 -3e-6,1.375349 0.29438,2.466104 0.90625,3.21875 0.617275,0.752651 1.519149,1.125002 2.65625,1.125 0.996304,2e-6 1.988674,-0.251842 2.96875,-0.75 l 0.28125,1.71875 c -0.909686,0.541474 -2.036328,0.8125 -3.40625,0.8125 -1.738136,0 -3.138282,-0.562471 -4.15625,-1.65625 C 16.013277,34.374975 15.499999,32.865152 15.5,30.9375 c -10e-7,-1.830175 0.532459,-3.301634 1.59375,-4.40625 1.0667,-1.110011 2.465608,-1.656238 4.1875,-1.65625 z m -13.1875,0.15625 2.40625,0 4.3125,11.90625 -2.25,0 -1.1875,-3.34375 -4.15625,0 -1.1875,3.34375 -2.3125,0 z m 18.4375,0.03125 7.21875,0 -0.09375,1.71875 -4.90625,0 0,3.09375 4.65625,0 0,1.75 -4.65625,0 0,3.5625 5.09375,0 -0.0625,1.75 -7.25,0 z M 9.3125,27.09375 7.75,31.9375 l 3.0625,0 c -0.974659,-3.124298 -1.472931,-4.74086 -1.5,-4.84375 z"
     id="rect3833"
     inkscape:connector-curvature="0"
     sodipodi:nodetypes="ccssssccccccscsccssscccccccccccccccccccccccccccc" />
  <path
     d="M 1,63 1,0.5 0,1 0,62 z"
     id="path4299"
     style="fill:#ffffff;fill-opacity:0.35600706999999998;fill-rule:nonzero" />
  <path
     d="m 0,14 64,0 0,1 -64,0 z"
     id="path3878"
     style="fill:#ffffff;fill-rule:nonzero;fill-opacity:0.26678446" />
  <path
     d="M 0,17 2,15 0,14 z"
     id="path3028-3"
     style="fill:#ffffff;fill-opacity:0.35600706999999998" />
</svg>
