<?xml version="1.0" encoding="UTF-8" standalone="no"?>
<!-- Created with Inkscape (http://www.inkscape.org/) -->

<svg
   xmlns:dc="http://purl.org/dc/elements/1.1/"
   xmlns:cc="http://creativecommons.org/ns#"
   xmlns:rdf="http://www.w3.org/1999/02/22-rdf-syntax-ns#"
   xmlns:svg="http://www.w3.org/2000/svg"
   xmlns="http://www.w3.org/2000/svg"
   xmlns:xlink="http://www.w3.org/1999/xlink"
   xmlns:sodipodi="http://sodipodi.sourceforge.net/DTD/sodipodi-0.dtd"
   xmlns:inkscape="http://www.inkscape.org/namespaces/inkscape"
   version="1.1"
   width="64"
   height="64"
   id="svg13094"
   inkscape:version="0.48.3.1 r9886"
   sodipodi:docname="package-bz.svg">
  <sodipodi:namedview
     pagecolor="#ffffff"
     bordercolor="#666666"
     borderopacity="1"
     objecttolerance="10"
     gridtolerance="10"
     guidetolerance="10"
     inkscape:pageopacity="0"
     inkscape:pageshadow="2"
     inkscape:window-width="1920"
     inkscape:window-height="1033"
     id="namedview44"
     showgrid="true"
     inkscape:zoom="10.429825"
     inkscape:cx="14.110715"
     inkscape:cy="27.255226"
     inkscape:window-x="-10"
     inkscape:window-y="25"
     inkscape:window-maximized="1"
     inkscape:current-layer="svg13094"
     inkscape:snap-bbox="true"
     inkscape:bbox-paths="true"
     inkscape:bbox-nodes="true"
     inkscape:snap-bbox-edge-midpoints="true"
     inkscape:snap-bbox-midpoints="true"
     inkscape:object-paths="true"
     inkscape:snap-intersection-paths="true"
     inkscape:object-nodes="true"
     inkscape:snap-smooth-nodes="true"
     inkscape:snap-midpoints="true"
     inkscape:snap-object-midpoints="true"
     inkscape:snap-center="true">
    <inkscape:grid
       type="xygrid"
       id="grid3036" />
  </sodipodi:namedview>
  <defs
     id="defs11">
    <radialGradient
       cx="59.89941"
       cy="2.0516231"
       r="32"
       id="radialGradient3857-7"
       gradientUnits="userSpaceOnUse"
       gradientTransform="matrix(-2.298935e-8,1.2105557,-1.4259153,-2.7079188e-8,49.162732,-22.737782)">
      <stop
         id="stop3853-9"
         style="stop-color:#d5e8a4;stop-opacity:0.28918746;"
         offset="0" />
      <stop
         id="stop3855-3"
         style="stop-color:#d8eaa5;stop-opacity:0;"
         offset="1" />
    </radialGradient>
    <radialGradient
       cx="21.792179"
       cy="49.22028"
       r="16"
       id="radialGradient3849-3"
       xlink:href="#linearGradient3817-1"
       gradientUnits="userSpaceOnUse"
       gradientTransform="matrix(-1.9776652e-8,-1.4375,-1.4375,-1.329812e-5,94.8125,87.43807)" />
    <linearGradient
       id="linearGradient3817-1">
      <stop
         id="stop3819-9"
         style="stop-color:#000000;stop-opacity:0.1222009;"
         offset="0" />
      <stop
         id="stop3821-42"
         style="stop-color:#000000;stop-opacity:0;"
         offset="1" />
    </linearGradient>
    <radialGradient
       cx="23.236361"
       cy="39.32011"
       r="16"
       id="radialGradient3837-7"
       xlink:href="#linearGradient3817-1"
       gradientUnits="userSpaceOnUse"
       gradientTransform="matrix(-1.3019008e-5,-1.4052387,-1.4052387,0,93.472788,86.44508)" />
    <radialGradient
       cx="34.96587"
       cy="40.56699"
       r="16"
       id="radialGradient3841-5"
       xlink:href="#linearGradient3817-1"
       gradientUnits="userSpaceOnUse"
       gradientTransform="matrix(-2.096279e-8,-1.0659693,-2.725932,-3.7493971e-5,131.57524,70.22225)" />
    <radialGradient
       cx="43.7145"
       cy="28.35227"
       r="16"
       id="radialGradient3845-18"
       xlink:href="#linearGradient3817-1"
       gradientUnits="userSpaceOnUse"
       gradientTransform="matrix(-2.1712014e-5,-2.2165482,-2.2165484,0,97.970716,124.16221)" />
    <radialGradient
       cx="29.99848"
       cy="52.804661"
       r="16"
       id="radialGradient3823-2"
       xlink:href="#linearGradient3817-1"
       gradientUnits="userSpaceOnUse"
       gradientTransform="matrix(1.9776652e-8,-0.44005103,1.4375,-4.0708531e-6,-30.8125,22.174921)" />
    <radialGradient
       cx="29.0648"
       cy="42.199619"
       r="16"
       id="radialGradient3829-4"
       xlink:href="#linearGradient3817-1"
       gradientUnits="userSpaceOnUse"
       gradientTransform="matrix(1.9776659e-8,-0.44005103,1.4375,-4.0708531e-6,-30.8125,22.174921)" />
    <radialGradient
       inkscape:collect="always"
       xlink:href="#linearGradient3817-1"
       id="radialGradient4186"
       gradientUnits="userSpaceOnUse"
       gradientTransform="matrix(2.096279e-8,-0.32631713,2.725932,-1.1477746e-5,-67.57524,16.90477)"
       cx="46.159752"
       cy="36.935829"
       r="16" />
    <radialGradient
       cx="47.140202"
       cy="17.89163"
       r="16"
       id="radialGradient3827-9"
       xlink:href="#linearGradient3817-1"
       gradientUnits="userSpaceOnUse"
       gradientTransform="matrix(2.1712014e-5,-0.67853516,2.2165484,0,-33.970716,33.417004)" />
  </defs>
  <metadata
     id="metadata13099">
    <rdf:RDF>
      <cc:Work
         rdf:about="">
        <dc:format>image/svg+xml</dc:format>
        <dc:type
           rdf:resource="http://purl.org/dc/dcmitype/StillImage" />
        <dc:title />
      </cc:Work>
    </rdf:RDF>
  </metadata>
  <path
     inkscape:connector-curvature="0"
     d="M 0,1 2,0 62,0 64,1 64,16 0,16 z"
     id="path3029"
     style="fill:#b3be67;fill-opacity:1;fill-rule:nonzero"
     sodipodi:nodetypes="ccccccc" />
  <path
     inkscape:connector-curvature="0"
     d="m 0,15 64,0 0,47 -2,2 -60,0 -2,-2 z"
     id="path3809"
     style="color:#000000;fill:#828858;fill-opacity:1;fill-rule:nonzero;stroke-width:1;stroke-linecap:butt;stroke-linejoin:miter;stroke-miterlimit:4;stroke-opacity:1;stroke-dasharray:none;stroke-dashoffset:0;marker:none;visibility:visible;display:inline;overflow:visible;enable-background:accumulate"
     sodipodi:nodetypes="ccccccc" />
  <path
     inkscape:connector-curvature="0"
     d="m 0,15 64,0 0,47 -2,2 -60,0 -2,-2 z"
     id="path3831"
     style="fill:url(#radialGradient3857-7);fill-rule:nonzero"
     sodipodi:nodetypes="ccccccc" />
  <path
     inkscape:connector-curvature="0"
     d="m 0,62 2,2 30,0 0,-24 -32,0 z"
     id="path3847"
     style="fill:url(#radialGradient3849-3);fill-rule:nonzero"
     sodipodi:nodetypes="cccccc" />
  <path
     inkscape:connector-curvature="0"
     d="m 64,62 -2,2 -30,0 0,-24 32,0 z"
     id="path3835"
     style="fill:url(#radialGradient3837-7);fill-rule:nonzero"
     sodipodi:nodetypes="cccccc" />
  <path
     inkscape:connector-curvature="0"
     d="m 0,15 32,0 0,25 -32,0 z"
     id="path3839"
     style="fill:url(#radialGradient3841-5);fill-rule:nonzero"
     sodipodi:nodetypes="ccccc" />
  <path
     inkscape:connector-curvature="0"
     d="m 64,15 -32,0 0,25 32,0 z"
     id="path3843"
     style="fill:url(#radialGradient3845-18);fill-rule:nonzero"
     sodipodi:nodetypes="ccccc" />
  <path
     inkscape:connector-curvature="0"
     d="M 63,0.5 63,63 1,63 2,64 62,64 64,62 64,1 z"
     id="path3807"
     style="fill:#000000;fill-opacity:0.11130587;fill-rule:nonzero"
     sodipodi:nodetypes="cccccccc" />
  <path
     inkscape:connector-curvature="0"
     d="m 64,15 -32,0 0,-7.346939 32,0 z"
     id="path3813"
     style="fill:url(#radialGradient3823-2);fill-rule:nonzero"
     sodipodi:nodetypes="ccccc" />
  <path
     inkscape:connector-curvature="0"
     d="m 0,15 32,0 0,-7.346939 -32,0 z"
     id="path3811"
     style="fill:url(#radialGradient3829-4);fill-rule:nonzero"
     sodipodi:nodetypes="ccccc" />
  <path
     inkscape:connector-curvature="0"
     d="m 64,1 -2,-1 -30,0 0,7.653061 32,0 z"
     id="path3815"
     style="fill:url(#radialGradient4186);fill-rule:nonzero"
     sodipodi:nodetypes="cccccc" />
  <path
     inkscape:connector-curvature="0"
     d="m 0,1 2,-1 30,0 0,7.653061 -32,0 z"
     id="path3960"
     style="fill:url(#radialGradient3827-9);fill-rule:nonzero"
     sodipodi:nodetypes="cccccc" />
  <path
     inkscape:connector-curvature="0"
     d="m 38.99998,56.20001 0,-2.80001 2.799985,0 2.800022,0 0,2.80001 0,2.79999 -2.800022,0 -2.799985,0 z m 4.8,0 0,-2.00001 -2.000015,0 -1.999979,0 0,2.00001 0,1.99999 1.999979,0 2.000015,0 z m -3.200005,0 0,-1.20001 1.19999,0 1.20001,0 0,1.20001 0,1.2 -1.20001,0 -1.19999,0 z m 4.800019,1.2 0,-1.60001 0.399986,0 0.400002,0 0,-0.4 0,-0.4 0.400005,0 0.400002,0 0,-0.79999 0,-0.8 -0.800007,0 -0.799988,0 0,-1.20001 0,-1.19999 0.399986,0 0.400002,0 0,-0.40001 0,-0.39999 -0.799988,0 -0.800007,0 0,0.39999 0,0.40001 -0.400002,0 -0.400005,0 0,0.39999 0,0.40001 0.400005,0 0.400002,0 0,0.39999 0,0.40001 -1.19999,0 -1.200012,0 0,-0.40001 0,-0.39999 -0.40002,0 -0.399984,0 0,0.39999 0,0.40001 -0.400004,0 -0.400002,0 0,-0.8 0,-0.8 -0.400004,0 -0.399985,0 0,0.39999 0,0.40001 -0.400003,0 -0.400003,0 0,-0.40001 0,-0.39999 0.400003,0 0.400003,0 0,-1.20001 0,-1.19999 -0.400003,0 -0.400003,0 0,-0.8 0,-0.8 0.400003,0 0.400003,0 0,-0.40001 0,-0.39999 -0.400003,0 -0.400003,0 0,-0.40001 0,-0.4 1.599995,0 1.60001,0 0,0.4 0,0.40001 0.79999,0 0.800005,0 0,-0.40001 0,-0.4 0.400005,0 0.400002,0 0,0.4 0,0.40001 -0.400002,0 -0.400005,0 0,0.39999 0,0.40001 0.400005,0 0.400002,0 0,0.39999 0,0.40001 -0.400002,0 -0.400005,0 0,0.39999 0,0.40001 0.400005,0 0.400002,0 0,0.39999 0,0.40001 0.400005,0 0.400002,0 0,-0.40001 0,-0.39999 0.399986,0 0.400002,0 0,-0.40001 0,-0.39999 -0.400002,0 -0.399986,0 0,-1.20001 0,-1.2 0.399986,0 0.400002,0 0,0.80001 0,0.8 0.400005,0 0.400002,0 0,-2.00001 0,-2 0.400003,0 0.399985,0 0,1.2 0,1.2 0.800007,0 0.800007,0 0,0.4 0,0.40001 -0.400004,0 -0.400003,0 0,0.39999 0,0.40001 0.800007,0 0.800005,0 0,-2.80001 0,-2.8 -0.400002,0 -0.400003,0 0,0.8 0,0.8 -0.400004,0 -0.400003,0 0,-0.8 0,-0.8 0.400003,0 0.400004,0 0,-0.40001 0,-0.39999 -0.800007,0 -0.800007,0 0,0.8 0,0.8 -0.799988,0 -0.800007,0 0,0.4 0,0.4 -0.400002,0 -0.399986,0 0,-1.20001 0,-1.19999 0.399986,0 0.400002,0 0,-0.40001 0,-0.39999 -0.400002,0 -0.399986,0 0,-0.40001 0,-0.39999 0.399986,0 0.400002,0 0,0.39999 0,0.40001 1.20001,0 1.199992,0 0,-0.40001 0,-0.39999 0.400003,0 0.400004,0 0,0.8 0,0.8 0.400003,0 0.400002,0 0,-0.40001 0,-0.39999 0.399986,0 0.400002,0 0,0.39999 0,0.40001 -0.400002,0 -0.399986,0 0,0.39999 0,0.40001 0.399986,0 0.400002,0 0,0.39999 0,0.40001 0.400004,0 0.400003,0 0,-1.20001 0,-1.19999 0.399985,0 0.400003,0 0,2.4 0,2.4 -0.400003,0 -0.399985,0 0,0.4 0,0.4 0.799988,0 0.800007,0 0,0.4 0,0.40001 -0.400003,0 -0.400004,0 0,0.39999 0,0.40001 0.800007,0 0.799988,0 0,-0.40001 0,-0.39999 0.400004,0 0.400022,0 0,-0.40001 0,-0.4 1.200008,0 1.199993,0 0,1.2 0,1.20001 0.799989,0 0.800005,0 0,1.19999 0,1.20001 -0.400003,0 -0.400002,0 0,0.39999 0,0.40001 0.400002,0 0.400003,0 0,0.8 0,0.8 -0.800005,0 -0.799989,0 0,0.39999 0,0.40001 0.799989,0 0.800005,0 0,0.39999 0,0.40001 -1.199992,0 -1.200008,0 0,-0.8 0,-0.8 -0.399987,0 -0.400039,0 0,1.6 0,1.6 0.400039,0 0.399987,0 0,0.4 0,0.4 -0.399987,0 -0.400039,0 0,0.4 0,0.4 0.800026,0 0.800006,0 0,-1.2 0,-1.20001 0.799989,0 0.79998,0 0,1.60001 -0.800005,0 0,0.8 -0.800059,0 0,0.79999 1.599989,0 0,0.8 -3.200021,0 0,-1.59999 -0.799969,0 0,1.59999 -0.800026,0 0,-0.8 -1.599995,0 0,-2.39999 -0.799988,0 0,-0.80001 -0.800007,0 0,0.80001 -0.799988,0 0,0.8 1.599995,0 0,0.8 -0.799995,0 0,0.79999 -0.799988,0 0,0.8 -1.600012,0 0,-0.8 0.800007,0 0,-2.39999 -0.800004,0 0,-0.80001 0.800007,0 0,0.80001 0.800005,0 0,-1.6 -0.800005,0 0,-0.8 -1.60002,0 0,1.59999 -0.799988,0 0,1.60001 1.599995,0 0,0.8 -0.800006,0 0,0.79999 -0.799988,0 0,0.8 -1.599995,0 0,-1.59999 z m 9.6,-1.2 0,-0.40001 -0.800026,0 0,0.80001 0.800026,0 z m 0,-2.40001 0,-1.2 -2.400021,0 0,2.4 2.400019,0 z m -1.600014,0 0,-0.4 0.400002,0 0.399986,0 0,0.4 0,0.4 -0.399986,0 -0.400002,0 z m -1.599995,-0.8 0,-1.19999 -0.800007,0 -0.799988,0 0,-0.40001 0,-0.39999 0.799988,0 0.800007,0 0,-0.40001 0,-0.39999 0.399985,0 0.400003,0 0,-0.80002 0,-0.79998 -0.400003,0 -0.399985,0 0,-0.40001 0,-0.39999 0.399985,0 0.400003,0 0,-0.40001 0,-0.39999 -0.400003,0 -0.399985,0 0,-0.8 0,-0.80001 -0.400003,0 -0.400004,0 0,1.2 0,1.20001 -0.400002,0 -0.399986,0 0,0.39999 0,0.40001 0.799988,0 0.800007,0 0,0.79998 0,0.80002 -0.800007,0 -0.799988,0 0,-0.40001 0,-0.40001 -0.400002,0 -0.400003,0 0,-0.39999 0,-0.39999 -0.400004,0 -0.400003,0 0,-0.40001 0,-0.39999 -0.400002,0 -0.400005,0 0,0.8 0,0.79998 -0.399985,0 -0.400003,0 0,0.8 0,0.80002 0.799988,0 0.800007,0 0,0.39999 0,0.39999 -0.400002,0 -0.400005,0 0,0.40001 0,0.4 -0.399985,0 -0.400003,0 0,-0.4 0,-0.40001 -0.400002,0 -0.400005,0 0,0.40001 0,0.4 0.400005,0 0.400002,0 0,0.4 0,0.4 0.400003,0 0.399985,0 0,-0.4 0,-0.4 0.800007,0 0.800007,0 0,0.4 0,0.4 0.800005,0 0.799988,0 0,0.4 0,0.4 0.400004,0 0.400003,0 z m -2.4,-0.8 0,-0.39999 0.400003,0 0.400002,0 0,0.39999 0,0.40001 -0.400002,0 -0.400003,0 z m -0.800007,-1.99999 0,-0.8 0.400003,0 0.400004,0 0,0.39999 0,0.40001 0.400003,0 0.400002,0 0,0.39999 0,0.40001 -0.800005,0 -0.800007,0 z m 5.59999,1.19999 0,-0.39999 0.400004,0 0.400022,0 0,0.39999 0,0.40001 1.200008,0 1.199993,0 0,-0.8 0,-0.8 -2.000018,0 -1.999997,0 0,0.8 0,0.8 0.400002,0 0.399986,0 z m -12.79999,-0.8 0,-0.39999 1.599994,0 1.600012,0 0,-0.40001 0,-0.39999 -0.400002,0 -0.400005,0 0,-0.40001 0,-0.39999 -0.399983,0 -0.400022,0 0,-0.40001 0,-0.39999 0.400022,0 0.399983,0 0,-0.40001 0,-0.39999 -0.800005,0 -0.79999,0 0,-0.40001 0,-0.39999 -0.40002,0 -0.399984,0 0,0.39999 0,0.40001 -0.800006,0 -0.799989,0 0,0.39999 0,0.40001 0.799989,0 0.800006,0 0,0.8 0,0.79998 -0.400004,0 -0.400002,0 0,0.80002 0,0.8 0.400002,0 0.400004,0 z m 0,-3.2 0,-0.39999 0.399984,0 0.40002,0 0,0.39999 0,0.40001 -0.40002,0 -0.399984,0 z m 16.80001,1.6 0,-0.39999 -0.399987,0 -0.400002,0 0,0.39999 0,0.40001 0.400002,0 0.399987,0 z m -4.000016,-0.8 0,-0.39999 -0.399986,0 -0.400002,0 0,0.39999 0,0.40001 0.400002,0 0.399986,0 z m 1.599995,-0.39999 0,-0.8 0.400039,0 0.399987,0 0,-0.40001 0,-0.39999 -0.800026,0 -0.799969,0 0,1.19999 0,1.20001 0.399983,0 0.399986,0 z m -4,-4.00001 0,-0.8 -0.80001,0 0,1.6 0.800007,0 z m 6.399999,2 0,-0.4 0.400002,0 0.400003,0 0,0.4 0,0.40001 -0.400003,0 -0.400002,0 z m -19.20001,-4.00001 0,-2.79999 2.799985,0 2.800022,0 0,2.79999 0,2.80001 -2.800022,0 -2.799985,0 z m 4.8,0 0,-1.99999 -2.000015,0 -1.999979,0 0,1.99999 0,2.00001 1.999979,0 2.000015,0 z m -3.200005,0 0,-1.19999 1.19999,0 1.20001,0 0,1.19999 0,1.20001 -1.20001,0 -1.19999,0 z m 4.80002,2.40001 0,-0.4 0.799988,0 0,0.8 -0.799988,0 z m 3.19999,0 0,-0.4 0.400003,0 0.400004,0 0,0.4 0,0.4 -0.400004,0 -0.400003,0 z m 4.800002,-2.40001 0,-2.79999 2.800022,0 2.79999,0 0,5.6 -5.600009,0 z m 4.800004,0 0,-1.99999 -1.999982,0 -2.000034,0 0,1.99999 0,2.00001 2.000034,0 1.999982,0 z m -3.19999,0 0,-1.19999 1.200008,0 1.199993,0 0,1.19999 0,1.20001 -1.199993,0 -1.200008,0 z"
     id="path3108"
     style="fill:#32381a;fill-opacity:0.25638768"
     sodipodi:nodetypes="ccccccccccccccccccccccccccccccccccccccccccccccccccccccccccccccccccccccccccccccccccccccccccccccccccccccccccccccccccccccccccccccccccccccccccccccccccccccccccccccccccccccccccccccccccccccccccccccccccccccccccccccccccccccccccccccccccccccccccccccccccccccccccccccccccccccccccccccccccccccccccccccccccccccccccccccccccccccccccccccccccccccccccccccccccccccccccccccccccccccccccccccccccccccccccccccccccccccccccccccccccccccccccccccccccccccccccccccccccccccccccccccccccccccccccccccccccccccccccccccccccccccccccccccccccccccccccccccccccccccccccccccccccccccccccccccccccccccccccccccccccccccccccccccccccccccccccccccccccccccccccccccccccccccccccccccccccccccccccccccccccccccccccccccccccc" />
  <g
     transform="matrix(0.19352967,0,0,0.19352967,665.8856,-34.235041)"
     id="g3964"
     style="fill:#32381a;fill-opacity:0.25638768;fill-rule:nonzero">
    <path
       inkscape:connector-curvature="0"
       d="m -3413.832,424.9234 c -0.2259,1.3e-4 -0.4362,0.18988 -0.4586,0.41459 0,0 -0.7862,7.84501 -0.5804,11.05104 0.1031,1.6188 0.7646,5.58629 2.0267,9.83478 1.2623,4.24849 3.1009,8.7474 5.6972,11.34366 -2e-4,1.2e-4 0.02,0.0145 0.02,0.0145 1.1678,1.07005 1.69,1.89795 1.9766,3.33668 0.2864,1.43879 0.2927,3.50116 0.2927,6.8341 -2e-4,3.83149 0.04,3.20302 -0.1019,5.90948 -0.071,1.35299 -0.1865,2.4742 -0.3649,3.24535 -0.089,0.38559 -0.1948,0.68379 -0.2946,0.86366 -0.1019,0.17974 -0.1763,0.21611 -0.1928,0.22096 -1.3829,0.37066 -2.993,1.02505 -4.3753,1.708 -1.3823,0.68279 -2.4973,1.3259 -3.0224,1.93807 -0.1075,0.13807 -0.143,0.33297 -0.069,0.49254 0.072,0.15879 0.2442,0.26767 0.4189,0.26796 l 9.9956,-7e-5 9.9929,-4e-5 c 0.1763,4.3e-4 0.3459,-0.10858 0.4196,-0.26717 0.072,-0.15858 0.045,-0.35958 -0.069,-0.49247 -0.5248,-0.61227 -1.6399,-1.25528 -3.0223,-1.9382 -1.3823,-0.68276 -2.9921,-1.33722 -4.3752,-1.70785 -0.02,-0.008 -0.091,-0.0409 -0.1907,-0.2209 -0.102,-0.18035 -0.2052,-0.47801 -0.2953,-0.86356 -0.1783,-0.77117 -0.2945,-1.89234 -0.3646,-3.24558 -0.141,-2.70637 -0.102,-2.07778 -0.102,-5.90942 0,-3.33178 0,-5.39338 0.2926,-6.83165 0.2862,-1.43825 0.8074,-2.26804 1.9745,-3.33893 0,-0.003 0,-0.008 0.02,-0.0124 2.6506,-2.65071 4.4937,-7.15119 5.7425,-11.38683 1.2485,-4.23566 1.88,-8.17993 1.9838,-9.794 0.2053,-3.20684 -0.5781,-11.00534 -0.5781,-11.00534 4e-4,-0.24084 -0.2195,-0.46058 -0.4607,-0.46058 h -21.9269 z"
       id="path4101"
       style="opacity:0.74089755999999984;fill:#32381a;fill-opacity:0.25638768" />
    <path
       inkscape:connector-curvature="0"
       d="m -3368.107,424.9234 -14.2063,19.75025 9.4709,0 0,35.31947 -13.0052,0 0,2.40238 10.418,0 14.6453,0 10.418,0 0,-2.40238 -13.0052,0 0,-35.31947 9.4708,0 z"
       id="rect3930"
       style="opacity:0.74089755999999984;fill:#32381a;fill-opacity:0.25638768" />
    <path
       inkscape:connector-curvature="0"
       d="m -3311.699,424.9249 c -0.4839,0.004 -0.9154,0.60292 -1.0183,1.46769 -15.5499,0.36495 -29.3196,10.01703 -32.6754,23.88816 1.0426,-2.20623 3.6079,-3.66653 6.4427,-3.68019 0.4637,-0.002 0.9354,0.035 1.408,0.11315 2.5736,0.426 4.6186,2.01225 5.3396,4.0793 l 0.2545,0.002 c 1.1831,-2.61305 4.4899,-4.20765 7.8852,-3.64561 2.4406,0.40398 4.4083,1.85064 5.2201,3.76189 h 0.057 c 0.8484,-2.39634 3.4339,-4.04229 6.3547,-4.15788 -0.011,5.54098 -0.02,13.29022 -0.011,18.80944 l -0.924,0.10692 c 0.1912,1.62598 -0.4947,5.58712 0.1697,9.25544 0.3323,1.83416 1.063,3.6992 2.5896,5.11014 1.5268,1.41095 3.7593,2.25768 6.7036,2.35708 l 0.098,0.002 0.1008,-0.009 c 3.9787,-0.3756 6.3805,-2.23105 7.3855,-4.4973 1.005,-2.26624 0.8266,-4.65256 0.8266,-6.37353 h -3.0736 c 0,1.84154 0.032,3.7862 -0.5626,5.129 -0.5892,1.32865 -1.5902,2.35161 -4.7708,2.67135 -2.365,-0.0964 -3.7333,-0.71745 -4.6198,-1.53682 -0.8997,-0.83145 -1.3952,-1.97661 -1.6532,-3.40048 -0.5156,-2.84772 0.1769,-6.38641 -0.1381,-9.06687 l -0.7071,0.0818 c -0.013,-5.48752 0,-13.08528 0.011,-18.57376 0.09,0.012 0.1799,0.0228 0.2703,0.0378 2.6132,0.43255 4.6808,2.06306 5.371,4.17673 h 0.2326 c 1.0203,-2.83874 4.4774,-4.62121 8.036,-4.03217 2.6042,0.43107 4.6672,2.05163 5.3647,4.15474 h 0.089 c 1.031,-2.82538 4.4807,-4.59451 8.0297,-4.00701 2.5927,0.42915 4.6487,2.03686 5.3553,4.12644 l 0.3394,0.002 c -2.4757,-12.23854 -13.2547,-21.89096 -27.1504,-24.31243 -1.8764,-0.32696 -3.7461,-0.51145 -5.5972,-0.56568 -0.084,-0.72651 -0.4058,-1.29745 -0.8203,-1.44254 -0.071,-0.0248 -0.141,-0.0352 -0.2105,-0.0345 z"
       id="path2985"
       style="opacity:0.74089755999999984;fill:#32381a;fill-opacity:0.25638768" />
  </g>
  <path
     inkscape:connector-curvature="0"
     d="m 64,17 -2,-2 2,-1 z"
     id="path3028"
     style="fill:#1f0700;fill-opacity:0.13759861"
     sodipodi:nodetypes="cccc" />
  <path
     inkscape:connector-curvature="0"
     d="M 1,63 1,0.5 0,1 0,62 z"
     id="path4299"
     style="fill:#ffffff;fill-opacity:0.5574205;fill-rule:nonzero"
     sodipodi:nodetypes="ccccc" />
  <path
     inkscape:connector-curvature="0"
     d="m 0,14 64,0 0,1 -64,0 z"
     id="path3878"
     style="fill:#ffffff;fill-opacity:0.35215053;fill-rule:nonzero"
     sodipodi:nodetypes="ccccc" />
  <path
     inkscape:connector-curvature="0"
     d="M 0,17 2,15 0,14 z"
     id="path3028-3"
     style="fill:#ffffff;fill-opacity:0.5574205"
     sodipodi:nodetypes="cccc" />
  <path
     id="path3077"
     d="m 5,20 0,14 5.1875,0 c 1.650049,0 2.944846,-0.336824 3.875,-1.03125 0.936507,-0.694424 1.406238,-1.712476 1.40625,-3.03125 -1.2e-5,-0.872806 -0.228809,-1.595003 -0.6875,-2.1875 -0.458714,-0.598855 -1.133571,-1.008503 -2,-1.21875 0.350388,-0.108297 0.676284,-0.277616 0.9375,-0.46875 0.261195,-0.197489 0.447209,-0.389874 0.59375,-0.59375 0.146519,-0.203859 0.25455,-0.407777 0.34375,-0.65625 0.08918,-0.254826 0.16201,-0.489993 0.1875,-0.6875 0.02548,-0.197487 0.03124,-0.389872 0.03125,-0.59375 C 14.874988,22.269828 14.411024,21.354037 13.5,20.8125 12.588955,20.270989 11.228918,20.000014 9.375,20 L 5,20 z m 12.0625,0 0,2.0625 7.125,0 -7.375,10.28125 0,1.65625 10.46875,0 0.03125,-2.0625 -7.3125,0 7.25,-10.0625 0,-1.875 -10.1875,0 z m -9.46875,1.90625 1.6875,0 c 1.076671,1.2e-5 1.853185,0.132314 2.34375,0.40625 0.496919,0.273959 0.749991,0.76736 0.75,1.5 -9e-6,1.306038 -0.848743,1.968758 -2.5625,1.96875 l -2.21875,0 0,-3.875 z m 0,5.6875 2.1875,0 c 1.038445,7e-6 1.784314,0.155979 2.28125,0.5 0.496919,0.344033 0.74999,0.903887 0.75,1.6875 -10e-6,1.554496 -0.981045,2.343752 -2.96875,2.34375 l -2.25,0 0,-4.53125 z"
     style="font-size:19.57133102px;font-style:normal;font-variant:normal;font-weight:bold;font-stretch:normal;line-height:125%;letter-spacing:0px;word-spacing:0px;color:#000000;fill:#ffffff;fill-opacity:0.55565371;fill-rule:nonzero;stroke:none;stroke-width:1;marker:none;visibility:visible;font-family:Oxygen;-inkscape-font-specification:Sans Bold"
     inkscape:connector-curvature="0" />
  <path
     style="font-size:19.57133101999999880px;font-style:normal;font-variant:normal;font-weight:bold;font-stretch:normal;line-height:125%;letter-spacing:0px;word-spacing:0px;color:#000000;fill:#000000;fill-opacity:0.20946542000000001;fill-rule:nonzero;stroke:none;stroke-width:1;marker:none;visibility:visible;font-family:Oxygen;-inkscape-font-specification:Sans Bold;display:inline;overflow:visible;enable-background:accumulate"
     d="M 27.25 21 L 27.25 21.875 L 20 31.9375 L 21.71875 31.9375 L 28.25 22.875 L 28.25 21 L 27.25 21 z M 14.5 21.8125 C 14.75916 22.283146 14.874994 22.861371 14.875 23.53125 C 14.87499 23.735128 14.86923 23.927513 14.84375 24.125 C 14.81826 24.322507 14.74543 24.557674 14.65625 24.8125 C 14.56705 25.060973 14.459019 25.264891 14.3125 25.46875 C 14.165959 25.672626 13.979945 25.865011 13.71875 26.0625 C 13.457534 26.253634 13.131638 26.422953 12.78125 26.53125 C 13.389128 26.678757 13.901702 26.940962 14.3125 27.28125 C 14.455302 27.206668 14.599193 27.149981 14.71875 27.0625 C 14.979945 26.865011 15.165959 26.672626 15.3125 26.46875 C 15.459019 26.264891 15.56705 26.060973 15.65625 25.8125 C 15.74543 25.557674 15.81826 25.322507 15.84375 25.125 C 15.86923 24.927513 15.87499 24.735128 15.875 24.53125 C 15.874988 23.269828 15.411024 22.354037 14.5 21.8125 z M 7.59375 21.90625 L 7.59375 25.78125 L 8.59375 25.78125 L 8.59375 22.90625 L 10.28125 22.90625 C 11.113701 22.906259 11.769846 22.993758 12.25 23.15625 C 12.13681 22.780307 11.951982 22.49277 11.625 22.3125 C 11.134435 22.038564 10.357921 21.906262 9.28125 21.90625 L 7.59375 21.90625 z M 18.0625 22.0625 L 18.0625 23.0625 L 23.46875 23.0625 L 24.1875 22.0625 L 18.0625 22.0625 z M 7.59375 27.59375 L 7.59375 32.125 L 8.59375 32.125 L 8.59375 28.59375 L 10.78125 28.59375 C 11.560084 28.593755 12.188152 28.685999 12.65625 28.875 C 12.532046 28.553204 12.336218 28.283254 12.0625 28.09375 C 11.565564 27.749729 10.819695 27.593757 9.78125 27.59375 L 7.59375 27.59375 z M 14.96875 28 C 15.3091 28.541748 15.46874 29.185544 15.46875 29.9375 C 15.468738 31.256274 14.999007 32.274326 14.0625 32.96875 C 13.132346 33.663176 11.837549 34 10.1875 34 L 6 34 L 6 35 L 11.1875 35 C 12.837549 35 14.132346 34.663176 15.0625 33.96875 C 15.999007 33.274326 16.468738 32.256274 16.46875 30.9375 C 16.468738 30.064694 16.239941 29.342497 15.78125 28.75 C 15.556865 28.457063 15.293697 28.201197 14.96875 28 z M 27.3125 32.9375 L 27.28125 34 L 17.8125 34 L 17.8125 35 L 28.28125 35 L 28.3125 32.9375 L 27.3125 32.9375 z "
     id="path3059" />
</svg>
