<?xml version="1.0" encoding="UTF-8" standalone="no"?>
<!-- Created with Inkscape (http://www.inkscape.org/) -->

<svg
   xmlns:dc="http://purl.org/dc/elements/1.1/"
   xmlns:cc="http://creativecommons.org/ns#"
   xmlns:rdf="http://www.w3.org/1999/02/22-rdf-syntax-ns#"
   xmlns:svg="http://www.w3.org/2000/svg"
   xmlns="http://www.w3.org/2000/svg"
   xmlns:xlink="http://www.w3.org/1999/xlink"
   xmlns:sodipodi="http://sodipodi.sourceforge.net/DTD/sodipodi-0.dtd"
   xmlns:inkscape="http://www.inkscape.org/namespaces/inkscape"
   version="1.1"
   width="64"
   height="64"
   id="svg13094"
   inkscape:version="0.48.3.1 r9886"
   sodipodi:docname="package-java.svg">
  <sodipodi:namedview
     pagecolor="#ffffff"
     bordercolor="#666666"
     borderopacity="1"
     objecttolerance="10"
     gridtolerance="10"
     guidetolerance="10"
     inkscape:pageopacity="0"
     inkscape:pageshadow="2"
     inkscape:window-width="1920"
     inkscape:window-height="1033"
     id="namedview44"
     showgrid="false"
     inkscape:zoom="7.375"
     inkscape:cx="32.328219"
     inkscape:cy="31.51563"
     inkscape:window-x="-10"
     inkscape:window-y="25"
     inkscape:window-maximized="1"
     inkscape:current-layer="svg13094"
     inkscape:snap-global="true">
    <inkscape:grid
       type="xygrid"
       id="grid3800" />
  </sodipodi:namedview>
  <defs
     id="defs11">
    <linearGradient
       id="linearGradient3817">
      <stop
         id="stop3819"
         style="stop-color:#11467b;stop-opacity:0.14715292;"
         offset="0" />
      <stop
         id="stop3821"
         style="stop-color:#1c2834;stop-opacity:0;"
         offset="1" />
    </linearGradient>
    <radialGradient
       cx="29.99848"
       cy="52.804661"
       r="16"
       id="radialGradient3823"
       xlink:href="#linearGradient3817"
       gradientUnits="userSpaceOnUse"
       gradientTransform="matrix(1.9776652e-8,-0.44005103,1.4375,-4.0708531e-6,-30.8125,22.174921)" />
    <radialGradient
       cx="46.159752"
       cy="36.935829"
       r="16"
       id="radialGradient3825"
       xlink:href="#linearGradient3817"
       gradientUnits="userSpaceOnUse"
       gradientTransform="matrix(2.096279e-8,-0.32631713,2.725932,-1.1477746e-5,-67.57524,16.90477)" />
    <radialGradient
       cx="47.140202"
       cy="17.89163"
       r="16"
       id="radialGradient3827"
       xlink:href="#linearGradient3817"
       gradientUnits="userSpaceOnUse"
       gradientTransform="matrix(2.1712014e-5,-0.67853516,2.2165484,0,-33.970716,33.417004)" />
    <radialGradient
       cx="29.0648"
       cy="42.199619"
       r="16"
       id="radialGradient3829"
       xlink:href="#linearGradient3817"
       gradientUnits="userSpaceOnUse"
       gradientTransform="matrix(1.9776659e-8,-0.44005103,1.4375,-4.0708531e-6,-30.8125,22.174921)" />
    <radialGradient
       cx="23.236361"
       cy="39.32011"
       r="16"
       id="radialGradient3837"
       xlink:href="#linearGradient3817"
       gradientUnits="userSpaceOnUse"
       gradientTransform="matrix(-1.3019008e-5,-1.4052387,-1.4052387,0,93.472788,86.44508)" />
    <radialGradient
       cx="34.96587"
       cy="40.56699"
       r="16"
       id="radialGradient3841"
       xlink:href="#linearGradient3817"
       gradientUnits="userSpaceOnUse"
       gradientTransform="matrix(-2.096279e-8,-1.0659693,-2.725932,-3.7493971e-5,131.57524,70.22225)" />
    <radialGradient
       cx="43.7145"
       cy="28.35227"
       r="16"
       id="radialGradient3845"
       xlink:href="#linearGradient3817"
       gradientUnits="userSpaceOnUse"
       gradientTransform="matrix(-2.1712014e-5,-2.2165482,-2.2165484,0,97.970716,124.16221)" />
    <radialGradient
       cx="21.792179"
       cy="49.22028"
       r="16"
       id="radialGradient3849"
       xlink:href="#linearGradient3817"
       gradientUnits="userSpaceOnUse"
       gradientTransform="matrix(-1.9776652e-8,-1.4375,-1.4375,-1.329812e-5,94.8125,87.43807)" />
    <radialGradient
       cx="59.89941"
       cy="2.0516231"
       r="32"
       id="radialGradient3857"
       gradientUnits="userSpaceOnUse"
       gradientTransform="matrix(-2.298935e-8,1.2105557,-1.4259153,-2.7079188e-8,49.162732,-22.737782)">
      <stop
         id="stop3853"
         style="stop-color:#ffffff;stop-opacity:0.16418876;"
         offset="0" />
      <stop
         id="stop3855"
         style="stop-color:#ffffff;stop-opacity:0;"
         offset="1" />
    </radialGradient>
    <radialGradient
       inkscape:collect="always"
       xlink:href="#linearGradient3094"
       id="radialGradient3886"
       cx="30.739782"
       cy="17.037395"
       fx="30.739782"
       fy="17.037395"
       r="32"
       gradientTransform="matrix(6.8856667e-8,1.5625001,-1.4375,6.3348129e-8,57.491254,-34.030912)"
       gradientUnits="userSpaceOnUse" />
    <linearGradient
       id="linearGradient3094">
      <stop
         offset="0"
         style="stop-color:#bdc4cf;stop-opacity:1;"
         id="stop3096" />
      <stop
         offset="1"
         style="stop-color:#a1a8ba;stop-opacity:1;"
         id="stop3104" />
    </linearGradient>
  </defs>
  <metadata
     id="metadata13099">
    <rdf:RDF>
      <cc:Work
         rdf:about="">
        <dc:format>image/svg+xml</dc:format>
        <dc:type
           rdf:resource="http://purl.org/dc/dcmitype/StillImage" />
        <dc:title />
      </cc:Work>
    </rdf:RDF>
  </metadata>
  <path
     d="M 0,1 2,0 62,0 64,1 64,16 0,16 z"
     id="path3029"
     style="fill:#e8eef0;fill-rule:nonzero;fill-opacity:1;color:#000000;stroke:none;stroke-width:1;marker:none;visibility:visible;display:inline;overflow:visible;enable-background:accumulate" />
  <path
     d="m 0,15 64,0 0,47 -2,2 -60,0 -2,-2 z"
     id="path3809"
     style="fill:url(#radialGradient3886);fill-rule:nonzero;fill-opacity:1;color:#000000;stroke:none;stroke-width:2.28571415000000000;marker:none;visibility:visible;display:inline;overflow:visible;enable-background:accumulate" />
  <path
     d="m 0,15 64,0 0,47 -2,2 -60,0 -2,-2 z"
     id="path3831"
     style="fill:url(#radialGradient3857);fill-rule:nonzero" />
  <path
     d="m 0,62 2,2 30,0 0,-24 -32,0 z"
     id="path3847"
     style="fill:url(#radialGradient3849);fill-rule:nonzero" />
  <path
     d="m 64,62 -2,2 -30,0 0,-24 32,0 z"
     id="path3835"
     style="fill:url(#radialGradient3837);fill-rule:nonzero" />
  <path
     d="m 0,15 32,0 0,25 -32,0 z"
     id="path3839"
     style="fill:url(#radialGradient3841);fill-rule:nonzero" />
  <path
     d="m 64,15 -32,0 0,25 32,0 z"
     id="path3843"
     style="fill:url(#radialGradient3845);fill-rule:nonzero" />
  <path
     d="M 63,0.5 63,63 1,63 2,64 62,64 64,62 64,1 z"
     id="path3807"
     style="fill:#000000;fill-opacity:0.11130587;fill-rule:nonzero" />
  <path
     d="m 64,15 -32,0 0,-7.346939 32,0 z"
     id="path3813"
     style="fill:url(#radialGradient3823);fill-rule:nonzero" />
  <path
     d="m 0,15 32,0 0,-7.346939 -32,0 z"
     id="path3811"
     style="fill:url(#radialGradient3829);fill-rule:nonzero" />
  <path
     d="m 64,1 -2,-1 -30,0 0,7.653061 32,0 z"
     id="path3815"
     style="fill:url(#radialGradient3825);fill-rule:nonzero" />
  <path
     d="m 0,1 2,-1 30,0 0,7.653061 -32,0 z"
     id="path3960"
     style="fill:url(#radialGradient3827);fill-rule:nonzero" />
  <path
     d="m 64,17 -2,-2 2,-1 z"
     id="path3028"
     style="fill:#1f0700;fill-opacity:0.13759861" />
  <path
     d="M 1,63 1,0.5 0,1 0,62 z"
     id="path4299"
     style="fill:#ffffff;fill-opacity:0.40989399;fill-rule:nonzero" />
  <path
     d="M 0,17 2,15 0,14 z"
     id="path3028-3"
     style="fill:#ffffff;fill-opacity:0.40989399" />
  <path
     style="color:#000000;fill:#436276;fill-opacity:1;fill-rule:nonzero;stroke-width:1;stroke-linecap:butt;stroke-linejoin:miter;stroke-miterlimit:4;stroke-opacity:1;stroke-dasharray:none;stroke-dashoffset:0;marker:none;visibility:visible;display:inline;overflow:visible;enable-background:accumulate"
     d="m 47.970951,27.787228 c -0.738548,-0.03536 -1.529497,0.07638 -2.349036,0.364506 -0.575953,0.204474 -0.891014,0.68851 -0.891014,0.68851 0,0 0.362224,-0.154937 1.174518,-0.324005 3.314084,-0.690877 8.04164,4.424392 -2.227534,9.760651 -0.04751,0.127023 -0.202504,0.283652 -0.202504,0.283505 12.000626,-3.154771 9.665398,-10.525615 4.49557,-10.773167 z m -22.801852,0.526508 c -1.309238,0.03438 -4.374642,0.302488 -7.938123,2.025032 -5.618186,2.717625 13.914846,3.952863 24.016871,1.29602 1.050256,-0.717136 2.470538,-1.336521 2.470538,-1.336521 0,0 -4.104692,0.746234 -8.221627,1.093517 -5.037513,0.422079 -10.449799,0.484718 -13.162703,0.121502 -6.425168,-0.858026 3.523554,-3.19955 3.523554,-3.19955 0,0 -0.252097,-0.01146 -0.68851,0 z m -1.620025,6.196596 c -9.271291,3.077152 5.148699,6.582784 18.103779,2.794543 -1.377033,-0.485516 -2.268035,-1.377021 -2.268035,-1.377021 -6.331486,1.219176 -9.98744,1.166503 -14.620725,0.688511 -3.582881,-0.370592 -1.215019,-2.106033 -1.215019,-2.106033 z m 1.29602,5.994093 c -8.416068,2.351606 5.120738,7.224812 15.835744,2.63254 -1.755,-0.682467 -2.997046,-1.458022 -2.997046,-1.458022 -4.779781,0.904645 -7.002832,0.940318 -11.340175,0.445507 -3.580224,-0.411606 -1.498523,-1.620025 -1.498523,-1.620025 z m -5.427084,3.969061 c -3.616807,-0.139348 -11.8290294,3.480843 -4.819574,4.617071 21.846633,3.542902 39.80875,-1.574983 34.142027,-4.131064 0,0 1.551537,1.240863 -1.701027,2.227535 -6.184844,1.873613 -25.75259,2.445736 -31.185481,0.081 -1.952984,-0.849618 1.723494,-2.02063 2.875544,-2.268035 1.201474,-0.260536 1.90353,-0.202503 1.90353,-0.202503 -0.271489,-0.191253 -0.698332,-0.304098 -1.215019,-0.324005 z m 32.805507,3.24005 c 0,0 -0.683348,1.795371 -8.140626,3.199549 -8.413264,1.583278 -18.793932,1.379208 -24.948385,0.364506 1.47e-4,-1.47e-4 1.257194,1.042581 7.735619,1.458022 9.857128,0.630979 24.994897,-0.357959 25.353392,-5.022077 z"
     id="path3022"
     inkscape:connector-curvature="0" />
  <path
     style="color:#000000;fill:#ecb990;fill-opacity:1;fill-rule:nonzero;stroke-width:1;stroke-linecap:butt;stroke-linejoin:miter;stroke-miterlimit:4;stroke-opacity:1;stroke-dasharray:none;stroke-dashoffset:0;marker:none;visibility:visible;display:inline;overflow:visible;enable-background:accumulate"
     d="m 37.53125,9.0349577 c 2.058047,2.5228743 -6.09023,3.4697503 -10.5,4.9025423 l 3.53125,0 c 0.445925,-0.132632 0.961083,-0.268386 1.53125,-0.408545 11.081319,-2.723106 5.4375,-4.4939973 5.4375,-4.4939973 z M 44.375,12.517319 c 0,0 -5.898458,0.452229 -9.5,1.420181 l 2.78125,0 c 1.426943,-0.393985 3.580174,-0.853583 6.71875,-1.420181 z"
     id="path3990"
     inkscape:connector-curvature="0" />
  <path
     style="color:#000000;fill:#b6713a;fill-opacity:1;fill-rule:nonzero;stroke-width:1;stroke-linecap:butt;stroke-linejoin:miter;stroke-miterlimit:4;stroke-opacity:1;stroke-dasharray:none;stroke-dashoffset:0;marker:none;visibility:visible;display:inline;overflow:visible;enable-background:accumulate"
     d="M 27.03125 13.9375 C 26.52426 14.466707 26.04275 15.013383 25.65625 15.59375 C 23.102528 19.42802 26.90679 23.507597 32.09375 28.1875 C 30.200855 23.909215 24.058663 20.152131 30.5625 13.9375 L 27.03125 13.9375 z M 34.875 13.9375 C 32.054354 16.372915 30.631772 19.814575 34.5625 24.34375 C 37.202673 27.38343 33.875 30.125 33.875 30.125 C 33.875 30.125 40.610025 26.646154 37.53125 22.3125 C 35.411778 19.333647 33.655814 17.485952 37.65625 13.9375 L 34.875 13.9375 z "
     id="path3990-1" />
  <path
     d="m 0,14 64,0 0,1 -64,0 z"
     id="path3878"
     style="fill:#ffffff;fill-rule:nonzero;fill-opacity:0.31360424" />
</svg>
