<?xml version="1.0" encoding="UTF-8" standalone="no"?>
<!-- Created with Inkscape (http://www.inkscape.org/) -->

<svg
   xmlns:dc="http://purl.org/dc/elements/1.1/"
   xmlns:cc="http://creativecommons.org/ns#"
   xmlns:rdf="http://www.w3.org/1999/02/22-rdf-syntax-ns#"
   xmlns:svg="http://www.w3.org/2000/svg"
   xmlns="http://www.w3.org/2000/svg"
   xmlns:xlink="http://www.w3.org/1999/xlink"
   xmlns:sodipodi="http://sodipodi.sourceforge.net/DTD/sodipodi-0.dtd"
   xmlns:inkscape="http://www.inkscape.org/namespaces/inkscape"
   width="64"
   height="64"
   id="svg13094"
   version="1.1"
   inkscape:version="0.48.3.1 r9886"
   sodipodi:docname="application-octet-stream.svg">
  <sodipodi:namedview
     id="base"
     pagecolor="#cbcdd6"
     bordercolor="#666666"
     borderopacity="1.0"
     inkscape:pageopacity="1"
     inkscape:pageshadow="2"
     inkscape:zoom="11.313709"
     inkscape:cx="38.921837"
     inkscape:cy="31.197381"
     inkscape:document-units="px"
     inkscape:current-layer="svg13094"
     showgrid="true"
     inkscape:snap-bbox="true"
     inkscape:bbox-paths="true"
     inkscape:bbox-nodes="true"
     inkscape:snap-bbox-edge-midpoints="true"
     inkscape:snap-bbox-midpoints="true"
     inkscape:object-paths="true"
     inkscape:snap-intersection-paths="true"
     inkscape:object-nodes="true"
     inkscape:snap-smooth-nodes="true"
     inkscape:snap-midpoints="true"
     inkscape:snap-object-midpoints="true"
     inkscape:snap-center="true"
     showguides="true"
     inkscape:guide-bbox="true"
     inkscape:window-width="1920"
     inkscape:window-height="1033"
     inkscape:window-x="-10"
     inkscape:window-y="25"
     inkscape:window-maximized="1"
     inkscape:snap-global="true"
     fit-margin-top="0"
     fit-margin-left="0"
     fit-margin-right="0"
     fit-margin-bottom="0"
     showborder="true"
     inkscape:showpageshadow="false"
     inkscape:snap-page="true">
    <inkscape:grid
       type="xygrid"
       id="grid3075"
       empspacing="5"
       visible="true"
       enabled="true"
       snapvisiblegridlinesonly="true"
       originx="1.6362304e-08px"
       originy="18px" />
  </sodipodi:namedview>
  <defs
     id="defs13096">
    <linearGradient
       inkscape:collect="always"
       id="linearGradient3837">
      <stop
         style="stop-color:#b8c1cc;stop-opacity:0.19611308"
         offset="0"
         id="stop3839" />
      <stop
         style="stop-color:#b8c1cc;stop-opacity:0;"
         offset="1"
         id="stop3841" />
    </linearGradient>
    <linearGradient
       id="linearGradient3769">
      <stop
         style="stop-color:#000000;stop-opacity:0.33781189;"
         offset="0"
         id="stop3771" />
      <stop
         style="stop-color:#000000;stop-opacity:0.43250161;"
         offset="1"
         id="stop3773" />
    </linearGradient>
    <linearGradient
       id="linearGradient5602">
      <stop
         id="stop5604"
         style="stop-color:#63748b;stop-opacity:1;"
         offset="0" />
      <stop
         id="stop5606"
         style="stop-color:#586473;stop-opacity:1;"
         offset="1" />
    </linearGradient>
    <radialGradient
       inkscape:collect="always"
       xlink:href="#linearGradient5602"
       id="radialGradient4140"
       cx="32"
       cy="18"
       fx="32"
       fy="18"
       r="32"
       gradientTransform="matrix(1.5,0,0,1.40625,-16,-6.3125)"
       gradientUnits="userSpaceOnUse" />
    <radialGradient
       inkscape:collect="always"
       xlink:href="#linearGradient3769"
       id="radialGradient3779"
       gradientUnits="userSpaceOnUse"
       gradientTransform="matrix(1.40625,0,0,1.34375,72,57.98438)"
       cx="64"
       cy="1.4999994"
       fx="64"
       fy="1.4999994"
       r="32" />
    <radialGradient
       inkscape:collect="always"
       xlink:href="#linearGradient3837"
       id="radialGradient3843"
       cx="32"
       cy="2.5998335"
       fx="32"
       fy="2.5998335"
       r="32"
       gradientTransform="matrix(0,1.2382845,-2.3125,0,168.01212,-20.250208)"
       gradientUnits="userSpaceOnUse" />
  </defs>
  <metadata
     id="metadata13099">
    <rdf:RDF>
      <cc:Work
         rdf:about="">
        <dc:format>image/svg+xml</dc:format>
        <dc:type
           rdf:resource="http://purl.org/dc/dcmitype/StillImage" />
        <dc:title />
      </cc:Work>
    </rdf:RDF>
  </metadata>
  <path
     style="color:#000000;fill:url(#radialGradient4140);fill-opacity:1;fill-rule:nonzero;stroke:none;stroke-width:2.28571415000000000;marker:none;visibility:visible;display:inline;overflow:visible;enable-background:accumulate"
     d="m 0,4 0,30 0,28 2,2 30,0 30,0 2,-2 L 64,34 64,4 32,4 0,4 z"
     id="path6498"
     inkscape:connector-curvature="0" />
  <path
     style="color:#000000;fill:#95abbf;fill-opacity:1;fill-rule:nonzero;stroke:none;stroke-width:2.28571415000000000;marker:none;visibility:visible;display:inline;overflow:visible;enable-background:accumulate"
     d="M 2,0 0,1 0,4 32,4 64,4 64,1 62,0 32,0 2,0 z"
     id="path6502"
     inkscape:connector-curvature="0" />
  <path
     style="fill:#ffffff;fill-opacity:0.14487634;fill-rule:nonzero"
     d="M 0,3 0,6 2,4 32,4 62,4 64,3 32,3 0,3 z"
     id="path4298"
     inkscape:connector-curvature="0" />
  <path
     style="fill:#1f0700;fill-opacity:0.06978802;fill-rule:nonzero"
     d="M 2,0 0,1 32,1 64,1 62,0 32,0 2,0 z"
     id="path4444"
     inkscape:connector-curvature="0" />
  <path
     d="M 64,6 62,4 64,3 z"
     id="path3028"
     style="fill:#1f0700;fill-opacity:0.13759861"
     inkscape:connector-curvature="0" />
  <path
     style="fill:#000000;fill-opacity:0.11130587;fill-rule:nonzero"
     d="M 63,0.5 63,34 63,63 64,62 64,34 64,1 63,0.5 z m 0,62.5 -31,0 -31,0 1,1 30,0 30,0 1,-1 z"
     id="path4366"
     inkscape:connector-curvature="0" />
  <g
     id="g3043"
     inkscape:export-filename="folder.png"
     inkscape:export-xdpi="90"
     inkscape:export-ydpi="90"
     transform="translate(-0.62500009,0.082283)" />
  <path
     style="fill:#ffffff;fill-opacity:0.35070675;fill-rule:nonzero"
     d="M 0,1 0,34 0,62 1,63 1,34 1,5 2,4 1,3.46875 1,1 0,1 z"
     id="path3864"
     inkscape:connector-curvature="0" />
  <g
     id="scalable"
     transform="matrix(1.0385892,0,0,1.0385892,1214.7222,1878.8121)"
     inkscape:label="#g3701"
     style="fill:#ffffff" />
  <path
     inkscape:connector-curvature="0"
     style="color:#000000;fill:#ffffff;fill-opacity:0.17756183000000000;fill-rule:evenodd;stroke:none;stroke-width:1.06597184999999994;marker:none;visibility:visible;display:inline;overflow:visible;enable-background:accumulate"
     d="M 5,9 5,20 17,20 17,9 5,9 z m 28,0 0,11 12,0 0,-11 -12,0 z m -14,13 0,11 12,0 0,-11 -12,0 z m 28,0 0,11 12,0 0,-11 -12,0 z M 5,35 5,46 17,46 17,35 5,35 z m 28,0 0,11 12,0 0,-11 -12,0 z m -14,13 0,11 12,0 0,-11 -12,0 z m 28,0 0,11 12,0 0,-11 -12,0 z"
     id="path3854" />
  <path
     inkscape:connector-curvature="0"
     style="color:#000000;fill:#ffffff;fill-opacity:0.09628974999999999;fill-rule:evenodd;stroke:none;stroke-width:1.06597184999999994;marker:none;visibility:visible;display:inline;overflow:visible;enable-background:accumulate"
     d="M 19,9 19,20 31,20 31,9 19,9 z M 47,9 47,20 59,20 59,9 47,9 z M 5,22 5,33 17,33 17,22 5,22 z m 28,0 0,11 12,0 0,-11 -12,0 z m -14,13 0,11 12,0 0,-11 -12,0 z m 28,0 0,11 12,0 0,-11 -12,0 z M 5,48 5,59 17,59 17,48 5,48 z m 28,0 0,11 12,0 0,-11 -12,0 z"
     id="path3876" />
  <path
     style="color:#000000;fill:#ffffff;fill-opacity:0.05742050000000000;fill-rule:evenodd;stroke:none;stroke-width:1.06597184999999994;marker:none;visibility:visible;display:inline;overflow:visible;enable-background:accumulate"
     d="M 5,9 5,20 6,20 6,10 17,10 17,9 5,9 z m 25,0 0,10 -11,0 0,1 12,0 0,-11 -1,0 z m 3,0 0,11 1,0 0,-10 11,0 0,-1 -12,0 z m 25,0 0,10 -11,0 0,1 12,0 0,-11 -1,0 z m -42,13 0,10 -11,0 0,1 12,0 0,-11 -1,0 z m 3,0 0,11 1,0 0,-10 11,0 0,-1 -12,0 z m 25,0 0,10 -11,0 0,1 12,0 0,-11 -1,0 z m 3,0 0,11 1,0 0,-10 11,0 0,-1 -12,0 z M 5,35 5,46 6,46 6,36 17,36 17,35 5,35 z m 25,0 0,10 -11,0 0,1 12,0 0,-11 -1,0 z m 3,0 0,11 1,0 0,-10 11,0 0,-1 -12,0 z m 25,0 0,10 -11,0 0,1 12,0 0,-11 -1,0 z m -42,13 0,10 -11,0 0,1 12,0 0,-11 -1,0 z m 3,0 0,11 1,0 0,-10 11,0 0,-1 -12,0 z m 25,0 0,10 -11,0 0,1 12,0 0,-11 -1,0 z m 3,0 0,11 1,0 0,-10 11,0 0,-1 -12,0 z"
     id="rect3039"
     inkscape:connector-curvature="0" />
</svg>
