<?xml version="1.0" encoding="UTF-8" standalone="no"?>
<!-- Created with Inkscape (http://www.inkscape.org/) -->

<svg
   xmlns:dc="http://purl.org/dc/elements/1.1/"
   xmlns:cc="http://creativecommons.org/ns#"
   xmlns:rdf="http://www.w3.org/1999/02/22-rdf-syntax-ns#"
   xmlns:svg="http://www.w3.org/2000/svg"
   xmlns="http://www.w3.org/2000/svg"
   xmlns:xlink="http://www.w3.org/1999/xlink"
   xmlns:sodipodi="http://sodipodi.sourceforge.net/DTD/sodipodi-0.dtd"
   xmlns:inkscape="http://www.inkscape.org/namespaces/inkscape"
   id="svg13094"
   height="64"
   width="64"
   version="1.1"
   inkscape:version="0.48.3.1 r9886"
   sodipodi:docname="folder-html.svg"
   inkscape:export-filename="folder.png"
   inkscape:export-xdpi="90"
   inkscape:export-ydpi="90">
  <sodipodi:namedview
     pagecolor="#ffffff"
     bordercolor="#666666"
     borderopacity="1"
     objecttolerance="10"
     gridtolerance="10"
     guidetolerance="10"
     inkscape:pageopacity="0"
     inkscape:pageshadow="2"
     inkscape:window-width="1920"
     inkscape:window-height="1033"
     id="namedview46"
     showgrid="true"
     inkscape:snap-bbox="true"
     inkscape:bbox-paths="true"
     inkscape:bbox-nodes="true"
     inkscape:snap-bbox-edge-midpoints="true"
     inkscape:snap-bbox-midpoints="true"
     inkscape:snap-nodes="true"
     inkscape:object-paths="true"
     inkscape:snap-intersection-paths="true"
     inkscape:object-nodes="true"
     inkscape:snap-smooth-nodes="true"
     inkscape:snap-midpoints="true"
     inkscape:snap-object-midpoints="true"
     inkscape:snap-center="true"
     fit-margin-top="0"
     fit-margin-left="0"
     fit-margin-right="0"
     fit-margin-bottom="0"
     inkscape:zoom="10.429825"
     inkscape:cx="44.003012"
     inkscape:cy="24.199031"
     inkscape:window-x="-10"
     inkscape:window-y="25"
     inkscape:window-maximized="1"
     inkscape:current-layer="g3045"
     showguides="true"
     inkscape:guide-bbox="true"
     inkscape:snap-page="true"
     inkscape:snap-global="true">
    <inkscape:grid
       type="xygrid"
       id="grid3023"
       empspacing="5"
       visible="true"
       enabled="true"
       snapvisiblegridlinesonly="true"
       originx="-80px"
       originy="-75px" />
  </sodipodi:namedview>
  <defs
     id="defs11">
    <linearGradient
       inkscape:collect="always"
       xlink:href="#linearGradient4069"
       id="linearGradient3950-5"
       gradientUnits="userSpaceOnUse"
       x1="21.295919"
       y1="64"
       x2="21.295919"
       y2="12" />
    <linearGradient
       id="linearGradient4069">
      <stop
         offset="0"
         style="stop-color:#9e9e9e;stop-opacity:1"
         id="stop4071" />
      <stop
         id="stop4073"
         style="stop-color:#b2b2b2;stop-opacity:1"
         offset="0.05736636" />
      <stop
         offset="0.49138948"
         style="stop-color:#c4c4c4;stop-opacity:1"
         id="stop4075" />
      <stop
         offset="0.51270223"
         style="stop-color:#afafaf;stop-opacity:1"
         id="stop4077" />
      <stop
         offset="1"
         style="stop-color:#b5b5b5;stop-opacity:1"
         id="stop4079" />
    </linearGradient>
    <linearGradient
       id="linearGradient3841-4-5-0">
      <stop
         style="stop-color:#41444b;stop-opacity:1;"
         offset="0"
         id="stop3843-9-6-5" />
      <stop
         style="stop-color:#5b626b;stop-opacity:1;"
         offset="1"
         id="stop3845-3-04-6" />
    </linearGradient>
    <linearGradient
       inkscape:collect="always"
       xlink:href="#linearGradient3969-2-2"
       id="linearGradient3918-8-7"
       gradientUnits="userSpaceOnUse"
       x1="29.875"
       y1="64.082283"
       x2="29.875"
       y2="12.082283" />
    <linearGradient
       id="linearGradient3969-2-2">
      <stop
         style="stop-color:#454a50;stop-opacity:1;"
         offset="0"
         id="stop3971-0-7" />
      <stop
         id="stop3977-2-3"
         offset="0.08245245"
         style="stop-color:#555d66;stop-opacity:1;" />
      <stop
         style="stop-color:#59616a;stop-opacity:1;"
         offset="0.49040774"
         id="stop3979-9-4" />
      <stop
         id="stop3981-6-2"
         offset="0.51108748"
         style="stop-color:#51585f;stop-opacity:1;" />
      <stop
         style="stop-color:#5b636b;stop-opacity:1;"
         offset="1"
         id="stop3973-1-4" />
    </linearGradient>
    <linearGradient
       y2="32.976402"
       x2="77.278381"
       y1="48.976402"
       x1="77.278381"
       gradientTransform="translate(-33.625,-31.894117)"
       gradientUnits="userSpaceOnUse"
       id="linearGradient4486"
       xlink:href="#linearGradient3841-4-5-0"
       inkscape:collect="always" />
    <linearGradient
       y2="32.976402"
       x2="77.278381"
       y1="48.976402"
       x1="77.278381"
       gradientTransform="translate(-33.625,-31.894117)"
       gradientUnits="userSpaceOnUse"
       id="linearGradient4486-6"
       xlink:href="#linearGradient3841-4-5-0-0"
       inkscape:collect="always" />
    <linearGradient
       id="linearGradient3841-4-5-0-0">
      <stop
         style="stop-color:#41444b;stop-opacity:1;"
         offset="0"
         id="stop3843-9-6-5-8" />
      <stop
         style="stop-color:#5b626b;stop-opacity:1;"
         offset="1"
         id="stop3845-3-04-6-3" />
    </linearGradient>
    <linearGradient
       inkscape:collect="always"
       xlink:href="#linearGradient3969-2-2-0"
       id="linearGradient3918-8-7-1"
       gradientUnits="userSpaceOnUse"
       x1="29.875"
       y1="64.082283"
       x2="29.875"
       y2="12.082283" />
    <linearGradient
       id="linearGradient3969-2-2-0">
      <stop
         style="stop-color:#454a50;stop-opacity:1;"
         offset="0"
         id="stop3971-0-7-1" />
      <stop
         id="stop3977-2-3-2"
         offset="0.08245245"
         style="stop-color:#555d66;stop-opacity:1;" />
      <stop
         style="stop-color:#59616a;stop-opacity:1;"
         offset="0.49040774"
         id="stop3979-9-4-5" />
      <stop
         id="stop3981-6-2-2"
         offset="0.51108748"
         style="stop-color:#51585f;stop-opacity:1;" />
      <stop
         style="stop-color:#5b636b;stop-opacity:1;"
         offset="1"
         id="stop3973-1-4-7" />
    </linearGradient>
  </defs>
  <metadata
     id="metadata13099">
    <rdf:RDF>
      <cc:Work
         rdf:about="">
        <dc:format>image/svg+xml</dc:format>
        <dc:type
           rdf:resource="http://purl.org/dc/dcmitype/StillImage" />
        <dc:title />
      </cc:Work>
    </rdf:RDF>
  </metadata>
  <g
     id="g3043"
     inkscape:export-filename="folder.png"
     inkscape:export-xdpi="90"
     inkscape:export-ydpi="90"
     transform="translate(-0.62500009,0.08228278)" />
  <g
     id="g3045"
     inkscape:export-filename="folder.png"
     inkscape:export-xdpi="90"
     inkscape:export-ydpi="90"
     transform="translate(0.625,-0.082283)">
    <path
       style="fill:url(#linearGradient4486-6);fill-opacity:1;fill-rule:nonzero;stroke:none;color:#000000;marker:none;visibility:visible;display:inline;overflow:visible;enable-background:accumulate"
       d="m 2.375,6.082283 -10e-8,58.000001 57.0000001,-10e-7 4,-4 0,-59 -1,-1 -26,0 -5,4.9999999 -28,1e-7 z"
       id="path3833"
       inkscape:connector-curvature="0"
       sodipodi:nodetypes="cccccccccc" />
    <path
       style="color:#000000;fill:#cddde8;fill-opacity:0.40901058;fill-rule:nonzero;stroke:none;stroke-width:1;marker:none;visibility:visible;display:inline;overflow:visible;enable-background:accumulate"
       d="m 36.375,0.082283 -5,5 -28,0 -1,1 0,1 1,-1 28,0 5,-5 26,0 1,1 0,-1 -1,-1 -26,0 z"
       id="path3800"
       inkscape:connector-curvature="0" />
    <path
       sodipodi:nodetypes="ccccc"
       d="m 6.375,13.082283 51,0 0,31 -51,0 z"
       id="path3920"
       inkscape:connector-curvature="0"
       style="fill:#c1c1c1;fill-opacity:1;fill-rule:nonzero" />
    <path
       sodipodi:nodetypes="cccccccc"
       id="path3802"
       d="m 57.375,13.082283 0,51 2,0 4,-4 0,-59 -1,-1 0,18 z"
       inkscape:connector-curvature="0"
       style="fill:#3e4959;fill-opacity:0.43171806" />
    <path
       inkscape:connector-curvature="0"
       id="path4253"
       d="m 6.375,13.082283 51,0 0,1 -51,0 z"
       style="fill:#ffffff;fill-opacity:0.46024732;fill-rule:nonzero"
       sodipodi:nodetypes="ccccc" />
    <path
       style="color:#000000;fill:#3e4959;fill-opacity:0.22968199;fill-rule:nonzero;stroke-width:1;stroke-linecap:butt;stroke-linejoin:miter;stroke-miterlimit:4;stroke-opacity:1;stroke-dasharray:none;stroke-dashoffset:0;marker:none;visibility:visible;display:inline;overflow:visible;enable-background:accumulate"
       d="m 29.375,13.082283 4,4 2,0 -4,-4 z"
       id="path3982"
       inkscape:connector-curvature="0"
       sodipodi:nodetypes="ccccc" />
    <path
       id="path3916"
       d="m -0.625,13.082283 0,50 1,1 59,0 1,-1 0,-45 -1,-1 -26,1e-6 -5,-5 -28,-10e-7 z"
       inkscape:connector-curvature="0"
       style="fill:url(#linearGradient3918-8-7-1);fill-opacity:1;fill-rule:nonzero;color:#000000;stroke-width:1;stroke-linecap:butt;stroke-linejoin:miter;stroke-miterlimit:4;stroke-opacity:1;stroke-dasharray:none;stroke-dashoffset:0;marker:none;visibility:visible;display:inline;overflow:visible;enable-background:accumulate"
       sodipodi:nodetypes="ccccccccccc"
       inkscape:export-xdpi="90"
       inkscape:export-ydpi="90" />
    <path
       style="fill:#cddde8;fill-opacity:0.40901058;fill-rule:nonzero"
       d="m 0.375,12.082283 -1,1 0,1 1,-1 28,0 5,5 26,0 1,1 0,-1 -1,-1 -26,0 -5,-5 -28,0 z"
       id="path3046"
       inkscape:connector-curvature="0" />
    <path
       style="color:#000000;fill:#0b0e11;fill-opacity:0.07862189999999999;fill-rule:nonzero;stroke:none;stroke-width:1;marker:none;visibility:visible;display:inline;overflow:visible;enable-background:accumulate"
       d="m 16.90625,29.301033 -6.34375,8.5 -0.9375,1.3125 0.9375,1.25 6.34375,8.5 3.46875,-2.59375 -5.375,-7.15625 5.375,-7.21875 -3.46875,-2.59375 z m 27.9375,0 -3.46875,2.59375 5.375,7.21875 -5.375,7.15625 3.46875,2.59375 6.34375,-8.5 0.9375,-1.25 -0.9375,-1.3125 -6.34375,-8.5 z m -13.96875,0.25 c -5.260746,0 -9.53125,4.270505 -9.53125,9.53125 0,5.260745 4.270504,9.53125 9.53125,9.53125 5.260745,0 9.53125,-4.270505 9.53125,-9.53125 0,-5.260745 -4.270505,-9.53125 -9.53125,-9.53125 z m 0.15625,2.6875 c 0.245757,0.09655 0.504244,0.184525 0.75,0.28125 0.03638,0.174749 -0.198043,0.474478 -0.25,0.6875 -0.214842,0.396779 -0.06873,0.262989 0.1875,0.25 0.299184,0.137598 -0.113527,0.421685 -0.25,0.34375 -0.177694,-0.273553 -0.188066,-0.254652 -0.5625,-0.0625 -0.342484,0.176481 -0.820933,0.117067 -0.96875,0.53125 -0.102185,0.227311 -0.421124,0.46446 -0.46875,0.09375 -0.06149,-0.212849 -0.391548,-0.470601 -0.09375,-0.625 0.231467,-0.167734 0.129935,-0.548797 -0.125,-0.625 -0.141756,-0.144959 -0.630314,-0.224055 -0.28125,-0.40625 -0.139158,-0.0087 -0.491104,0.18592 -0.6875,0.25 -0.398597,-0.02945 0.226489,0.07462 0.375,0.0625 0.134393,0.175787 0.219607,0.434113 0.5,0.46875 -0.273294,0.461723 -0.609305,-0.01006 -0.9375,-0.1875 -0.273207,-0.172323 -0.511291,0.08934 -0.65625,0.34375 0.146692,-0.189729 0.477563,-0.198143 0.53125,0.03125 0.04416,0.338326 -0.399108,0.10401 -0.53125,-0.03125 -0.02857,0.05109 -0.04604,0.104286 -0.0625,0.15625 -0.214929,0.222636 -0.442165,0.0018 -0.21875,-0.25 0.20774,-0.155524 0.321007,-0.388326 0.25,-0.65625 0.08928,-0.260996 0.184523,0.504601 0.28125,-0.03125 0.270175,-0.03117 0.462505,-0.269125 0.75,-0.28125 0.251904,-0.0087 0.342874,-0.298493 0.625,-0.25 0.234239,0.03292 0.171596,0.178734 0.09375,0.25 0.02339,-0.0087 0.0088,0.02165 0.0625,0 0.541736,-0.178298 1.119957,-0.298721 1.6875,-0.34375 z m 3.21875,1.21875 0.0625,0 c 0.186784,0.07274 0.392763,0.164118 0.59375,0.1875 0.28152,-0.0087 0.508961,0.137514 0.125,0.25 -0.449253,-0.084 -0.07866,0.163632 0.09375,0.34375 0.215361,0.02598 0.288017,-0.656562 0.5,-0.25 1.221073,1.128676 2.176773,2.652219 2.40625,4.3125 -0.262646,0.527967 -0.492242,-0.412386 -0.90625,-0.1875 -0.191288,-0.09352 -0.346196,-0.500159 -0.28125,-0.03125 -0.01559,0.227658 0.315499,0.356416 0.40625,0.53125 0.206271,-0.454796 0.428688,0.01141 0.375,0.3125 -0.109805,0.26602 -0.420365,0.437101 -0.65625,0.59375 -0.340404,0.244372 -0.518214,0.499632 0.09375,0.3125 0.0225,0.36872 -0.271,0.687122 -0.375,1.03125 -0.258573,0.221336 -0.410278,0.49998 -0.53125,0.8125 -0.01992,0.394959 -0.06307,0.801288 0.0625,1.1875 -0.07015,0.250952 -0.420906,0.370259 -0.59375,0.5625 -0.410631,0.141497 0.324384,0.342138 0,0.5 -0.334428,0.122964 -0.07056,0.388878 -0.28125,0.5625 -0.18895,0.143401 -0.293969,0.473004 -0.5625,0.4375 -0.275197,-0.08054 -0.442945,0.269765 -0.71875,0.1875 0.01213,-0.416262 -0.06046,-0.804058 -0.21875,-1.1875 -0.198566,-0.423795 -0.244529,-0.947569 -0.03125,-1.375 0.06408,-0.222115 -0.257827,-0.433864 -0.15625,-0.6875 0.111792,-0.272253 -0.160731,-0.39285 -0.21875,-0.59375 0.106601,-0.241252 0.163789,-0.465925 -0.09375,-0.625 -0.267492,0.116127 -0.47241,-0.210748 -0.65625,-0.0625 -0.230332,0.34101 -0.304297,-0.17306 -0.5,0.125 -0.349151,0.344214 -0.744296,-0.567512 -0.96875,-0.84375 -0.0511,-0.219085 -0.363655,-0.434579 -0.125,-0.625 0.292516,-0.203412 -0.108026,-0.325318 0.125,-0.5625 0.159247,-0.5633 0.630152,-0.974316 1,-1.40625 0.430893,-0.116045 0.879958,-0.284515 1.3125,-0.09375 0.175008,0.148685 0.327158,0.419467 0.5,0.5 0.112053,-0.23346 0.415354,-0.259038 0.625,-0.15625 0.218479,0.06408 0.532743,0.175095 0.71875,0 0.235017,-0.144786 0.344126,-0.366493 0,-0.4375 -0.460685,0.186179 -0.517895,-0.552682 -0.84375,-0.40625 -0.01645,0.314773 -0.134537,0.482724 -0.34375,0.125 -0.04157,-0.238568 -0.118242,-0.448985 -0.375,-0.53125 -0.18029,0.05022 0.408939,0.294337 0.125,0.5 -0.293729,0.301436 -0.161521,-0.03528 -0.1875,-0.1875 -0.249918,-0.03117 -0.295787,-0.43123 -0.5625,-0.28125 -0.267492,-0.0087 -0.287486,0.241492 -0.53125,0.3125 -0.04244,0.27234 -0.208274,0.426394 -0.46875,0.5 -0.159768,-0.219605 -0.445414,-0.08678 -0.34375,-0.4375 -0.09075,-0.281518 0.244557,-0.443638 0.46875,-0.46875 0.349928,0.05974 0.02669,-0.366492 -0.0625,-0.4375 0.247662,-0.01647 0.443951,-0.115223 0.5625,-0.34375 -0.01385,-0.367594 0.53598,-0.102918 0.375,-0.375 0.07794,-0.342827 0.126169,-0.04315 0.25,0.0625 0.258832,0.147472 0.44575,0.0071 0.625,-0.1875 0.02857,-0.192586 0.534324,-0.46875 0.40625,-0.46875 -0.44293,0.221596 -0.295234,-0.287756 -0.15625,-0.5 -0.224108,-0.01993 -0.393576,0.200425 -0.5,0.375 0.06234,0.171024 0.04031,0.540062 -0.125,0.59375 -0.228099,-0.04329 -0.315283,-0.474475 -0.53125,-0.1875 -0.201938,0.25355 -0.232531,-0.374448 -0.1875,-0.46875 0.167647,-0.159854 0.540624,-0.177099 0.46875,-0.46875 0.232161,-0.202891 0.518684,-0.282267 0.8125,-0.34375 z m -7.59375,0.1875 c 0.262209,-0.02078 0.458747,0.100244 0.34375,0.375 -0.197784,0.353912 -0.630524,0.49395 -0.9375,0.71875 0,0.301264 0.271044,0.345623 0.5,0.4375 0.185744,0.119242 0.09482,0.621696 0.25,0.15625 0.07015,-0.258227 0.464451,-0.185486 0.375,-0.5 0.138637,-0.164184 0.244805,-0.588045 0.5,-0.3125 0.323345,0.05974 -0.0222,0.481652 0.375,0.21875 0.302909,-0.05974 0.03298,0.453954 0.28125,0.4375 0.312434,0.08226 0.02708,0.394279 0.34375,0.46875 -0.163231,0.372011 -0.249211,0.225006 -0.28125,-0.09375 -0.234066,0.09049 -0.432738,0.190022 -0.6875,0.15625 -0.172236,0.0943 -0.677444,0.266378 -0.21875,0.21875 0.232074,0.0095 0.636883,-0.08589 0.3125,0.21875 -0.103303,0.300917 -0.555888,0.07044 -0.65625,0.375 -0.07187,0.291565 -0.513142,0.149226 -0.5625,0.4375 -0.05022,0.275111 -0.228027,0.434762 -0.4375,0.59375 -0.274418,0.138379 -0.153804,0.501993 -0.21875,0.75 -0.155351,-0.173623 -0.258043,-0.451356 -0.53125,-0.4375 -0.21744,-0.03292 -0.303486,0.232528 -0.59375,0.1875 -0.216835,0.146431 -0.440022,0.30132 -0.40625,0.59375 -0.04763,0.243246 0.0772,0.5 0.34375,0.5 0.218652,-0.147038 0.622801,-0.636818 0.46875,0 -0.324125,0.583821 0.49227,0.03541 0.3125,0.53125 -0.06149,0.357462 0.442371,0.661639 0.625,0.34375 0.194664,-0.129287 0.349736,-0.475775 0.5625,-0.1875 0.18791,0.223934 0.46009,0.205523 0.71875,0.15625 0.200553,0.01905 0.197587,0.339368 0.3125,0.5 0.272167,0.02079 0.463706,0.184547 0.53125,0.46875 0.344128,0.362919 0.908783,0.4497 1.34375,0.71875 -0.0303,0.238568 0.0072,0.511712 -0.1875,0.6875 -0.258139,0.21536 -0.125,0.55695 -0.125,0.84375 -0.120714,0.19631 -0.103257,0.553764 -0.40625,0.53125 -0.237444,-0.0087 -0.470536,0.268803 -0.3125,0.46875 -0.108244,0.21666 -0.136119,0.510068 -0.28125,0.6875 -0.312867,8.3e-4 -0.344898,0.301102 -0.53125,0.46875 -0.04935,0.581483 -0.704702,0.0132 -1.03125,-0.21875 0.01818,-0.244975 0.112088,-0.50052 0.15625,-0.75 -0.12184,-0.222028 -0.202146,-0.434297 -0.15625,-0.6875 0.08573,-0.312694 -0.155222,-0.534043 -0.375,-0.71875 -0.313646,-0.195878 -0.424631,-0.594335 -0.59375,-0.90625 -0.199774,-0.212763 -0.120788,-0.410407 -0.03125,-0.65625 -0.106768,-0.216833 0.165851,-0.368257 0.1875,-0.59375 0.05975,-0.178557 0.253929,-0.565887 -0.09375,-0.53125 -0.24004,0.08313 -0.425931,-0.175074 -0.59375,-0.3125 -0.150333,-0.326116 -0.544404,-0.281802 -0.8125,-0.4375 -0.315465,-0.165829 -0.6196,-0.313497 -0.71875,-0.6875 0.186957,-1.595421 0.862762,-3.110316 1.96875,-4.28125 0.2248,-0.495754 0.867088,-0.434905 0.96875,-0.9375 z m 5.46875,0.59375 c 0.263161,-0.07707 0.243387,0.209431 0.34375,0.375 0.148944,0.24922 0.370192,0.40376 0,0.59375 -0.35625,0.166434 -0.298419,-0.05817 -0.21875,-0.34375 0.08962,-0.260478 -0.170896,-0.380716 -0.125,-0.625 z m -0.40625,0.375 c 0.02598,-0.0087 0.05651,0.02 0.09375,0.03125 0.04244,0.180723 0.239013,0.277071 -0.03125,0.34375 -0.161586,0.142275 -0.244869,-0.316981 -0.0625,-0.375 z"
       id="path3033"
       inkscape:connector-curvature="0" />
    <path
       id="path3133"
       d="m 15.90625,28.301033 -6.34375,8.5 -0.9375,1.3125 0.9375,1.25 6.34375,8.5 3.46875,-2.59375 -5.375,-7.15625 5.375,-7.21875 -3.46875,-2.59375 z m 27.9375,0 -3.46875,2.59375 5.375,7.21875 -5.375,7.15625 3.46875,2.59375 6.34375,-8.5 0.9375,-1.25 -0.9375,-1.3125 -6.34375,-8.5 z m -13.96875,0.25 c -5.260746,0 -9.53125,4.270505 -9.53125,9.53125 0,5.260745 4.270504,9.53125 9.53125,9.53125 5.260745,0 9.53125,-4.270505 9.53125,-9.53125 0,-5.260745 -4.270505,-9.53125 -9.53125,-9.53125 z m 0.15625,2.6875 c 0.245757,0.09655 0.504244,0.184525 0.75,0.28125 0.03638,0.174749 -0.198043,0.474478 -0.25,0.6875 -0.214842,0.396779 -0.06873,0.262989 0.1875,0.25 0.299184,0.137598 -0.113527,0.421685 -0.25,0.34375 -0.177694,-0.273553 -0.188066,-0.254652 -0.5625,-0.0625 -0.342484,0.176481 -0.820933,0.117067 -0.96875,0.53125 -0.102185,0.227311 -0.421124,0.46446 -0.46875,0.09375 -0.06149,-0.212849 -0.391548,-0.470601 -0.09375,-0.625 0.231467,-0.167734 0.129935,-0.548797 -0.125,-0.625 -0.141756,-0.144959 -0.630314,-0.224055 -0.28125,-0.40625 -0.139158,-0.0087 -0.491104,0.18592 -0.6875,0.25 -0.398597,-0.02945 0.226489,0.07462 0.375,0.0625 0.134393,0.175787 0.219607,0.434113 0.5,0.46875 -0.273294,0.461723 -0.609305,-0.01006 -0.9375,-0.1875 -0.273207,-0.172323 -0.511291,0.08934 -0.65625,0.34375 0.146692,-0.189729 0.477563,-0.198143 0.53125,0.03125 0.04416,0.338326 -0.399108,0.10401 -0.53125,-0.03125 -0.02857,0.05109 -0.04604,0.104286 -0.0625,0.15625 -0.214929,0.222636 -0.442165,0.0018 -0.21875,-0.25 0.20774,-0.155524 0.321007,-0.388326 0.25,-0.65625 0.08928,-0.260996 0.184523,0.504601 0.28125,-0.03125 0.270175,-0.03117 0.462505,-0.269125 0.75,-0.28125 0.251904,-0.0087 0.342874,-0.298493 0.625,-0.25 0.234239,0.03292 0.171596,0.178734 0.09375,0.25 0.02339,-0.0087 0.0088,0.02165 0.0625,0 0.541736,-0.178298 1.119957,-0.298721 1.6875,-0.34375 z m 3.21875,1.21875 0.0625,0 c 0.186784,0.07274 0.392763,0.164118 0.59375,0.1875 0.28152,-0.0087 0.508961,0.137514 0.125,0.25 -0.449253,-0.084 -0.07866,0.163632 0.09375,0.34375 0.215361,0.02598 0.288017,-0.656562 0.5,-0.25 1.221073,1.128676 2.176773,2.652219 2.40625,4.3125 -0.262646,0.527967 -0.492242,-0.412386 -0.90625,-0.1875 -0.191288,-0.09352 -0.346196,-0.500159 -0.28125,-0.03125 -0.01559,0.227658 0.315499,0.356416 0.40625,0.53125 0.206271,-0.454796 0.428688,0.01141 0.375,0.3125 -0.109805,0.26602 -0.420365,0.437101 -0.65625,0.59375 -0.340404,0.244372 -0.518214,0.499632 0.09375,0.3125 0.0225,0.36872 -0.271,0.687122 -0.375,1.03125 -0.258573,0.221336 -0.410278,0.49998 -0.53125,0.8125 -0.01992,0.394959 -0.06307,0.801288 0.0625,1.1875 -0.07015,0.250952 -0.420906,0.370259 -0.59375,0.5625 -0.410631,0.141497 0.324384,0.342138 0,0.5 -0.334428,0.122964 -0.07056,0.388878 -0.28125,0.5625 -0.18895,0.143401 -0.293969,0.473004 -0.5625,0.4375 -0.275197,-0.08054 -0.442945,0.269765 -0.71875,0.1875 0.01213,-0.416262 -0.06046,-0.804058 -0.21875,-1.1875 -0.198566,-0.423795 -0.244529,-0.947569 -0.03125,-1.375 0.06408,-0.222115 -0.257827,-0.433864 -0.15625,-0.6875 0.111792,-0.272253 -0.160731,-0.39285 -0.21875,-0.59375 0.106601,-0.241252 0.163789,-0.465925 -0.09375,-0.625 -0.267492,0.116127 -0.47241,-0.210748 -0.65625,-0.0625 -0.230332,0.34101 -0.304297,-0.17306 -0.5,0.125 -0.349151,0.344214 -0.744296,-0.567512 -0.96875,-0.84375 -0.0511,-0.219085 -0.363655,-0.434579 -0.125,-0.625 0.292516,-0.203412 -0.108026,-0.325318 0.125,-0.5625 0.159247,-0.5633 0.630152,-0.974316 1,-1.40625 0.430893,-0.116045 0.879958,-0.284515 1.3125,-0.09375 0.175008,0.148685 0.327158,0.419467 0.5,0.5 0.112053,-0.23346 0.415354,-0.259038 0.625,-0.15625 0.218479,0.06408 0.532743,0.175095 0.71875,0 0.235017,-0.144786 0.344126,-0.366493 0,-0.4375 -0.460685,0.186179 -0.517895,-0.552682 -0.84375,-0.40625 -0.01645,0.314773 -0.134537,0.482724 -0.34375,0.125 -0.04157,-0.238568 -0.118242,-0.448985 -0.375,-0.53125 -0.18029,0.05022 0.408939,0.294337 0.125,0.5 -0.293729,0.301436 -0.161521,-0.03528 -0.1875,-0.1875 -0.249918,-0.03117 -0.295787,-0.43123 -0.5625,-0.28125 -0.267492,-0.0087 -0.287486,0.241492 -0.53125,0.3125 -0.04244,0.27234 -0.208274,0.426394 -0.46875,0.5 -0.159768,-0.219605 -0.445414,-0.08678 -0.34375,-0.4375 -0.09075,-0.281518 0.244557,-0.443638 0.46875,-0.46875 0.349928,0.05974 0.02669,-0.366492 -0.0625,-0.4375 0.247662,-0.01647 0.443951,-0.115223 0.5625,-0.34375 -0.01385,-0.367594 0.53598,-0.102918 0.375,-0.375 0.07794,-0.342827 0.126169,-0.04315 0.25,0.0625 0.258832,0.147472 0.44575,0.0071 0.625,-0.1875 0.02857,-0.192586 0.534324,-0.46875 0.40625,-0.46875 -0.44293,0.221596 -0.295234,-0.287756 -0.15625,-0.5 -0.224108,-0.01993 -0.393576,0.200425 -0.5,0.375 0.06234,0.171024 0.04031,0.540062 -0.125,0.59375 -0.228099,-0.04329 -0.315283,-0.474475 -0.53125,-0.1875 -0.201938,0.25355 -0.232531,-0.374448 -0.1875,-0.46875 0.167647,-0.159854 0.540624,-0.177099 0.46875,-0.46875 0.232161,-0.202891 0.518684,-0.282267 0.8125,-0.34375 z m -7.59375,0.1875 c 0.262209,-0.02078 0.458747,0.100244 0.34375,0.375 -0.197784,0.353912 -0.630524,0.49395 -0.9375,0.71875 0,0.301264 0.271044,0.345623 0.5,0.4375 0.185744,0.119242 0.09482,0.621696 0.25,0.15625 0.07015,-0.258227 0.464451,-0.185486 0.375,-0.5 0.138637,-0.164184 0.244805,-0.588045 0.5,-0.3125 0.323345,0.05974 -0.0222,0.481652 0.375,0.21875 0.302909,-0.05974 0.03298,0.453954 0.28125,0.4375 0.312434,0.08226 0.02708,0.394279 0.34375,0.46875 -0.163231,0.372011 -0.249211,0.225006 -0.28125,-0.09375 -0.234066,0.09049 -0.432738,0.190022 -0.6875,0.15625 -0.172236,0.0943 -0.677444,0.266378 -0.21875,0.21875 0.232074,0.0095 0.636883,-0.08589 0.3125,0.21875 -0.103303,0.300917 -0.555888,0.07044 -0.65625,0.375 -0.07187,0.291565 -0.513142,0.149226 -0.5625,0.4375 -0.05022,0.275111 -0.228027,0.434762 -0.4375,0.59375 -0.274418,0.138379 -0.153804,0.501993 -0.21875,0.75 -0.155351,-0.173623 -0.258043,-0.451356 -0.53125,-0.4375 -0.21744,-0.03292 -0.303486,0.232528 -0.59375,0.1875 -0.216835,0.146431 -0.440022,0.30132 -0.40625,0.59375 -0.04763,0.243246 0.0772,0.5 0.34375,0.5 0.218652,-0.147038 0.622801,-0.636818 0.46875,0 -0.324125,0.583821 0.49227,0.03541 0.3125,0.53125 -0.06149,0.357462 0.442371,0.661639 0.625,0.34375 0.194664,-0.129287 0.349736,-0.475775 0.5625,-0.1875 0.18791,0.223934 0.46009,0.205523 0.71875,0.15625 0.200553,0.01905 0.197587,0.339368 0.3125,0.5 0.272167,0.02079 0.463706,0.184547 0.53125,0.46875 0.344128,0.362919 0.908783,0.4497 1.34375,0.71875 -0.0303,0.238568 0.0072,0.511712 -0.1875,0.6875 -0.258139,0.21536 -0.125,0.55695 -0.125,0.84375 -0.120714,0.19631 -0.103257,0.553764 -0.40625,0.53125 -0.237444,-0.0087 -0.470536,0.268803 -0.3125,0.46875 -0.108244,0.21666 -0.136119,0.510068 -0.28125,0.6875 -0.312867,8.3e-4 -0.344898,0.301102 -0.53125,0.46875 -0.04935,0.581483 -0.704702,0.0132 -1.03125,-0.21875 0.01818,-0.244975 0.112088,-0.50052 0.15625,-0.75 -0.12184,-0.222028 -0.202146,-0.434297 -0.15625,-0.6875 0.08573,-0.312694 -0.155222,-0.534043 -0.375,-0.71875 -0.313646,-0.195878 -0.424631,-0.594335 -0.59375,-0.90625 -0.199774,-0.212763 -0.120788,-0.410407 -0.03125,-0.65625 -0.106768,-0.216833 0.165851,-0.368257 0.1875,-0.59375 0.05975,-0.178557 0.253929,-0.565887 -0.09375,-0.53125 -0.24004,0.08313 -0.425931,-0.175074 -0.59375,-0.3125 -0.150333,-0.326116 -0.544404,-0.281802 -0.8125,-0.4375 -0.315465,-0.165829 -0.6196,-0.313497 -0.71875,-0.6875 0.186957,-1.595421 0.862762,-3.110316 1.96875,-4.28125 0.2248,-0.495754 0.867088,-0.434905 0.96875,-0.9375 z m 5.46875,0.59375 c 0.263161,-0.07707 0.243387,0.209431 0.34375,0.375 0.148944,0.24922 0.370192,0.40376 0,0.59375 -0.35625,0.166434 -0.298419,-0.05817 -0.21875,-0.34375 0.08962,-0.260478 -0.170896,-0.380716 -0.125,-0.625 z m -0.40625,0.375 c 0.02598,-0.0087 0.05651,0.02 0.09375,0.03125 0.04244,0.180723 0.239013,0.277071 -0.03125,0.34375 -0.161586,0.142275 -0.244869,-0.316981 -0.0625,-0.375 z"
       style="color:#000000;fill:url(#linearGradient3950-5);fill-opacity:1;fill-rule:nonzero;stroke:none;stroke-width:1;marker:none;visibility:visible;display:inline;overflow:visible;enable-background:accumulate"
       inkscape:connector-curvature="0" />
  </g>
</svg>
