<?xml version="1.0" encoding="UTF-8" standalone="no"?>
<!-- Created with Inkscape (http://www.inkscape.org/) -->
<svg id="svg13094" xmlns:rdf="http://www.w3.org/1999/02/22-rdf-syntax-ns#" xmlns="http://www.w3.org/2000/svg" height="64" width="64" version="1.1" xmlns:cc="http://creativecommons.org/ns#" xmlns:xlink="http://www.w3.org/1999/xlink" xmlns:dc="http://purl.org/dc/elements/1.1/">
	<defs id="defs11">
		<linearGradient id="linearGradient3817">
			<stop id="stop3819" stop-color="#2e2020" stop-opacity="0.20918368" offset="0"/>
			<stop id="stop3821" stop-color="#800000" stop-opacity="0" offset="1"/>
		</linearGradient>
		<radialGradient id="radialGradient3823" xlink:href="#linearGradient3817" gradientUnits="userSpaceOnUse" cy="52.80466" cx="29.99848" gradientTransform="matrix(1.9776652e-8,-0.44005103,1.4375,-4.0708531e-6,-30.8125,22.174921)" r="16"/>
		<radialGradient id="radialGradient3825" xlink:href="#linearGradient3817" gradientUnits="userSpaceOnUse" cy="36.93583" cx="46.15975" gradientTransform="matrix(2.096279e-8,-0.32631713,2.725932,-1.1477746e-5,-67.57524,16.90477)" r="16"/>
		<radialGradient id="radialGradient3827" xlink:href="#linearGradient3817" gradientUnits="userSpaceOnUse" cy="17.89163" cx="47.1402" gradientTransform="matrix(2.1712014e-5,-0.67853516,2.2165484,0,-33.970716,33.417004)" r="16"/>
		<radialGradient id="radialGradient3829" xlink:href="#linearGradient3817" gradientUnits="userSpaceOnUse" cy="42.19962" cx="29.0648" gradientTransform="matrix(1.9776659e-8,-0.44005103,1.4375,-4.0708531e-6,-30.8125,22.174921)" r="16"/>
		<radialGradient id="radialGradient3837" xlink:href="#linearGradient3817" gradientUnits="userSpaceOnUse" cy="39.32011" cx="23.23636" gradientTransform="matrix(-1.3019008e-5,-1.4052387,-1.4052387,0,93.472788,150.44508)" r="16"/>
		<radialGradient id="radialGradient3841" xlink:href="#linearGradient3817" gradientUnits="userSpaceOnUse" cy="40.56699" cx="34.96587" gradientTransform="matrix(-2.096279e-8,-1.0659693,-2.725932,-3.7493971e-5,131.57524,134.22225)" r="16"/>
		<radialGradient id="radialGradient3845" xlink:href="#linearGradient3817" gradientUnits="userSpaceOnUse" cy="28.35227" cx="43.7145" gradientTransform="matrix(-2.1712014e-5,-2.2165482,-2.2165484,0,97.970716,188.16221)" r="16"/>
		<radialGradient id="radialGradient3849" xlink:href="#linearGradient3817" gradientUnits="userSpaceOnUse" cy="49.22028" cx="21.79218" gradientTransform="matrix(-1.9776652e-8,-1.4375,-1.4375,-1.329812e-5,94.8125,151.43807)" r="16"/>
		<radialGradient id="radialGradient3885" gradientUnits="userSpaceOnUse" cy="194.0952" cx="46.23729" gradientTransform="matrix(3.695911e-8,1.2105558,-1.4259153,1.4203482e-7,323.00056,57.800946)" r="32">
			<stop id="stop3881" stop-color="#d56fd7" offset="0"/>
			<stop id="stop3883" stop-color="#d56fd7" stop-opacity="0" offset="1"/>
		</radialGradient>
		<radialGradient id="radialGradient3893" gradientUnits="userSpaceOnUse" cy="142.1778" cx="46.23729" gradientTransform="matrix(8.7851067e-8,1.2105558,-1.4259153,2.850735e-7,248.9708,57.800933)" r="32">
			<stop id="stop3889" stop-color="#6ac1ff" stop-opacity="0.61262053" offset="0"/>
			<stop id="stop3891" stop-color="#4282d6" stop-opacity="0" offset="1"/>
		</radialGradient>
		<radialGradient id="radialGradient3928" gradientUnits="userSpaceOnUse" cx="46.23729" cy="95.09517" r="32" gradientTransform="matrix(3.5763744e-8,1.2105558,-1.4259153,4.2126165e-8,181.83495,57.800971)">
			<stop id="stop3969" stop-color="#dcff48" stop-opacity="0.42219388" offset="0"/>
			<stop id="stop3971" stop-color="#dcff48" stop-opacity="0" offset="1"/>
		</radialGradient>
		<linearGradient id="linearGradient3991" gradientUnits="userSpaceOnUse" x2="64" gradientTransform="translate(0,64)" y1="15" y2="15">
			<stop id="stop4312" stop-color="#c5a1e0" stop-opacity="0.35294119" offset="0"/>
			<stop id="stop4320" stop-color="#e2a5e3" stop-opacity="0.65114796" offset="0.5"/>
			<stop id="stop4314" stop-color="#c5a1e0" stop-opacity="0.35407537" offset="1"/>
		</linearGradient>
		<linearGradient id="linearGradient4005" gradientUnits="userSpaceOnUse" x2="64" gradientTransform="translate(0,17)" y1="15" y2="15">
			<stop id="stop3997" stop-opacity="0.30676019" stop-color="#68b1df" offset="0"/>
			<stop id="stop3999" stop-opacity="0.47512755" stop-color="#a5cbe4" offset="0.5"/>
			<stop id="stop4001" stop-opacity="0.30612245" stop-color="#68b1df" offset="1"/>
		</linearGradient>
		<linearGradient id="linearGradient4017" gradientUnits="userSpaceOnUse" x2="64" gradientTransform="translate(0,34)" y1="15" y2="15">
			<stop id="stop4009" stop-color="#a4e5b6" stop-opacity="0.20344388" offset="0"/>
			<stop id="stop4011" stop-color="#a5e4b6" stop-opacity="0.46173468" offset="0.5"/>
			<stop id="stop4013" stop-color="#a4e5b6" stop-opacity="0.2002551" offset="1"/>
		</linearGradient>
	</defs>
	<metadata id="metadata13099">
		<rdf:RDF>
			<cc:Work rdf:about="">
				<dc:format>image/svg+xml</dc:format>
				<dc:type rdf:resource="http://purl.org/dc/dcmitype/StillImage"/>
				<dc:title/>
			</cc:Work>
		</rdf:RDF>
	</metadata>
	<path id="path3029" fill-rule="nonzero" fill="#c08ec1" d="M0,1,2,0,62,0,64,1,64,16,0,16z"/>
	<g id="g3825" fill-rule="nonzero" transform="translate(0,-64)">
		<path id="path3053" d="m0,112,64,0,0,14-2,2-60,0-2-2z" fill="#578049"/>
		<path id="path3055" d="m0,95,64,0,0,17-64,0z" fill="#5880aa"/>
		<path id="path3809" d="M0,95,64,95,64,79,0,79z" fill="#765093"/>
		<path id="path3053-2" d="m0,112,64,0,0,14-2,2-60,0-2-2z" fill="url(#radialGradient3928)"/>
		<path id="path3055-5" d="m0,95,64,0,0,17-64,0z" fill="url(#radialGradient3893)"/>
		<path id="path3809-9" d="M0,95,64,95,64,79,0,79z" fill="url(#radialGradient3885)"/>
	</g>
	<g id="g3830" fill-rule="nonzero" transform="translate(0,-64)">
		<path id="path3847" d="m0,126,2,2,30,0,0-24-32,0z" fill="url(#radialGradient3849)"/>
		<path id="path3835" d="m64,126-2,2-30,0,0-24,32,0z" fill="url(#radialGradient3837)"/>
		<path id="path3839" d="m0,79,32,0,0,25-32,0z" fill="url(#radialGradient3841)"/>
		<path id="path3843" d="m64,79-32,0,0,25,32,0z" fill="url(#radialGradient3845)"/>
	</g>
	<path id="path3987" d="M1,48,1,31,0,31,0,48z" fill-rule="nonzero" fill-opacity="0.67659948" fill="#9fc9ff"/>
	<path id="path3973" d="M1,63,1,48,0,48,0,62z" fill-rule="nonzero" fill-opacity="0.65381248" fill="#c3f0a6"/>
	<path id="path3807" d="M63,0.5,63,63,1,63,2,64,62,64,64,62,64,1z" fill-opacity="0.11130587" fill-rule="nonzero" fill="#000"/>
	<path id="path3813" fill-rule="nonzero" fill="url(#radialGradient3823)" d="m64,15-32,0,0-7.346939,32,0z"/>
	<path id="path3811" fill-rule="nonzero" fill="url(#radialGradient3829)" d="m0,15,32,0,0-7.346939-32,0z"/>
	<path id="path3815" fill-rule="nonzero" fill="url(#radialGradient3825)" d="m64,1-2-1-30,0,0,7.653061,32,0z"/>
	<path id="path3960" fill-rule="nonzero" fill="url(#radialGradient3827)" d="m0,1,2-1,30,0,0,7.653061-32,0z"/>
	<path id="path3989" d="m0,14,64,0,0,1-64,0z" fill-rule="nonzero" fill="url(#linearGradient3991)"/>
	<path id="path4003" d="m0,31,64,0,0,1-64,0z" fill-rule="nonzero" fill="url(#linearGradient4005)"/>
	<path id="path4015" d="m0,48,64,0,0,1-64,0z" fill-rule="nonzero" fill="url(#linearGradient4017)"/>
	<path id="path3108" fill-opacity="0.42857145" fill="#FFF" d="m25,58.02,0-0.98,0.979995,0,0.980008,0,0,0.98,0,0.98-0.980008,0-0.979995,0,0-0.98zm1.68,0,0-0.7-0.700005,0-0.699993,0,0,0.7,0,0.7,0.699993,0,0.700005,0,0-0.7zm-1.120002,0,0-0.42,0.419997,0,0.420003,0,0,0.42,0,0.42-0.420003,0-0.419997,0,0-0.42zm1.680007,0.42,0-0.56,0.139995,0,0.140001,0,0-0.14,0-0.14,0.140002,0,0.140001,0,0-0.28,0-0.28-0.280003,0-0.279996,0,0-0.42,0-0.42,0.139995,0,0.140001,0,0-0.14,0-0.14-0.279996,0-0.280002,0,0,0.14,0,0.14-0.140001,0-0.140002,0,0,0.14,0,0.14,0.140002,0,0.140001,0,0,0.14,0,0.14-0.419997,0-0.420004,0,0-0.14,0-0.14-0.140007,0-0.139995,0,0,0.14,0,0.14-0.140001,0-0.140001,0,0-0.28,0-0.28-0.140001,0-0.139995,0,0,0.14,0,0.14-0.140001,0-0.140001,0,0-0.14,0-0.14,0.140001,0,0.140001,0,0-0.42,0-0.42-0.140001,0-0.140001,0,0-0.28,0-0.28,0.140001,0,0.140001,0,0-0.14,0-0.14-0.140001,0-0.140001,0,0-0.14,0-0.14,0.559998,0,0.560004,0,0,0.14,0,0.14,0.279996,0,0.280002,0,0-0.14,0-0.14,0.140002,0,0.140001,0,0,0.14,0,0.14-0.140001,0-0.140002,0,0,0.14,0,0.14,0.140002,0,0.140001,0,0,0.14,0,0.14-0.140001,0-0.140002,0,0,0.14,0,0.14,0.140002,0,0.140001,0,0,0.14,0,0.14,0.140002,0,0.14,0,0-0.14,0-0.14,0.139995,0,0.140001,0,0-0.14,0-0.14-0.140001,0-0.139995,0,0-0.42,0-0.42,0.139995,0,0.140001,0,0,0.28,0,0.28,0.140002,0,0.140001,0,0-0.7,0-0.7,0.140001,0,0.139994,0,0,0.42,0,0.42,0.280003,0,0.280002,0,0,0.14,0,0.14-0.140001,0-0.140001,0,0,0.14,0,0.14,0.280002,0,0.280001,0,0-0.98,0-0.98-0.14,0-0.140001,0,0,0.28,0,0.28-0.140001,0-0.140001,0,0-0.28,0-0.28,0.140001,0,0.140001,0,0-0.14,0-0.14-0.280002,0-0.280003,0,0,0.28,0,0.28-0.279995,0-0.280003,0,0,0.14,0,0.14-0.140001,0-0.139995,0,0-0.42,0-0.42,0.139995,0,0.140001,0,0-0.14,0-0.14-0.140001,0-0.139995,0,0-0.14,0-0.14,0.139995,0,0.140001,0,0,0.14,0,0.14,0.420004,0,0.419997,0,0-0.14,0-0.14,0.140001,0,0.140001,0,0,0.28,0,0.28,0.140001,0,0.14,0,0-0.14,0-0.14,0.139996,0,0.140001,0,0,0.14,0,0.14-0.140001,0-0.139996,0,0,0.14,0,0.14,0.139996,0,0.140001,0,0,0.14,0,0.14,0.140001,0,0.140001,0,0-0.42,0-0.42,0.139994,0,0.140002,0,0,0.84,0,0.84-0.140002,0-0.139994,0,0,0.14,0,0.14,0.279996,0,0.280002,0,0,0.14,0,0.14-0.140001,0-0.140001,0,0,0.14,0,0.14,0.280002,0,0.279996,0,0-0.14,0-0.14,0.140001,0,0.140008,0,0-0.14,0-0.14,0.420003,0,0.419997,0,0,0.42,0,0.42,0.279997,0,0.280001,0,0,0.42,0,0.42-0.14,0-0.140001,0,0,0.14,0,0.14,0.140001,0,0.14,0,0,0.28,0,0.28-0.280001,0-0.279997,0,0,0.14,0,0.14,0.279997,0,0.280001,0,0,0.14,0,0.14-0.419997,0-0.420003,0,0-0.28,0-0.28-0.139995,0-0.140013,0,0,0.56,0,0.56,0.140013,0,0.139995,0,0,0.14,0,0.14-0.139995,0-0.140013,0,0,0.14,0,0.14,0.280008,0,0.280002,0,0-0.42,0-0.42,0.279997,0h0.279993v0.56h-0.28001v0.28h-0.280009v0.28h0.559997v0.28h-1.120007v-0.56h-0.27999v0.56h-0.280008v-0.28h-0.559998v-0.84h-0.279996v-0.28h-0.280002v0.28h-0.279997v0.28h0.559999v0.28h-0.280002v0.28h-0.28v0.28h-0.560004v-0.28h0.280003v-0.84h-0.280004v-0.28h0.280003v0.28h0.280001v-0.56h-0.280001v-0.28h-0.560005v0.56h-0.279995v0.56h0.559998v0.28h-0.280005v0.28h-0.279994v0.28h-0.559998v-0.56zm3.36-0.42,0-0.14h-0.280009v0.28h0.280009v-0.14zm0-0.84v-0.42h-0.840007v0.84h0.840007v-0.42zm-0.560005,0,0-0.14,0.140001,0,0.139995,0,0,0.14,0,0.14-0.139995,0-0.140001,0,0-0.14zm-0.559998-0.28,0-0.42-0.280003,0-0.279995,0,0-0.14,0-0.14,0.279995,0,0.280003,0,0-0.14,0-0.14,0.139995,0,0.140001,0,0-0.28,0-0.28-0.140001,0-0.139995,0,0-0.14,0-0.14,0.139995,0,0.140001,0,0-0.14,0-0.14-0.140001,0-0.139995,0,0-0.28,0-0.28-0.140001,0-0.140002,0,0,0.42,0,0.42-0.140001,0-0.139994,0,0,0.14,0,0.14,0.279995,0,0.280003,0,0,0.28,0,0.28-0.280003,0-0.279995,0,0-0.14,0-0.14-0.140001,0-0.140001,0,0-0.14,0-0.14-0.140002,0-0.140001,0,0-0.14,0-0.14-0.140001,0-0.140001,0,0,0.28,0,0.28-0.139995,0-0.140001,0,0,0.28,0,0.28,0.279996,0,0.280002,0,0,0.14,0,0.14-0.140001,0-0.140001,0,0,0.14,0,0.14-0.139995,0-0.140001,0,0-0.14,0-0.14-0.140001,0-0.140002,0,0,0.14,0,0.14,0.140002,0,0.140001,0,0,0.14,0,0.14,0.140001,0,0.139995,0,0-0.14,0-0.14,0.280002,0,0.280003,0,0,0.14,0,0.14,0.280002,0,0.279995,0,0,0.14,0,0.14,0.140002,0,0.140001,0,0-0.42zm-0.84-0.28,0-0.14,0.140001,0,0.140001,0,0,0.14,0,0.14-0.140001,0-0.140001,0,0-0.14zm-0.280003-0.7,0-0.28,0.140001,0,0.140002,0,0,0.14,0,0.14,0.140001,0,0.140001,0,0,0.14,0,0.14-0.280002,0-0.280003,0,0-0.28zm1.959997,0.42,0-0.14,0.140002,0,0.140007,0,0,0.14,0,0.14,0.420003,0,0.419997,0,0-0.28,0-0.28-0.700006,0-0.699999,0,0,0.28,0,0.28,0.140001,0,0.139995,0,0-0.14zm-4.479997-0.28,0-0.14,0.559999,0,0.560004,0,0-0.14,0-0.14-0.140001,0-0.140002,0,0-0.14,0-0.14-0.139994,0-0.140007,0,0-0.14,0-0.14,0.140007,0,0.139994,0,0-0.14,0-0.14-0.280001,0-0.279997,0,0-0.14,0-0.14-0.140007,0-0.139995,0,0,0.14,0,0.14-0.280001,0-0.279997,0,0,0.14,0,0.14,0.279997,0,0.280001,0,0,0.28,0,0.28-0.140001,0-0.14,0,0,0.28,0,0.28,0.14,0,0.140001,0,0-0.14zm0-1.12,0-0.14,0.139995,0,0.140007,0,0,0.14,0,0.14-0.140007,0-0.139995,0,0-0.14zm5.880004,0.56,0-0.14-0.139996,0-0.14,0,0,0.14,0,0.14,0.14,0,0.139996,0,0-0.14zm-1.400005-0.28,0-0.14-0.139996,0-0.14,0,0,0.14,0,0.14,0.14,0,0.139996,0,0-0.14zm0.559998-0.14,0-0.28,0.140013,0,0.139996,0,0-0.14,0-0.14-0.280009,0-0.27999,0,0,0.42,0,0.42,0.139994,0,0.139996,0,0-0.28zm-1.399997-1.4v-0.28h-0.280002v0.56h0.280002v-0.28zm2.239999,0.7,0-0.14,0.140001,0,0.140001,0,0,0.14,0,0.14-0.140001,0-0.140001,0,0-0.14zm-6.72-1.4,0-0.98h0.979995,0.980008v0.98,0.98h-0.980008-0.979995v-0.98zm1.68,0,0-0.7-0.700005,0-0.699992,0,0,0.7,0,0.7,0.699992,0,0.700005,0,0-0.7zm-1.120002,0,0-0.42,0.419997,0,0.420003,0,0,0.42,0,0.42-0.420003,0-0.419997,0,0-0.42zm1.680007,0.84,0-0.14,0.139995,0,0.140001,0,0,0.14,0,0.14-0.140001,0-0.139995,0,0-0.14zm1.119997,0,0-0.14,0.140001,0,0.140001,0,0,0.14,0,0.14-0.140001,0-0.140001,0,0-0.14zm1.680001-0.84,0-0.98,0.980007,0h0.979997v1.96h-1.960004v-0.98zm1.68,0,0-0.7-0.699993,0-0.700012,0,0,0.7,0,0.7,0.700012,0,0.699993,0,0-0.7zm-1.119996,0,0-0.42,0.420003,0,0.419998,0,0,0.42,0,0.42-0.419998,0-0.420003,0,0-0.42z"/>
	<g id="g3964" fill-opacity="0.42156007" fill-rule="nonzero" transform="matrix(0.12393623,0,0,0.12393623,428.23061,-0.663253)" fill="#FFF">
		<path id="path4101" opacity="0.74089756" d="m-3413.832,424.9234c-0.2259,0.00013-0.4362,0.18988-0.4586,0.41459,0,0-0.7862,7.84501-0.5804,11.05104,0.1031,1.6188,0.7646,5.58629,2.0267,9.83478,1.2623,4.24849,3.1009,8.7474,5.6972,11.34366-0.0002,0.00012,0.02,0.0145,0.02,0.0145,1.1678,1.07005,1.69,1.89795,1.9766,3.33668,0.2864,1.43879,0.2927,3.50116,0.2927,6.8341-0.0002,3.83149,0.04,3.20302-0.1019,5.90948-0.071,1.35299-0.1865,2.4742-0.3649,3.24535-0.089,0.38559-0.1948,0.68379-0.2946,0.86366-0.1019,0.17974-0.1763,0.21611-0.1928,0.22096-1.3829,0.37066-2.993,1.02505-4.3753,1.708-1.3823,0.68279-2.4973,1.3259-3.0224,1.93807-0.1075,0.13807-0.143,0.33297-0.069,0.49254,0.072,0.15879,0.2442,0.26767,0.4189,0.26796l9.9956-0.00007,9.9929-0.00004c0.1763,0.00043,0.3459-0.10858,0.4196-0.26717,0.072-0.15858,0.045-0.35958-0.069-0.49247-0.5248-0.61227-1.6399-1.25528-3.0223-1.9382-1.3823-0.68276-2.9921-1.33722-4.3752-1.70785-0.02-0.008-0.091-0.0409-0.1907-0.2209-0.102-0.18035-0.2052-0.47801-0.2953-0.86356-0.1783-0.77117-0.2945-1.89234-0.3646-3.24558-0.141-2.70637-0.102-2.07778-0.102-5.90942,0-3.33178,0-5.39338,0.2926-6.83165,0.2862-1.43825,0.8074-2.26804,1.9745-3.33893,0-0.003,0-0.008,0.02-0.0124,2.6506-2.65071,4.4937-7.15119,5.7425-11.38683,1.2485-4.23566,1.88-8.17993,1.9838-9.794,0.2053-3.20684-0.5781-11.00534-0.5781-11.00534,0.0004-0.24084-0.2195-0.46058-0.4607-0.46058h-21.9269z"/>
		<path id="rect3930" opacity="0.74089756" d="m-3368.107,424.9234-14.2063,19.75025,9.4709,0,0,35.31947-13.0052,0,0,2.40238,10.418,0,14.6453,0,10.418,0,0-2.40238-13.0052,0,0-35.31947,9.4708,0z"/>
		<path id="path2985" opacity="0.74089756" d="m-3311.699,424.9249c-0.4839,0.004-0.9154,0.60292-1.0183,1.46769-15.5499,0.36495-29.3196,10.01703-32.6754,23.88816,1.0426-2.20623,3.6079-3.66653,6.4427-3.68019,0.4637-0.002,0.9354,0.035,1.408,0.11315,2.5736,0.426,4.6186,2.01225,5.3396,4.0793l0.2545,0.002c1.1831-2.61305,4.4899-4.20765,7.8852-3.64561,2.4406,0.40398,4.4083,1.85064,5.2201,3.76189h0.057c0.8484-2.39634,3.4339-4.04229,6.3547-4.15788-0.011,5.54098-0.02,13.29022-0.011,18.80944l-0.924,0.10692c0.1912,1.62598-0.4947,5.58712,0.1697,9.25544,0.3323,1.83416,1.063,3.6992,2.5896,5.11014,1.5268,1.41095,3.7593,2.25768,6.7036,2.35708l0.098,0.002,0.1008-0.009c3.9787-0.3756,6.3805-2.23105,7.3855-4.4973,1.005-2.26624,0.8266-4.65256,0.8266-6.37353h-3.0736c0,1.84154,0.032,3.7862-0.5626,5.129-0.5892,1.32865-1.5902,2.35161-4.7708,2.67135-2.365-0.0964-3.7333-0.71745-4.6198-1.53682-0.8997-0.83145-1.3952-1.97661-1.6532-3.40048-0.5156-2.84772,0.1769-6.38641-0.1381-9.06687l-0.7071,0.0818c-0.013-5.48752,0-13.08528,0.011-18.57376,0.09,0.012,0.1799,0.0228,0.2703,0.0378,2.6132,0.43255,4.6808,2.06306,5.371,4.17673h0.2326c1.0203-2.83874,4.4774-4.62121,8.036-4.03217,2.6042,0.43107,4.6672,2.05163,5.3647,4.15474h0.089c1.031-2.82538,4.4807-4.59451,8.0297-4.00701,2.5927,0.42915,4.6487,2.03686,5.3553,4.12644l0.3394,0.002c-2.4757-12.23854-13.2547-21.89096-27.1504-24.31243-1.8764-0.32696-3.7461-0.51145-5.5972-0.56568-0.084-0.72651-0.4058-1.29745-0.8203-1.44254-0.071-0.0248-0.141-0.0352-0.2105-0.0345z"/>
	</g>
	<path id="path3028" fill-opacity="0.20858896" fill="#1f0700" d="m64,17-2-2,2-1z"/>
	<path id="path3982" fill="#b79bcc" d="M5,19v8h1.46875v-3.4375l1.21875,0.03125c0.348533,0,0.563276-0.004,0.625,0,0.083499,0.13796,0.304078,0.5646,0.65625,1.3125l0.9375,2.09375h1.59375l-1.1875-2.46875c-0.29045-0.59904-0.522704-0.99728-0.71875-1.21875,0.9621-0.33401,1.43749-1.03361,1.4375-2.09375-0.00001-0.35942-0.05823-0.67609-0.15625-0.9375-0.0944-0.26503-0.208-0.46162-0.375-0.625-0.16338-0.16332-0.38759-0.31185-0.65625-0.40625-0.265038-0.09802-0.546047-0.15119-0.84375-0.1875-0.294082-0.0363-0.628259-0.06249-1.03125-0.0625h-2.96875zm14.96875,0v8h1.46875v-3.4375l1.21875,0.03125c0.34853,0,0.56328-0.004,0.625,0,0.0835,0.13796,0.30408,0.5646,0.65625,1.3125l0.9375,2.09375h1.59375l-1.1875-2.46875c-0.29045-0.59904-0.5227-0.99728-0.71875-1.21875,0.9621-0.33401,1.43749-1.03361,1.4375-2.09375-0.00001-0.35942-0.05823-0.67609-0.15625-0.9375-0.0944-0.26503-0.208-0.46162-0.375-0.625-0.16338-0.16337-0.38759-0.31185-0.65625-0.40625-0.26504-0.09802-0.54605-0.15119-0.84375-0.1875-0.29408-0.0363-0.62826-0.06249-1.03125-0.0625h-2.96875zm-5.28125,0.03125l-2.9375,7.96875h1.5625l0.78125-2.25h2.8125l0.78125,2.25h1.5l-2.875-7.96875h-1.625zm-8.21875,1.0625h1.6875c0.515539,0.00001,0.905734,0.0961,1.15625,0.28125,0.250505,0.18517,0.374994,0.4829,0.375,0.875-0.000006,0.44657-0.128125,0.76544-0.375,0.96875-0.246885,0.19968-0.652383,0.28126-1.21875,0.28125h-0.8125c-0.486501-0.004-0.758044,0.00001-0.8125,0v-2.40625zm14.96875,0h1.6875c0.51554,0.00001,0.90574,0.0961,1.15625,0.28125,0.25051,0.18517,0.37499,0.4829,0.375,0.875-0.00001,0.44657-0.12813,0.76544-0.375,0.96875-0.24689,0.19968-0.65238,0.28126-1.21875,0.28125h-0.8125c-0.4865-0.004-0.75804,0.00001-0.8125,0v-2.40625zm-5.9375,0.3125c0.01815,0.069,0.37774,1.15516,1.03125,3.25h-2.0625l1.03125-3.25z"/>
	<path id="path3977" fill-opacity="0.78177035" fill="#e5cef6" d="M5,19v1h2.96875c0.402991,0.00001,0.737168,0.0262,1.03125,0.0625,0.297703,0.03631,0.578712,0.08948,0.84375,0.1875,0.26866,0.0944,0.49287,0.24293,0.65625,0.40625,0.167,0.16338,0.2806,0.35997,0.375,0.625,0.03838,0.10234,0.06868,0.22522,0.09375,0.34375,0.01913-0.13575,0.0625-0.256,0.0625-0.40625-0.00001-0.35942-0.05823-0.67609-0.15625-0.9375-0.0944-0.26503-0.208-0.46162-0.375-0.625-0.16338-0.16332-0.38759-0.31185-0.65625-0.40625-0.265038-0.09802-0.546047-0.15119-0.84375-0.1875-0.294082-0.0363-0.628259-0.06249-1.03125-0.0625h-2.96875zm14.96875,0v1h2.96875c0.40299,0.00001,0.73717,0.0262,1.03125,0.0625,0.2977,0.03631,0.57871,0.08948,0.84375,0.1875,0.26866,0.0944,0.49287,0.24288,0.65625,0.40625,0.167,0.16338,0.2806,0.35997,0.375,0.625,0.03838,0.10234,0.06868,0.22522,0.09375,0.34375,0.01913-0.13575,0.0625-0.256,0.0625-0.40625-0.00001-0.35942-0.05823-0.67609-0.15625-0.9375-0.0944-0.26503-0.208-0.46162-0.375-0.625-0.16338-0.16337-0.38759-0.31185-0.65625-0.40625-0.26504-0.09802-0.54605-0.15119-0.84375-0.1875-0.29408-0.0363-0.62826-0.06249-1.03125-0.0625h-2.96875zm-5.28125,0.03125l-2.9375,7.96875h0.375l2.5625-6.96875h1.625l2.5,6.96875h0.375l-2.875-7.96875h-1.625zm-5.09375,2.78125c-0.06289,0.16095-0.157813,0.3046-0.28125,0.40625-0.246885,0.19968-0.652383,0.28126-1.21875,0.28125h-0.8125c-0.486501-0.004-0.758044,0.00001-0.8125,0v1c0.054456,0.00001,0.325999-0.004,0.8125,0h0.8125c0.566367,0.00001,0.971865-0.08157,1.21875-0.28125,0.246875-0.20331,0.374994-0.52218,0.375-0.96875-0.000002-0.17016-0.046736-0.30437-0.09375-0.4375zm14.96875,0c-0.06289,0.16095-0.15781,0.3046-0.28125,0.40625-0.24689,0.19968-0.65238,0.28126-1.21875,0.28125h-0.8125c-0.4865-0.004-0.75804,0.00001-0.8125,0v1c0.05446,0.00001,0.326-0.004,0.8125,0h0.8125c0.56637,0.00001,0.97186-0.08157,1.21875-0.28125,0.24687-0.20331,0.37499-0.52218,0.375-0.96875,0-0.17016-0.04674-0.30437-0.09375-0.4375zm-9.78125,1.84375l-0.3125,1h2.0625c-0.2008-0.64367-0.16858-0.54704-0.3125-1h-1.4375zm-4.71875,0.4375c-0.141242,0.08333-0.296298,0.15888-0.46875,0.21875,0.196046,0.22147,0.4283,0.61971,0.71875,1.21875l0.71875,1.46875h0.46875l-1.1875-2.46875c-0.08577-0.1769-0.17381-0.295-0.25-0.4375zm14.96875,0c-0.14124,0.08333-0.2963,0.15888-0.46875,0.21875,0.19605,0.22147,0.4283,0.61971,0.71875,1.21875l0.71875,1.46875h0.46875l-1.1875-2.46875c-0.08577-0.1769-0.17381-0.295-0.25-0.4375z"/>
	<path id="path3043" fill-opacity="0.53987732" fill="#371b4b" d="M6.46875,20.09375v1h1.6875c0.515539,0.00001,0.905734,0.0961,1.15625,0.28125,0.125253,0.09258,0.218814,0.22841,0.28125,0.375,0.04907-0.14835,0.093748-0.30298,0.09375-0.5-0.000006-0.3921-0.124495-0.68983-0.375-0.875-0.250516-0.18515-0.640711-0.28124-1.15625-0.28125h-1.6875zm14.96875,0v1h1.6875c0.51554,0.00001,0.90574,0.0961,1.15625,0.28125,0.12525,0.09258,0.21881,0.22841,0.28125,0.375,0.04907-0.14835,0.09375-0.30298,0.09375-0.5-0.00001-0.3921-0.12449-0.68983-0.375-0.875-0.25051-0.18515-0.64071-0.28124-1.15625-0.28125h-1.6875zm-5.9375,0.3125l-1.03125,3.25h0.3125l0.71875-2.25c0.01257,0.0478,0.39427,1.22879,0.71875,2.25h0.3125c-0.65351-2.09484-1.0131-3.181-1.03125-3.25zm-4.53125,1.21875c-0.11585,0.82209-0.54926,1.40083-1.375,1.6875,0.138153,0.15607,0.28694,0.4412,0.46875,0.78125,0.64674-0.38158,0.96874-1.00489,0.96875-1.875,0-0.2187-0.02354-0.40952-0.0625-0.59375zm14.96875,0c-0.11586,0.82209-0.54926,1.40083-1.375,1.6875,0.13815,0.15607,0.28694,0.4412,0.46875,0.78125,0.64674-0.38158,0.96874-1.00489,0.96875-1.875,0-0.2187-0.02353-0.40952-0.0625-0.59375zm-19.46875,1.9375v1l1.21875,0.03125c0.348533,0,0.563276-0.004,0.625,0,0.083499,0.13796,0.304078,0.5646,0.65625,1.3125l0.9375,2.09375h1.59375l-0.46875-1h-1.125l-0.9375-2.09375c-0.352172-0.7479-0.572751-1.17454-0.65625-1.3125-0.061724-0.004-0.276467,0-0.625,0l-1.21875-0.03125zm14.96875,0v1l1.21875,0.03125c0.34853,0,0.56328-0.004,0.625,0,0.0835,0.13796,0.30408,0.5646,0.65625,1.3125l0.9375,2.09375h1.59375l-0.46875-1h-1.125l-0.9375-2.09375c-0.35217-0.7479-0.57275-1.17454-0.65625-1.3125-0.06172-0.004-0.27647,0-0.625,0l-1.21875-0.03125zm-7.34375,1.1875l-0.78125,2.25h-1.1875l-0.375,1h1.5625l0.78125-2.25h2.8125l0.78125,2.25h1.5l-0.375-1h-1.125l-0.78125-2.25h-2.8125zm-9.09375,2.25v1h1.46875v-1h-1.46875zm14.96875,0v1h1.46875v-1h-1.46875z"/>
	<path id="path4299" d="M1,31,1,0.5,0,1,0,31z" fill-opacity="0.44171783" fill-rule="nonzero" fill="#facffb"/>
	<path id="path3878" d="m0,30,64,0,0,1-64,0z" fill-opacity="0.13672216" fill-rule="nonzero" fill="#000"/>
	<path id="path4019" d="m0,47,64,0,0,1-64,0z" fill-rule="nonzero" fill-opacity="0.13672216" fill="#000"/>
	<path id="path3028-3" fill="#f2bff2" d="M0,17,2,15,0,14z"/>
</svg>
