<?xml version="1.0" encoding="UTF-8" standalone="no"?>
<!-- Created with Inkscape (http://www.inkscape.org/) -->

<svg
   xmlns:dc="http://purl.org/dc/elements/1.1/"
   xmlns:cc="http://creativecommons.org/ns#"
   xmlns:rdf="http://www.w3.org/1999/02/22-rdf-syntax-ns#"
   xmlns:svg="http://www.w3.org/2000/svg"
   xmlns="http://www.w3.org/2000/svg"
   xmlns:xlink="http://www.w3.org/1999/xlink"
   xmlns:sodipodi="http://sodipodi.sourceforge.net/DTD/sodipodi-0.dtd"
   xmlns:inkscape="http://www.inkscape.org/namespaces/inkscape"
   version="1.1"
   width="64"
   height="64"
   id="svg13094"
   inkscape:version="0.48.3.1 r9886"
   sodipodi:docname="ini.svg">
  <sodipodi:namedview
     pagecolor="#dbdde3"
     bordercolor="#666666"
     borderopacity="1"
     objecttolerance="10"
     gridtolerance="10"
     guidetolerance="10"
     inkscape:pageopacity="1"
     inkscape:pageshadow="2"
     inkscape:window-width="1920"
     inkscape:window-height="1033"
     id="namedview37"
     showgrid="false"
     showborder="false"
     inkscape:snap-bbox="true"
     inkscape:bbox-paths="true"
     inkscape:bbox-nodes="true"
     inkscape:snap-bbox-edge-midpoints="true"
     inkscape:snap-bbox-midpoints="true"
     inkscape:object-paths="true"
     inkscape:snap-intersection-paths="true"
     inkscape:object-nodes="true"
     inkscape:snap-smooth-nodes="true"
     inkscape:snap-midpoints="true"
     inkscape:snap-object-midpoints="true"
     inkscape:snap-center="true"
     inkscape:zoom="7.375"
     inkscape:cx="20.055611"
     inkscape:cy="23.959768"
     inkscape:window-x="-10"
     inkscape:window-y="25"
     inkscape:window-maximized="1"
     inkscape:current-layer="svg13094"
     inkscape:snap-global="true">
    <inkscape:grid
       type="xygrid"
       id="grid3881" />
  </sodipodi:namedview>
  <defs
     id="defs11">
    <radialGradient
       cx="48.30785"
       cy="47.141338"
       r="14.16129"
       id="radialGradient3996"
       gradientUnits="userSpaceOnUse"
       gradientTransform="matrix(0.93962333,0.77477937,-1.7975241,2.1799696,88.130548,-93.365748)">
      <stop
         id="stop3954"
         style="stop-color:#000000;stop-opacity:0.22264875"
         offset="0" />
      <stop
         id="stop3958"
         style="stop-color:#000000;stop-opacity:0.0678183"
         offset="0.5" />
      <stop
         id="stop3956"
         style="stop-color:#000000;stop-opacity:0.02431222"
         offset="1" />
    </radialGradient>
    <linearGradient
       x1="48.917568"
       y1="46.213669"
       x2="32.669781"
       y2="24"
       id="linearGradient4259"
       gradientUnits="userSpaceOnUse">
      <stop
         id="stop3988"
         style="stop-color:#ffffff;stop-opacity:0.52975047"
         offset="0" />
      <stop
         id="stop3990"
         style="stop-color:#ffffff;stop-opacity:0"
         offset="1" />
    </linearGradient>
    <linearGradient
       x1="48.992088"
       y1="46.124821"
       x2="37"
       y2="36"
       id="linearGradient4280"
       gradientUnits="userSpaceOnUse">
      <stop
         id="stop4293"
         style="stop-color:#558b8c;stop-opacity:1"
         offset="0" />
      <stop
         id="stop4295"
         style="stop-color:#4f8183;stop-opacity:1"
         offset="0.2098622" />
      <stop
         id="stop4297"
         style="stop-color:#5b9597;stop-opacity:1"
         offset="1" />
    </linearGradient>
    <linearGradient
       x1="45"
       y1="52"
       x2="73"
       y2="4"
       id="linearGradient4308"
       gradientUnits="userSpaceOnUse">
      <stop
         id="stop4304"
         style="stop-color:#000000;stop-opacity:0.10677083"
         offset="0" />
      <stop
         id="stop4306"
         style="stop-color:#000000;stop-opacity:0"
         offset="1" />
    </linearGradient>
    <radialGradient
       cx="60.561817"
       cy="21.045019"
       r="2"
       fx="59.603962"
       fy="21.240686"
       id="radialGradient3811"
       xlink:href="#radialGradient3996"
       gradientUnits="userSpaceOnUse"
       gradientTransform="matrix(0,19.318815,-3.4300596,0,132.74749,-1136.9636)" />
    <linearGradient
       y2="-397.92902"
       x2="215.13762"
       y1="-335.92902"
       x1="215.13779"
       gradientTransform="translate(-194.32386,400.06331)"
       gradientUnits="userSpaceOnUse"
       id="linearGradient5657"
       xlink:href="#linearGradient4475"
       inkscape:collect="always" />
    <linearGradient
       id="linearGradient4475">
      <stop
         offset="0"
         style="stop-color:#629ea0;stop-opacity:1"
         id="stop4477" />
      <stop
         offset="0.50050378"
         style="stop-color:#76b1b3;stop-opacity:1"
         id="stop4479" />
      <stop
         offset="0.51600277"
         style="stop-color:#629ea0;stop-opacity:1"
         id="stop4481" />
      <stop
         offset="1"
         style="stop-color:#76b1b3;stop-opacity:1"
         id="stop4483" />
    </linearGradient>
    <linearGradient
       inkscape:collect="always"
       xlink:href="#linearGradient5478"
       id="linearGradient4549"
       gradientUnits="userSpaceOnUse"
       gradientTransform="translate(-3117.6016,-1600.2279)"
       x1="3113.439"
       y1="1664.3622"
       x2="3113.439"
       y2="1602.3622" />
    <linearGradient
       gradientUnits="userSpaceOnUse"
       id="linearGradient5478"
       y2="2"
       x2="31"
       y1="64"
       x1="31">
      <stop
         offset="0"
         style="stop-color:#d8d8d8;stop-opacity:1"
         id="stop5480" />
      <stop
         offset="0.50050378"
         style="stop-color:#e4e4e4;stop-opacity:1"
         id="stop5482" />
      <stop
         offset="0.51612902"
         style="stop-color:#d8d8d8;stop-opacity:1"
         id="stop5484" />
      <stop
         offset="1"
         style="stop-color:#e4e4e4;stop-opacity:1"
         id="stop5486" />
    </linearGradient>
  </defs>
  <metadata
     id="metadata13099">
    <rdf:RDF>
      <cc:Work
         rdf:about="">
        <dc:format>image/svg+xml</dc:format>
        <dc:type
           rdf:resource="http://purl.org/dc/dcmitype/StillImage" />
        <dc:title />
      </cc:Work>
    </rdf:RDF>
  </metadata>
  <path
     d="M 4,0 64,0 64,62 4,62 z"
     id="path3960"
     style="fill:#4a7a7e;fill-opacity:1;fill-rule:nonzero" />
  <path
     d="m 60,2 4,4 0,31 -4,-4 z"
     id="path3900"
     style="fill:url(#radialGradient3811);fill-rule:nonzero" />
  <path
     d="m 60,33 4,4 0,25 -28.32258,0 z"
     id="path3934"
     style="fill:url(#radialGradient3996);fill-rule:nonzero" />
  <path
     d="M 63,0 V 61 H 4 v 1 h 59 1 V 61 0 h -1 z"
     id="path4299"
     style="fill:#000000;fill-opacity:0.0715548;fill-rule:nonzero" />
  <path
     d="M 60,2 60,33 35,62 37,62 60.78125,33.65625 61,33.375 61,33 61,3 z"
     id="path3922"
     style="fill:url(#linearGradient4308);fill-rule:nonzero" />
  <path
     d="M 0,2 60,2 60,33 34,64 0,64 z"
     id="path4257"
     style="fill:url(#linearGradient4259);fill-rule:nonzero" />
  <path
     d="M 0,2 60,2 60,33 34,64 0,64 z"
     id="path3982"
     style="fill:url(#linearGradient5657);fill-rule:nonzero;color:#000000;fill-opacity:1;stroke:none;stroke-width:1;marker:none;visibility:visible;display:inline;overflow:visible;enable-background:accumulate" />
  <path
     d="M 0,2 60,2 60,3 0,3 z"
     id="path4253"
     style="fill:#9bd4d6;fill-opacity:1;fill-rule:nonzero" />
  <path
     d="m 0,63 35,0 -1,1 -34,0 z"
     id="path4255"
     style="fill:#000000;fill-opacity:0.15547707;fill-rule:nonzero" />
  <path
     d="M 4,0 64,0 64,1 4,1 z"
     id="path3878"
     style="fill:#9bd4d6;fill-opacity:1;fill-rule:nonzero" />
  <path
     style="color:#000000;fill:#ffffff;fill-opacity:0.04770318;fill-rule:nonzero;stroke:none;stroke-width:2.28571415000000000;marker:none;visibility:visible;display:inline;overflow:visible;enable-background:accumulate"
     d="M 0 5 L 0 6 L 60 6 L 60 5 L 0 5 z M 0 8 L 0 9 L 60 9 L 60 8 L 0 8 z M 0 11 L 0 12 L 60 12 L 60 11 L 0 11 z M 0 14 L 0 15 L 60 15 L 60 14 L 0 14 z M 0 17 L 0 18 L 60 18 L 60 17 L 0 17 z M 0 20 L 0 21 L 60 21 L 60 20 L 0 20 z M 0 23 L 0 24 L 60 24 L 60 23 L 0 23 z M 0 26 L 0 27 L 60 27 L 60 26 L 0 26 z M 0 29 L 0 30 L 60 30 L 60 29 L 0 29 z M 0 32 L 0 33 L 60 33 L 60 32 L 0 32 z M 0 35 L 0 36 L 57.46875 36 L 58.3125 35 L 0 35 z M 0 38 L 0 39 L 54.96875 39 L 55.8125 38 L 0 38 z M 0 41 L 0 42 L 52.4375 42 L 53.28125 41 L 0 41 z M 0 44 L 0 45 L 49.9375 45 L 50.78125 44 L 0 44 z M 0 47 L 0 48 L 47.40625 48 L 48.25 47 L 0 47 z M 0 50 L 0 51 L 44.90625 51 L 45.75 50 L 0 50 z M 0 53 L 0 54 L 42.375 54 L 43.21875 53 L 0 53 z M 0 56 L 0 57 L 39.875 57 L 40.71875 56 L 0 56 z M 0 59 L 0 60 L 37.34375 60 L 38.1875 59 L 0 59 z "
     id="path3883" />
  <path
     d="M 34,64 60,33 c -2.328567,2.776369 -4.36141,3 -11,3 H 37 v 15 c 0,6.644068 0.04437,9.370179 -3,13 z"
     id="path4278"
     style="fill:url(#linearGradient4280);fill-rule:nonzero" />
  <path
     d="m 59,32 c -2.328567,2.776369 -4.36141,3 -11,3 H 36 v 15 c 0,6.644068 0.04437,9.370179 -3,13 4,-5 4.000382,-8.356667 4,-13 V 36 h 11 c 5,0 8.041405,-0.381883 11,-4 z"
     id="path4282"
     style="fill:#9bd4d6;fill-opacity:1;fill-rule:nonzero"
     inkscape:connector-curvature="0" />
  <path
     style="color:#000000;fill:url(#linearGradient4549);fill-opacity:1;fill-rule:nonzero;stroke:none;stroke-width:1;marker:none;visibility:visible;display:inline;overflow:visible;enable-background:accumulate"
     d="M 17 7 C 16.3666 7.012 15.916801 7.54956 15.75 8.1875 L 15.0625 11.6875 C 13.604301 12.19438 12.266 12.9452 11.125 13.9375 L 7.8125 12.8125 C 7.3049 12.6517 6.478801 12.637301 6.125 13.25 L 4.125 16.75 C 3.819 17.304621 4.0931 17.91164 4.5625 18.375 L 7.25 20.6875 C 7.106 21.43124 7 22.21412 7 23 C 7 23.78588 7.106 24.56876 7.25 25.3125 L 4.5625 27.625 C 4.1691 27.98422 3.7714 28.637339 4.125 29.25 L 6.125 32.75 C 6.452401 33.292359 7.1767 33.3621 7.8125 33.1875 L 11.125 32.0625 C 12.266 33.0548 13.604301 33.80562 15.0625 34.3125 L 15.75 37.8125 C 15.864001 38.33246 16.2926 39 17 39 L 21 39 C 21.6334 38.988 22.084001 38.45044 22.25 37.8125 L 22.9375 34.3125 C 24.3959 33.80562 25.734 33.0548 26.875 32.0625 L 30.1875 33.1875 C 30.6951 33.3483 31.521199 33.362699 31.875 32.75 L 33.875 29.25 C 34.181 28.695379 33.9071 28.08836 33.4375 27.625 L 30.75 25.3125 C 30.894 24.56876 31 23.78588 31 23 C 31 22.21412 30.894 21.43124 30.75 20.6875 L 33.4375 18.375 C 33.8309 18.01578 34.2286 17.362661 33.875 16.75 L 31.875 13.25 C 31.547599 12.707641 30.8233 12.6379 30.1875 12.8125 L 26.875 13.9375 C 25.734 12.9452 24.3959 12.19438 22.9375 11.6875 L 22.25 8.1875 C 22.136001 7.66754 21.7074 7 21 7 L 17 7 z M 19 16 C 22.865993 16 26 19.134007 26 23 C 26 26.865993 22.865993 30 19 30 C 15.134007 30 12 26.865993 12 23 C 12 19.134007 15.134007 16 19 16 z M 43.71875 16 C 43.512894 15.99 43.286561 16.11713 43.125 16.28125 L 42.0625 17.5 C 41.370986 17.366636 40.643539 17.394897 39.9375 17.53125 L 38.84375 16.28125 C 38.676377 16.098358 38.347544 15.928537 38.0625 16.09375 L 36.46875 17.03125 C 36.216327 17.184016 36.136971 17.485238 36.21875 17.78125 L 36.78125 19.375 C 36.312055 19.919807 35.94676 20.521176 35.71875 21.1875 L 34.125 21.5 C 33.88291 21.55375 33.530718 21.764233 33.53125 22.09375 L 33.53125 23.96875 C 33.53745 24.263699 33.796388 24.422919 34.09375 24.5 L 35.71875 24.8125 C 35.834426 25.145817 35.972709 25.495833 36.15625 25.8125 C 36.339793 26.129168 36.580776 26.421444 36.8125 26.6875 L 36.25 28.25 C 36.17537 28.486624 36.18318 28.835713 36.46875 29 L 38.09375 29.9375 C 38.352343 30.079578 38.659586 29.937576 38.875 29.71875 L 39.9375 28.5 C 40.629015 28.633364 41.35654 28.605055 42.0625 28.46875 L 43.15625 29.71875 C 43.323622 29.901642 43.652456 30.071462 43.9375 29.90625 L 45.53125 28.96875 C 45.783674 28.815985 45.863351 28.514575 45.78125 28.21875 L 45.21875 26.625 C 45.688025 26.080146 46.053239 25.478824 46.28125 24.8125 L 47.875 24.5 C 48.117089 24.44625 48.469284 24.235765 48.46875 23.90625 L 48.46875 22.03125 C 48.46255 21.7363 48.203692 21.577036 47.90625 21.5 L 46.28125 21.1875 C 46.165574 20.854183 46.027291 20.504168 45.84375 20.1875 C 45.660207 19.870832 45.419224 19.578556 45.1875 19.3125 L 45.75 17.75 C 45.82463 17.513376 45.81682 17.164287 45.53125 17 L 43.90625 16.0625 C 43.841602 16.026981 43.787369 16.003335 43.71875 16 z M 19 19 C 16.790861 19 15 20.790861 15 23 C 15 25.209139 16.790861 27 19 27 C 21.209139 27 23 25.209139 23 23 C 23 20.790861 21.209139 19 19 19 z M 41 20 C 42.656854 20 44 21.343146 44 23 C 44 24.656854 42.656854 26 41 26 C 39.343146 26 38 24.656854 38 23 C 38 21.343146 39.343146 20 41 20 z "
     id="path3885" />
</svg>
