<?xml version="1.0" encoding="UTF-8" standalone="no"?>
<!-- Created with Inkscape (http://www.inkscape.org/) -->

<svg
   xmlns:dc="http://purl.org/dc/elements/1.1/"
   xmlns:cc="http://creativecommons.org/ns#"
   xmlns:rdf="http://www.w3.org/1999/02/22-rdf-syntax-ns#"
   xmlns:svg="http://www.w3.org/2000/svg"
   xmlns="http://www.w3.org/2000/svg"
   xmlns:xlink="http://www.w3.org/1999/xlink"
   xmlns:sodipodi="http://sodipodi.sourceforge.net/DTD/sodipodi-0.dtd"
   xmlns:inkscape="http://www.inkscape.org/namespaces/inkscape"
   version="1.1"
   width="64"
   height="64"
   id="svg13094"
   inkscape:version="0.48.3.1 r9886"
   sodipodi:docname="package-tar.gz.svg">
  <sodipodi:namedview
     pagecolor="#ffffff"
     bordercolor="#666666"
     borderopacity="1"
     objecttolerance="10"
     gridtolerance="10"
     guidetolerance="10"
     inkscape:pageopacity="0"
     inkscape:pageshadow="2"
     inkscape:window-width="1920"
     inkscape:window-height="1033"
     id="namedview44"
     showgrid="false"
     inkscape:zoom="10.429825"
     inkscape:cx="35.517099"
     inkscape:cy="33.244181"
     inkscape:window-x="-2"
     inkscape:window-y="25"
     inkscape:window-maximized="1"
     inkscape:current-layer="svg13094" />
  <defs
     id="defs11">
    <linearGradient
       id="linearGradient3817">
      <stop
         id="stop3819"
         style="stop-color:#223f5e;stop-opacity:0.11670918;"
         offset="0" />
      <stop
         id="stop3821"
         style="stop-color:#800000;stop-opacity:0"
         offset="1" />
    </linearGradient>
    <linearGradient
       y1="15"
       x2="64"
       y2="15"
       id="linearGradient4322"
       gradientUnits="userSpaceOnUse">
      <stop
         id="stop4312"
         style="stop-color:#fff94a;stop-opacity:0"
         offset="0" />
      <stop
         id="stop4320"
         style="stop-color:#fffb80;stop-opacity:0.65114796"
         offset="0.5" />
      <stop
         id="stop4314"
         style="stop-color:#fff94a;stop-opacity:0"
         offset="1" />
    </linearGradient>
    <radialGradient
       cx="29.99848"
       cy="52.804661"
       r="16"
       id="radialGradient3823"
       xlink:href="#linearGradient3817"
       gradientUnits="userSpaceOnUse"
       gradientTransform="matrix(1.9776652e-8,-0.44005103,1.4375,-4.0708531e-6,-30.8125,22.174921)" />
    <radialGradient
       cx="46.159752"
       cy="36.935829"
       r="16"
       id="radialGradient3825"
       xlink:href="#linearGradient3817"
       gradientUnits="userSpaceOnUse"
       gradientTransform="matrix(2.096279e-8,-0.32631713,2.725932,-1.1477746e-5,-67.57524,16.90477)" />
    <radialGradient
       cx="47.140202"
       cy="17.89163"
       r="16"
       id="radialGradient3827"
       xlink:href="#linearGradient3817"
       gradientUnits="userSpaceOnUse"
       gradientTransform="matrix(2.1712014e-5,-0.67853516,2.2165484,0,-33.970716,33.417004)" />
    <radialGradient
       cx="29.0648"
       cy="42.199619"
       r="16"
       id="radialGradient3829"
       xlink:href="#linearGradient3817"
       gradientUnits="userSpaceOnUse"
       gradientTransform="matrix(1.9776659e-8,-0.44005103,1.4375,-4.0708531e-6,-30.8125,22.174921)" />
    <radialGradient
       cx="23.236361"
       cy="39.32011"
       r="16"
       id="radialGradient3837"
       xlink:href="#linearGradient3817"
       gradientUnits="userSpaceOnUse"
       gradientTransform="matrix(-1.3019008e-5,-1.4052387,-1.4052387,0,93.472788,86.44508)" />
    <radialGradient
       cx="34.96587"
       cy="40.56699"
       r="16"
       id="radialGradient3841"
       xlink:href="#linearGradient3817"
       gradientUnits="userSpaceOnUse"
       gradientTransform="matrix(-2.096279e-8,-1.0659693,-2.725932,-3.7493971e-5,131.57524,70.22225)" />
    <radialGradient
       cx="43.7145"
       cy="28.35227"
       r="16"
       id="radialGradient3845"
       xlink:href="#linearGradient3817"
       gradientUnits="userSpaceOnUse"
       gradientTransform="matrix(-2.1712014e-5,-2.2165482,-2.2165484,0,97.970716,124.16221)" />
    <radialGradient
       cx="21.792179"
       cy="49.22028"
       r="16"
       id="radialGradient3849"
       xlink:href="#linearGradient3817"
       gradientUnits="userSpaceOnUse"
       gradientTransform="matrix(-1.9776652e-8,-1.4375,-1.4375,-1.329812e-5,94.8125,87.43807)" />
    <radialGradient
       cx="59.89941"
       cy="2.0516231"
       r="32"
       id="radialGradient3857"
       gradientUnits="userSpaceOnUse"
       gradientTransform="matrix(-2.298935e-8,1.2105557,-1.4259153,-2.7079188e-8,49.162732,-22.737782)">
      <stop
         id="stop3853"
         style="stop-color:#e0cd85;stop-opacity:0.55612242;"
         offset="0" />
      <stop
         id="stop3855"
         style="stop-color:#edea8f;stop-opacity:0;"
         offset="1" />
    </radialGradient>
    <radialGradient
       cx="59.89941"
       cy="2.0516231"
       r="32"
       id="radialGradient3857-7"
       gradientUnits="userSpaceOnUse"
       gradientTransform="matrix(-2.298935e-8,1.2105557,-1.4259153,-2.7079188e-8,49.162732,-22.737782)">
      <stop
         id="stop3853-9"
         style="stop-color:#e8daa4;stop-opacity:0.28918746;"
         offset="0" />
      <stop
         id="stop3855-3"
         style="stop-color:#eadda5;stop-opacity:0;"
         offset="1" />
    </radialGradient>
    <radialGradient
       cx="21.792179"
       cy="49.22028"
       r="16"
       id="radialGradient3849-3"
       xlink:href="#linearGradient3817-1"
       gradientUnits="userSpaceOnUse"
       gradientTransform="matrix(-1.9776652e-8,-1.4375,-1.4375,-1.329812e-5,94.8125,87.43807)" />
    <linearGradient
       id="linearGradient3817-1">
      <stop
         id="stop3819-9"
         style="stop-color:#000000;stop-opacity:0.1222009;"
         offset="0" />
      <stop
         id="stop3821-42"
         style="stop-color:#000000;stop-opacity:0;"
         offset="1" />
    </linearGradient>
    <radialGradient
       cx="23.236361"
       cy="39.32011"
       r="16"
       id="radialGradient3837-7"
       xlink:href="#linearGradient3817-1"
       gradientUnits="userSpaceOnUse"
       gradientTransform="matrix(-1.3019008e-5,-1.4052387,-1.4052387,0,93.472788,86.44508)" />
    <radialGradient
       cx="34.96587"
       cy="40.56699"
       r="16"
       id="radialGradient3841-5"
       xlink:href="#linearGradient3817-1"
       gradientUnits="userSpaceOnUse"
       gradientTransform="matrix(-2.096279e-8,-1.0659693,-2.725932,-3.7493971e-5,131.57524,70.22225)" />
    <radialGradient
       cx="43.7145"
       cy="28.35227"
       r="16"
       id="radialGradient3845-18"
       xlink:href="#linearGradient3817-1"
       gradientUnits="userSpaceOnUse"
       gradientTransform="matrix(-2.1712014e-5,-2.2165482,-2.2165484,0,97.970716,124.16221)" />
    <radialGradient
       cx="29.99848"
       cy="52.804661"
       r="16"
       id="radialGradient3823-2"
       xlink:href="#linearGradient3817-1"
       gradientUnits="userSpaceOnUse"
       gradientTransform="matrix(1.9776652e-8,-0.44005103,1.4375,-4.0708531e-6,-30.8125,22.174921)" />
    <radialGradient
       cx="29.0648"
       cy="42.199619"
       r="16"
       id="radialGradient3829-4"
       xlink:href="#linearGradient3817-1"
       gradientUnits="userSpaceOnUse"
       gradientTransform="matrix(1.9776659e-8,-0.44005103,1.4375,-4.0708531e-6,-30.8125,22.174921)" />
    <radialGradient
       inkscape:collect="always"
       xlink:href="#linearGradient3817-1"
       id="radialGradient4186"
       gradientUnits="userSpaceOnUse"
       gradientTransform="matrix(2.096279e-8,-0.32631713,2.725932,-1.1477746e-5,-67.57524,16.90477)"
       cx="46.159752"
       cy="36.935829"
       r="16" />
    <radialGradient
       cx="47.140202"
       cy="17.89163"
       r="16"
       id="radialGradient3827-9"
       xlink:href="#linearGradient3817-1"
       gradientUnits="userSpaceOnUse"
       gradientTransform="matrix(2.1712014e-5,-0.67853516,2.2165484,0,-33.970716,33.417004)" />
  </defs>
  <metadata
     id="metadata13099">
    <rdf:RDF>
      <cc:Work
         rdf:about="">
        <dc:format>image/svg+xml</dc:format>
        <dc:type
           rdf:resource="http://purl.org/dc/dcmitype/StillImage" />
        <dc:title />
      </cc:Work>
    </rdf:RDF>
  </metadata>
  <path
     inkscape:connector-curvature="0"
     d="M 0,1 2,0 62,0 64,1 64,16 0,16 z"
     id="path3029"
     style="fill:#d0c28f;fill-opacity:1;fill-rule:nonzero" />
  <path
     inkscape:connector-curvature="0"
     d="m 0,15 64,0 0,47 -2,2 -60,0 -2,-2 z"
     id="path3809"
     style="color:#000000;fill:#867b5b;fill-opacity:1;fill-rule:nonzero;stroke-width:1;stroke-linecap:butt;stroke-linejoin:miter;stroke-miterlimit:4;stroke-opacity:1;stroke-dasharray:none;stroke-dashoffset:0;marker:none;visibility:visible;display:inline;overflow:visible;enable-background:accumulate" />
  <path
     inkscape:connector-curvature="0"
     d="m 0,15 64,0 0,47 -2,2 -60,0 -2,-2 z"
     id="path3831"
     style="fill:url(#radialGradient3857-7);fill-rule:nonzero" />
  <path
     inkscape:connector-curvature="0"
     d="m 0,62 2,2 30,0 0,-24 -32,0 z"
     id="path3847"
     style="fill:url(#radialGradient3849-3);fill-rule:nonzero" />
  <path
     inkscape:connector-curvature="0"
     d="m 64,62 -2,2 -30,0 0,-24 32,0 z"
     id="path3835"
     style="fill:url(#radialGradient3837-7);fill-rule:nonzero" />
  <path
     inkscape:connector-curvature="0"
     d="m 0,15 32,0 0,25 -32,0 z"
     id="path3839"
     style="fill:url(#radialGradient3841-5);fill-rule:nonzero" />
  <path
     inkscape:connector-curvature="0"
     d="m 64,15 -32,0 0,25 32,0 z"
     id="path3843"
     style="fill:url(#radialGradient3845-18);fill-rule:nonzero" />
  <path
     inkscape:connector-curvature="0"
     d="M 63,0.5 63,63 1,63 2,64 62,64 64,62 64,1 z"
     id="path3807"
     style="fill:#000000;fill-opacity:0.11130587;fill-rule:nonzero" />
  <path
     inkscape:connector-curvature="0"
     d="m 64,15 -32,0 0,-7.346939 32,0 z"
     id="path3813"
     style="fill:url(#radialGradient3823-2);fill-rule:nonzero" />
  <path
     inkscape:connector-curvature="0"
     d="m 0,15 32,0 0,-7.346939 -32,0 z"
     id="path3811"
     style="fill:url(#radialGradient3829-4);fill-rule:nonzero" />
  <path
     inkscape:connector-curvature="0"
     d="m 64,1 -2,-1 -30,0 0,7.653061 32,0 z"
     id="path3815"
     style="fill:url(#radialGradient4186);fill-rule:nonzero" />
  <path
     inkscape:connector-curvature="0"
     d="m 0,1 2,-1 30,0 0,7.653061 -32,0 z"
     id="path3960"
     style="fill:url(#radialGradient3827-9);fill-rule:nonzero" />
  <path
     inkscape:connector-curvature="0"
     d="m 38.99998,56.20001 0,-2.80001 2.799985,0 2.800022,0 0,2.80001 0,2.79999 -2.800022,0 -2.799985,0 0,-2.79999 z m 4.8,0 0,-2.00001 -2.000015,0 -1.999979,0 0,2.00001 0,1.99999 1.999979,0 2.000015,0 0,-1.99999 z m -3.200005,0 0,-1.20001 1.19999,0 1.20001,0 0,1.20001 0,1.2 -1.20001,0 -1.19999,0 0,-1.2 z m 4.800019,1.2 0,-1.60001 0.399986,0 0.400002,0 0,-0.4 0,-0.4 0.400005,0 0.400002,0 0,-0.79999 0,-0.8 -0.800007,0 -0.799988,0 0,-1.20001 0,-1.19999 0.399986,0 0.400002,0 0,-0.40001 0,-0.39999 -0.799988,0 -0.800007,0 0,0.39999 0,0.40001 -0.400002,0 -0.400005,0 0,0.39999 0,0.40001 0.400005,0 0.400002,0 0,0.39999 0,0.40001 -1.19999,0 -1.200012,0 0,-0.40001 0,-0.39999 -0.40002,0 -0.399984,0 0,0.39999 0,0.40001 -0.400004,0 -0.400002,0 0,-0.8 0,-0.8 -0.400004,0 -0.399985,0 0,0.39999 0,0.40001 -0.400003,0 -0.400003,0 0,-0.40001 0,-0.39999 0.400003,0 0.400003,0 0,-1.20001 0,-1.19999 -0.400003,0 -0.400003,0 0,-0.8 0,-0.8 0.400003,0 0.400003,0 0,-0.40001 0,-0.39999 -0.400003,0 -0.400003,0 0,-0.40001 0,-0.4 1.599995,0 1.60001,0 0,0.4 0,0.40001 0.79999,0 0.800005,0 0,-0.40001 0,-0.4 0.400005,0 0.400002,0 0,0.4 0,0.40001 -0.400002,0 -0.400005,0 0,0.39999 0,0.40001 0.400005,0 0.400002,0 0,0.39999 0,0.40001 -0.400002,0 -0.400005,0 0,0.39999 0,0.40001 0.400005,0 0.400002,0 0,0.39999 0,0.40001 0.400005,0 0.400002,0 0,-0.40001 0,-0.39999 0.399986,0 0.400002,0 0,-0.40001 0,-0.39999 -0.400002,0 -0.399986,0 0,-1.20001 0,-1.2 0.399986,0 0.400002,0 0,0.80001 0,0.8 0.400005,0 0.400002,0 0,-2.00001 0,-2 0.400003,0 0.399985,0 0,1.2 0,1.2 0.800007,0 0.800007,0 0,0.4 0,0.40001 -0.400004,0 -0.400003,0 0,0.39999 0,0.40001 0.800007,0 0.800005,0 0,-2.80001 0,-2.8 -0.400002,0 -0.400003,0 0,0.8 0,0.8 -0.400004,0 -0.400003,0 0,-0.8 0,-0.8 0.400003,0 0.400004,0 0,-0.40001 0,-0.39999 -0.800007,0 -0.800007,0 0,0.8 0,0.8 -0.799988,0 -0.800007,0 0,0.4 0,0.4 -0.400002,0 -0.399986,0 0,-1.20001 0,-1.19999 0.399986,0 0.400002,0 0,-0.40001 0,-0.39999 -0.400002,0 -0.399986,0 0,-0.40001 0,-0.39999 0.399986,0 0.400002,0 0,0.39999 0,0.40001 1.20001,0 1.199992,0 0,-0.40001 0,-0.39999 0.400003,0 0.400004,0 0,0.8 0,0.8 0.400003,0 0.400002,0 0,-0.40001 0,-0.39999 0.399986,0 0.400002,0 0,0.39999 0,0.40001 -0.400002,0 -0.399986,0 0,0.39999 0,0.40001 0.399986,0 0.400002,0 0,0.39999 0,0.40001 0.400004,0 0.400003,0 0,-1.20001 0,-1.19999 0.399985,0 0.400003,0 0,2.4 0,2.4 -0.400003,0 -0.399985,0 0,0.4 0,0.4 0.799988,0 0.800007,0 0,0.4 0,0.40001 -0.400003,0 -0.400004,0 0,0.39999 0,0.40001 0.800007,0 0.799988,0 0,-0.40001 0,-0.39999 0.400004,0 0.400022,0 0,-0.40001 0,-0.4 1.200008,0 1.199993,0 0,1.2 0,1.20001 0.799989,0 0.800005,0 0,1.19999 0,1.20001 -0.400003,0 -0.400002,0 0,0.39999 0,0.40001 0.400002,0 0.400003,0 0,0.8 0,0.8 -0.800005,0 -0.799989,0 0,0.39999 0,0.40001 0.799989,0 0.800005,0 0,0.39999 0,0.40001 -1.199992,0 -1.200008,0 0,-0.8 0,-0.8 -0.399987,0 -0.400039,0 0,1.6 0,1.6 0.400039,0 0.399987,0 0,0.4 0,0.4 -0.399987,0 -0.400039,0 0,0.4 0,0.4 0.800026,0 0.800006,0 0,-1.2 0,-1.20001 0.799989,0 h 0.79998 v 1.60001 h -0.800005 v 0.8 H 57.399906 V 58.2 h 1.599989 V 59 H 55.799874 V 57.40001 H 54.999905 V 59 H 54.199879 V 58.2 H 52.599884 V 55.80001 H 51.799896 V 55 h -0.800007 v 0.80001 h -0.799988 v 0.8 h 1.599995 v 0.8 H 50.999901 V 58.2 H 50.199913 V 59 h -1.600012 v -0.8 h 0.800007 V 55.80001 H 48.599904 V 55 h 0.800007 v 0.80001 h 0.800005 v -1.6 h -0.800005 v -0.8 h -1.60002 V 55 h -0.799988 v 1.60001 h 1.599995 v 0.8 H 47.799892 V 58.2 H 46.999904 V 59 h -1.599995 v -1.59999 z m 9.6,-1.2 0,-0.40001 h -0.800026 v 0.80001 h 0.800026 v -0.4 z m 0,-2.40001 V 52.6 H 52.599973 V 55 h 2.400019 v -1.2 z m -1.600014,0 0,-0.4 0.400002,0 0.399986,0 0,0.4 0,0.4 -0.399986,0 -0.400002,0 0,-0.4 z m -1.599995,-0.8 0,-1.19999 -0.800007,0 -0.799988,0 0,-0.40001 0,-0.39999 0.799988,0 0.800007,0 0,-0.40001 0,-0.39999 0.399985,0 0.400003,0 0,-0.80002 0,-0.79998 -0.400003,0 -0.399985,0 0,-0.40001 0,-0.39999 0.399985,0 0.400003,0 0,-0.40001 0,-0.39999 -0.400003,0 -0.399985,0 0,-0.8 0,-0.80001 -0.400003,0 -0.400004,0 0,1.2 0,1.20001 -0.400002,0 -0.399986,0 0,0.39999 0,0.40001 0.799988,0 0.800007,0 0,0.79998 0,0.80002 -0.800007,0 -0.799988,0 0,-0.40001 0,-0.40001 -0.400002,0 -0.400003,0 0,-0.39999 0,-0.39999 -0.400004,0 -0.400003,0 0,-0.40001 0,-0.39999 -0.400002,0 -0.400005,0 0,0.8 0,0.79998 -0.399985,0 -0.400003,0 0,0.8 0,0.80002 0.799988,0 0.800007,0 0,0.39999 0,0.39999 -0.400002,0 -0.400005,0 0,0.40001 0,0.4 -0.399985,0 -0.400003,0 0,-0.4 0,-0.40001 -0.400002,0 -0.400005,0 0,0.40001 0,0.4 0.400005,0 0.400002,0 0,0.4 0,0.4 0.400003,0 0.399985,0 0,-0.4 0,-0.4 0.800007,0 0.800007,0 0,0.4 0,0.4 0.800005,0 0.799988,0 0,0.4 0,0.4 0.400004,0 0.400003,0 0,-1.2 z m -2.4,-0.8 0,-0.39999 0.400003,0 0.400002,0 0,0.39999 0,0.40001 -0.400002,0 -0.400003,0 0,-0.40001 z m -0.800007,-1.99999 0,-0.8 0.400003,0 0.400004,0 0,0.39999 0,0.40001 0.400003,0 0.400002,0 0,0.39999 0,0.40001 -0.800005,0 -0.800007,0 0,-0.8 z m 5.59999,1.19999 0,-0.39999 0.400004,0 0.400022,0 0,0.39999 0,0.40001 1.200008,0 1.199993,0 0,-0.8 0,-0.8 -2.000018,0 -1.999997,0 0,0.8 0,0.8 0.400002,0 0.399986,0 0,-0.40001 z m -12.79999,-0.8 0,-0.39999 1.599994,0 1.600012,0 0,-0.40001 0,-0.39999 -0.400002,0 -0.400005,0 0,-0.40001 0,-0.39999 -0.399983,0 -0.400022,0 0,-0.40001 0,-0.39999 0.400022,0 0.399983,0 0,-0.40001 0,-0.39999 -0.800005,0 -0.79999,0 0,-0.40001 0,-0.39999 -0.40002,0 -0.399984,0 0,0.39999 0,0.40001 -0.800006,0 -0.799989,0 0,0.39999 0,0.40001 0.799989,0 0.800006,0 0,0.8 0,0.79998 -0.400004,0 -0.400002,0 0,0.80002 0,0.8 0.400002,0 0.400004,0 0,-0.40001 z m 0,-3.2 0,-0.39999 0.399984,0 0.40002,0 0,0.39999 0,0.40001 -0.40002,0 -0.399984,0 0,-0.40001 z m 16.80001,1.6 0,-0.39999 -0.399987,0 -0.400002,0 0,0.39999 0,0.40001 0.400002,0 0.399987,0 0,-0.40001 z m -4.000016,-0.8 0,-0.39999 -0.399986,0 -0.400002,0 0,0.39999 0,0.40001 0.400002,0 0.399986,0 0,-0.40001 z m 1.599995,-0.39999 0,-0.8 0.400039,0 0.399987,0 0,-0.40001 0,-0.39999 -0.800026,0 -0.799969,0 0,1.19999 0,1.20001 0.399983,0 0.399986,0 0,-0.8 z m -4,-4.00001 V 43 h -0.80001 v 1.6 h 0.800007 v -0.8 z m 6.399999,2 0,-0.4 0.400002,0 0.400003,0 0,0.4 0,0.40001 -0.400003,0 -0.400002,0 0,-0.40001 z m -19.20001,-4.00001 0,-2.79999 2.799985,0 2.800022,0 0,2.79999 0,2.80001 -2.800022,0 -2.799985,0 0,-2.80001 z m 4.8,0 0,-1.99999 -2.000015,0 -1.999979,0 0,1.99999 0,2.00001 1.999979,0 2.000015,0 0,-2.00001 z m -3.200005,0 0,-1.19999 1.19999,0 1.20001,0 0,1.19999 0,1.20001 -1.20001,0 -1.19999,0 0,-1.20001 z M 45.399971,44.2 v -0.4 h 0.799988 v 0.8 h -0.799988 v -0.4 z m 3.19999,0 0,-0.4 0.400003,0 0.400004,0 0,0.4 0,0.4 -0.400004,0 -0.400003,0 0,-0.4 z m 4.800002,-2.40001 0,-2.79999 2.800022,0 h 2.79999 v 5.6 h -5.600009 v -2.80001 z m 4.800004,0 0,-1.99999 -1.999982,0 -2.000034,0 0,1.99999 0,2.00001 2.000034,0 1.999982,0 0,-2.00001 z m -3.19999,0 0,-1.19999 1.200008,0 1.199993,0 0,1.19999 0,1.20001 -1.199993,0 -1.200008,0 0,-1.20001 z"
     id="path3108"
     style="fill:#382218;fill-opacity:0.25638769" />
  <g
     transform="matrix(0.19352967,0,0,0.19352967,665.8856,-34.235041)"
     id="g3964"
     style="fill:#382218;fill-opacity:0.25638769;fill-rule:nonzero">
    <path
       inkscape:connector-curvature="0"
       d="m -3413.832,424.9234 c -0.2259,1.3e-4 -0.4362,0.18988 -0.4586,0.41459 0,0 -0.7862,7.84501 -0.5804,11.05104 0.1031,1.6188 0.7646,5.58629 2.0267,9.83478 1.2623,4.24849 3.1009,8.7474 5.6972,11.34366 -2e-4,1.2e-4 0.02,0.0145 0.02,0.0145 1.1678,1.07005 1.69,1.89795 1.9766,3.33668 0.2864,1.43879 0.2927,3.50116 0.2927,6.8341 -2e-4,3.83149 0.04,3.20302 -0.1019,5.90948 -0.071,1.35299 -0.1865,2.4742 -0.3649,3.24535 -0.089,0.38559 -0.1948,0.68379 -0.2946,0.86366 -0.1019,0.17974 -0.1763,0.21611 -0.1928,0.22096 -1.3829,0.37066 -2.993,1.02505 -4.3753,1.708 -1.3823,0.68279 -2.4973,1.3259 -3.0224,1.93807 -0.1075,0.13807 -0.143,0.33297 -0.069,0.49254 0.072,0.15879 0.2442,0.26767 0.4189,0.26796 l 9.9956,-7e-5 9.9929,-4e-5 c 0.1763,4.3e-4 0.3459,-0.10858 0.4196,-0.26717 0.072,-0.15858 0.045,-0.35958 -0.069,-0.49247 -0.5248,-0.61227 -1.6399,-1.25528 -3.0223,-1.9382 -1.3823,-0.68276 -2.9921,-1.33722 -4.3752,-1.70785 -0.02,-0.008 -0.091,-0.0409 -0.1907,-0.2209 -0.102,-0.18035 -0.2052,-0.47801 -0.2953,-0.86356 -0.1783,-0.77117 -0.2945,-1.89234 -0.3646,-3.24558 -0.141,-2.70637 -0.102,-2.07778 -0.102,-5.90942 0,-3.33178 0,-5.39338 0.2926,-6.83165 0.2862,-1.43825 0.8074,-2.26804 1.9745,-3.33893 0,-0.003 0,-0.008 0.02,-0.0124 2.6506,-2.65071 4.4937,-7.15119 5.7425,-11.38683 1.2485,-4.23566 1.88,-8.17993 1.9838,-9.794 0.2053,-3.20684 -0.5781,-11.00534 -0.5781,-11.00534 4e-4,-0.24084 -0.2195,-0.46058 -0.4607,-0.46058 h -21.9269 z"
       id="path4101"
       style="opacity:0.74089756;fill:#382218;fill-opacity:0.25638769" />
    <path
       inkscape:connector-curvature="0"
       d="m -3368.107,424.9234 -14.2063,19.75025 9.4709,0 0,35.31947 -13.0052,0 0,2.40238 10.418,0 14.6453,0 10.418,0 0,-2.40238 -13.0052,0 0,-35.31947 9.4708,0 z"
       id="rect3930"
       style="opacity:0.74089756;fill:#382218;fill-opacity:0.25638769" />
    <path
       inkscape:connector-curvature="0"
       d="m -3311.699,424.9249 c -0.4839,0.004 -0.9154,0.60292 -1.0183,1.46769 -15.5499,0.36495 -29.3196,10.01703 -32.6754,23.88816 1.0426,-2.20623 3.6079,-3.66653 6.4427,-3.68019 0.4637,-0.002 0.9354,0.035 1.408,0.11315 2.5736,0.426 4.6186,2.01225 5.3396,4.0793 l 0.2545,0.002 c 1.1831,-2.61305 4.4899,-4.20765 7.8852,-3.64561 2.4406,0.40398 4.4083,1.85064 5.2201,3.76189 h 0.057 c 0.8484,-2.39634 3.4339,-4.04229 6.3547,-4.15788 -0.011,5.54098 -0.02,13.29022 -0.011,18.80944 l -0.924,0.10692 c 0.1912,1.62598 -0.4947,5.58712 0.1697,9.25544 0.3323,1.83416 1.063,3.6992 2.5896,5.11014 1.5268,1.41095 3.7593,2.25768 6.7036,2.35708 l 0.098,0.002 0.1008,-0.009 c 3.9787,-0.3756 6.3805,-2.23105 7.3855,-4.4973 1.005,-2.26624 0.8266,-4.65256 0.8266,-6.37353 h -3.0736 c 0,1.84154 0.032,3.7862 -0.5626,5.129 -0.5892,1.32865 -1.5902,2.35161 -4.7708,2.67135 -2.365,-0.0964 -3.7333,-0.71745 -4.6198,-1.53682 -0.8997,-0.83145 -1.3952,-1.97661 -1.6532,-3.40048 -0.5156,-2.84772 0.1769,-6.38641 -0.1381,-9.06687 l -0.7071,0.0818 c -0.013,-5.48752 0,-13.08528 0.011,-18.57376 0.09,0.012 0.1799,0.0228 0.2703,0.0378 2.6132,0.43255 4.6808,2.06306 5.371,4.17673 h 0.2326 c 1.0203,-2.83874 4.4774,-4.62121 8.036,-4.03217 2.6042,0.43107 4.6672,2.05163 5.3647,4.15474 h 0.089 c 1.031,-2.82538 4.4807,-4.59451 8.0297,-4.00701 2.5927,0.42915 4.6487,2.03686 5.3553,4.12644 l 0.3394,0.002 c -2.4757,-12.23854 -13.2547,-21.89096 -27.1504,-24.31243 -1.8764,-0.32696 -3.7461,-0.51145 -5.5972,-0.56568 -0.084,-0.72651 -0.4058,-1.29745 -0.8203,-1.44254 -0.071,-0.0248 -0.141,-0.0352 -0.2105,-0.0345 z"
       id="path2985"
       style="opacity:0.74089756;fill:#382218;fill-opacity:0.25638769" />
  </g>
  <path
     inkscape:connector-curvature="0"
     d="m 64,17 -2,-2 2,-1 z"
     id="path3028"
     style="fill:#1f0700;fill-opacity:0.13759861" />
  <path
     inkscape:connector-curvature="0"
     d="M 1,63 1,0.5 0,1 0,62 z"
     id="path4299"
     style="fill:#ffffff;fill-opacity:0.5574205;fill-rule:nonzero" />
  <path
     inkscape:connector-curvature="0"
     d="m 0,14 64,0 0,1 -64,0 z"
     id="path3878"
     style="fill:#ffffff;fill-opacity:0.41254416;fill-rule:nonzero" />
  <path
     inkscape:connector-curvature="0"
     d="M 0,17 2,15 0,14 z"
     id="path3028-3"
     style="fill:#ffffff;fill-opacity:0.5574205" />
  <path
     sodipodi:nodetypes="ccccsccccccccccccccccscscccccccsssscccccccccccccccccccccccccccccccccccccccccccccc"
     inkscape:connector-curvature="0"
     id="path3140"
     d="m 28.28125,20 0,14.09375 2.5625,0 0,-6.03125 2.1875,0 c 0.61439,0 0.98494,-0.0064 1.09375,0 0.14719,0.2432 0.53545,1.02537 1.15625,2.34375 l 1.625,3.6875 2.84375,0 L 37.65625,29.75 c -0.51201,-1.05598 -0.93566,-1.76585 -1.28125,-2.15625 1.69597,-0.58879 2.53124,-1.81871 2.53125,-3.6875 -1e-5,-0.63358 -0.07721,-1.19544 -0.25,-1.65625 -0.16641,-0.46718 -0.39311,-0.83699 -0.6875,-1.125 C 37.68074,20.83702 37.28608,20.60391 36.8125,20.4375 36.3453,20.26472 35.86854,20.15776 35.34375,20.09375 34.82535,20.02976 34.21039,20.00001 33.5,20 z m 17.75,0 c -0.835191,8e-6 -1.543305,0.190731 -2.15625,0.53125 -0.612951,0.340534 -1.090815,0.796893 -1.40625,1.40625 -0.315436,0.605784 -0.468751,1.325663 -0.46875,2.125 -10e-7,1.258161 0.326114,2.213433 1,2.9375 0.677467,0.724067 1.611691,1.125 2.8125,1.125 0.508993,0 0.972521,-0.05947 1.40625,-0.15625 C 47.656052,27.87197 48.137502,27.700732 48.625,27.5 l 0,-3.78125 -3.03125,0 0,1.15625 1.65625,0 0,1.84375 c -0.408637,0.157719 -0.873176,0.218751 -1.375,0.21875 -0.781423,1e-6 -1.344955,-0.268666 -1.75,-0.78125 -0.40505,-0.512581 -0.625002,-1.21196 -0.625,-2.09375 -2e-6,-0.888949 0.232267,-1.577577 0.6875,-2.09375 0.455227,-0.51616 1.079239,-0.781243 1.875,-0.78125 0.655958,7e-6 1.316367,0.179976 1.96875,0.53125 L 48.5,20.625 C 47.815355,20.21279 46.988304,20.000008 46.03125,20 z M 5.25,20.03125 l 0,2.09375 4.09375,0 0,11.96875 2.625,0 0,-11.96875 4.0625,0 0,-2.09375 z m 14.34375,0 -5.1875,14.0625 2.71875,0 1.40625,-3.96875 4.9375,0 1.375,3.96875 2.6875,0 -5.09375,-14.0625 z m 30.21875,0.09375 0,1.15625 4.03125,0 -4.15625,5.78125 0,0.9375 5.875,0 0.03125,-1.15625 -4.125,0 4.09375,-5.6875 0,-1.03125 z m -18.96875,1.8125 3,0 c 0.90878,10e-6 1.58965,0.14236 2.03125,0.46875 0.44159,0.32641 0.65624,0.84007 0.65625,1.53125 -1e-5,0.7872 -0.22106,1.36036 -0.65625,1.71875 -0.4352,0.35201 -1.15787,0.53126 -2.15625,0.53125 l -1.4375,0 c -0.8576,-0.0064 -1.34151,10e-6 -1.4375,0 z m -9.8125,0.53125 c 0.03199,0.12161 0.62925,2.02599 1.78125,5.71875 l -3.625,0 z"
     style="fill:#ffffff;fill-opacity:0.55565370999999997;color:#000000;fill-rule:nonzero;stroke-width:1;stroke-linecap:butt;stroke-linejoin:miter;stroke-miterlimit:4;stroke-opacity:1;stroke-dasharray:none;stroke-dashoffset:0;marker:none;visibility:visible;display:inline;overflow:visible;enable-background:accumulate" />
  <path
     style="fill:#000000;fill-opacity:0.20946542000000001;color:#000000;fill-rule:nonzero;stroke-width:1;stroke-linecap:butt;stroke-linejoin:miter;stroke-miterlimit:4;stroke-opacity:1;stroke-dasharray:none;stroke-dashoffset:0;marker:none;visibility:visible;display:inline;overflow:visible;enable-background:accumulate"
     d="M 16.03125 21.03125 L 16.03125 22.125 L 11.96875 22.125 L 11.96875 34.09375 L 10.34375 34.09375 L 10.34375 35.09375 L 12.96875 35.09375 L 12.96875 23.125 L 17.03125 23.125 L 17.03125 21.03125 L 16.03125 21.03125 z M 22.8125 21.03125 L 27.53125 34.09375 L 25.5 34.09375 L 25.84375 35.09375 L 28.53125 35.09375 L 23.4375 21.03125 L 22.8125 21.03125 z M 48.28125 21.125 L 48.03125 21.71875 C 47.378867 21.367476 46.718458 21.187507 46.0625 21.1875 C 45.874477 21.187502 45.700135 21.220585 45.53125 21.25 C 45.522346 21.253069 45.508867 21.246875 45.5 21.25 C 45.27988 21.327568 45.073971 21.420712 44.875 21.53125 C 44.568524 21.701517 44.298014 21.892174 44.0625 22.125 C 43.999761 22.208844 43.927305 22.282919 43.875 22.375 C 43.617623 22.828107 43.499998 23.395788 43.5 24.0625 C 43.499998 24.94429 43.71995 25.643669 44.125 26.15625 C 44.327523 26.412542 44.554558 26.61876 44.84375 26.75 C 44.611008 26.295721 44.499998 25.723843 44.5 25.0625 C 44.499998 24.173551 44.732267 23.484923 45.1875 22.96875 C 45.642727 22.45259 46.266739 22.187507 47.0625 22.1875 C 47.718458 22.187507 48.378867 22.367476 49.03125 22.71875 L 49.5 21.625 C 49.132584 21.403787 48.728774 21.229282 48.28125 21.125 z M 55.5625 21.125 L 55.5625 21.15625 L 54.75 22.28125 L 54.84375 22.28125 L 51.5625 26.84375 L 53.1875 26.84375 L 56.5625 22.15625 L 56.5625 21.125 L 55.5625 21.125 z M 50.8125 21.28125 L 50.8125 22.28125 L 53.125 22.28125 L 53.84375 21.28125 L 50.8125 21.28125 z M 38.40625 21.71875 C 38.500217 21.884335 38.584981 22.049919 38.65625 22.25 C 38.82904 22.71081 38.90624 23.27267 38.90625 23.90625 C 38.90624 25.77504 38.07097 27.00496 36.375 27.59375 C 36.72059 27.98415 37.14424 28.69402 37.65625 29.75 L 39.75 34.09375 L 37.46875 34.09375 L 37.90625 35.09375 L 40.75 35.09375 L 38.65625 30.75 C 38.14424 29.69402 37.72059 28.98415 37.375 28.59375 C 39.07097 28.00496 39.90624 26.77504 39.90625 24.90625 C 39.90624 24.27267 39.82904 23.71081 39.65625 23.25 C 39.48984 22.78282 39.26314 22.41301 38.96875 22.125 C 38.810903 21.96717 38.6236 21.84167 38.40625 21.71875 z M 30.84375 21.9375 L 30.84375 26.1875 C 30.910526 26.187507 31.406311 26.187233 31.84375 26.1875 L 31.84375 22.9375 L 34.84375 22.9375 C 35.479142 22.937507 35.997563 23.002828 36.40625 23.15625 C 36.300108 22.84609 36.129213 22.594156 35.875 22.40625 C 35.4334 22.07986 34.75253 21.93751 33.84375 21.9375 L 30.84375 21.9375 z M 6.25 22.125 L 6.25 23.125 L 9.34375 23.125 L 9.34375 22.125 L 6.25 22.125 z M 21.03125 22.46875 L 19.1875 28.1875 L 20.5 28.1875 L 21.6875 24.5625 C 21.524588 24.039205 21.042969 22.513299 21.03125 22.46875 z M 48.625 24.71875 L 48.625 27.5 C 48.496732 27.552816 48.376737 27.608337 48.25 27.65625 L 48.25 27.71875 C 48.144333 27.759534 48.019071 27.75278 47.90625 27.78125 C 47.788269 27.821249 47.676749 27.8422 47.5625 27.875 C 47.448251 27.9078 47.328075 27.944555 47.21875 27.96875 C 46.785021 28.06553 46.321493 28.125 45.8125 28.125 C 44.950381 28.125 44.247184 27.884531 43.65625 27.5 C 43.765574 27.669006 43.861472 27.851157 44 28 C 44.677467 28.724067 45.611691 29.125 46.8125 29.125 C 47.321493 29.125 47.785021 29.06553 48.21875 28.96875 C 48.656052 28.87197 49.137502 28.700732 49.625 28.5 L 49.625 24.71875 L 48.625 24.71875 z M 46.59375 24.875 L 46.59375 25.875 L 47.25 25.875 L 47.25 24.875 L 46.59375 24.875 z M 55.5625 27.84375 L 55.5625 28 L 50.71875 28 L 50.6875 28.0625 L 50.6875 29 L 56.5625 29 L 56.59375 27.84375 L 55.5625 27.84375 z M 30.84375 28.0625 L 30.84375 34.09375 L 29.28125 34.09375 L 29.28125 35.09375 L 31.84375 35.09375 L 31.84375 29.0625 L 34.03125 29.0625 C 34.364776 29.0625 34.438054 29.063201 34.625 29.0625 C 34.474465 28.761404 34.187967 28.16654 34.125 28.0625 C 34.01619 28.0561 33.64564 28.0625 33.03125 28.0625 L 30.84375 28.0625 z M 18.53125 30.125 L 17.125 34.09375 L 15.78125 34.09375 L 15.40625 35.09375 L 18.125 35.09375 L 19.53125 31.125 L 23.8125 31.125 L 23.46875 30.125 L 18.53125 30.125 z "
     id="path3816" />
</svg>
