<?xml version="1.0" encoding="UTF-8" standalone="no"?>
<!-- Created with Inkscape (http://www.inkscape.org/) -->

<svg
   xmlns:dc="http://purl.org/dc/elements/1.1/"
   xmlns:cc="http://creativecommons.org/ns#"
   xmlns:rdf="http://www.w3.org/1999/02/22-rdf-syntax-ns#"
   xmlns:svg="http://www.w3.org/2000/svg"
   xmlns="http://www.w3.org/2000/svg"
   xmlns:xlink="http://www.w3.org/1999/xlink"
   xmlns:sodipodi="http://sodipodi.sourceforge.net/DTD/sodipodi-0.dtd"
   xmlns:inkscape="http://www.inkscape.org/namespaces/inkscape"
   version="1.1"
   width="64"
   height="64"
   id="svg13094"
   inkscape:version="0.48.3.1 r9886"
   sodipodi:docname="torrent.svg">
  <sodipodi:namedview
     pagecolor="#ffffff"
     bordercolor="#666666"
     borderopacity="1"
     objecttolerance="10"
     gridtolerance="10"
     guidetolerance="10"
     inkscape:pageopacity="0"
     inkscape:pageshadow="2"
     inkscape:window-width="1920"
     inkscape:window-height="1033"
     id="namedview60"
     showgrid="false"
     inkscape:zoom="7.375"
     inkscape:cx="25.369159"
     inkscape:cy="28.322616"
     inkscape:window-x="-10"
     inkscape:window-y="25"
     inkscape:window-maximized="1"
     inkscape:current-layer="svg13094" />
  <defs
     id="defs11">
    <linearGradient
       x1="31"
       y1="64"
       x2="31"
       y2="2"
       id="linearGradient3984"
       gradientUnits="userSpaceOnUse">
      <stop
         id="stop3099"
         style="stop-color:#72984d;stop-opacity:1"
         offset="0" />
      <stop
         id="stop3875"
         style="stop-color:#89aa58;stop-opacity:1"
         offset="0.5" />
      <stop
         id="stop3873"
         style="stop-color:#72984d;stop-opacity:1"
         offset="0.51612902" />
      <stop
         id="stop3101"
         style="stop-color:#89aa58;stop-opacity:1"
         offset="1" />
    </linearGradient>
    <radialGradient
       cx="48.30785"
       cy="47.141338"
       r="14.16129"
       id="radialGradient3996"
       gradientUnits="userSpaceOnUse"
       gradientTransform="matrix(0.93962333,0.77477937,-1.7975241,2.1799696,88.130548,-93.365748)">
      <stop
         id="stop3954"
         style="stop-color:#081007;stop-opacity:0.38003838;"
         offset="0" />
      <stop
         id="stop3958"
         style="stop-color:#090e06;stop-opacity:0.17082533;"
         offset="0.5" />
      <stop
         id="stop3956"
         style="stop-color:#0b1007;stop-opacity:0;"
         offset="1" />
    </radialGradient>
    <linearGradient
       x1="48.992088"
       y1="46.124821"
       x2="37"
       y2="36"
       id="linearGradient4280"
       gradientUnits="userSpaceOnUse">
      <stop
         id="stop4293"
         style="stop-color:#608141;stop-opacity:1"
         offset="0" />
      <stop
         id="stop4295"
         style="stop-color:#536f3d;stop-opacity:1;"
         offset="0.2098622" />
      <stop
         id="stop4297"
         style="stop-color:#6d9648;stop-opacity:1;"
         offset="1" />
    </linearGradient>
    <linearGradient
       x1="45"
       y1="52"
       x2="73"
       y2="4"
       id="linearGradient4308"
       gradientUnits="userSpaceOnUse">
      <stop
         id="stop4304"
         style="stop-color:#000000;stop-opacity:0.10677083"
         offset="0" />
      <stop
         id="stop4306"
         style="stop-color:#000000;stop-opacity:0"
         offset="1" />
    </linearGradient>
    <radialGradient
       cx="48.24176"
       cy="40.919418"
       r="14.16129"
       fx="40.959122"
       fy="40.608799"
       id="radialGradient3822"
       xlink:href="#radialGradient3996"
       gradientUnits="userSpaceOnUse"
       gradientTransform="matrix(-2.0491578e-7,2.1591248,-0.51856169,-3.8905836e-8,81.125244,-70.945917)" />
    <radialGradient
       cx="48.30785"
       cy="47.141338"
       r="14.16129"
       id="radialGradient3373"
       xlink:href="#radialGradient3996"
       gradientUnits="userSpaceOnUse"
       gradientTransform="matrix(0.93962333,0.77477937,-1.7975241,2.1799696,88.130548,-93.365748)" />
    <linearGradient
       inkscape:collect="always"
       xlink:href="#linearGradient3918"
       id="linearGradient4549-8-1"
       gradientUnits="userSpaceOnUse"
       gradientTransform="translate(-3117.6016,-1600.2279)"
       x1="3113.439"
       y1="1664.3622"
       x2="3113.439"
       y2="1602.3622" />
    <linearGradient
       x1="31"
       y1="64"
       x2="31"
       y2="2"
       id="linearGradient3918"
       gradientUnits="userSpaceOnUse">
      <stop
         id="stop3920"
         style="stop-color:#d4d4d4;stop-opacity:1"
         offset="0" />
      <stop
         id="stop3922"
         style="stop-color:#e4e4e4;stop-opacity:1"
         offset="0.50050378" />
      <stop
         id="stop3924"
         style="stop-color:#d4d4d4;stop-opacity:1"
         offset="0.51612902" />
      <stop
         id="stop3926"
         style="stop-color:#e4e4e4;stop-opacity:1"
         offset="1" />
    </linearGradient>
    <radialGradient
       inkscape:collect="always"
       xlink:href="#linearGradient3774"
       id="radialGradient3780"
       cx="4.4409065"
       cy="1.9687454"
       fx="4.4409065"
       fy="1.9687454"
       r="31"
       gradientTransform="matrix(1.0645161,0,-3.4947889e-5,1.6451438,26.272654,14.761132)"
       gradientUnits="userSpaceOnUse" />
    <linearGradient
       id="linearGradient3774">
      <stop
         style="stop-color:#c1ffaf;stop-opacity:0.03555268;"
         offset="0"
         id="stop3776" />
      <stop
         style="stop-color:#c3ffaf;stop-opacity:0.01292825;"
         offset="1"
         id="stop3778" />
    </linearGradient>
    <radialGradient
       inkscape:collect="always"
       xlink:href="#linearGradient3774"
       id="radialGradient3782"
       cx="4.4409084"
       cy="1.9687454"
       fx="4.4409084"
       fy="1.9687454"
       r="31"
       gradientTransform="matrix(1.0645161,0,-3.4946841e-5,1.6451438,26.272652,14.761132)"
       gradientUnits="userSpaceOnUse" />
    <radialGradient
       inkscape:collect="always"
       xlink:href="#linearGradient3774"
       id="radialGradient3784"
       cx="4.4409056"
       cy="1.9687454"
       fx="4.4409056"
       fy="1.9687454"
       r="31"
       gradientTransform="matrix(1.0645161,0,-3.4948412e-5,1.6451438,26.272655,14.761132)"
       gradientUnits="userSpaceOnUse" />
    <radialGradient
       inkscape:collect="always"
       xlink:href="#linearGradient3774"
       id="radialGradient3786"
       cx="4.4409094"
       cy="1.9687454"
       fx="4.4409094"
       fy="1.9687454"
       r="31"
       gradientTransform="matrix(1.0645161,0,-3.4946317e-5,1.6451438,26.272651,14.761132)"
       gradientUnits="userSpaceOnUse" />
    <radialGradient
       inkscape:collect="always"
       xlink:href="#linearGradient3774"
       id="radialGradient3788"
       cx="4.4409056"
       cy="1.9687454"
       fx="4.4409056"
       fy="1.9687454"
       r="31"
       gradientTransform="matrix(1.0645161,0,-3.4948412e-5,1.6451438,26.272655,14.761132)"
       gradientUnits="userSpaceOnUse" />
    <radialGradient
       r="31"
       fy="1.9687454"
       fx="4.4409056"
       cy="1.9687454"
       cx="4.4409056"
       gradientTransform="matrix(1.0645161,0,-3.4948412e-5,1.6451438,26.272655,14.761132)"
       gradientUnits="userSpaceOnUse"
       id="radialGradient3128"
       xlink:href="#linearGradient3774"
       inkscape:collect="always" />
    <radialGradient
       inkscape:collect="always"
       xlink:href="#linearGradient3774"
       id="radialGradient4005"
       gradientUnits="userSpaceOnUse"
       gradientTransform="matrix(1.0645161,0,-3.4947889e-5,1.6451438,26.272654,14.761132)"
       cx="4.4409065"
       cy="1.9687454"
       fx="4.4409065"
       fy="1.9687454"
       r="31" />
    <radialGradient
       inkscape:collect="always"
       xlink:href="#linearGradient3774"
       id="radialGradient4007"
       gradientUnits="userSpaceOnUse"
       gradientTransform="matrix(1.0645161,0,-3.4946841e-5,1.6451438,26.272652,14.761132)"
       cx="4.4409084"
       cy="1.9687454"
       fx="4.4409084"
       fy="1.9687454"
       r="31" />
    <radialGradient
       inkscape:collect="always"
       xlink:href="#linearGradient3774"
       id="radialGradient4009"
       gradientUnits="userSpaceOnUse"
       gradientTransform="matrix(1.0645161,0,-3.4948412e-5,1.6451438,26.272655,14.761132)"
       cx="4.4409056"
       cy="1.9687454"
       fx="4.4409056"
       fy="1.9687454"
       r="31" />
    <radialGradient
       inkscape:collect="always"
       xlink:href="#linearGradient3774"
       id="radialGradient4011"
       gradientUnits="userSpaceOnUse"
       gradientTransform="matrix(1.0645161,0,-3.4946317e-5,1.6451438,26.272651,14.761132)"
       cx="4.4409094"
       cy="1.9687454"
       fx="4.4409094"
       fy="1.9687454"
       r="31" />
    <radialGradient
       inkscape:collect="always"
       xlink:href="#linearGradient3774"
       id="radialGradient4013"
       gradientUnits="userSpaceOnUse"
       gradientTransform="matrix(1.0645161,0,-3.4948412e-5,1.6451438,26.272655,14.761132)"
       cx="4.4409056"
       cy="1.9687454"
       fx="4.4409056"
       fy="1.9687454"
       r="31" />
    <radialGradient
       inkscape:collect="always"
       xlink:href="#linearGradient3774"
       id="radialGradient4294"
       gradientUnits="userSpaceOnUse"
       gradientTransform="matrix(1.0645161,0,-3.4948412e-5,1.6451438,26.272655,14.761132)"
       cx="4.4409056"
       cy="1.9687454"
       fx="4.4409056"
       fy="1.9687454"
       r="31" />
  </defs>
  <metadata
     id="metadata13099">
    <rdf:RDF>
      <cc:Work
         rdf:about="">
        <dc:format>image/svg+xml</dc:format>
        <dc:type
           rdf:resource="http://purl.org/dc/dcmitype/StillImage" />
        <dc:title />
      </cc:Work>
    </rdf:RDF>
  </metadata>
  <path
     d="M 4,0 64,0 64,62 4,62 z"
     id="path3960"
     style="fill:#5f8040;fill-rule:nonzero;fill-opacity:1" />
  <g
     transform="translate(0,-14.5)"
     id="g3990">
    <path
       style="color:#000000;fill:url(#radialGradient4005);fill-opacity:1;fill-rule:nonzero;stroke:none;stroke-width:1;marker:none;visibility:visible;display:inline;overflow:visible;enable-background:accumulate"
       d="M 4 0 L 4 3.5 L 6 3.5 L 6 0 L 4 0 z M 8 0 L 8 17.5 L 10 17.5 L 10 0 L 8 0 z M 12 0 L 12 32.5 L 14 32.5 L 14 0 L 12 0 z M 20 0 L 20 27.5 L 22 27.5 L 22 0 L 20 0 z M 36 0 L 36 0.5 L 38 0.5 L 38 0 L 36 0 z M 48 0 L 48 19.5 L 50 19.5 L 50 0 L 48 0 z M 52 0 L 52 33.5 L 54 33.5 L 54 0 L 52 0 z M 56 0 L 56 14.5 L 58 14.5 L 58 0 L 56 0 z M 60 0 L 60 30.5 L 62 30.5 L 62 0 L 60 0 z M 40 0.5 L 40 37.5 L 42 37.5 L 42 0.5 L 40 0.5 z M 4 5.5 L 4 42.5 L 6 42.5 L 6 5.5 L 4 5.5 z M 32 5.5 L 32 42.5 L 34 42.5 L 34 5.5 L 32 5.5 z M 24 6.5 L 24 43.5 L 26 43.5 L 26 6.5 L 24 6.5 z M 16 9.5 L 16 46.5 L 18 46.5 L 18 9.5 L 16 9.5 z M 28 11.5 L 28 48.5 L 30 48.5 L 30 11.5 L 28 11.5 z M 44 16.5 L 44 53.5 L 46 53.5 L 46 16.5 L 44 16.5 z M 8 19.5 L 8 56.5 L 10 56.5 L 10 19.5 L 8 19.5 z M 36 19.5 L 36 56.5 L 38 56.5 L 38 19.5 L 36 19.5 z M 48 21.5 L 48 58.5 L 50 58.5 L 50 21.5 L 48 21.5 z M 60 32.5 L 60 62 L 62 62 L 62 32.5 L 60 32.5 z M 52 37.5 L 52 62 L 54 62 L 54 37.5 L 52 37.5 z M 56 51.5 L 56 62 L 58 62 L 58 51.5 L 56 51.5 z "
       transform="translate(0,14.5)"
       id="path3992" />
    <path
       id="path3994"
       transform="translate(0,14.5)"
       d="M 2,0 0,1 0,4 0,30 2,30 2,0 z M 4,0 4,14 6,14 6,0 4,0 z m 4,0 0,33 2,0 0,-33 -2,0 z m 4,0 0,19 2,0 0,-19 -2,0 z m 8,0 0,37 2,0 0,-37 -2,0 z m 20,0 0,27 2,0 0,-27 -2,0 z m 8,0 0,32 2,0 0,-32 -2,0 z m 4,0 0,17 2,0 0,-17 -2,0 z m 4,0 0,3 2,0 0,-3 -2,0 z m 4,0 0,22 2,0 0,-22 -2,0 z m -32,5 0,37 2,0 0,-37 -2,0 z m 28,0 0,37 2,0 0,-37 -2,0 z m -20,1 0,37 2,0 0,-37 -2,0 z m 8,3 0,37 2,0 0,-37 -2,0 z m -12,2 0,37 2,0 0,-37 -2,0 z m -16,5 0,37 2,0 0,-37 -2,0 z m 8,3 0,37 2,0 0,-37 -2,0 z m 28,0 0,37 2,0 0,-37 -2,0 z m -40,2 0,37 2,0 0,-37 -2,0 z m 48,3 0,37 2,0 0,-37 -2,0 z m -60,8 0,2 0,28 2,2 0,-32 -2,0 z m 8,5 0,27 2,0 0,-27 -2,0 z M 4,51 4,64 6,64 6,51 4,51 z"
       style="color:#000000;fill:url(#radialGradient4007);fill-opacity:1;fill-rule:nonzero;stroke:none;stroke-width:1;marker:none;visibility:visible;display:inline;overflow:visible;enable-background:accumulate"
       inkscape:connector-curvature="0" />
    <path
       id="path3996"
       transform="translate(0,14.5)"
       d="M 2,0 0,1 0,4 0,28.5 2,28.5 2,0 z m 2,0 0,12.5 2,0 L 6,0 4,0 z m 4,0 0,31.5 2,0 L 10,0 8,0 z m 4,0 0,17.5 2,0 L 14,0 12,0 z m 8,0 0,35.5 2,0 L 22,0 20,0 z m 20,0 0,25.5 2,0 L 42,0 40,0 z m 8,0 0,30.5 2,0 L 50,0 48,0 z m 4,0 0,15.5 2,0 L 54,0 52,0 z m 4,0 0,1.5 2,0 0,-1.5 -2,0 z m 4,0 0,20.5 2,0 L 62,0 60,0 z m -32,3.5 0,37 2,0 0,-37 -2,0 z m 28,0 0,37 2,0 0,-37 -2,0 z m -20,1 0,37 2,0 0,-37 -2,0 z m 8,3 0,37 2,0 0,-37 -2,0 z m -12,2 0,37 2,0 0,-37 -2,0 z m -16,5 0,37 2,0 0,-37 -2,0 z m 8,3 0,37 2,0 0,-37 -2,0 z m 28,0 0,37 2,0 0,-37 -2,0 z m -40,2 0,37 2,0 0,-37 -2,0 z m 48,3 0,37 2,0 0,-37 -2,0 z m -60,8 0,3.5 0,28 2,2 0,-33.5 -2,0 z m 8,5 0,28.5 2,0 0,-28.5 -2,0 z m -4,14 0,14.5 2,0 0,-14.5 -2,0 z"
       style="color:#000000;fill:url(#radialGradient4009);fill-opacity:1;fill-rule:nonzero;stroke:none;stroke-width:1;marker:none;visibility:visible;display:inline;overflow:visible;enable-background:accumulate"
       inkscape:connector-curvature="0" />
    <path
       style="color:#000000;fill:url(#radialGradient4011);fill-opacity:1;fill-rule:nonzero;stroke:none;stroke-width:1;marker:none;visibility:visible;display:inline;overflow:visible;enable-background:accumulate"
       d="M 4 0 L 4 1 L 6 1 L 6 0 L 4 0 z M 8 0 L 8 15 L 10 15 L 10 0 L 8 0 z M 12 0 L 12 30 L 14 30 L 14 0 L 12 0 z M 20 0 L 20 25 L 22 25 L 22 0 L 20 0 z M 40 0 L 40 35 L 42 35 L 42 0 L 40 0 z M 48 0 L 48 17 L 50 17 L 50 0 L 48 0 z M 52 0 L 52 31 L 54 31 L 54 0 L 52 0 z M 56 0 L 56 12 L 58 12 L 58 0 L 56 0 z M 60 0 L 60 28 L 62 28 L 62 0 L 60 0 z M 4 3 L 4 40 L 6 40 L 6 3 L 4 3 z M 32 3 L 32 40 L 34 40 L 34 3 L 32 3 z M 24 4 L 24 41 L 26 41 L 26 4 L 24 4 z M 16 7 L 16 44 L 18 44 L 18 7 L 16 7 z M 28 9 L 28 46 L 30 46 L 30 9 L 28 9 z M 44 14 L 44 51 L 46 51 L 46 14 L 44 14 z M 8 17 L 8 54 L 10 54 L 10 17 L 8 17 z M 36 17 L 36 54 L 38 54 L 38 17 L 36 17 z M 48 19 L 48 56 L 50 56 L 50 19 L 48 19 z M 60 30 L 60 62 L 62 62 L 62 30 L 60 30 z M 52 35 L 52 62 L 54 62 L 54 35 L 52 35 z M 56 49 L 56 62 L 58 62 L 58 49 L 56 49 z "
       transform="translate(0,14.5)"
       id="path3999" />
    <path
       style="color:#000000;fill:url(#radialGradient4013);fill-opacity:1;fill-rule:nonzero;stroke:none;stroke-width:1;marker:none;visibility:visible;display:inline;overflow:visible;enable-background:accumulate"
       d="M 4 0 L 4 14.5 L 6 14.5 L 6 0 L 4 0 z M 8 0 L 8 28.5 L 10 28.5 L 10 0 L 8 0 z M 24 0 L 24 9.5 L 26 9.5 L 26 0 L 24 0 z M 32 0 L 32 6.5 L 34 6.5 L 34 0 L 32 0 z M 36 0 L 36 11.5 L 38 11.5 L 38 0 L 36 0 z M 48 0 L 48 30.5 L 50 30.5 L 50 0 L 48 0 z M 56 0 L 56 25.5 L 58 25.5 L 58 0 L 56 0 z M 20 1.5 L 20 38.5 L 22 38.5 L 22 1.5 L 20 1.5 z M 60 4.5 L 60 41.5 L 62 41.5 L 62 4.5 L 60 4.5 z M 12 6.5 L 12 43.5 L 14 43.5 L 14 6.5 L 12 6.5 z M 52 7.5 L 52 44.5 L 54 44.5 L 54 7.5 L 52 7.5 z M 40 11.5 L 40 48.5 L 42 48.5 L 42 11.5 L 40 11.5 z M 4 16.5 L 4 53.5 L 6 53.5 L 6 16.5 L 4 16.5 z M 32 16.5 L 32 53.5 L 34 53.5 L 34 16.5 L 32 16.5 z M 24 17.5 L 24 54.5 L 26 54.5 L 26 17.5 L 24 17.5 z M 16 20.5 L 16 57.5 L 18 57.5 L 18 20.5 L 16 20.5 z M 28 22.5 L 28 59.5 L 30 59.5 L 30 22.5 L 28 22.5 z M 44 27.5 L 44 62 L 46 62 L 46 27.5 L 44 27.5 z M 8 30.5 L 8 62 L 10 62 L 10 30.5 L 8 30.5 z M 36 30.5 L 36 62 L 38 62 L 38 30.5 L 36 30.5 z M 48 32.5 L 48 62 L 50 62 L 50 32.5 L 48 32.5 z M 60 43.5 L 60 62 L 62 62 L 62 43.5 L 60 43.5 z M 52 48.5 L 52 62 L 54 62 L 54 48.5 L 52 48.5 z "
       transform="translate(0,14.5)"
       id="path4001" />
    <path
       style="color:#000000;fill:url(#radialGradient4294);fill-opacity:1;fill-rule:nonzero;stroke:none;stroke-width:1;marker:none;visibility:visible;display:inline;overflow:visible;enable-background:accumulate"
       d="M 4 0 L 4 25 L 6 25 L 6 0 L 4 0 z M 12 0 L 12 30 L 14 30 L 14 0 L 12 0 z M 24 0 L 24 11 L 26 11 L 26 0 L 24 0 z M 28 0 L 28 6 L 30 6 L 30 0 L 28 0 z M 36 0 L 36 9 L 38 9 L 38 0 L 36 0 z M 52 0 L 52 28 L 54 28 L 54 0 L 52 0 z M 56 0 L 56 14 L 58 14 L 58 0 L 56 0 z M 60 0 L 60 33 L 62 33 L 62 0 L 60 0 z M 40 1 L 40 38 L 42 38 L 42 1 L 40 1 z M 48 6 L 48 43 L 50 43 L 50 6 L 48 6 z M 8 7 L 8 44 L 10 44 L 10 7 L 8 7 z M 20 11 L 20 48 L 22 48 L 22 11 L 20 11 z M 28 16 L 28 53 L 30 53 L 30 16 L 28 16 z M 56 16 L 56 53 L 58 53 L 58 16 L 56 16 z M 36 17 L 36 54 L 38 54 L 38 17 L 36 17 z M 44 20 L 44 57 L 46 57 L 46 20 L 44 20 z M 32 22 L 32 59 L 34 59 L 34 22 L 32 22 z M 16 27 L 16 62 L 18 62 L 18 27 L 16 27 z M 24 30 L 24 62 L 26 62 L 26 30 L 24 30 z M 52 30 L 52 62 L 54 62 L 54 30 L 52 30 z M 12 32 L 12 62 L 14 62 L 14 32 L 12 32 z M 60 35 L 60 62 L 62 62 L 62 35 L 60 35 z M 8 48 L 8 62 L 10 62 L 10 48 L 8 48 z "
       id="path4003"
       transform="translate(0,14.5)" />
  </g>
  <path
     d="m 60,2 4,4 0,31 -4,-4 z"
     id="path3900"
     style="fill:url(#radialGradient3822);fill-rule:nonzero" />
  <path
     d="M 63,0 V 61 H 4 v 1 H 64 V 0 h -1 z"
     id="path4299"
     style="fill:#000000;fill-opacity:0.07887819;fill-rule:nonzero" />
  <path
     d="M 60,2 60,33 35,62 37,62 60.78125,33.65625 61,33.375 61,33 61,3 z"
     id="path3922"
     style="fill:url(#linearGradient4308);fill-rule:nonzero" />
  <path
     d="M 0,2 60,2 60,33 34,64 0,64 z"
     id="path3982"
     style="fill:url(#linearGradient3984);fill-rule:nonzero" />
  <path
     d="M 0,2 60,2 60,3 0,3 z"
     id="path4052"
     style="fill:#a2c87f;fill-rule:nonzero;fill-opacity:1" />
  <path
     d="m 0,63 35,0 -1,1 -34,0 z"
     id="path4255"
     style="fill:#000000;fill-opacity:0.10341803;fill-rule:nonzero" />
  <path
     d="M 4,0 64,0 64,1 4,1 z"
     id="path3878"
     style="fill:#a2c87f;fill-rule:nonzero;fill-opacity:1" />
  <g
     id="g3995"
     transform="translate(0,-14.5)">
    <path
       style="color:#000000;fill:url(#radialGradient3780);fill-opacity:1;fill-rule:nonzero;stroke:none;stroke-width:1;marker:none;visibility:visible;display:inline;overflow:visible;enable-background:accumulate"
       d="M 0 2 L 0 4 L 0 22.5 L 2 22.5 L 2 2 L 0 2 z M 4 2 L 4 3.5 L 6 3.5 L 6 2 L 4 2 z M 8 2 L 8 17.5 L 10 17.5 L 10 2 L 8 2 z M 12 2 L 12 32.5 L 14 32.5 L 14 2 L 12 2 z M 20 2 L 20 27.5 L 22 27.5 L 22 2 L 20 2 z M 40 2 L 40 37.5 L 42 37.5 L 42 2 L 40 2 z M 48 2 L 48 19.5 L 50 19.5 L 50 2 L 48 2 z M 52 2 L 52 33.5 L 54 33.5 L 54 2 L 52 2 z M 56 2 L 56 14.5 L 58 14.5 L 58 2 L 56 2 z M 4 5.5 L 4 42.5 L 6 42.5 L 6 5.5 L 4 5.5 z M 32 5.5 L 32 42.5 L 34 42.5 L 34 5.5 L 32 5.5 z M 24 6.5 L 24 43.5 L 26 43.5 L 26 6.5 L 24 6.5 z M 16 9.5 L 16 46.5 L 18 46.5 L 18 9.5 L 16 9.5 z M 28 11.5 L 28 48.5 L 30 48.5 L 30 11.5 L 28 11.5 z M 44 16.5 L 44 52.0625 L 46 49.6875 L 46 16.5 L 44 16.5 z M 8 19.5 L 8 56.5 L 10 56.5 L 10 19.5 L 8 19.5 z M 36 19.5 L 36 56.5 L 38 56.5 L 38 19.5 L 36 19.5 z M 48 21.5 L 48 47.3125 L 50 44.9375 L 50 21.5 L 48 21.5 z M 0 24.5 L 0 34 L 0 61.5 L 2 61.5 L 2 24.5 L 0 24.5 z M 52 37.5 L 52 42.53125 L 54 40.15625 L 54 37.5 L 52 37.5 z "
       transform="translate(0,14.5)"
       id="path4002" />
    <path
       style="color:#000000;fill:url(#radialGradient3782);fill-opacity:1;fill-rule:nonzero;stroke:none;stroke-width:1;marker:none;visibility:visible;display:inline;overflow:visible;enable-background:accumulate"
       d="M 0 2 L 0 4 L 0 30 L 2 30 L 2 2 L 0 2 z M 4 2 L 4 14 L 6 14 L 6 2 L 4 2 z M 8 2 L 8 33 L 10 33 L 10 2 L 8 2 z M 12 2 L 12 19 L 14 19 L 14 2 L 12 2 z M 20 2 L 20 37 L 22 37 L 22 2 L 20 2 z M 40 2 L 40 27 L 42 27 L 42 2 L 40 2 z M 48 2 L 48 32 L 50 32 L 50 2 L 48 2 z M 52 2 L 52 17 L 54 17 L 54 2 L 52 2 z M 56 2 L 56 3 L 58 3 L 58 2 L 56 2 z M 28 5 L 28 42 L 30 42 L 30 5 L 28 5 z M 56 5 L 56 37.78125 L 58 35.375 L 58 5 L 56 5 z M 36 6 L 36 43 L 38 43 L 38 6 L 36 6 z M 44 9 L 44 46 L 46 46 L 46 9 L 44 9 z M 32 11 L 32 48 L 34 48 L 34 11 L 32 11 z M 16 16 L 16 53 L 18 53 L 18 16 L 16 16 z M 24 19 L 24 56 L 26 56 L 26 19 L 24 19 z M 52 19 L 52 42.53125 L 54 40.15625 L 54 19 L 52 19 z M 12 21 L 12 58 L 14 58 L 14 21 L 12 21 z M 0 32 L 0 34 L 0 62 L 2 64 L 2 32 L 0 32 z M 8 37 L 8 64 L 10 64 L 10 37 L 8 37 z M 4 51 L 4 64 L 6 64 L 6 51 L 4 51 z "
       transform="translate(0,14.5)"
       id="path3998" />
    <path
       style="color:#000000;fill:url(#radialGradient3784);fill-opacity:1;fill-rule:nonzero;stroke:none;stroke-width:1;marker:none;visibility:visible;display:inline;overflow:visible;enable-background:accumulate"
       d="M 0 2 L 0 4 L 0 28.5 L 2 28.5 L 2 2 L 0 2 z M 4 2 L 4 12.5 L 6 12.5 L 6 2 L 4 2 z M 8 2 L 8 31.5 L 10 31.5 L 10 2 L 8 2 z M 12 2 L 12 17.5 L 14 17.5 L 14 2 L 12 2 z M 20 2 L 20 35.5 L 22 35.5 L 22 2 L 20 2 z M 40 2 L 40 25.5 L 42 25.5 L 42 2 L 40 2 z M 48 2 L 48 30.5 L 50 30.5 L 50 2 L 48 2 z M 52 2 L 52 15.5 L 54 15.5 L 54 2 L 52 2 z M 28 3.5 L 28 40.5 L 30 40.5 L 30 3.5 L 28 3.5 z M 56 3.5 L 56 37.78125 L 58 35.375 L 58 3.5 L 56 3.5 z M 36 4.5 L 36 41.5 L 38 41.5 L 38 4.5 L 36 4.5 z M 44 7.5 L 44 44.5 L 46 44.5 L 46 7.5 L 44 7.5 z M 32 9.5 L 32 46.5 L 34 46.5 L 34 9.5 L 32 9.5 z M 16 14.5 L 16 51.5 L 18 51.5 L 18 14.5 L 16 14.5 z M 24 17.5 L 24 54.5 L 26 54.5 L 26 17.5 L 24 17.5 z M 52 17.5 L 52 42.53125 L 54 40.15625 L 54 17.5 L 52 17.5 z M 12 19.5 L 12 56.5 L 14 56.5 L 14 19.5 L 12 19.5 z M 0 30.5 L 0 34 L 0 62 L 2 64 L 2 30.5 L 0 30.5 z M 8 35.5 L 8 64 L 10 64 L 10 35.5 L 8 35.5 z M 4 49.5 L 4 64 L 6 64 L 6 49.5 L 4 49.5 z "
       transform="translate(0,14.5)"
       id="path4004" />
    <path
       style="color:#000000;fill:url(#radialGradient3786);fill-opacity:1;fill-rule:nonzero;stroke:none;stroke-width:1;marker:none;visibility:visible;display:inline;overflow:visible;enable-background:accumulate"
       d="M 0 2 L 0 20 L 2 20 L 2 2 L 0 2 z M 8 2 L 8 15 L 10 15 L 10 2 L 8 2 z M 12 2 L 12 30 L 14 30 L 14 2 L 12 2 z M 20 2 L 20 25 L 22 25 L 22 2 L 20 2 z M 40 2 L 40 35 L 42 35 L 42 2 L 40 2 z M 48 2 L 48 17 L 50 17 L 50 2 L 48 2 z M 52 2 L 52 31 L 54 31 L 54 2 L 52 2 z M 56 2 L 56 12 L 58 12 L 58 2 L 56 2 z M 4 3 L 4 40 L 6 40 L 6 3 L 4 3 z M 32 3 L 32 40 L 34 40 L 34 3 L 32 3 z M 24 4 L 24 41 L 26 41 L 26 4 L 24 4 z M 16 7 L 16 44 L 18 44 L 18 7 L 16 7 z M 28 9 L 28 46 L 30 46 L 30 9 L 28 9 z M 44 14 L 44 51 L 44.90625 51 L 46 49.6875 L 46 14 L 44 14 z M 8 17 L 8 54 L 10 54 L 10 17 L 8 17 z M 36 17 L 36 54 L 38 54 L 38 17 L 36 17 z M 48 19 L 48 47.3125 L 50 44.9375 L 50 19 L 48 19 z M 0 22 L 0 34 L 0 59 L 2 59 L 2 22 L 0 22 z M 52 35 L 52 42.53125 L 54 40.15625 L 54 35 L 52 35 z "
       transform="translate(0,14.5)"
       id="path4000" />
    <path
       style="color:#000000;fill:url(#radialGradient3788);fill-opacity:1;fill-rule:nonzero;stroke:none;stroke-width:1;marker:none;visibility:visible;display:inline;overflow:visible;enable-background:accumulate"
       d="M 0 2 L 0 4 L 0 33.5 L 2 33.5 L 2 2 L 0 2 z M 4 2 L 4 14.5 L 6 14.5 L 6 2 L 4 2 z M 8 2 L 8 28.5 L 10 28.5 L 10 2 L 8 2 z M 20 2 L 20 38.5 L 22 38.5 L 22 2 L 20 2 z M 24 2 L 24 9.5 L 26 9.5 L 26 2 L 24 2 z M 32 2 L 32 6.5 L 34 6.5 L 34 2 L 32 2 z M 36 2 L 36 11.5 L 38 11.5 L 38 2 L 36 2 z M 48 2 L 48 30.5 L 50 30.5 L 50 2 L 48 2 z M 56 2 L 56 25.5 L 58 25.5 L 58 2 L 56 2 z M 12 6.5 L 12 43.5 L 14 43.5 L 14 6.5 L 12 6.5 z M 52 7.5 L 52 42.53125 L 54 40.15625 L 54 7.5 L 52 7.5 z M 40 11.5 L 40 48.5 L 42 48.5 L 42 11.5 L 40 11.5 z M 4 16.5 L 4 53.5 L 6 53.5 L 6 16.5 L 4 16.5 z M 32 16.5 L 32 53.5 L 34 53.5 L 34 16.5 L 32 16.5 z M 24 17.5 L 24 54.5 L 26 54.5 L 26 17.5 L 24 17.5 z M 16 20.5 L 16 57.5 L 18 57.5 L 18 20.5 L 16 20.5 z M 28 22.5 L 28 59.5 L 30 59.5 L 30 22.5 L 28 22.5 z M 44 27.5 L 44 52.0625 L 46 49.6875 L 46 27.5 L 44 27.5 z M 8 30.5 L 8 64 L 10 64 L 10 30.5 L 8 30.5 z M 36 30.5 L 36 61.625 L 38 59.21875 L 38 30.5 L 36 30.5 z M 48 32.5 L 48 47.3125 L 50 44.9375 L 50 32.5 L 48 32.5 z M 0 35.5 L 0 62 L 2 64 L 2 35.5 L 0 35.5 z "
       transform="translate(0,14.5)"
       id="path4006" />
    <path
       style="color:#000000;fill:url(#radialGradient3128);fill-opacity:1;fill-rule:nonzero;stroke:none;stroke-width:1;marker:none;visibility:visible;display:inline;overflow:visible;enable-background:accumulate"
       d="M 4 2 L 4 25 L 6 25 L 6 2 L 4 2 z M 12 2 L 12 30 L 14 30 L 14 2 L 12 2 z M 24 2 L 24 11 L 26 11 L 26 2 L 24 2 z M 28 2 L 28 6 L 30 6 L 30 2 L 28 2 z M 36 2 L 36 9 L 38 9 L 38 2 L 36 2 z M 40 2 L 40 38 L 42 38 L 42 2 L 40 2 z M 52 2 L 52 28 L 54 28 L 54 2 L 52 2 z M 56 2 L 56 14 L 58 14 L 58 2 L 56 2 z M 0 4 L 0 34 L 0 41 L 2 41 L 2 4 L 0 4 z M 48 6 L 48 43 L 50 43 L 50 6 L 48 6 z M 8 7 L 8 44 L 10 44 L 10 7 L 8 7 z M 20 11 L 20 48 L 22 48 L 22 11 L 20 11 z M 28 16 L 28 53 L 30 53 L 30 16 L 28 16 z M 56 16 L 56 37.78125 L 58 35.375 L 58 16 L 56 16 z M 36 17 L 36 54 L 38 54 L 38 17 L 36 17 z M 44 20 L 44 52.0625 L 46 49.6875 L 46 20 L 44 20 z M 32 22 L 32 59 L 34 59 L 34 22 L 32 22 z M 16 27 L 16 64 L 18 64 L 18 27 L 16 27 z M 24 30 L 24 64 L 26 64 L 26 30 L 24 30 z M 52 30 L 52 42.53125 L 54 40.15625 L 54 30 L 52 30 z M 12 32 L 12 64 L 14 64 L 14 32 L 12 32 z M 0 43 L 0 62 L 2 64 L 2 43 L 0 43 z M 8 48 L 8 64 L 10 64 L 10 48 L 8 48 z M 4 62 L 4 64 L 6 64 L 6 62 L 4 62 z "
       transform="translate(0,14.5)"
       id="path3988" />
  </g>
  <path
     d="m 26,11 -8,10 5,0 0,17 6,0 0,-17 5,0 z m -14,16 0,17 -5,0 8,10 8,-10 -5,0 0,-17 z"
     id="path3858"
     style="fill:url(#linearGradient4549-8-1);fill-rule:nonzero;color:#000000;fill-opacity:1;stroke:none;stroke-width:1;marker:none;visibility:visible;display:inline;overflow:visible;enable-background:accumulate" />
  <path
     d="m 60,33 4,4 0,25 -28.32258,0 z"
     id="path3934"
     style="fill:url(#radialGradient3373);fill-rule:nonzero" />
  <path
     d="M 34,64 60,33 c -2.328567,2.776369 -4.36141,3 -11,3 H 37 v 15 c 0,6.64407 0.04437,9.37018 -3,13 z"
     id="path4278"
     style="fill:url(#linearGradient4280);fill-rule:nonzero" />
  <path
     d="m 59,32 c -2.328567,2.776369 -4.36141,3 -11,3 H 36 v 15 c 0,6.64407 0.04437,9.37018 -3,13 4,-5 4.000382,-8.35667 4,-13 V 36 h 11 c 5,0 8.041405,-0.38188 11,-4 z"
     id="path4282"
     style="fill:#a2c87f;fill-opacity:1;fill-rule:nonzero"
     inkscape:connector-curvature="0" />
</svg>
