<?xml version="1.0" encoding="UTF-8" standalone="no"?>
<!-- Created with Inkscape (http://www.inkscape.org/) -->

<svg
   xmlns:dc="http://purl.org/dc/elements/1.1/"
   xmlns:cc="http://creativecommons.org/ns#"
   xmlns:rdf="http://www.w3.org/1999/02/22-rdf-syntax-ns#"
   xmlns:svg="http://www.w3.org/2000/svg"
   xmlns="http://www.w3.org/2000/svg"
   xmlns:xlink="http://www.w3.org/1999/xlink"
   xmlns:sodipodi="http://sodipodi.sourceforge.net/DTD/sodipodi-0.dtd"
   xmlns:inkscape="http://www.inkscape.org/namespaces/inkscape"
   version="1.1"
   width="64"
   height="64"
   id="svg13094"
   inkscape:version="0.48.3.1 r9886"
   sodipodi:docname="text-x-csrc.svg">
  <sodipodi:namedview
     pagecolor="#cdd0d8"
     bordercolor="#666666"
     borderopacity="1"
     objecttolerance="10"
     gridtolerance="10"
     guidetolerance="10"
     inkscape:pageopacity="1"
     inkscape:pageshadow="2"
     inkscape:window-width="1920"
     inkscape:window-height="1033"
     id="namedview48"
     showgrid="true"
     fit-margin-top="0"
     fit-margin-left="0"
     fit-margin-right="0"
     fit-margin-bottom="0"
     inkscape:snap-bbox="true"
     inkscape:bbox-paths="true"
     inkscape:bbox-nodes="true"
     inkscape:snap-bbox-edge-midpoints="true"
     inkscape:snap-bbox-midpoints="true"
     inkscape:object-paths="true"
     inkscape:snap-intersection-paths="true"
     inkscape:object-nodes="true"
     inkscape:snap-smooth-nodes="true"
     inkscape:snap-midpoints="true"
     inkscape:snap-object-midpoints="true"
     inkscape:snap-center="true"
     inkscape:zoom="10.429825"
     inkscape:cx="32.164882"
     inkscape:cy="30.235202"
     inkscape:window-x="-10"
     inkscape:window-y="25"
     inkscape:window-maximized="1"
     inkscape:current-layer="svg13094">
    <inkscape:grid
       type="xygrid"
       id="grid3025"
       empspacing="5"
       visible="true"
       enabled="true"
       snapvisiblegridlinesonly="true"
       originx="0px"
       originy="0px" />
  </sodipodi:namedview>
  <defs
     id="defs11">
    <linearGradient
       x1="31"
       y1="64"
       x2="31"
       y2="2"
       id="linearGradient3984"
       gradientUnits="userSpaceOnUse">
      <stop
         id="stop3099"
         style="stop-color:#c1984f;stop-opacity:1;"
         offset="0" />
      <stop
         id="stop3875"
         style="stop-color:#caac68;stop-opacity:1;"
         offset="0.5" />
      <stop
         id="stop3873"
         style="stop-color:#bf964a;stop-opacity:1;"
         offset="0.51612902" />
      <stop
         id="stop3101"
         style="stop-color:#caae68;stop-opacity:1;"
         offset="1" />
    </linearGradient>
    <radialGradient
       cx="48.30785"
       cy="47.141338"
       r="14.16129"
       id="radialGradient3996"
       gradientUnits="userSpaceOnUse"
       gradientTransform="matrix(0.93962333,0.77477937,-1.7975241,2.1799696,88.130548,-93.365748)">
      <stop
         id="stop3954"
         style="stop-color:#000000;stop-opacity:0.17850287"
         offset="0" />
      <stop
         id="stop3958"
         style="stop-color:#000000;stop-opacity:0.05310301"
         offset="0.5" />
      <stop
         id="stop3956"
         style="stop-color:#000000;stop-opacity:0"
         offset="1" />
    </radialGradient>
    <linearGradient
       x1="48.992088"
       y1="46.124821"
       x2="37"
       y2="36"
       id="linearGradient4280"
       gradientUnits="userSpaceOnUse">
      <stop
         id="stop4293"
         style="stop-color:#c1934d;stop-opacity:1;"
         offset="0" />
      <stop
         id="stop4295"
         style="stop-color:#a07a40;stop-opacity:1;"
         offset="0.2098622" />
      <stop
         id="stop4297"
         style="stop-color:#b78d4c;stop-opacity:1;"
         offset="1" />
    </linearGradient>
    <linearGradient
       x1="45"
       y1="52"
       x2="73"
       y2="4"
       id="linearGradient4308"
       gradientUnits="userSpaceOnUse">
      <stop
         id="stop4304"
         style="stop-color:#000000;stop-opacity:0.10677083"
         offset="0" />
      <stop
         id="stop4306"
         style="stop-color:#000000;stop-opacity:0"
         offset="1" />
    </linearGradient>
    <radialGradient
       cx="48.24176"
       cy="40.919418"
       r="14.16129"
       fx="40.959122"
       fy="40.608799"
       id="radialGradient3822"
       xlink:href="#radialGradient3996"
       gradientUnits="userSpaceOnUse"
       gradientTransform="matrix(-2.0491578e-7,2.1591248,-0.51856169,-3.8905836e-8,81.12524,-70.945917)" />
    <radialGradient
       cx="48.30785"
       cy="47.141338"
       r="14.16129"
       id="radialGradient3373"
       xlink:href="#radialGradient3996"
       gradientUnits="userSpaceOnUse"
       gradientTransform="matrix(0.93962333,0.77477937,-1.7975241,2.1799696,88.13055,-93.36575)" />
    <linearGradient
       x1="31.447433"
       y1="30.420521"
       x2="31.447433"
       y2="90.420517"
       id="linearGradient3068-7-8-8"
       xlink:href="#linearGradient3051-8-3-2"
       gradientUnits="userSpaceOnUse"
       gradientTransform="translate(-13.447434,-27.42052)" />
    <linearGradient
       id="linearGradient3051-8-3-2">
      <stop
         id="stop3053-9-5-2"
         style="stop-color:#d5d5d5;stop-opacity:1"
         offset="0" />
      <stop
         id="stop3059-4-7-4"
         style="stop-color:#dbdbdb;stop-opacity:1"
         offset="0.47965544" />
      <stop
         id="stop3061-7-0-9"
         style="stop-color:#f1f1f1;stop-opacity:1"
         offset="0.50227195" />
      <stop
         id="stop3055-4-2-5"
         style="stop-color:#ededed;stop-opacity:1"
         offset="1" />
    </linearGradient>
  </defs>
  <metadata
     id="metadata13099">
    <rdf:RDF>
      <cc:Work
         rdf:about="">
        <dc:format>image/svg+xml</dc:format>
        <dc:type
           rdf:resource="http://purl.org/dc/dcmitype/StillImage" />
        <dc:title />
      </cc:Work>
    </rdf:RDF>
  </metadata>
  <path
     d="M 4,0 64,0 64,62 4,62 z"
     id="path3960"
     style="fill:#9e7533;fill-opacity:1;fill-rule:nonzero"
     inkscape:connector-curvature="0" />
  <path
     d="m 60,2 4,4 0,31 -4,-4 z"
     id="path3900"
     style="fill:url(#radialGradient3822);fill-rule:nonzero"
     inkscape:connector-curvature="0" />
  <path
     d="m 60,33 4,4 0,25 -28.32258,0 z"
     id="path3934"
     style="fill:url(#radialGradient3373);fill-rule:nonzero"
     inkscape:connector-curvature="0" />
  <path
     d="M 63,0 V 61 H 4 v 1 H 64 V 0 h -1 z"
     id="path4299"
     style="fill:#000000;fill-opacity:0.07887819;fill-rule:nonzero"
     inkscape:connector-curvature="0" />
  <path
     d="M 60,2 60,33 35,62 37,62 60.78125,33.65625 61,33.375 61,33 61,3 z"
     id="path3922"
     style="fill:url(#linearGradient4308);fill-rule:nonzero"
     inkscape:connector-curvature="0" />
  <path
     d="M 0,2 60,2 60,33 34,64 0,64 z"
     id="path3982"
     style="fill:url(#linearGradient3984);fill-rule:nonzero"
     inkscape:connector-curvature="0" />
  <path
     d="M 0,2 60,2 60,3 0,3 z"
     id="path4052"
     style="fill:#e9cf96;fill-opacity:1;fill-rule:nonzero"
     inkscape:connector-curvature="0" />
  <path
     d="m 0,63 35,0 -1,1 -34,0 z"
     id="path4255"
     style="fill:#000000;fill-opacity:0.10341803;fill-rule:nonzero"
     inkscape:connector-curvature="0" />
  <path
     d="M 4,0 64,0 64,1 4,1 z"
     id="path3878"
     style="fill:#e9cf96;fill-opacity:1;fill-rule:nonzero"
     inkscape:connector-curvature="0" />
  <g
     transform="translate(1.125,-0.52345061)"
     style="font-size:3px;font-style:normal;font-variant:normal;font-weight:normal;font-stretch:normal;line-height:125%;letter-spacing:0px;word-spacing:0px;fill:#ffffff;fill-opacity:1;stroke:none;font-family:Monospace;-inkscape-font-specification:Monospace;opacity:0.79527559"
     id="flowRoot3051">
    <path
       d="m 6.2460937,9.494642 -0.09375,0.4804688 0.3515625,0 0,0.2006832 -0.3896484,0 -0.1201172,0.626953 -0.2167969,0 0.1230469,-0.626953 -0.4248047,0 -0.1201172,0.626953 -0.2109375,0 0.1142579,-0.626953 -0.3178711,0 0,-0.2006832 0.3574218,0 0.095215,-0.4804688 -0.3413086,0 0,-0.2006836 0.3779297,0 0.1201172,-0.6328125 0.215332,0 -0.1201172,0.6328125 0.4291992,0 0.1230469,-0.6328125 0.2109375,0 -0.1230469,0.6328125 0.3237305,0 0,0.2006836 -0.3632813,0 m -0.7324218,0.4804688 0.4262695,0 0.09375,-0.4804688 -0.4262695,0 -0.09375,0.4804688"
       style="fill:#ffffff;fill-opacity:1"
       id="path3886" />
    <path
       d="m 7.6010742,8.5322397 c 0.1035146,2.2e-6 0.1552724,0.055666 0.1552735,0.1669922 -1.1e-6,0.056643 -0.015626,0.099123 -0.046875,0.1274414 -0.030274,0.027346 -0.066407,0.041018 -0.1083985,0.041016 -0.104493,1.9e-6 -0.156739,-0.05615 -0.1567383,-0.168457 -7e-7,-0.111326 0.052245,-0.16699 0.1567383,-0.1669922 m -0.1347656,0.8730468 -0.394043,-0.030762 0,-0.1801758 0.6606446,0 0,1.398926 0.515625,0.0293 0,0.180175 -1.2861329,0 0,-0.180175 0.5039063,-0.0293 0,-1.1879885"
       style="fill:#ffffff;fill-opacity:1"
       id="path3888" />
    <path
       d="m 9.7719727,10.802747 0,-1.035644 C 9.7719714,9.513198 9.6557605,9.386245 9.4233398,9.3862436 9.1235345,9.386245 8.9736323,9.5805807 8.9736328,9.9692514 l 0,0.8334956 -0.2666015,0 0,-1.608398 0.215332,0 0.039551,0.2167969 0.014648,0 C 9.0771478,9.247085 9.2412102,9.1650538 9.46875,9.1650522 c 0.3798814,1.6e-6 0.569823,0.1958022 0.569824,0.5874023 l 0,1.0502925 -0.2666013,0"
       style="fill:#ffffff;fill-opacity:1"
       id="path3890" />
    <path
       d="m 11.825684,9.251478 -0.09082,0.2314453 c -0.146485,-0.055663 -0.277345,-0.083495 -0.392578,-0.083496 -0.362305,1.4e-6 -0.543457,0.2016613 -0.543457,0.6049808 0,0.396484 0.176269,0.594726 0.528809,0.594726 0.153319,0 0.310057,-0.03027 0.470215,-0.09082 l 0,0.234375 c -0.130861,0.05957 -0.291506,0.08935 -0.481934,0.08935 -0.250977,0 -0.445801,-0.0708 -0.584473,-0.212402 -0.138672,-0.142578 -0.208008,-0.346679 -0.208007,-0.612305 -1e-6,-0.2744127 0.0708,-0.4833968 0.212402,-0.6269528 0.141601,-0.1435531 0.340819,-0.2153304 0.597656,-0.215332 0.173827,1.6e-6 0.337889,0.02881 0.492188,0.086426"
       style="fill:#ffffff;fill-opacity:1"
       id="path3892" />
    <path
       d="m 12.849609,8.7329233 -0.392578,-0.030762 0,-0.1787109 0.660645,0 0,2.0698244 0.515625,0.0293 0,0.180175 -1.287598,0 0,-0.180175 0.503906,-0.0293 0,-1.8603517"
       style="fill:#ffffff;fill-opacity:1"
       id="path3894" />
    <path
       d="m 15.219727,10.802747 -0.03955,-0.215332 -0.01465,0 c -0.10254,0.163086 -0.265626,0.244629 -0.489257,0.244629 -0.381837,0 -0.572755,-0.1958 -0.572754,-0.587402 l 0,-1.050293 0.266601,0 0,1.035645 c 0,0.253906 0.115234,0.380859 0.345703,0.380859 0.157226,0 0.271972,-0.04492 0.344239,-0.134766 0.07226,-0.09082 0.108397,-0.239745 0.108398,-0.446777 l 0,-0.834961 0.266602,0 0,1.608398 -0.215332,0"
       style="fill:#ffffff;fill-opacity:1"
       id="path3896" />
    <path
       d="m 16.981934,10.587415 -0.01172,0 c -0.110353,0.163086 -0.267579,0.244629 -0.47168,0.244629 -0.19629,0 -0.350586,-0.07275 -0.46289,-0.218261 -0.111329,-0.146484 -0.166993,-0.350586 -0.166993,-0.612305 0,-0.2636709 0.05615,-0.4687488 0.168457,-0.6152344 0.112305,-0.1474594 0.266113,-0.2211898 0.461426,-0.2211914 0.201171,1.6e-6 0.358397,0.078126 0.47168,0.234375 l 0.01758,0 c -0.01172,-0.1259751 -0.01758,-0.2050765 -0.01758,-0.2373047 l 0,-0.6386719 0.266601,0 0,2.2792964 -0.215332,0 -0.03955,-0.215332 m -0.01172,-0.525878 0,-0.06006 c -1e-6,-0.2216787 -0.03418,-0.3793934 -0.102539,-0.4731446 -0.06738,-0.094725 -0.175294,-0.1420884 -0.323731,-0.1420898 -0.265625,1.4e-6 -0.398438,0.2060559 -0.398437,0.6181644 -1e-6,0.404297 0.133788,0.606445 0.401367,0.606445 0.148436,0 0.254882,-0.04297 0.319336,-0.128906 0.06543,-0.08691 0.100096,-0.227051 0.104004,-0.42041"
       style="fill:#ffffff;fill-opacity:1"
       id="path3898" />
    <path
       d="m 19.072266,10.049818 -1.133789,0 c 0.0078,0.366211 0.17578,0.549316 0.503906,0.549316 0.190428,0 0.371092,-0.03711 0.541992,-0.111328 l 0,0.234375 c -0.162111,0.07324 -0.339845,0.109863 -0.533203,0.109863 -0.239259,0 -0.430665,-0.07275 -0.574219,-0.218261 -0.143555,-0.146484 -0.215332,-0.347656 -0.215332,-0.603516 0,-0.2597646 0.06592,-0.4653308 0.197754,-0.6166992 0.132812,-0.1523422 0.310058,-0.228514 0.531738,-0.2285156 0.20703,1.6e-6 0.372069,0.065431 0.495117,0.196289 0.124022,0.1308607 0.186034,0.305177 0.186036,0.5229493 l 0,0.1655275 m -1.12793,-0.2167971 0.839355,0 c -1e-6,-0.2978503 -0.132813,-0.4467759 -0.398437,-0.4467773 -0.268555,1.4e-6 -0.415528,0.148927 -0.440918,0.4467773"
       style="fill:#ffffff;fill-opacity:1"
       id="path3901" />
    <path
       d="m 22.63916,10.479017 -1.352051,-0.6606445 0,-0.1494141 1.352051,-0.6606445 0,0.234375 -1.047363,0.5009766 1.047363,0.5009765 0,0.234375"
       style="fill:#ffffff;fill-opacity:1"
       id="path3903" />
    <path
       d="m 23.160645,10.73097 0,-0.243164 c 0.188476,0.08398 0.369139,0.125977 0.541992,0.125977 0.268553,0 0.402831,-0.0791 0.402832,-0.237305 -1e-6,-0.05566 -0.02393,-0.104003 -0.07178,-0.14502 -0.04785,-0.04101 -0.158204,-0.09277 -0.331054,-0.155273 -0.22754,-0.08496 -0.371094,-0.1625968 -0.430664,-0.2329102 -0.05859,-0.071288 -0.08789,-0.1552723 -0.08789,-0.2519531 0,-0.1328112 0.0542,-0.236815 0.162598,-0.3120117 0.109374,-0.07617 0.260253,-0.1142562 0.452636,-0.1142578 0.193359,1.6e-6 0.373534,0.036134 0.540528,0.1083984 l -0.08789,0.2182617 C 24.074218,9.4214012 23.918456,9.386245 23.784668,9.3862436 c -0.230469,1.4e-6 -0.345704,0.064943 -0.345703,0.1948242 -1e-6,0.059572 0.02441,0.107423 0.07324,0.1435547 0.0498,0.035157 0.163573,0.084474 0.341309,0.1479492 0.206053,0.075196 0.342772,0.1494153 0.410156,0.2226563 0.06836,0.07227 0.102537,0.161133 0.102539,0.266602 -2e-6,0.146484 -0.05713,0.261718 -0.171387,0.345703 -0.114259,0.08301 -0.27588,0.124511 -0.484863,0.124511 -0.242188,0 -0.425293,-0.03369 -0.549316,-0.101074"
       style="fill:#ffffff;fill-opacity:1"
       id="path3905" />
    <path
       d="m 26.15625,10.583021 0,0.202148 c -0.126954,0.03125 -0.250001,0.04687 -0.369141,0.04687 -0.353516,0 -0.530274,-0.167968 -0.530273,-0.503906 l 0,-0.9331054 -0.391113,0 0,-0.1376953 0.391113,-0.071777 0.112793,-0.4204102 0.153808,0 0,0.4291992 0.641602,0 0,0.2006836 -0.641602,0 0,0.9331054 c 0,0.19043 0.09375,0.285645 0.28125,0.285645 0.09082,0 0.208007,-0.01025 0.351563,-0.03076"
       style="fill:#ffffff;fill-opacity:1"
       id="path3907" />
    <path
       d="m 27.774902,10.587415 -0.01172,0 c -0.110353,0.163086 -0.26758,0.244629 -0.47168,0.244629 -0.19629,0 -0.350587,-0.07275 -0.462891,-0.218261 -0.111328,-0.146484 -0.166992,-0.350586 -0.166992,-0.612305 0,-0.2636709 0.05615,-0.4687488 0.168457,-0.6152344 0.112304,-0.1474594 0.266113,-0.2211898 0.461426,-0.2211914 0.201171,1.6e-6 0.358397,0.078126 0.47168,0.234375 l 0.01758,0 c -0.01172,-0.1259751 -0.01758,-0.2050765 -0.01758,-0.2373047 l 0,-0.6386719 0.266601,0 0,2.2792964 -0.215332,0 -0.03955,-0.215332 m -0.01172,-0.525878 0,-0.06006 c -2e-6,-0.2216787 -0.03418,-0.3793934 -0.102539,-0.4731446 -0.06738,-0.094725 -0.175294,-0.1420884 -0.323731,-0.1420898 -0.265626,1.4e-6 -0.398438,0.2060559 -0.398437,0.6181644 -10e-7,0.404297 0.133788,0.606445 0.401367,0.606445 0.148436,0 0.254881,-0.04297 0.319336,-0.128906 0.06543,-0.08691 0.100096,-0.227051 0.104004,-0.42041"
       style="fill:#ffffff;fill-opacity:1"
       id="path3909" />
    <path
       d="m 29.187012,8.5322397 c 0.103514,2.2e-6 0.155272,0.055666 0.155273,0.1669922 -1e-6,0.056643 -0.01563,0.099123 -0.04687,0.1274414 -0.03027,0.027346 -0.06641,0.041018 -0.108398,0.041016 -0.104493,1.9e-6 -0.156739,-0.05615 -0.156739,-0.168457 0,-0.111326 0.05225,-0.16699 0.156739,-0.1669922 m -0.134766,0.8730468 -0.394043,-0.030762 0,-0.1801758 0.660645,0 0,1.398926 0.515625,0.0293 0,0.180175 -1.286133,0 0,-0.180175 0.503906,-0.0293 0,-1.1879885"
       style="fill:#ffffff;fill-opacity:1"
       id="path3911" />
    <path
       d="m 30.952148,10.832044 c -0.210938,0 -0.384766,-0.07568 -0.521484,-0.22705 -0.135742,-0.152344 -0.203613,-0.355469 -0.203613,-0.6093754 0,-0.2568349 0.06592,-0.4594714 0.197754,-0.6079102 0.132812,-0.1484359 0.311522,-0.2226546 0.536132,-0.2226562 0.21289,1.6e-6 0.387206,0.075685 0.52295,0.2270508 0.13574,0.1513684 0.203611,0.3525401 0.203613,0.6035156 -2e-6,0.2587894 -0.0669,0.4628914 -0.200684,0.6123044 -0.13379,0.149414 -0.312012,0.224121 -0.534668,0.224121 m 0.0059,-0.221191 c 0.302733,0 0.4541,-0.205078 0.454101,-0.6152344 -1e-6,-0.4062488 -0.152345,-0.6093736 -0.457031,-0.609375 -0.301758,1.4e-6 -0.452637,0.2031262 -0.452637,0.609375 0,0.4101564 0.151855,0.6152344 0.455567,0.6152344"
       style="fill:#ffffff;fill-opacity:1"
       id="path3913" />
    <path
       d="m 32.756836,10.36183 c 0.148436,0 0.222655,0.08106 0.222656,0.243164 -10e-7,0.162109 -0.07422,0.243164 -0.222656,0.243164 -0.147462,0 -0.221192,-0.08105 -0.221191,-0.243164 -1e-6,-0.162109 0.07373,-0.243164 0.221191,-0.243164"
       style="fill:#ffffff;fill-opacity:1"
       id="path3915" />
    <path
       d="m 34.955566,10.802747 0,-1.035644 c -10e-7,-0.253905 -0.116212,-0.380858 -0.348632,-0.3808594 -0.299806,1.4e-6 -0.449708,0.1943371 -0.449707,0.5830078 l 0,0.8334956 -0.266602,0 0,-2.2792964 0.266602,0 0,0.6767578 -0.01172,0.2109375 0.01465,0 c 0.100586,-0.1640609 0.264648,-0.2460921 0.492188,-0.2460937 0.379881,1.6e-6 0.569822,0.1958022 0.569824,0.5874023 l 0,1.0502925 -0.266602,0"
       style="fill:#ffffff;fill-opacity:1"
       id="path3917" />
    <path
       d="m 35.677734,10.244642 1.045899,-0.5009765 -1.045899,-0.5009766 0,-0.234375 1.352051,0.6606445 0,0.1494141 -1.352051,0.6606445 0,-0.234375"
       style="fill:#ffffff;fill-opacity:1"
       id="path3919" />
    <path
       d="m 5.8022461,16.03224 c 0.1035146,2e-6 0.1552723,0.05567 0.1552734,0.166992 -1.1e-6,0.05664 -0.015626,0.09912 -0.046875,0.127441 -0.030274,0.02735 -0.066407,0.04102 -0.1083984,0.04102 -0.104493,2e-6 -0.1567391,-0.05615 -0.1567383,-0.168457 -8e-7,-0.111326 0.052245,-0.16699 0.1567383,-0.166992 m -0.1347656,0.873047 -0.394043,-0.03076 0,-0.180176 0.6606445,0 0,1.398926 0.515625,0.0293 0,0.180175 -1.2861328,0 0,-0.180175 0.5039063,-0.0293 0,-1.187988"
       style="fill:#ffffff;fill-opacity:1"
       id="path3921" />
    <path
       d="m 7.9731445,18.302747 0,-1.035644 c -1.3e-6,-0.253905 -0.1162121,-0.380858 -0.3486328,-0.380859 -0.2998053,10e-7 -0.4497075,0.194337 -0.449707,0.583007 l 0,0.833496 -0.2666016,0 0,-1.608398 0.2153321,0 0.039551,0.216797 0.014649,0 c 0.1005853,-0.164061 0.2646476,-0.246092 0.4921875,-0.246094 0.3798814,2e-6 0.5698226,0.195802 0.5698242,0.587403 l 0,1.050292 -0.2666016,0"
       style="fill:#ffffff;fill-opacity:1"
       id="path3923" />
    <path
       d="m 9.9667969,18.083021 0,0.202148 c -0.1269545,0.03125 -0.2500013,0.04687 -0.3691406,0.04687 -0.3535164,0 -0.5302741,-0.167968 -0.5302735,-0.503906 l 0,-0.933105 -0.3911133,0 0,-0.137696 0.3911133,-0.07178 0.112793,-0.42041 0.1538086,0 0,0.429199 0.6416015,0 0,0.200684 -0.6416015,0 0,0.933105 c -9e-7,0.19043 0.093749,0.285645 0.28125,0.285645 0.090819,0 0.2080064,-0.01025 0.3515625,-0.03076"
       style="fill:#ffffff;fill-opacity:1"
       id="path3925" />
    <path
       d="m 13.501465,18.302747 0,-1.035644 c -2e-6,-0.142577 -0.01319,-0.241698 -0.03955,-0.297363 -0.02539,-0.05566 -0.06836,-0.0835 -0.128906,-0.0835 -0.08496,10e-7 -0.146974,0.04053 -0.186035,0.121582 -0.03809,0.08106 -0.05713,0.216798 -0.05713,0.407226 l 0,0.887695 -0.23584,0 0,-1.035644 c -10e-7,-0.253905 -0.06104,-0.380858 -0.183106,-0.380859 -0.08203,10e-7 -0.140625,0.03906 -0.175781,0.117187 -0.03516,0.07715 -0.05274,0.232423 -0.05273,0.46582 l 0,0.833496 -0.237305,0 0,-1.608398 0.186035,0 0.03955,0.216797 0.01465,0 c 0.06543,-0.164061 0.163573,-0.246092 0.294433,-0.246094 0.159179,2e-6 0.263183,0.08887 0.312012,0.266602 l 0.0088,0 c 0.07422,-0.177733 0.181151,-0.2666 0.320801,-0.266602 0.124998,2e-6 0.215818,0.04541 0.272461,0.136231 0.05664,0.08984 0.08496,0.240235 0.08496,0.451172 l 0,1.050292 -0.237305,0"
       style="fill:#ffffff;fill-opacity:1"
       id="path3927" />
    <path
       d="m 15.180176,18.302747 -0.0542,-0.222656 -0.01172,0 c -0.0752,0.09473 -0.152345,0.160645 -0.231445,0.197754 -0.0791,0.03613 -0.181154,0.0542 -0.306153,0.0542 -0.15918,0 -0.28418,-0.04199 -0.375,-0.125976 -0.08984,-0.08398 -0.134766,-0.20166 -0.134765,-0.353028 -1e-6,-0.324218 0.249023,-0.494139 0.74707,-0.509765 l 0.297363,-0.01025 0,-0.101074 c -1e-6,-0.230468 -0.119142,-0.345702 -0.357422,-0.345703 -0.143555,10e-7 -0.303711,0.04004 -0.480468,0.120117 l -0.09229,-0.200684 c 0.191406,-0.09375 0.378418,-0.140623 0.561036,-0.140625 0.221678,2e-6 0.381834,0.04248 0.480468,0.127442 0.09961,0.08496 0.149413,0.221192 0.149414,0.408691 l 0,1.101562 -0.191894,0 m -0.07178,-0.786621 -0.237304,0.01025 c -0.191407,0.0078 -0.327149,0.03809 -0.407227,0.09082 -0.08008,0.05176 -0.120117,0.131348 -0.120117,0.238769 0,0.173829 0.09766,0.260743 0.292969,0.260742 0.143554,1e-6 0.257811,-0.03955 0.342773,-0.118652 0.08594,-0.08008 0.128905,-0.192382 0.128906,-0.336914 l 0,-0.14502"
       style="fill:#ffffff;fill-opacity:1"
       id="path3929" />
    <path
       d="m 16.595215,16.03224 c 0.103514,2e-6 0.155272,0.05567 0.155273,0.166992 -1e-6,0.05664 -0.01563,0.09912 -0.04687,0.127441 -0.03027,0.02735 -0.06641,0.04102 -0.108398,0.04102 -0.104493,2e-6 -0.156739,-0.05615 -0.156738,-0.168457 -10e-7,-0.111326 0.05225,-0.16699 0.156738,-0.166992 m -0.134766,0.873047 -0.394043,-0.03076 0,-0.180176 0.660645,0 0,1.398926 0.515625,0.0293 0,0.180175 -1.286133,0 0,-0.180175 0.503906,-0.0293 0,-1.187988"
       style="fill:#ffffff;fill-opacity:1"
       id="path3931" />
    <path
       d="m 18.766113,18.302747 0,-1.035644 c -1e-6,-0.253905 -0.116212,-0.380858 -0.348633,-0.380859 -0.299805,10e-7 -0.449707,0.194337 -0.449707,0.583007 l 0,0.833496 -0.266601,0 0,-1.608398 0.215332,0 0.03955,0.216797 0.01465,0 c 0.100585,-0.164061 0.264648,-0.246092 0.492188,-0.246094 0.379881,2e-6 0.569822,0.195802 0.569824,0.587403 l 0,1.050292 -0.266602,0"
       style="fill:#ffffff;fill-opacity:1"
       id="path3933" />
    <path
       d="m 20.348145,16.161146 0.282714,0 c -0.438477,0.367189 -0.657715,0.803224 -0.657714,1.308105 -10e-7,0.50879 0.21826,0.944824 0.654785,1.308106 l -0.279785,0 c -0.433595,-0.344727 -0.650392,-0.779785 -0.650391,-1.305176 -1e-6,-0.51953 0.216796,-0.956541 0.650391,-1.311035"
       style="fill:#ffffff;fill-opacity:1"
       id="path3935" />
    <path
       d="m 21.780762,18.777357 -0.278321,0 c 0.435546,-0.362305 0.65332,-0.79834 0.653321,-1.308106 -1e-6,-0.505858 -0.218751,-0.941892 -0.65625,-1.308105 l 0.28125,0 c 0.434569,0.352541 0.651854,0.789552 0.651855,1.311035 -1e-6,0.527344 -0.217286,0.962402 -0.651855,1.305176"
       style="fill:#ffffff;fill-opacity:1"
       id="path3937" />
    <path
       d="m 5.9663086,22.076185 c -1.1e-6,0.0791 0.027343,0.136719 0.082031,0.172852 0.054686,0.03711 0.1523425,0.05664 0.2929688,0.05859 l 0,0.219727 C 5.9135732,22.521497 5.6997062,22.378431 5.699707,22.098158 l 0,-0.489258 c -8e-7,-0.18457 -0.1650397,-0.276855 -0.4951172,-0.276856 l 0,-0.22705 c 0.3300775,10e-7 0.4951164,-0.09229 0.4951172,-0.276856 l 0,-0.487793 c -8e-7,-0.280271 0.2138662,-0.423338 0.6416016,-0.429199 l 0,0.218262 c -0.1406263,0.002 -0.2382825,0.02149 -0.2929688,0.05859 -0.054689,0.03614 -0.082032,0.09375 -0.082031,0.172852 l 0,0.486328 c -1.1e-6,0.20215 -0.1137705,0.323243 -0.3413086,0.363281 l 0,0.01758 c 0.2275381,0.04004 0.3413075,0.161134 0.3413086,0.363282 l 0,0.484863"
       style="fill:#ffffff;fill-opacity:1"
       id="path3939" />
    <path
       d="m 9.3999023,23.53224 c 0.1035146,2e-6 0.1552724,0.05567 0.1552735,0.166992 -1.1e-6,0.05664 -0.015626,0.09912 -0.046875,0.127441 -0.030275,0.02735 -0.066407,0.04102 -0.1083985,0.04102 -0.104493,2e-6 -0.156739,-0.05615 -0.1567382,-0.168457 -8e-7,-0.111326 0.052245,-0.16699 0.1567382,-0.166992 m -0.1347656,0.873047 -0.3940429,-0.03076 0,-0.180176 0.6606445,0 0,1.398926 0.5156247,0.0293 0,0.180175 -1.2861325,0 0,-0.180175 0.5039062,-0.0293 0,-1.187988"
       style="fill:#ffffff;fill-opacity:1"
       id="path3941" />
    <path
       d="m 11.570801,25.802747 0,-1.035644 c -2e-6,-0.253905 -0.116212,-0.380858 -0.348633,-0.380859 -0.299805,10e-7 -0.449708,0.194337 -0.449707,0.583007 l 0,0.833496 -0.266602,0 0,-1.608398 0.215332,0 0.03955,0.216797 0.01465,0 c 0.100585,-0.164061 0.264647,-0.246092 0.492187,-0.246094 0.379882,2e-6 0.569823,0.195802 0.569824,0.587403 l 0,1.050292 -0.266601,0"
       style="fill:#ffffff;fill-opacity:1"
       id="path3943" />
    <path
       d="m 13.564453,25.583021 0,0.202148 c -0.126954,0.03125 -0.250001,0.04687 -0.36914,0.04687 -0.353517,0 -0.530275,-0.167968 -0.530274,-0.503906 l 0,-0.933105 -0.391113,0 0,-0.137696 0.391113,-0.07178 0.112793,-0.42041 0.153809,0 0,0.429199 0.641601,0 0,0.200684 -0.641601,0 0,0.933105 c -1e-6,0.19043 0.09375,0.285645 0.28125,0.285645 0.09082,0 0.208006,-0.01025 0.351562,-0.03076"
       style="fill:#ffffff;fill-opacity:1"
       id="path3945" />
    <path
       d="m 16.967285,25.802747 0,-1.035644 c -1e-6,-0.253905 -0.116212,-0.380858 -0.348633,-0.380859 -0.299805,10e-7 -0.449707,0.194337 -0.449707,0.583007 l 0,0.833496 -0.266601,0 0,-1.608398 0.215332,0 0.03955,0.216797 0.01465,0 c 0.100585,-0.164061 0.264648,-0.246092 0.492187,-0.246094 0.379882,2e-6 0.569823,0.195802 0.569825,0.587403 l 0,1.050292 -0.266602,0"
       style="fill:#ffffff;fill-opacity:1"
       id="path3947" />
    <path
       d="m 18.594727,25.418958 0.02344,0.03516 c -0.05567,0.21875 -0.150392,0.476074 -0.28418,0.771972 l -0.222656,0 c 0.07422,-0.315429 0.128417,-0.584472 0.162598,-0.807129 l 0.320801,0"
       style="fill:#ffffff;fill-opacity:1"
       id="path3949" />
    <path
       d="m 22.618652,24.251478 -0.09082,0.231445 c -0.146486,-0.05566 -0.277345,-0.08349 -0.392578,-0.0835 -0.362305,2e-6 -0.543458,0.201662 -0.543457,0.604981 -1e-6,0.396484 0.176269,0.594726 0.528808,0.594726 0.15332,0 0.310058,-0.03027 0.470215,-0.09082 l 0,0.234375 c -0.13086,0.05957 -0.291505,0.08936 -0.481933,0.08936 -0.250978,0 -0.445802,-0.0708 -0.584473,-0.212402 -0.138672,-0.142578 -0.208008,-0.346679 -0.208008,-0.612305 0,-0.274413 0.0708,-0.483397 0.212403,-0.626953 0.141601,-0.143553 0.340819,-0.21533 0.597656,-0.215332 0.173827,2e-6 0.337889,0.02881 0.492187,0.08643"
       style="fill:#ffffff;fill-opacity:1"
       id="path3951" />
    <path
       d="m 23.991211,25.418958 0.02344,0.03516 c -0.05567,0.21875 -0.150391,0.476074 -0.284179,0.771972 l -0.222657,0 c 0.07422,-0.315429 0.128418,-0.584472 0.162598,-0.807129 l 0.320801,0"
       style="fill:#ffffff;fill-opacity:1"
       id="path3953" />
    <path
       d="m 27.021973,24.992689 0.197754,-0.222656 0.578613,-0.575684 0.325195,0 -0.723633,0.695801 0.764649,0.912597 -0.312012,0 -0.624023,-0.738281 -0.188965,0.120117 0,0.618164 -0.263672,0 0,-2.279296 0.263672,0 0,1.045898 -0.02344,0.42334 0.0059,0"
       style="fill:#ffffff;fill-opacity:1"
       id="path3955" />
    <path
       d="m 29.169434,24.153333 c 0.124022,2e-6 0.186034,0.06787 0.186035,0.203614 -1e-6,0.135743 -0.06201,0.203614 -0.186035,0.203613 -0.124025,1e-6 -0.186036,-0.06787 -0.186036,-0.203613 0,-0.135741 0.06201,-0.203612 0.186036,-0.203614 m 0.128906,1.300782 0.02051,0.03369 c -0.04981,0.192383 -0.135743,0.426269 -0.257813,0.70166 l -0.200683,0 c 0.06055,-0.249023 0.109374,-0.49414 0.146484,-0.735351 l 0.291504,0"
       style="fill:#ffffff;fill-opacity:1"
       id="path3957" />
    <path
       d="m 8.9707031,33.099134 -0.017578,0 c 0.011718,0.125977 0.017578,0.205078 0.017578,0.237305 l 0,0.687012 -0.2666015,0 0,-2.329102 0.215332,0 0.039551,0.216797 0.011719,0 c 0.1074213,-0.164061 0.2646477,-0.246092 0.4716797,-0.246094 0.1962879,2e-6 0.3500963,0.07324 0.4614258,0.219727 0.1123034,0.145509 0.1684554,0.349122 0.1684574,0.61084 -2e-6,0.263672 -0.05615,0.469238 -0.1684574,0.616699 -0.112306,0.146484 -0.2661145,0.219726 -0.4614258,0.219726 -0.2021492,0 -0.3593756,-0.07764 -0.4716797,-0.23291 m 0,-0.663574 0,0.06006 c -5e-7,0.22168 0.033691,0.379883 0.1010742,0.474609 0.068359,0.09375 0.1767571,0.140625 0.3251954,0.140625 0.2656238,0 0.3984361,-0.206054 0.3984375,-0.618164 -1.4e-6,-0.404296 -0.1337903,-0.606444 -0.4013672,-0.606445 -0.1484383,10e-7 -0.2553718,0.04297 -0.3208008,0.128906 -0.064454,0.08594 -0.098633,0.226075 -0.1025391,0.42041"
       style="fill:#ffffff;fill-opacity:1"
       id="path3959" />
    <path
       d="m 11.822754,31.73097 -0.07178,0.243164 c -0.120119,-0.04394 -0.229494,-0.06592 -0.328125,-0.06592 -0.159181,2e-6 -0.282228,0.04541 -0.369141,0.136231 -0.08594,0.08985 -0.128907,0.220216 -0.128906,0.391113 l 0,0.867187 -0.266602,0 0,-1.608398 0.216797,0 0.03223,0.294434 0.01172,0 c 0.07422,-0.11621 0.153808,-0.199218 0.23877,-0.249024 0.08496,-0.0498 0.189452,-0.0747 0.313476,-0.07471 0.115233,2e-6 0.232421,0.02197 0.351563,0.06592"
       style="fill:#ffffff;fill-opacity:1"
       id="path3961" />
    <path
       d="m 12.997559,31.03224 c 0.103514,2e-6 0.155272,0.05567 0.155273,0.166992 -10e-7,0.05664 -0.01563,0.09912 -0.04687,0.127441 -0.03027,0.02735 -0.06641,0.04102 -0.108398,0.04102 -0.104493,2e-6 -0.156739,-0.05615 -0.156739,-0.168457 0,-0.111326 0.05225,-0.16699 0.156739,-0.166992 m -0.134766,0.873047 -0.394043,-0.03076 0,-0.180176 0.660645,0 0,1.398926 0.515625,0.0293 0,0.180175 -1.286133,0 0,-0.180175 0.503906,-0.0293 0,-1.187988"
       style="fill:#ffffff;fill-opacity:1"
       id="path3963" />
    <path
       d="m 15.168457,33.302747 0,-1.035644 c -10e-7,-0.253905 -0.116212,-0.380858 -0.348633,-0.380859 -0.299805,10e-7 -0.449707,0.194337 -0.449707,0.583007 l 0,0.833496 -0.266601,0 0,-1.608398 0.215332,0 0.03955,0.216797 0.01465,0 c 0.100585,-0.164061 0.264648,-0.246092 0.492187,-0.246094 0.379882,2e-6 0.569823,0.195802 0.569825,0.587403 l 0,1.050292 -0.266602,0"
       style="fill:#ffffff;fill-opacity:1"
       id="path3965" />
    <path
       d="m 17.162109,33.083021 0,0.202148 c -0.126954,0.03125 -0.250001,0.04687 -0.36914,0.04687 -0.353517,0 -0.530274,-0.167968 -0.530274,-0.503906 l 0,-0.933105 -0.391113,0 0,-0.137696 0.391113,-0.07178 0.112793,-0.42041 0.153809,0 0,0.429199 0.641601,0 0,0.200684 -0.641601,0 0,0.933105 c -1e-6,0.19043 0.09375,0.285645 0.28125,0.285645 0.09082,0 0.208006,-0.01025 0.351562,-0.03076"
       style="fill:#ffffff;fill-opacity:1"
       id="path3967" />
    <path
       d="m 18.996094,31.895033 -0.569824,0 0,1.407714 -0.266602,0 0,-1.407714 -0.464356,0 0,-0.161133 0.464356,-0.04834 0,-0.140625 c -1e-6,-0.188475 0.04395,-0.325193 0.131836,-0.410156 0.08789,-0.08496 0.233886,-0.127439 0.437988,-0.127442 0.125975,3e-6 0.249022,0.01709 0.369141,0.05127 l -0.06006,0.209473 c -0.101564,-0.02734 -0.202638,-0.04101 -0.303222,-0.04102 -0.120119,2e-6 -0.201662,0.02442 -0.244629,0.07324 -0.04297,0.04883 -0.06445,0.129396 -0.06445,0.241699 l 0,0.152344 0.569824,0 0,0.200684"
       style="fill:#ffffff;fill-opacity:1"
       id="path3969" />
    <path
       d="m 20.348145,31.161146 0.282714,0 c -0.438477,0.367189 -0.657715,0.803224 -0.657714,1.308105 -10e-7,0.50879 0.21826,0.944824 0.654785,1.308106 l -0.279785,0 c -0.433595,-0.344727 -0.650392,-0.779785 -0.650391,-1.305176 -1e-6,-0.51953 0.216796,-0.956541 0.650391,-1.311035"
       style="fill:#ffffff;fill-opacity:1"
       id="path3971" />
    <path
       d="m 21.829102,31.161146 -0.06006,0.773437 -0.227051,0 -0.06006,-0.773437 0.347168,0 m 0.618164,0 -0.06006,0.773437 -0.227051,0 -0.06006,-0.773437 0.347168,0"
       style="fill:#ffffff;fill-opacity:1"
       id="path3973" />
    <path
       d="m 24.414551,33.302747 -1.233399,0 0,-2.141601 1.233399,0 0,0.240234 -0.960938,0 0,0.66211 0.903809,0 0,0.237304 -0.903809,0 0,0.761719 0.960938,0 0,0.240234"
       style="fill:#ffffff;fill-opacity:1"
       id="path3975" />
    <path
       d="m 25.961426,33.302747 0,-1.035644 c -2e-6,-0.253905 -0.116212,-0.380858 -0.348633,-0.380859 -0.299805,10e-7 -0.449708,0.194337 -0.449707,0.583007 l 0,0.833496 -0.266602,0 0,-1.608398 0.215332,0 0.03955,0.216797 0.01465,0 c 0.100585,-0.164061 0.264647,-0.246092 0.492187,-0.246094 0.379882,2e-6 0.569823,0.195802 0.569824,0.587403 l 0,1.050292 -0.266601,0"
       style="fill:#ffffff;fill-opacity:1"
       id="path3977" />
    <path
       d="m 27.955078,33.083021 0,0.202148 c -0.126954,0.03125 -0.250001,0.04687 -0.369141,0.04687 -0.353516,0 -0.530274,-0.167968 -0.530273,-0.503906 l 0,-0.933105 -0.391113,0 0,-0.137696 0.391113,-0.07178 0.112793,-0.42041 0.153809,0 0,0.429199 0.641601,0 0,0.200684 -0.641601,0 0,0.933105 c -10e-7,0.19043 0.09375,0.285645 0.28125,0.285645 0.09082,0 0.208006,-0.01025 0.351562,-0.03076"
       style="fill:#ffffff;fill-opacity:1"
       id="path3979" />
    <path
       d="m 29.865234,32.549818 -1.133789,0 c 0.0078,0.366211 0.175781,0.549316 0.503907,0.549316 0.190428,0 0.371092,-0.03711 0.541992,-0.111328 l 0,0.234375 c -0.162111,0.07324 -0.339845,0.109863 -0.533203,0.109863 -0.239259,0 -0.430665,-0.07275 -0.574219,-0.218261 -0.143555,-0.146484 -0.215332,-0.347656 -0.215332,-0.603516 0,-0.259765 0.06592,-0.465331 0.197754,-0.616699 0.132812,-0.152342 0.310058,-0.228514 0.531738,-0.228516 0.20703,2e-6 0.372069,0.06543 0.495117,0.196289 0.124022,0.130861 0.186034,0.305177 0.186035,0.522949 l 0,0.165528 m -1.127929,-0.216797 0.839355,0 c -1e-6,-0.29785 -0.132814,-0.446776 -0.398437,-0.446777 -0.268556,10e-7 -0.415528,0.148927 -0.440918,0.446777"
       style="fill:#ffffff;fill-opacity:1"
       id="path3981" />
    <path
       d="m 31.609863,31.73097 -0.07178,0.243164 c -0.120119,-0.04394 -0.229494,-0.06592 -0.328125,-0.06592 -0.159181,2e-6 -0.282227,0.04541 -0.369141,0.136231 -0.08594,0.08985 -0.128907,0.220216 -0.128906,0.391113 l 0,0.867187 -0.266602,0 0,-1.608398 0.216797,0 0.03223,0.294434 0.01172,0 c 0.07422,-0.11621 0.153807,-0.199218 0.238769,-0.249024 0.08496,-0.0498 0.189452,-0.0747 0.313477,-0.07471 0.115233,2e-6 0.23242,0.02197 0.351562,0.06592"
       style="fill:#ffffff;fill-opacity:1"
       id="path3983" />
    <path
       d="m 34.967285,33.302747 -0.0542,-0.222656 -0.01172,0 c -0.0752,0.09473 -0.152345,0.160645 -0.231445,0.197754 -0.0791,0.03613 -0.181153,0.0542 -0.306152,0.0542 -0.159181,0 -0.284181,-0.04199 -0.375,-0.125976 -0.08984,-0.08398 -0.134766,-0.20166 -0.134766,-0.353028 0,-0.324218 0.249023,-0.494139 0.74707,-0.509765 l 0.297363,-0.01025 0,-0.101074 c -1e-6,-0.230468 -0.119141,-0.345702 -0.357421,-0.345703 -0.143556,10e-7 -0.303712,0.04004 -0.480469,0.120117 l -0.09228,-0.200684 c 0.191405,-0.09375 0.378417,-0.140623 0.561035,-0.140625 0.221678,2e-6 0.381835,0.04248 0.480469,0.127442 0.09961,0.08496 0.149412,0.221192 0.149414,0.408691 l 0,1.101562 -0.191895,0 m -0.07178,-0.786621 -0.237305,0.01025 c -0.191407,0.0078 -0.327149,0.03809 -0.407226,0.09082 -0.08008,0.05176 -0.120118,0.131348 -0.120118,0.238769 0,0.173829 0.09766,0.260743 0.292969,0.260742 0.143554,10e-7 0.257812,-0.03955 0.342774,-0.118652 0.08594,-0.08008 0.128905,-0.192382 0.128906,-0.336914 l 0,-0.14502"
       style="fill:#ffffff;fill-opacity:1"
       id="path3985" />
    <path
       d="m 36.754395,33.302747 0,-1.035644 c -2e-6,-0.253905 -0.116213,-0.380858 -0.348633,-0.380859 -0.299806,10e-7 -0.449708,0.194337 -0.449707,0.583007 l 0,0.833496 -0.266602,0 0,-1.608398 0.215332,0 0.03955,0.216797 0.01465,0 c 0.100586,-0.164061 0.264648,-0.246092 0.492188,-0.246094 0.379881,2e-6 0.569823,0.195802 0.569824,0.587403 l 0,1.050292 -0.266601,0"
       style="fill:#ffffff;fill-opacity:1"
       id="path3987" />
    <path
       d="m 39.97998,31.03224 c 0.103515,2e-6 0.155273,0.05567 0.155274,0.166992 -1e-6,0.05664 -0.01563,0.09912 -0.04687,0.127441 -0.03028,0.02735 -0.06641,0.04102 -0.108399,0.04102 -0.104493,2e-6 -0.156739,-0.05615 -0.156738,-0.168457 -10e-7,-0.111326 0.05224,-0.16699 0.156738,-0.166992 m -0.134765,0.873047 -0.394043,-0.03076 0,-0.180176 0.660644,0 0,1.398926 0.515625,0.0293 0,0.180175 -1.286132,0 0,-0.180175 0.503906,-0.0293 0,-1.187988"
       style="fill:#ffffff;fill-opacity:1"
       id="path3989" />
    <path
       d="m 42.150879,33.302747 0,-1.035644 c -1e-6,-0.253905 -0.116212,-0.380858 -0.348633,-0.380859 -0.299805,10e-7 -0.449707,0.194337 -0.449707,0.583007 l 0,0.833496 -0.266602,0 0,-1.608398 0.215333,0 0.03955,0.216797 0.01465,0 c 0.100585,-0.164061 0.264647,-0.246092 0.492187,-0.246094 0.379882,2e-6 0.569823,0.195802 0.569824,0.587403 l 0,1.050292 -0.266601,0"
       style="fill:#ffffff;fill-opacity:1"
       id="path3991" />
    <path
       d="m 44.144531,33.083021 0,0.202148 c -0.126954,0.03125 -0.250001,0.04687 -0.36914,0.04687 -0.353517,0 -0.530274,-0.167968 -0.530274,-0.503906 l 0,-0.933105 -0.391113,0 0,-0.137696 0.391113,-0.07178 0.112793,-0.42041 0.153809,0 0,0.429199 0.641601,0 0,0.200684 -0.641601,0 0,0.933105 c -10e-7,0.19043 0.09375,0.285645 0.28125,0.285645 0.09082,0 0.208006,-0.01025 0.351562,-0.03076"
       style="fill:#ffffff;fill-opacity:1"
       id="path3993" />
    <path
       d="m 46.054687,32.549818 -1.133789,0 c 0.0078,0.366211 0.175781,0.549316 0.503907,0.549316 0.190428,0 0.371092,-0.03711 0.541992,-0.111328 l 0,0.234375 c -0.162111,0.07324 -0.339845,0.109863 -0.533203,0.109863 -0.239259,0 -0.430665,-0.07275 -0.574219,-0.218261 -0.143555,-0.146484 -0.215332,-0.347656 -0.215332,-0.603516 0,-0.259765 0.06592,-0.465331 0.197754,-0.616699 0.132812,-0.152342 0.310058,-0.228514 0.531738,-0.228516 0.20703,2e-6 0.372069,0.06543 0.495117,0.196289 0.124022,0.130861 0.186034,0.305177 0.186035,0.522949 l 0,0.165528 m -1.127929,-0.216797 0.839355,0 c -10e-7,-0.29785 -0.132813,-0.446776 -0.398437,-0.446777 -0.268556,10e-7 -0.415528,0.148927 -0.440918,0.446777"
       style="fill:#ffffff;fill-opacity:1"
       id="path3995" />
    <path
       d="m 47.897461,31.694349 0,0.165527 -0.287109,0.03955 c 0.06348,0.08301 0.09521,0.187013 0.09521,0.312012 -10e-7,0.157227 -0.05225,0.282716 -0.156738,0.376465 -0.103517,0.09277 -0.248048,0.13916 -0.433594,0.13916 -0.05371,0 -0.0957,-0.0029 -0.125976,-0.0088 -0.09766,0.05469 -0.146485,0.119629 -0.146485,0.194824 0,0.08203 0.07861,0.123047 0.23584,0.123047 l 0.273926,0 c 0.169921,0 0.299803,0.0376 0.389648,0.112793 0.08984,0.0752 0.134764,0.182617 0.134766,0.322266 -2e-6,0.368163 -0.27588,0.552245 -0.827637,0.552246 -0.212891,-1e-6 -0.375,-0.03955 -0.486328,-0.118653 -0.110351,-0.07813 -0.165527,-0.187988 -0.165527,-0.32959 0,-0.207031 0.117187,-0.338867 0.351562,-0.395507 -0.09375,-0.0459 -0.140625,-0.121094 -0.140625,-0.225586 0,-0.109375 0.06494,-0.203125 0.194825,-0.28125 -0.08692,-0.03613 -0.155274,-0.0957 -0.205078,-0.178711 -0.0498,-0.08398 -0.07471,-0.175292 -0.07471,-0.273926 0,-0.177733 0.05176,-0.314452 0.155274,-0.410156 0.104492,-0.09668 0.252929,-0.145018 0.445312,-0.14502 0.08398,2e-6 0.157226,0.0098 0.219727,0.0293 l 0.553711,0 m -0.779297,0.849609 c 0.217772,10e-7 0.326659,-0.112303 0.32666,-0.336914 -10e-7,-0.233397 -0.109864,-0.350096 -0.32959,-0.350097 -0.219727,10e-7 -0.32959,0.118165 -0.329589,0.354492 -1e-6,0.22168 0.110839,0.33252 0.332519,0.332519 m 0.143555,0.732422 -0.275391,0 c -0.22461,0 -0.336914,0.09668 -0.336914,0.290039 0,0.169922 0.132324,0.254883 0.396973,0.254883 0.385741,0 0.578612,-0.108887 0.578613,-0.32666 -10e-7,-0.08594 -0.02441,-0.144043 -0.07324,-0.174316 -0.04883,-0.0293 -0.145509,-0.04395 -0.290039,-0.04395"
       style="fill:#ffffff;fill-opacity:1"
       id="path3997" />
    <path
       d="m 49.652344,32.549818 -1.133789,0 c 0.0078,0.366211 0.17578,0.549316 0.503906,0.549316 0.190428,0 0.371092,-0.03711 0.541992,-0.111328 l 0,0.234375 c -0.162111,0.07324 -0.339845,0.109863 -0.533203,0.109863 -0.239259,0 -0.430665,-0.07275 -0.574219,-0.218261 -0.143555,-0.146484 -0.215332,-0.347656 -0.215332,-0.603516 0,-0.259765 0.06592,-0.465331 0.197754,-0.616699 0.132812,-0.152342 0.310058,-0.228514 0.531738,-0.228516 0.207031,2e-6 0.372069,0.06543 0.495118,0.196289 0.124021,0.130861 0.186033,0.305177 0.186035,0.522949 l 0,0.165528 m -1.12793,-0.216797 0.839356,0 c -2e-6,-0.29785 -0.132814,-0.446776 -0.398438,-0.446777 -0.268555,10e-7 -0.415528,0.148927 -0.440918,0.446777"
       style="fill:#ffffff;fill-opacity:1"
       id="path3999" />
    <path
       d="m 51.396973,31.73097 -0.07178,0.243164 c -0.120118,-0.04394 -0.229493,-0.06592 -0.328125,-0.06592 -0.15918,2e-6 -0.282227,0.04541 -0.36914,0.136231 -0.08594,0.08985 -0.128907,0.220216 -0.128907,0.391113 l 0,0.867187 -0.266601,0 0,-1.608398 0.216797,0 0.03223,0.294434 0.01172,0 c 0.07422,-0.11621 0.153808,-0.199218 0.23877,-0.249024 0.08496,-0.0498 0.189452,-0.0747 0.313476,-0.07471 0.115233,2e-6 0.232421,0.02197 0.351563,0.06592"
       style="fill:#ffffff;fill-opacity:1"
       id="path4001" />
    <path
       d="m 5.8022461,34.78224 c 0.1035146,2e-6 0.1552723,0.05567 0.1552734,0.166992 -1.1e-6,0.05664 -0.015626,0.09912 -0.046875,0.127441 -0.030274,0.02735 -0.066407,0.04102 -0.1083984,0.04102 -0.104493,2e-6 -0.1567391,-0.05615 -0.1567383,-0.168457 -8e-7,-0.111326 0.052245,-0.16699 0.1567383,-0.166992 m -0.1347656,0.873047 -0.394043,-0.03076 0,-0.180176 0.6606445,0 0,1.398926 0.515625,0.0293 0,0.180175 -1.2861328,0 0,-0.180175 0.5039063,-0.0293 0,-1.187988"
       style="fill:#ffffff;fill-opacity:1"
       id="path4003" />
    <path
       d="m 7.9731445,37.052747 0,-1.035644 c -1.3e-6,-0.253905 -0.1162121,-0.380858 -0.3486328,-0.380859 -0.2998053,1e-6 -0.4497075,0.194337 -0.449707,0.583007 l 0,0.833496 -0.2666016,0 0,-1.608398 0.2153321,0 0.039551,0.216797 0.014649,0 c 0.1005853,-0.164061 0.2646476,-0.246092 0.4921875,-0.246094 0.3798814,2e-6 0.5698226,0.195802 0.5698242,0.587403 l 0,1.050292 -0.2666016,0"
       style="fill:#ffffff;fill-opacity:1"
       id="path4005" />
    <path
       d="m 11.585449,36.837415 -0.01172,0 c -0.110352,0.163086 -0.267579,0.244629 -0.471679,0.244629 -0.19629,0 -0.350587,-0.07275 -0.462891,-0.218261 -0.111328,-0.146484 -0.166992,-0.350586 -0.166992,-0.612305 0,-0.263671 0.05615,-0.468749 0.168457,-0.615234 0.112304,-0.14746 0.266113,-0.22119 0.461426,-0.221192 0.201171,2e-6 0.358397,0.07813 0.471679,0.234375 l 0.01758,0 c -0.01172,-0.125975 -0.01758,-0.205076 -0.01758,-0.237305 l 0,-0.638671 0.266602,0 0,2.279296 -0.215332,0 -0.03955,-0.215332 m -0.01172,-0.525878 0,-0.06006 c -10e-7,-0.221679 -0.03418,-0.379393 -0.102539,-0.473145 -0.06738,-0.09473 -0.175294,-0.142088 -0.32373,-0.142089 -0.265626,1e-6 -0.398438,0.206055 -0.398438,0.618164 0,0.404297 0.133789,0.606445 0.401368,0.606445 0.148436,0 0.254881,-0.04297 0.319336,-0.128906 0.06543,-0.08691 0.100096,-0.227051 0.104003,-0.42041"
       style="fill:#ffffff;fill-opacity:1"
       id="path4007" />
    <path
       d="m 13.675781,36.299818 -1.133789,0 c 0.0078,0.366211 0.175781,0.549316 0.503906,0.549316 0.190429,0 0.371093,-0.03711 0.541993,-0.111328 l 0,0.234375 c -0.162111,0.07324 -0.339845,0.109863 -0.533203,0.109863 -0.239259,0 -0.430665,-0.07275 -0.574219,-0.218261 -0.143555,-0.146484 -0.215332,-0.347656 -0.215332,-0.603516 0,-0.259765 0.06592,-0.465331 0.197754,-0.616699 0.132812,-0.152342 0.310058,-0.228514 0.531738,-0.228516 0.20703,2e-6 0.372069,0.06543 0.495117,0.196289 0.124022,0.130861 0.186034,0.305177 0.186035,0.522949 l 0,0.165528 m -1.127929,-0.216797 0.839355,0 c -10e-7,-0.29785 -0.132814,-0.446776 -0.398437,-0.446777 -0.268556,1e-6 -0.415528,0.148927 -0.440918,0.446777"
       style="fill:#ffffff;fill-opacity:1"
       id="path4009" />
    <path
       d="m 15.42334,35.501478 -0.09082,0.231445 c -0.146486,-0.05566 -0.277345,-0.08349 -0.392579,-0.0835 -0.362305,2e-6 -0.543457,0.201662 -0.543457,0.604981 0,0.396484 0.176269,0.594726 0.528809,0.594726 0.153319,0 0.310057,-0.03027 0.470215,-0.09082 l 0,0.234375 c -0.130861,0.05957 -0.291505,0.08936 -0.481934,0.08936 -0.250977,0 -0.445801,-0.0708 -0.584472,-0.212402 -0.138673,-0.142578 -0.208009,-0.346679 -0.208008,-0.612305 -10e-7,-0.274413 0.0708,-0.483397 0.212402,-0.626953 0.141601,-0.143553 0.34082,-0.21533 0.597656,-0.215332 0.173827,2e-6 0.33789,0.02881 0.492188,0.08643"
       style="fill:#ffffff;fill-opacity:1"
       id="path4011" />
    <path
       d="m 16.595215,34.78224 c 0.103514,2e-6 0.155272,0.05567 0.155273,0.166992 -1e-6,0.05664 -0.01563,0.09912 -0.04687,0.127441 -0.03027,0.02735 -0.06641,0.04102 -0.108398,0.04102 -0.104493,2e-6 -0.156739,-0.05615 -0.156738,-0.168457 -10e-7,-0.111326 0.05225,-0.16699 0.156738,-0.166992 m -0.134766,0.873047 -0.394043,-0.03076 0,-0.180176 0.660645,0 0,1.398926 0.515625,0.0293 0,0.180175 -1.286133,0 0,-0.180175 0.503906,-0.0293 0,-1.187988"
       style="fill:#ffffff;fill-opacity:1"
       id="path4013" />
    <path
       d="m 18.897949,37.052747 0,-1.035644 c -1e-6,-0.142577 -0.01319,-0.241698 -0.03955,-0.297363 -0.02539,-0.05566 -0.06836,-0.08349 -0.128906,-0.0835 -0.08496,1e-6 -0.146974,0.04053 -0.186035,0.121582 -0.03809,0.08106 -0.05713,0.216798 -0.05713,0.407226 l 0,0.887695 -0.23584,0 0,-1.035644 c -1e-6,-0.253905 -0.06104,-0.380858 -0.183105,-0.380859 -0.08203,1e-6 -0.140626,0.03906 -0.175781,0.117187 -0.03516,0.07715 -0.05273,0.232423 -0.05273,0.46582 l 0,0.833496 -0.237305,0 0,-1.608398 0.186036,0 0.03955,0.216797 0.01465,0 c 0.06543,-0.164061 0.163574,-0.246092 0.294433,-0.246094 0.159179,2e-6 0.263183,0.08887 0.312012,0.266602 l 0.0088,0 c 0.07422,-0.177733 0.181151,-0.2666 0.320801,-0.266602 0.124999,2e-6 0.215819,0.04541 0.272461,0.136231 0.05664,0.08985 0.08496,0.240235 0.08496,0.451172 l 0,1.050292 -0.237305,0"
       style="fill:#ffffff;fill-opacity:1"
       id="path4015" />
    <path
       d="m 20.57666,37.052747 -0.0542,-0.222656 -0.01172,0 c -0.0752,0.09473 -0.152345,0.160645 -0.231445,0.197754 -0.0791,0.03613 -0.181153,0.0542 -0.306152,0.0542 -0.159181,0 -0.284181,-0.04199 -0.375,-0.125976 -0.08984,-0.08398 -0.134766,-0.20166 -0.134766,-0.353028 0,-0.324218 0.249023,-0.494139 0.74707,-0.509765 l 0.297363,-0.01025 0,-0.101074 c -1e-6,-0.230468 -0.119141,-0.345702 -0.357421,-0.345703 -0.143556,1e-6 -0.303712,0.04004 -0.480469,0.120117 l -0.09229,-0.200684 c 0.191405,-0.09375 0.378417,-0.140623 0.561035,-0.140625 0.221678,2e-6 0.381835,0.04248 0.480469,0.127442 0.09961,0.08496 0.149412,0.221192 0.149414,0.408691 l 0,1.101562 -0.191895,0 m -0.07178,-0.786621 -0.237305,0.01025 c -0.191407,0.0078 -0.327149,0.03809 -0.407226,0.09082 -0.08008,0.05176 -0.120118,0.131348 -0.120118,0.238769 0,0.173829 0.09766,0.260743 0.292969,0.260742 0.143554,10e-7 0.257812,-0.03955 0.342774,-0.118652 0.08594,-0.08008 0.128905,-0.192382 0.128906,-0.336914 l 0,-0.14502"
       style="fill:#ffffff;fill-opacity:1"
       id="path4017" />
    <path
       d="m 21.84375,34.982923 -0.392578,-0.03076 0,-0.178711 0.660644,0 0,2.069824 0.515625,0.0293 0,0.180175 -1.287597,0 0,-0.180175 0.503906,-0.0293 0,-1.860352"
       style="fill:#ffffff;fill-opacity:1"
       id="path4019" />
    <path
       d="m 25.961426,37.052747 0,-1.035644 c -2e-6,-0.253905 -0.116212,-0.380858 -0.348633,-0.380859 -0.299805,1e-6 -0.449708,0.194337 -0.449707,0.583007 l 0,0.833496 -0.266602,0 0,-1.608398 0.215332,0 0.03955,0.216797 0.01465,0 c 0.100585,-0.164061 0.264647,-0.246092 0.492187,-0.246094 0.379882,2e-6 0.569823,0.195802 0.569824,0.587403 l 0,1.050292 -0.266601,0"
       style="fill:#ffffff;fill-opacity:1"
       id="path4021" />
    <path
       d="m 27.811523,37.052747 -0.03955,-0.215332 -0.01465,0 c -0.10254,0.163086 -0.265626,0.244629 -0.489258,0.244629 -0.381836,0 -0.572754,-0.1958 -0.572754,-0.587402 l 0,-1.050293 0.266602,0 0,1.035645 c 0,0.253906 0.115234,0.380859 0.345703,0.380859 0.157226,0 0.271972,-0.04492 0.344238,-0.134766 0.07226,-0.09082 0.108398,-0.239745 0.108399,-0.446777 l 0,-0.834961 0.266601,0 0,1.608398 -0.215332,0"
       style="fill:#ffffff;fill-opacity:1"
       id="path4023" />
    <path
       d="m 29.690918,37.052747 0,-1.035644 c -1e-6,-0.142577 -0.01319,-0.241698 -0.03955,-0.297363 -0.02539,-0.05566 -0.06836,-0.08349 -0.128906,-0.0835 -0.08496,1e-6 -0.146974,0.04053 -0.186035,0.121582 -0.03809,0.08106 -0.05713,0.216798 -0.05713,0.407226 l 0,0.887695 -0.23584,0 0,-1.035644 c -1e-6,-0.253905 -0.06104,-0.380858 -0.183105,-0.380859 -0.08203,1e-6 -0.140626,0.03906 -0.175782,0.117187 -0.03516,0.07715 -0.05273,0.232423 -0.05273,0.46582 l 0,0.833496 -0.237305,0 0,-1.608398 0.186035,0 0.03955,0.216797 0.01465,0 c 0.06543,-0.164061 0.163573,-0.246092 0.294433,-0.246094 0.159179,2e-6 0.263183,0.08887 0.312012,0.266602 l 0.0088,0 c 0.07422,-0.177733 0.181151,-0.2666 0.320801,-0.266602 0.124998,2e-6 0.215819,0.04541 0.272461,0.136231 0.05664,0.08985 0.08496,0.240235 0.08496,0.451172 l 0,1.050292 -0.237305,0"
       style="fill:#ffffff;fill-opacity:1"
       id="path4025" />
    <path
       d="m 30.556641,36.849134 -0.01758,0 -0.0542,0.203613 -0.194824,0 0,-2.279296 0.266602,0 0,0.550781 c -10e-7,0.0791 -0.0039,0.189455 -0.01172,0.331055 l 0.01172,0 c 0.104491,-0.160155 0.261718,-0.240233 0.471679,-0.240235 0.196288,2e-6 0.350097,0.07324 0.461426,0.219727 0.112303,0.145509 0.168456,0.349122 0.168457,0.61084 -1e-6,0.263672 -0.05615,0.469238 -0.168457,0.616699 -0.112306,0.146484 -0.266114,0.219726 -0.461426,0.219726 -0.202149,0 -0.359375,-0.07764 -0.471679,-0.23291 m 0,-0.603515 c -10e-7,0.22168 0.03369,0.379883 0.101074,0.474609 0.06836,0.09375 0.176757,0.140625 0.325195,0.140625 0.265624,0 0.398436,-0.206054 0.398438,-0.618164 -2e-6,-0.404296 -0.133791,-0.606444 -0.401368,-0.606445 -0.151367,1e-6 -0.259766,0.0459 -0.325195,0.137695 -0.06543,0.0918 -0.09814,0.249024 -0.09814,0.47168"
       style="fill:#ffffff;fill-opacity:1"
       id="path4027" />
    <path
       d="m 33.462891,36.299818 -1.133789,0 c 0.0078,0.366211 0.17578,0.549316 0.503906,0.549316 0.190428,0 0.371092,-0.03711 0.541992,-0.111328 l 0,0.234375 c -0.162111,0.07324 -0.339845,0.109863 -0.533203,0.109863 -0.239259,0 -0.430665,-0.07275 -0.574219,-0.218261 -0.143555,-0.146484 -0.215332,-0.347656 -0.215332,-0.603516 0,-0.259765 0.06592,-0.465331 0.197754,-0.616699 0.132812,-0.152342 0.310058,-0.228514 0.531738,-0.228516 0.20703,2e-6 0.372069,0.06543 0.495117,0.196289 0.124022,0.130861 0.186034,0.305177 0.186036,0.522949 l 0,0.165528 m -1.12793,-0.216797 0.839355,0 c -10e-7,-0.29785 -0.132813,-0.446776 -0.398437,-0.446777 -0.268555,1e-6 -0.415528,0.148927 -0.440918,0.446777"
       style="fill:#ffffff;fill-opacity:1"
       id="path4029" />
    <path
       d="m 35.20752,35.48097 -0.07178,0.243164 c -0.120118,-0.04394 -0.229493,-0.06592 -0.328125,-0.06592 -0.15918,2e-6 -0.282227,0.04541 -0.36914,0.136231 -0.08594,0.08985 -0.128907,0.220216 -0.128907,0.391113 l 0,0.867187 -0.266601,0 0,-1.608398 0.216797,0 0.03223,0.294434 0.01172,0 c 0.07422,-0.11621 0.153808,-0.199218 0.238769,-0.249024 0.08496,-0.0498 0.189453,-0.07471 0.313477,-0.07471 0.115233,2e-6 0.23242,0.02197 0.351563,0.06592"
       style="fill:#ffffff;fill-opacity:1"
       id="path4031" />
    <path
       d="m 37.55127,36.98097 0,-0.243164 c 0.188476,0.08398 0.369139,0.125977 0.541992,0.125977 0.268553,0 0.402831,-0.0791 0.402832,-0.237305 -10e-7,-0.05566 -0.02393,-0.104003 -0.07178,-0.14502 -0.04785,-0.04102 -0.158204,-0.09277 -0.331054,-0.155273 -0.22754,-0.08496 -0.371094,-0.162597 -0.430664,-0.23291 -0.05859,-0.07129 -0.08789,-0.155272 -0.08789,-0.251953 0,-0.132811 0.0542,-0.236815 0.162598,-0.312012 0.109374,-0.07617 0.260253,-0.114256 0.452636,-0.114258 0.193359,2e-6 0.373534,0.03613 0.540528,0.108399 l -0.08789,0.218261 c -0.177735,-0.07031 -0.333497,-0.105467 -0.467285,-0.105468 -0.230469,1e-6 -0.345704,0.06494 -0.345703,0.194824 -1e-6,0.05957 0.02441,0.107423 0.07324,0.143554 0.0498,0.03516 0.163573,0.08447 0.341309,0.14795 0.206053,0.0752 0.342772,0.149415 0.410156,0.222656 0.06836,0.07227 0.102537,0.161133 0.102539,0.266602 -2e-6,0.146484 -0.05713,0.261718 -0.171387,0.345703 -0.114259,0.08301 -0.27588,0.124511 -0.484863,0.124511 -0.242188,0 -0.425293,-0.03369 -0.549316,-0.101074"
       style="fill:#ffffff;fill-opacity:1"
       id="path4033" />
    <path
       d="m 39.172852,35.444349 0.27539,0 0.383789,0.958008 c 0.08008,0.200196 0.123535,0.341797 0.130371,0.424805 l 0.0088,0 c 0.02246,-0.109375 0.06641,-0.251953 0.131836,-0.427735 l 0.350098,-0.955078 0.276855,0 -0.6958,1.817871 c -0.06543,0.169922 -0.141603,0.297363 -0.228516,0.382324 -0.08691,0.08594 -0.207032,0.128906 -0.360352,0.128907 -0.08398,-1e-6 -0.166015,-0.0083 -0.246093,-0.0249 l 0,-0.212402 c 0.06055,0.01172 0.126953,0.01758 0.199218,0.01758 0.09375,0 0.166504,-0.02002 0.218262,-0.06006 0.05273,-0.04004 0.09961,-0.108887 0.140625,-0.206543 l 0.08496,-0.219726 -0.669433,-1.623047"
       style="fill:#ffffff;fill-opacity:1"
       id="path4035" />
    <path
       d="m 41.148926,36.98097 0,-0.243164 c 0.188476,0.08398 0.36914,0.125977 0.541992,0.125977 0.268554,0 0.402831,-0.0791 0.402832,-0.237305 -10e-7,-0.05566 -0.02393,-0.104003 -0.07178,-0.14502 -0.04785,-0.04102 -0.158204,-0.09277 -0.331055,-0.155273 -0.22754,-0.08496 -0.371094,-0.162597 -0.430664,-0.23291 -0.05859,-0.07129 -0.08789,-0.155272 -0.08789,-0.251953 0,-0.132811 0.0542,-0.236815 0.162598,-0.312012 0.109374,-0.07617 0.260253,-0.114256 0.452637,-0.114258 0.193358,2e-6 0.373534,0.03613 0.540527,0.108399 l -0.08789,0.218261 c -0.177735,-0.07031 -0.333497,-0.105467 -0.467285,-0.105468 -0.230469,1e-6 -0.345703,0.06494 -0.345703,0.194824 0,0.05957 0.02441,0.107423 0.07324,0.143554 0.0498,0.03516 0.163574,0.08447 0.341309,0.14795 0.206053,0.0752 0.342772,0.149415 0.410156,0.222656 0.06836,0.07227 0.102538,0.161133 0.102539,0.266602 -10e-7,0.146484 -0.05713,0.261718 -0.171387,0.345703 -0.114259,0.08301 -0.275879,0.124511 -0.484863,0.124511 -0.242188,0 -0.425293,-0.03369 -0.549316,-0.101074"
       style="fill:#ffffff;fill-opacity:1"
       id="path4037" />
    <path
       d="m 44.144531,36.833021 0,0.202148 c -0.126954,0.03125 -0.250001,0.04687 -0.36914,0.04687 -0.353517,0 -0.530274,-0.167968 -0.530274,-0.503906 l 0,-0.933105 -0.391113,0 0,-0.137696 0.391113,-0.07178 0.112793,-0.42041 0.153809,0 0,0.429199 0.641601,0 0,0.200684 -0.641601,0 0,0.933105 c -10e-7,0.19043 0.09375,0.285645 0.28125,0.285645 0.09082,0 0.208006,-0.01025 0.351562,-0.03076"
       style="fill:#ffffff;fill-opacity:1"
       id="path4039" />
    <path
       d="m 46.054687,36.299818 -1.133789,0 c 0.0078,0.366211 0.175781,0.549316 0.503907,0.549316 0.190428,0 0.371092,-0.03711 0.541992,-0.111328 l 0,0.234375 c -0.162111,0.07324 -0.339845,0.109863 -0.533203,0.109863 -0.239259,0 -0.430665,-0.07275 -0.574219,-0.218261 -0.143555,-0.146484 -0.215332,-0.347656 -0.215332,-0.603516 0,-0.259765 0.06592,-0.465331 0.197754,-0.616699 0.132812,-0.152342 0.310058,-0.228514 0.531738,-0.228516 0.20703,2e-6 0.372069,0.06543 0.495117,0.196289 0.124022,0.130861 0.186034,0.305177 0.186035,0.522949 l 0,0.165528 m -1.127929,-0.216797 0.839355,0 c -10e-7,-0.29785 -0.132813,-0.446776 -0.398437,-0.446777 -0.268556,1e-6 -0.415528,0.148927 -0.440918,0.446777"
       style="fill:#ffffff;fill-opacity:1"
       id="path4041" />
    <path
       d="m 47.679199,37.052747 0,-1.035644 c -10e-7,-0.142577 -0.01319,-0.241698 -0.03955,-0.297363 -0.02539,-0.05566 -0.06836,-0.08349 -0.128906,-0.0835 -0.08496,1e-6 -0.146974,0.04053 -0.186035,0.121582 -0.03809,0.08106 -0.05713,0.216798 -0.05713,0.407226 l 0,0.887695 -0.23584,0 0,-1.035644 c -10e-7,-0.253905 -0.06104,-0.380858 -0.183105,-0.380859 -0.08203,1e-6 -0.140626,0.03906 -0.175781,0.117187 -0.03516,0.07715 -0.05273,0.232423 -0.05273,0.46582 l 0,0.833496 -0.237305,0 0,-1.608398 0.186036,0 0.03955,0.216797 0.01465,0 c 0.06543,-0.164061 0.163574,-0.246092 0.294433,-0.246094 0.159179,2e-6 0.263183,0.08887 0.312012,0.266602 l 0.0088,0 c 0.07422,-0.177733 0.181151,-0.2666 0.320801,-0.266602 0.124999,2e-6 0.215819,0.04541 0.272461,0.136231 0.05664,0.08985 0.08496,0.240235 0.08496,0.451172 l 0,1.050292 -0.237305,0"
       style="fill:#ffffff;fill-opacity:1"
       id="path4043" />
    <path
       d="m 5.4448242,38.661146 0.918457,2.141601 -0.2607421,0 -0.9184571,-2.141601 0.2607422,0"
       style="fill:#ffffff;fill-opacity:1"
       id="path4045" />
    <path
       d="m 7.9731445,40.802747 0,-1.035644 c -1.3e-6,-0.253905 -0.1162121,-0.380858 -0.3486328,-0.380859 -0.2998053,1e-6 -0.4497075,0.194337 -0.449707,0.583007 l 0,0.833496 -0.2666016,0 0,-1.608398 0.2153321,0 0.039551,0.216797 0.014649,0 c 0.1005853,-0.164061 0.2646476,-0.246092 0.4921875,-0.246094 0.3798814,2e-6 0.5698226,0.195802 0.5698242,0.587403 l 0,1.050292 -0.2666016,0"
       style="fill:#ffffff;fill-opacity:1"
       id="path4047" />
    <path
       d="m 9.2373047,38.661146 -0.060059,0.773437 -0.2270508,0 -0.060059,-0.773437 0.347168,0 m 0.6181641,0 -0.060059,0.773437 -0.2270508,0 -0.060059,-0.773437 0.347168,0"
       style="fill:#ffffff;fill-opacity:1"
       id="path4049" />
    <path
       d="m 10.987793,41.277357 -0.27832,0 c 0.435546,-0.362305 0.653319,-0.79834 0.65332,-1.308106 -10e-7,-0.505858 -0.218751,-0.941892 -0.65625,-1.308105 l 0.28125,0 c 0.434569,0.352541 0.651854,0.789552 0.651855,1.311035 -10e-7,0.527344 -0.217286,0.962402 -0.651855,1.305176"
       style="fill:#ffffff;fill-opacity:1"
       id="path4051" />
    <path
       d="m 12.97998,39.153333 c 0.124023,2e-6 0.186035,0.06787 0.186036,0.203614 -1e-6,0.135743 -0.06201,0.203614 -0.186036,0.203613 -0.124024,10e-7 -0.186035,-0.06787 -0.186035,-0.203613 0,-0.135741 0.06201,-0.203612 0.186035,-0.203614 m 0.128907,1.300782 0.02051,0.03369 c -0.04981,0.192383 -0.135744,0.426269 -0.257813,0.70166 l -0.200684,0 c 0.06055,-0.249023 0.109375,-0.49414 0.146485,-0.735351 l 0.291504,0"
       style="fill:#ffffff;fill-opacity:1"
       id="path4053" />
    <path
       d="m 8.7700195,44.48097 0,-0.243164 c 0.1884761,0.08398 0.36914,0.125977 0.5419922,0.125977 0.2685536,0 0.4028308,-0.0791 0.4028321,-0.237305 -1.3e-6,-0.05566 -0.023927,-0.104003 -0.071777,-0.14502 -0.047853,-0.04102 -0.1582041,-0.09277 -0.3310547,-0.155273 -0.2275397,-0.08496 -0.3710942,-0.162597 -0.430664,-0.23291 -0.058594,-0.07129 -0.087891,-0.155272 -0.087891,-0.251953 -3e-7,-0.132811 0.054199,-0.236815 0.1625977,-0.312012 0.1093744,-0.07617 0.2602532,-0.114256 0.4526367,-0.114258 0.1933583,2e-6 0.3735339,0.03613 0.5405274,0.108399 l -0.087891,0.218261 C 9.6835925,43.171401 9.527831,43.136245 9.394043,43.136244 c -0.2304695,1e-6 -0.3457037,0.06494 -0.3457032,0.194824 -5e-7,0.05957 0.024413,0.107423 0.073242,0.143554 0.049804,0.03516 0.1635734,0.08447 0.3413086,0.14795 0.2060535,0.0752 0.3427721,0.149415 0.4101563,0.222656 0.068358,0.07227 0.1025375,0.161133 0.102539,0.266602 -1.5e-6,0.146484 -0.05713,0.261718 -0.1713867,0.345703 -0.114259,0.08301 -0.2758799,0.124511 -0.4848633,0.124511 -0.2421881,0 -0.4252934,-0.03369 -0.5493164,-0.101074"
       style="fill:#ffffff;fill-opacity:1"
       id="path4055" />
    <path
       d="m 11.825684,43.001478 -0.09082,0.231445 c -0.146485,-0.05566 -0.277345,-0.08349 -0.392578,-0.0835 -0.362305,2e-6 -0.543457,0.201662 -0.543457,0.604981 0,0.396484 0.176269,0.594726 0.528809,0.594726 0.153319,0 0.310057,-0.03027 0.470215,-0.09082 l 0,0.234375 c -0.130861,0.05957 -0.291506,0.08936 -0.481934,0.08936 -0.250977,0 -0.445801,-0.0708 -0.584473,-0.212402 -0.138672,-0.142578 -0.208008,-0.346679 -0.208007,-0.612305 -1e-6,-0.274413 0.0708,-0.483397 0.212402,-0.626953 0.141601,-0.143553 0.340819,-0.21533 0.597656,-0.215332 0.173827,2e-6 0.337889,0.02881 0.492188,0.08643"
       style="fill:#ffffff;fill-opacity:1"
       id="path4057" />
    <path
       d="m 13.381348,44.552747 -0.0542,-0.222656 -0.01172,0 c -0.0752,0.09473 -0.152345,0.160645 -0.231446,0.197754 -0.0791,0.03613 -0.181153,0.0542 -0.306152,0.0542 -0.15918,0 -0.28418,-0.04199 -0.375,-0.125976 -0.08984,-0.08398 -0.134766,-0.20166 -0.134766,-0.353028 0,-0.324218 0.249023,-0.494139 0.747071,-0.509765 l 0.297363,-0.01025 0,-0.101074 c -10e-7,-0.230468 -0.119142,-0.345702 -0.357422,-0.345703 -0.143555,1e-6 -0.303711,0.04004 -0.480469,0.120117 l -0.09228,-0.200684 c 0.191406,-0.09375 0.378417,-0.140623 0.561035,-0.140625 0.221679,2e-6 0.381835,0.04248 0.480469,0.127442 0.09961,0.08496 0.149413,0.221192 0.149414,0.408691 l 0,1.101562 -0.191894,0 m -0.07178,-0.786621 -0.237304,0.01025 c -0.191407,0.0078 -0.327149,0.03809 -0.407227,0.09082 -0.08008,0.05176 -0.120118,0.131348 -0.120117,0.238769 -10e-7,0.173829 0.09766,0.260743 0.292969,0.260742 0.143553,10e-7 0.257811,-0.03955 0.342773,-0.118652 0.08594,-0.08008 0.128905,-0.192382 0.128906,-0.336914 l 0,-0.14502"
       style="fill:#ffffff;fill-opacity:1"
       id="path4059" />
    <path
       d="m 15.168457,44.552747 0,-1.035644 c -10e-7,-0.253905 -0.116212,-0.380858 -0.348633,-0.380859 -0.299805,1e-6 -0.449707,0.194337 -0.449707,0.583007 l 0,0.833496 -0.266601,0 0,-1.608398 0.215332,0 0.03955,0.216797 0.01465,0 c 0.100585,-0.164061 0.264648,-0.246092 0.492187,-0.246094 0.379882,2e-6 0.569823,0.195802 0.569825,0.587403 l 0,1.050292 -0.266602,0"
       style="fill:#ffffff;fill-opacity:1"
       id="path4061" />
    <path
       d="m 17.197266,43.145033 -0.569825,0 0,1.407714 -0.266601,0 0,-1.407714 -0.464356,0 0,-0.161133 0.464356,-0.04834 0,-0.140625 c -1e-6,-0.188475 0.04394,-0.325193 0.131836,-0.410156 0.08789,-0.08496 0.233885,-0.127439 0.437988,-0.127442 0.125975,3e-6 0.249022,0.01709 0.369141,0.05127 l -0.06006,0.209473 c -0.101564,-0.02734 -0.202638,-0.04101 -0.303223,-0.04102 -0.120118,2e-6 -0.201661,0.02442 -0.244628,0.07324 -0.04297,0.04883 -0.06445,0.129396 -0.06445,0.241699 l 0,0.152344 0.569825,0 0,0.200684"
       style="fill:#ffffff;fill-opacity:1"
       id="path4063" />
    <path
       d="m 18.549316,42.411146 0.282715,0 c -0.438477,0.367189 -0.657715,0.803224 -0.657715,1.308105 0,0.50879 0.218261,0.944824 0.654786,1.308106 l -0.279786,0 c -0.433594,-0.344727 -0.650391,-0.779785 -0.65039,-1.305176 -1e-6,-0.51953 0.216796,-0.956541 0.65039,-1.311035"
       style="fill:#ffffff;fill-opacity:1"
       id="path4065" />
    <path
       d="m 20.030273,42.411146 -0.06006,0.773437 -0.227051,0 -0.06006,-0.773437 0.347168,0 m 0.618164,0 -0.06006,0.773437 -0.227051,0 -0.06006,-0.773437 0.347167,0"
       style="fill:#ffffff;fill-opacity:1"
       id="path4067" />
    <path
       d="m 21.490723,43.40431 c -0.12793,10e-7 -0.230958,-0.0459 -0.309082,-0.137695 -0.07813,-0.09277 -0.117188,-0.217284 -0.117188,-0.373535 0,-0.160155 0.03857,-0.284667 0.115723,-0.373536 0.07715,-0.08887 0.182617,-0.133298 0.316406,-0.1333 0.125976,2e-6 0.228515,0.04541 0.307617,0.13623 0.0791,0.09082 0.118652,0.214357 0.118653,0.370606 -10e-7,0.158204 -0.03857,0.283204 -0.115723,0.375 -0.07617,0.09082 -0.181641,0.136231 -0.316406,0.13623 m 0.0029,-0.174316 c 0.135742,1e-6 0.203613,-0.112304 0.203614,-0.336914 -10e-7,-0.219725 -0.06787,-0.329588 -0.203614,-0.32959 -0.137695,2e-6 -0.206543,0.109865 -0.206543,0.32959 0,0.22461 0.06885,0.336915 0.206543,0.336914 m 1.119141,-0.818848 -1.067871,2.141601 -0.231445,0 1.067871,-2.141601 0.231445,0 m -0.180176,2.167969 c -0.126954,0 -0.229981,-0.0459 -0.309082,-0.137696 -0.07813,-0.09277 -0.117188,-0.216796 -0.117187,-0.37207 -10e-7,-0.160156 0.03857,-0.284667 0.115722,-0.373535 0.07715,-0.08887 0.182616,-0.1333 0.316407,-0.133301 0.125975,10e-7 0.228514,0.04541 0.307617,0.136231 0.0791,0.09082 0.11865,0.214356 0.118652,0.370605 -2e-6,0.157227 -0.03858,0.281739 -0.115723,0.373535 -0.07617,0.09082 -0.181642,0.136231 -0.316406,0.136231 m 0.0029,-0.172852 c 0.135741,0 0.203612,-0.112304 0.203613,-0.336914 -1e-6,-0.219726 -0.06787,-0.329589 -0.203613,-0.32959 -0.137697,10e-7 -0.206544,0.109864 -0.206543,0.32959 -1e-6,0.22461 0.06885,0.336914 0.206543,0.336914"
       style="fill:#ffffff;fill-opacity:1"
       id="path4069" />
    <path
       d="m 24.177246,44.337415 -0.01172,0 c -0.110352,0.163086 -0.267579,0.244629 -0.471679,0.244629 -0.19629,0 -0.350587,-0.07275 -0.462891,-0.218261 -0.111328,-0.146484 -0.166992,-0.350586 -0.166992,-0.612305 0,-0.263671 0.05615,-0.468749 0.168457,-0.615234 0.112304,-0.14746 0.266113,-0.22119 0.461426,-0.221192 0.20117,2e-6 0.358397,0.07813 0.471679,0.234375 l 0.01758,0 c -0.01172,-0.125975 -0.01758,-0.205076 -0.01758,-0.237305 l 0,-0.638671 0.266602,0 0,2.279296 -0.215332,0 -0.03955,-0.215332 m -0.01172,-0.525878 0,-0.06006 c -1e-6,-0.221679 -0.03418,-0.379393 -0.102539,-0.473145 -0.06738,-0.09473 -0.175294,-0.142088 -0.32373,-0.142089 -0.265626,1e-6 -0.398438,0.206055 -0.398438,0.618164 0,0.404297 0.133789,0.606445 0.401367,0.606445 0.148437,0 0.254882,-0.04297 0.319336,-0.128906 0.06543,-0.08691 0.100097,-0.227051 0.104004,-0.42041"
       style="fill:#ffffff;fill-opacity:1"
       id="path4071" />
    <path
       d="m 25.426758,42.411146 -0.06006,0.773437 -0.227051,0 -0.06006,-0.773437 0.347168,0 m 0.618164,0 -0.06006,0.773437 -0.227051,0 -0.06006,-0.773437 0.347168,0"
       style="fill:#ffffff;fill-opacity:1"
       id="path4073" />
    <path
       d="m 27.588867,44.168958 0.02344,0.03516 c -0.05566,0.21875 -0.150392,0.476074 -0.28418,0.771972 l -0.222656,0 c 0.07422,-0.315429 0.128417,-0.584472 0.162597,-0.807129 l 0.320801,0"
       style="fill:#ffffff;fill-opacity:1"
       id="path4075" />
    <path
       d="m 30.94043,43.416029 0.411621,0.509765 c 0.06933,-0.118163 0.120116,-0.248046 0.152344,-0.389648 l 0.269531,0 c -0.05176,0.228516 -0.138674,0.425293 -0.260742,0.590332 l 0.342773,0.426269 -0.317871,0 -0.191895,-0.243164 c -0.169923,0.181641 -0.371094,0.272461 -0.603515,0.272461 -0.184571,0 -0.330079,-0.05225 -0.436524,-0.156738 -0.105469,-0.104492 -0.158203,-0.248046 -0.158203,-0.430664 0,-0.127929 0.03076,-0.239257 0.09229,-0.333984 0.0625,-0.0957 0.177734,-0.193359 0.345703,-0.292969 -0.15918,-0.187499 -0.238769,-0.361327 -0.238769,-0.521484 0,-0.14453 0.04639,-0.258788 0.13916,-0.342774 0.09375,-0.08398 0.228027,-0.125974 0.402832,-0.125976 0.164062,2e-6 0.291015,0.04199 0.38086,0.125976 0.09082,0.08301 0.136229,0.197268 0.13623,0.342774 -1e-6,0.198243 -0.155275,0.388184 -0.46582,0.569824 m -0.137696,-0.177246 c 0.130859,-0.07715 0.220214,-0.14453 0.268067,-0.202149 0.04883,-0.05859 0.07324,-0.124022 0.07324,-0.196289 -1e-6,-0.07226 -0.02442,-0.130857 -0.07324,-0.175781 -0.04785,-0.04492 -0.111329,-0.06738 -0.19043,-0.06738 -0.08496,2e-6 -0.151856,0.02197 -0.200684,0.06592 -0.04785,0.04297 -0.07178,0.104006 -0.07178,0.183106 0,0.115235 0.06494,0.246095 0.194824,0.392578 m 0.395508,0.893554 -0.473144,-0.587402 c -0.198243,0.120118 -0.297364,0.267091 -0.297364,0.440918 0,0.102539 0.03271,0.188477 0.09814,0.257812 0.06543,0.06836 0.143554,0.10254 0.234375,0.10254 0.156249,0 0.302245,-0.07129 0.437988,-0.213868"
       style="fill:#ffffff;fill-opacity:1"
       id="path4077" />
    <path
       d="m 33.156738,44.552747 0,-1.035644 c -10e-7,-0.253905 -0.116212,-0.380858 -0.348633,-0.380859 -0.299805,1e-6 -0.449707,0.194337 -0.449707,0.583007 l 0,0.833496 -0.266601,0 0,-1.608398 0.215332,0 0.03955,0.216797 0.01465,0 c 0.100585,-0.164061 0.264648,-0.246092 0.492188,-0.246094 0.379881,2e-6 0.569822,0.195802 0.569824,0.587403 l 0,1.050292 -0.266602,0"
       style="fill:#ffffff;fill-opacity:1"
       id="path4079" />
    <path
       d="m 34.372559,45.027357 -0.278321,0 c 0.435546,-0.362305 0.65332,-0.79834 0.653321,-1.308106 -1e-6,-0.505858 -0.218751,-0.941892 -0.65625,-1.308105 l 0.28125,0 c 0.434569,0.352541 0.651854,0.789552 0.651855,1.311035 -10e-7,0.527344 -0.217286,0.962402 -0.651855,1.305176"
       style="fill:#ffffff;fill-opacity:1"
       id="path4081" />
    <path
       d="m 36.364746,42.903333 c 0.124022,2e-6 0.186034,0.06787 0.186035,0.203614 -10e-7,0.135743 -0.06201,0.203614 -0.186035,0.203613 -0.124024,10e-7 -0.186036,-0.06787 -0.186035,-0.203613 -10e-7,-0.135741 0.06201,-0.203612 0.186035,-0.203614 m 0.128906,1.300782 0.02051,0.03369 c -0.04981,0.192383 -0.135743,0.426269 -0.257812,0.70166 l -0.200684,0 c 0.06055,-0.249023 0.109374,-0.49414 0.146484,-0.735351 l 0.291504,0"
       style="fill:#ffffff;fill-opacity:1"
       id="path4083" />
    <path
       d="m 8.9707031,51.849134 -0.017578,0 c 0.011718,0.125977 0.017578,0.205078 0.017578,0.237305 l 0,0.687012 -0.2666015,0 0,-2.329102 0.215332,0 0.039551,0.216797 0.011719,0 c 0.1074213,-0.164061 0.2646477,-0.246092 0.4716797,-0.246094 0.1962879,2e-6 0.3500963,0.07324 0.4614258,0.219727 0.1123034,0.145509 0.1684554,0.349122 0.1684574,0.61084 -2e-6,0.263672 -0.05615,0.469238 -0.1684574,0.616699 -0.112306,0.146484 -0.2661145,0.219726 -0.4614258,0.219726 -0.2021492,0 -0.3593756,-0.07764 -0.4716797,-0.23291 m 0,-0.663574 0,0.06006 c -5e-7,0.22168 0.033691,0.379883 0.1010742,0.474609 0.068359,0.09375 0.1767571,0.140625 0.3251954,0.140625 0.2656238,0 0.3984361,-0.206054 0.3984375,-0.618164 -1.4e-6,-0.404296 -0.1337903,-0.606444 -0.4013672,-0.606445 -0.1484383,1e-6 -0.2553718,0.04297 -0.3208008,0.128906 -0.064454,0.08594 -0.098633,0.226075 -0.1025391,0.42041"
       style="fill:#ffffff;fill-opacity:1"
       id="path4085" />
    <path
       d="m 11.822754,50.48097 -0.07178,0.243164 c -0.120119,-0.04394 -0.229494,-0.06592 -0.328125,-0.06592 -0.159181,2e-6 -0.282228,0.04541 -0.369141,0.136231 -0.08594,0.08985 -0.128907,0.220216 -0.128906,0.391113 l 0,0.867187 -0.266602,0 0,-1.608398 0.216797,0 0.03223,0.294434 0.01172,0 c 0.07422,-0.11621 0.153808,-0.199218 0.23877,-0.249024 0.08496,-0.0498 0.189452,-0.07471 0.313476,-0.07471 0.115233,2e-6 0.232421,0.02197 0.351563,0.06592"
       style="fill:#ffffff;fill-opacity:1"
       id="path4087" />
    <path
       d="m 12.997559,49.78224 c 0.103514,2e-6 0.155272,0.05567 0.155273,0.166992 -10e-7,0.05664 -0.01563,0.09912 -0.04687,0.127441 -0.03027,0.02735 -0.06641,0.04102 -0.108398,0.04102 -0.104493,2e-6 -0.156739,-0.05615 -0.156739,-0.168457 0,-0.111326 0.05225,-0.16699 0.156739,-0.166992 m -0.134766,0.873047 -0.394043,-0.03076 0,-0.180176 0.660645,0 0,1.398926 0.515625,0.0293 0,0.180175 -1.286133,0 0,-0.180175 0.503906,-0.0293 0,-1.187988"
       style="fill:#ffffff;fill-opacity:1"
       id="path4089" />
    <path
       d="m 15.168457,52.052747 0,-1.035644 c -10e-7,-0.253905 -0.116212,-0.380858 -0.348633,-0.380859 -0.299805,1e-6 -0.449707,0.194337 -0.449707,0.583007 l 0,0.833496 -0.266601,0 0,-1.608398 0.215332,0 0.03955,0.216797 0.01465,0 c 0.100585,-0.164061 0.264648,-0.246092 0.492187,-0.246094 0.379882,2e-6 0.569823,0.195802 0.569825,0.587403 l 0,1.050292 -0.266602,0"
       style="fill:#ffffff;fill-opacity:1"
       id="path4091" />
    <path
       d="m 17.162109,51.833021 0,0.202148 c -0.126954,0.03125 -0.250001,0.04687 -0.36914,0.04687 -0.353517,0 -0.530274,-0.167968 -0.530274,-0.503906 l 0,-0.933105 -0.391113,0 0,-0.137696 0.391113,-0.07178 0.112793,-0.42041 0.153809,0 0,0.429199 0.641601,0 0,0.200684 -0.641601,0 0,0.933105 c -1e-6,0.19043 0.09375,0.285645 0.28125,0.285645 0.09082,0 0.208006,-0.01025 0.351562,-0.03076"
       style="fill:#ffffff;fill-opacity:1"
       id="path4093" />
    <path
       d="m 18.996094,50.645033 -0.569824,0 0,1.407714 -0.266602,0 0,-1.407714 -0.464356,0 0,-0.161133 0.464356,-0.04834 0,-0.140625 c -1e-6,-0.188475 0.04395,-0.325193 0.131836,-0.410156 0.08789,-0.08496 0.233886,-0.127439 0.437988,-0.127442 0.125975,3e-6 0.249022,0.01709 0.369141,0.05127 l -0.06006,0.209473 c -0.101564,-0.02734 -0.202638,-0.04101 -0.303222,-0.04102 -0.120119,2e-6 -0.201662,0.02442 -0.244629,0.07324 -0.04297,0.04883 -0.06445,0.129396 -0.06445,0.241699 l 0,0.152344 0.569824,0 0,0.200684"
       style="fill:#ffffff;fill-opacity:1"
       id="path4095" />
    <path
       d="m 20.348145,49.911146 0.282714,0 c -0.438477,0.367189 -0.657715,0.803224 -0.657714,1.308105 -10e-7,0.50879 0.21826,0.944824 0.654785,1.308106 l -0.279785,0 c -0.433595,-0.344727 -0.650392,-0.779785 -0.650391,-1.305176 -1e-6,-0.51953 0.216796,-0.956541 0.650391,-1.311035"
       style="fill:#ffffff;fill-opacity:1"
       id="path4097" />
    <path
       d="m 21.829102,49.911146 -0.06006,0.773437 -0.227051,0 -0.06006,-0.773437 0.347168,0 m 0.618164,0 -0.06006,0.773437 -0.227051,0 -0.06006,-0.773437 0.347168,0"
       style="fill:#ffffff;fill-opacity:1"
       id="path4099" />
    <path
       d="m 23.289551,50.90431 c -0.12793,10e-7 -0.230957,-0.0459 -0.309082,-0.137695 -0.07813,-0.09277 -0.117188,-0.217284 -0.117188,-0.373535 0,-0.160155 0.03857,-0.284667 0.115723,-0.373536 0.07715,-0.08887 0.182617,-0.133298 0.316406,-0.1333 0.125976,2e-6 0.228515,0.04541 0.307617,0.13623 0.0791,0.09082 0.118652,0.214357 0.118653,0.370606 -10e-7,0.158204 -0.03857,0.283204 -0.115723,0.375 -0.07617,0.09082 -0.181641,0.136231 -0.316406,0.13623 m 0.0029,-0.174316 c 0.135742,1e-6 0.203613,-0.112304 0.203614,-0.336914 -1e-6,-0.219725 -0.06787,-0.329588 -0.203614,-0.32959 -0.137695,2e-6 -0.206543,0.109865 -0.206543,0.32959 0,0.22461 0.06885,0.336915 0.206543,0.336914 m 1.119141,-0.818848 -1.067871,2.141601 -0.231445,0 1.067871,-2.141601 0.231445,0 m -0.180176,2.167969 c -0.126954,0 -0.229981,-0.0459 -0.309082,-0.137696 -0.07813,-0.09277 -0.117188,-0.216796 -0.117187,-0.37207 -1e-6,-0.160156 0.03857,-0.284667 0.115722,-0.373535 0.07715,-0.08887 0.182616,-0.1333 0.316407,-0.133301 0.125975,10e-7 0.228514,0.04541 0.307617,0.136231 0.0791,0.09082 0.11865,0.214356 0.118652,0.370605 -2e-6,0.157227 -0.03858,0.281739 -0.115722,0.373535 -0.07617,0.09082 -0.181643,0.136231 -0.316407,0.136231 m 0.0029,-0.172852 c 0.135741,0 0.203612,-0.112304 0.203613,-0.336914 -1e-6,-0.219726 -0.06787,-0.329589 -0.203613,-0.32959 -0.137697,10e-7 -0.206544,0.109864 -0.206543,0.32959 -1e-6,0.22461 0.06885,0.336914 0.206543,0.336914"
       style="fill:#ffffff;fill-opacity:1"
       id="path4101" />
    <path
       d="m 25.976074,51.837415 -0.01172,0 c -0.110352,0.163086 -0.267579,0.244629 -0.471679,0.244629 -0.19629,0 -0.350587,-0.07275 -0.462891,-0.218261 -0.111328,-0.146484 -0.166992,-0.350586 -0.166992,-0.612305 0,-0.263671 0.05615,-0.468749 0.168457,-0.615234 0.112304,-0.14746 0.266113,-0.22119 0.461426,-0.221192 0.201171,2e-6 0.358397,0.07813 0.471679,0.234375 l 0.01758,0 c -0.01172,-0.125975 -0.01758,-0.205076 -0.01758,-0.237305 l 0,-0.638671 0.266602,0 0,2.279296 -0.215332,0 -0.03955,-0.215332 m -0.01172,-0.525878 0,-0.06006 c -1e-6,-0.221679 -0.03418,-0.379393 -0.102539,-0.473145 -0.06738,-0.09473 -0.175294,-0.142088 -0.32373,-0.142089 -0.265626,1e-6 -0.398438,0.206055 -0.398438,0.618164 0,0.404297 0.133789,0.606445 0.401368,0.606445 0.148436,0 0.254881,-0.04297 0.319336,-0.128906 0.06543,-0.08691 0.100096,-0.227051 0.104003,-0.42041"
       style="fill:#ffffff;fill-opacity:1"
       id="path4103" />
    <path
       d="m 29.187012,49.78224 c 0.103514,2e-6 0.155272,0.05567 0.155273,0.166992 -1e-6,0.05664 -0.01563,0.09912 -0.04687,0.127441 -0.03027,0.02735 -0.06641,0.04102 -0.108398,0.04102 -0.104493,2e-6 -0.156739,-0.05615 -0.156739,-0.168457 0,-0.111326 0.05225,-0.16699 0.156739,-0.166992 m -0.134766,0.873047 -0.394043,-0.03076 0,-0.180176 0.660645,0 0,1.398926 0.515625,0.0293 0,0.180175 -1.286133,0 0,-0.180175 0.503906,-0.0293 0,-1.187988"
       style="fill:#ffffff;fill-opacity:1"
       id="path4105" />
    <path
       d="m 31.35791,52.052747 0,-1.035644 c -1e-6,-0.253905 -0.116212,-0.380858 -0.348633,-0.380859 -0.299805,1e-6 -0.449707,0.194337 -0.449707,0.583007 l 0,0.833496 -0.266601,0 0,-1.608398 0.215332,0 0.03955,0.216797 0.01465,0 c 0.100585,-0.164061 0.264648,-0.246092 0.492187,-0.246094 0.379882,2e-6 0.569823,0.195802 0.569825,0.587403 l 0,1.050292 -0.266602,0"
       style="fill:#ffffff;fill-opacity:1"
       id="path4107" />
    <path
       d="m 34.154297,51.849134 -0.01758,0 -0.0542,0.203613 -0.194825,0 0,-2.279296 0.266602,0 0,0.550781 c -10e-7,0.0791 -0.0039,0.189455 -0.01172,0.331055 l 0.01172,0 c 0.104491,-0.160155 0.261718,-0.240233 0.47168,-0.240235 0.196287,2e-6 0.350096,0.07324 0.461425,0.219727 0.112303,0.145509 0.168456,0.349122 0.168457,0.61084 -10e-7,0.263672 -0.05615,0.469238 -0.168457,0.616699 -0.112306,0.146484 -0.266114,0.219726 -0.461425,0.219726 -0.20215,0 -0.359376,-0.07764 -0.47168,-0.23291 m 0,-0.603515 c -10e-7,0.22168 0.03369,0.379883 0.101074,0.474609 0.06836,0.09375 0.176757,0.140625 0.325195,0.140625 0.265624,0 0.398437,-0.206054 0.398438,-0.618164 -1e-6,-0.404296 -0.13379,-0.606444 -0.401367,-0.606445 -0.151368,1e-6 -0.259767,0.0459 -0.325196,0.137695 -0.06543,0.0918 -0.09814,0.249024 -0.09814,0.47168"
       style="fill:#ffffff;fill-opacity:1"
       id="path4109" />
    <path
       d="m 36.382324,49.78224 c 0.103515,2e-6 0.155273,0.05567 0.155274,0.166992 -1e-6,0.05664 -0.01563,0.09912 -0.04687,0.127441 -0.03028,0.02735 -0.06641,0.04102 -0.108399,0.04102 -0.104493,2e-6 -0.156739,-0.05615 -0.156738,-0.168457 -10e-7,-0.111326 0.05224,-0.16699 0.156738,-0.166992 m -0.134765,0.873047 -0.394043,-0.03076 0,-0.180176 0.660644,0 0,1.398926 0.515625,0.0293 0,0.180175 -1.286133,0 0,-0.180175 0.503907,-0.0293 0,-1.187988"
       style="fill:#ffffff;fill-opacity:1"
       id="path4111" />
    <path
       d="m 38.553223,52.052747 0,-1.035644 c -2e-6,-0.253905 -0.116212,-0.380858 -0.348633,-0.380859 -0.299805,1e-6 -0.449708,0.194337 -0.449707,0.583007 l 0,0.833496 -0.266602,0 0,-1.608398 0.215332,0 0.03955,0.216797 0.01465,0 c 0.100586,-0.164061 0.264648,-0.246092 0.492188,-0.246094 0.379881,2e-6 0.569823,0.195802 0.569824,0.587403 l 0,1.050292 -0.266601,0"
       style="fill:#ffffff;fill-opacity:1"
       id="path4113" />
    <path
       d="m 40.36377,52.052747 -0.0542,-0.222656 -0.01172,0 c -0.0752,0.09473 -0.152345,0.160645 -0.231446,0.197754 -0.0791,0.03613 -0.181153,0.0542 -0.306152,0.0542 -0.15918,0 -0.28418,-0.04199 -0.375,-0.125976 -0.08984,-0.08398 -0.134766,-0.20166 -0.134766,-0.353028 0,-0.324218 0.249023,-0.494139 0.747071,-0.509765 l 0.297363,-0.01025 0,-0.101074 c -10e-7,-0.230468 -0.119142,-0.345702 -0.357422,-0.345703 -0.143555,1e-6 -0.303712,0.04004 -0.480469,0.120117 l -0.09229,-0.200684 c 0.191406,-0.09375 0.378417,-0.140623 0.561035,-0.140625 0.221679,2e-6 0.381835,0.04248 0.480469,0.127442 0.09961,0.08496 0.149413,0.221192 0.149414,0.408691 l 0,1.101562 -0.191894,0 m -0.07178,-0.786621 -0.237305,0.01025 c -0.191407,0.0078 -0.327149,0.03809 -0.407226,0.09082 -0.08008,0.05176 -0.120118,0.131348 -0.120117,0.238769 -10e-7,0.173829 0.09766,0.260743 0.292968,0.260742 0.143554,10e-7 0.257812,-0.03955 0.342774,-0.118652 0.08594,-0.08008 0.128905,-0.192382 0.128906,-0.336914 l 0,-0.14502"
       style="fill:#ffffff;fill-opacity:1"
       id="path4115" />
    <path
       d="m 42.402832,50.48097 -0.07178,0.243164 c -0.120119,-0.04394 -0.229494,-0.06592 -0.328125,-0.06592 -0.159181,2e-6 -0.282228,0.04541 -0.369141,0.136231 -0.08594,0.08985 -0.128907,0.220216 -0.128906,0.391113 l 0,0.867187 -0.266602,0 0,-1.608398 0.216797,0 0.03223,0.294434 0.01172,0 c 0.07422,-0.11621 0.153808,-0.199218 0.23877,-0.249024 0.08496,-0.0498 0.189452,-0.07471 0.313477,-0.07471 0.115233,2e-6 0.23242,0.02197 0.351562,0.06592"
       style="fill:#ffffff;fill-opacity:1"
       id="path4117" />
    <path
       d="m 6.1743164,55.802747 0,-1.035644 c -1.3e-6,-0.253905 -0.1162121,-0.380858 -0.3486328,-0.380859 -0.2998053,1e-6 -0.4497075,0.194337 -0.449707,0.583007 l 0,0.833496 -0.2666016,0 0,-1.608398 0.215332,0 0.039551,0.216797 0.014648,0 c 0.1005854,-0.164061 0.2646477,-0.246092 0.4921875,-0.246094 0.3798815,2e-6 0.5698227,0.195802 0.5698243,0.587403 l 0,1.050292 -0.2666016,0"
       style="fill:#ffffff;fill-opacity:1"
       id="path4121" />
    <path
       d="m 8.0244141,55.802747 -0.039551,-0.215332 -0.014648,0 c -0.1025402,0.163086 -0.265626,0.244629 -0.4892578,0.244629 -0.3818363,0 -0.5727541,-0.1958 -0.5727539,-0.587402 l 0,-1.050293 0.2666016,0 0,1.035645 c -5e-7,0.253906 0.1152337,0.380859 0.3457031,0.380859 0.1572256,0 0.2719716,-0.04492 0.3442383,-0.134766 0.072264,-0.09082 0.1083971,-0.239745 0.1083984,-0.446777 l 0,-0.834961 0.2666016,0 0,1.608398 -0.215332,0"
       style="fill:#ffffff;fill-opacity:1"
       id="path4123" />
    <path
       d="m 9.9038086,55.802747 0,-1.035644 c -1.4e-6,-0.142577 -0.013185,-0.241698 -0.039551,-0.297363 -0.025392,-0.05566 -0.068361,-0.08349 -0.1289062,-0.0835 -0.084962,1e-6 -0.1469738,0.04053 -0.1860352,0.121582 -0.038087,0.08106 -0.05713,0.216798 -0.057129,0.407226 l 0,0.887695 -0.2358398,0 0,-1.035644 c -8e-7,-0.253905 -0.061036,-0.380858 -0.1831055,-0.380859 -0.082032,1e-6 -0.1406255,0.03906 -0.1757813,0.117187 -0.035157,0.07715 -0.052735,0.232423 -0.052734,0.46582 l 0,0.833496 -0.2373047,0 0,-1.608398 0.1860351,0 0.039551,0.216797 0.014648,0 c 0.065429,-0.164061 0.1635736,-0.246092 0.2944335,-0.246094 0.1591789,2e-6 0.2631827,0.08887 0.3120118,0.266602 l 0.00879,0 c 0.074218,-0.177733 0.1811512,-0.2666 0.3208008,-0.266602 0.1249986,2e-6 0.2158188,0.04541 0.2724606,0.136231 0.05664,0.08985 0.08496,0.240235 0.08496,0.451172 l 0,1.050292 -0.2373044,0"
       style="fill:#ffffff;fill-opacity:1"
       id="path4125" />
    <path
       d="m 10.769531,55.599134 -0.01758,0 -0.0542,0.203613 -0.194824,0 0,-2.279296 0.266601,0 0,0.550781 c 0,0.0791 -0.0039,0.189455 -0.01172,0.331055 l 0.01172,0 c 0.104492,-0.160155 0.261718,-0.240233 0.47168,-0.240235 0.196288,2e-6 0.350096,0.07324 0.461426,0.219727 0.112303,0.145509 0.168455,0.349122 0.168457,0.61084 -2e-6,0.263672 -0.05615,0.469238 -0.168457,0.616699 -0.112306,0.146484 -0.266115,0.219726 -0.461426,0.219726 -0.202149,0 -0.359376,-0.07764 -0.47168,-0.23291 m 0,-0.603515 c 0,0.22168 0.03369,0.379883 0.101074,0.474609 0.06836,0.09375 0.176758,0.140625 0.325196,0.140625 0.265624,0 0.398436,-0.206054 0.398437,-0.618164 -1e-6,-0.404296 -0.13379,-0.606444 -0.401367,-0.606445 -0.151368,1e-6 -0.259766,0.0459 -0.325195,0.137695 -0.06543,0.0918 -0.09814,0.249024 -0.09814,0.47168"
       style="fill:#ffffff;fill-opacity:1"
       id="path4127" />
    <path
       d="m 13.675781,55.049818 -1.133789,0 c 0.0078,0.366211 0.175781,0.549316 0.503906,0.549316 0.190429,0 0.371093,-0.03711 0.541993,-0.111328 l 0,0.234375 c -0.162111,0.07324 -0.339845,0.109863 -0.533203,0.109863 -0.239259,0 -0.430665,-0.07275 -0.574219,-0.218261 -0.143555,-0.146484 -0.215332,-0.347656 -0.215332,-0.603516 0,-0.259765 0.06592,-0.465331 0.197754,-0.616699 0.132812,-0.152342 0.310058,-0.228514 0.531738,-0.228516 0.20703,2e-6 0.372069,0.06543 0.495117,0.196289 0.124022,0.130861 0.186034,0.305177 0.186035,0.522949 l 0,0.165528 m -1.127929,-0.216797 0.839355,0 c -10e-7,-0.29785 -0.132814,-0.446776 -0.398437,-0.446777 -0.268556,1e-6 -0.415528,0.148927 -0.440918,0.446777"
       style="fill:#ffffff;fill-opacity:1"
       id="path4129" />
    <path
       d="m 15.42041,54.23097 -0.07178,0.243164 c -0.120119,-0.04394 -0.229494,-0.06592 -0.328125,-0.06592 -0.159181,2e-6 -0.282228,0.04541 -0.369141,0.136231 -0.08594,0.08985 -0.128907,0.220216 -0.128906,0.391113 l 0,0.867187 -0.266602,0 0,-1.608398 0.216797,0 0.03223,0.294434 0.01172,0 c 0.07422,-0.11621 0.153807,-0.199218 0.238769,-0.249024 0.08496,-0.0498 0.189452,-0.07471 0.313477,-0.07471 0.115233,2e-6 0.23242,0.02197 0.351562,0.06592"
       style="fill:#ffffff;fill-opacity:1"
       id="path4131" />
    <path
       d="m 17.76416,55.73097 0,-0.243164 c 0.188476,0.08398 0.36914,0.125977 0.541992,0.125977 0.268554,0 0.402831,-0.0791 0.402832,-0.237305 -1e-6,-0.05566 -0.02393,-0.104003 -0.07178,-0.14502 -0.04785,-0.04102 -0.158204,-0.09277 -0.331055,-0.155273 -0.227539,-0.08496 -0.371094,-0.162597 -0.430664,-0.23291 -0.05859,-0.07129 -0.08789,-0.155272 -0.08789,-0.251953 -10e-7,-0.132811 0.0542,-0.236815 0.162597,-0.312012 0.109375,-0.07617 0.260253,-0.114256 0.452637,-0.114258 0.193358,2e-6 0.373534,0.03613 0.540527,0.108399 l -0.08789,0.218261 c -0.177736,-0.07031 -0.333497,-0.105467 -0.467285,-0.105468 -0.23047,1e-6 -0.345704,0.06494 -0.345704,0.194824 0,0.05957 0.02441,0.107423 0.07324,0.143554 0.0498,0.03516 0.163573,0.08447 0.341308,0.14795 0.206054,0.0752 0.342772,0.149415 0.410156,0.222656 0.06836,0.07227 0.102538,0.161133 0.10254,0.266602 -2e-6,0.146484 -0.05713,0.261718 -0.171387,0.345703 -0.114259,0.08301 -0.27588,0.124511 -0.484863,0.124511 -0.242189,0 -0.425294,-0.03369 -0.549317,-0.101074"
       style="fill:#ffffff;fill-opacity:1"
       id="path4133" />
    <path
       d="m 19.385742,54.194349 0.275391,0 0.383789,0.958008 c 0.08008,0.200196 0.123534,0.341797 0.130371,0.424805 l 0.0088,0 c 0.02246,-0.109375 0.0664,-0.251953 0.131836,-0.427735 l 0.350098,-0.955078 0.276855,0 -0.695801,1.817871 c -0.06543,0.169922 -0.141602,0.297363 -0.228515,0.382324 -0.08691,0.08594 -0.207032,0.128906 -0.360352,0.128907 -0.08399,-1e-6 -0.166016,-0.0083 -0.246094,-0.0249 l 0,-0.212402 c 0.06055,0.01172 0.126953,0.01758 0.199219,0.01758 0.09375,0 0.166504,-0.02002 0.218262,-0.06006 0.05273,-0.04004 0.09961,-0.108887 0.140625,-0.206543 l 0.08496,-0.219726 -0.669434,-1.623047"
       style="fill:#ffffff;fill-opacity:1"
       id="path4135" />
    <path
       d="m 21.361816,55.73097 0,-0.243164 c 0.188476,0.08398 0.36914,0.125977 0.541993,0.125977 0.268553,0 0.40283,-0.0791 0.402832,-0.237305 -2e-6,-0.05566 -0.02393,-0.104003 -0.07178,-0.14502 -0.04785,-0.04102 -0.158204,-0.09277 -0.331054,-0.155273 -0.22754,-0.08496 -0.371095,-0.162597 -0.430664,-0.23291 -0.0586,-0.07129 -0.08789,-0.155272 -0.08789,-0.251953 0,-0.132811 0.0542,-0.236815 0.162598,-0.312012 0.109374,-0.07617 0.260253,-0.114256 0.452636,-0.114258 0.193359,2e-6 0.373534,0.03613 0.540528,0.108399 l -0.08789,0.218261 c -0.177736,-0.07031 -0.333497,-0.105467 -0.467285,-0.105468 -0.23047,1e-6 -0.345704,0.06494 -0.345703,0.194824 -1e-6,0.05957 0.02441,0.107423 0.07324,0.143554 0.0498,0.03516 0.163573,0.08447 0.341308,0.14795 0.206054,0.0752 0.342773,0.149415 0.410157,0.222656 0.06836,0.07227 0.102537,0.161133 0.102539,0.266602 -2e-6,0.146484 -0.05713,0.261718 -0.171387,0.345703 -0.114259,0.08301 -0.27588,0.124511 -0.484863,0.124511 -0.242188,0 -0.425294,-0.03369 -0.549317,-0.101074"
       style="fill:#ffffff;fill-opacity:1"
       id="path4137" />
    <path
       d="m 24.357422,55.583021 0,0.202148 c -0.126955,0.03125 -0.250001,0.04687 -0.369141,0.04687 -0.353516,0 -0.530274,-0.167968 -0.530273,-0.503906 l 0,-0.933105 -0.391113,0 0,-0.137696 0.391113,-0.07178 0.112793,-0.42041 0.153808,0 0,0.429199 0.641602,0 0,0.200684 -0.641602,0 0,0.933105 c 0,0.19043 0.09375,0.285645 0.28125,0.285645 0.09082,0 0.208007,-0.01025 0.351563,-0.03076"
       style="fill:#ffffff;fill-opacity:1"
       id="path4139" />
    <path
       d="m 26.267578,55.049818 -1.133789,0 c 0.0078,0.366211 0.175781,0.549316 0.503906,0.549316 0.190429,0 0.371093,-0.03711 0.541992,-0.111328 l 0,0.234375 c -0.16211,0.07324 -0.339844,0.109863 -0.533203,0.109863 -0.239258,0 -0.430664,-0.07275 -0.574218,-0.218261 -0.143555,-0.146484 -0.215333,-0.347656 -0.215332,-0.603516 -10e-7,-0.259765 0.06592,-0.465331 0.197753,-0.616699 0.132812,-0.152342 0.310058,-0.228514 0.531739,-0.228516 0.20703,2e-6 0.372069,0.06543 0.495117,0.196289 0.124022,0.130861 0.186034,0.305177 0.186035,0.522949 l 0,0.165528 m -1.12793,-0.216797 0.839356,0 c -1e-6,-0.29785 -0.132814,-0.446776 -0.398438,-0.446777 -0.268555,1e-6 -0.415527,0.148927 -0.440918,0.446777"
       style="fill:#ffffff;fill-opacity:1"
       id="path4141" />
    <path
       d="m 27.89209,55.802747 0,-1.035644 c -2e-6,-0.142577 -0.01319,-0.241698 -0.03955,-0.297363 -0.02539,-0.05566 -0.06836,-0.08349 -0.128906,-0.0835 -0.08496,1e-6 -0.146974,0.04053 -0.186035,0.121582 -0.03809,0.08106 -0.05713,0.216798 -0.05713,0.407226 l 0,0.887695 -0.23584,0 0,-1.035644 c -1e-6,-0.253905 -0.06104,-0.380858 -0.183106,-0.380859 -0.08203,1e-6 -0.140625,0.03906 -0.175781,0.117187 -0.03516,0.07715 -0.05274,0.232423 -0.05273,0.46582 l 0,0.833496 -0.237305,0 0,-1.608398 0.186035,0 0.03955,0.216797 0.01465,0 c 0.06543,-0.164061 0.163574,-0.246092 0.294434,-0.246094 0.159179,2e-6 0.263183,0.08887 0.312012,0.266602 l 0.0088,0 c 0.07422,-0.177733 0.181151,-0.2666 0.320801,-0.266602 0.124998,2e-6 0.215818,0.04541 0.272461,0.136231 0.05664,0.08985 0.08496,0.240235 0.08496,0.451172 l 0,1.050292 -0.237305,0"
       style="fill:#ffffff;fill-opacity:1"
       id="path4143" />
    <path
       d="m 30.98584,53.53224 c 0.103514,2e-6 0.155272,0.05567 0.155273,0.166992 -1e-6,0.05664 -0.01563,0.09912 -0.04687,0.127441 -0.03027,0.02735 -0.06641,0.04102 -0.108398,0.04102 -0.104493,2e-6 -0.156739,-0.05615 -0.156738,-0.168457 -10e-7,-0.111326 0.05225,-0.16699 0.156738,-0.166992 m -0.134766,0.873047 -0.394043,-0.03076 0,-0.180176 0.660645,0 0,1.398926 0.515625,0.0293 0,0.180175 -1.286133,0 0,-0.180175 0.503906,-0.0293 0,-1.187988"
       style="fill:#ffffff;fill-opacity:1"
       id="path4145" />
    <path
       d="m 32.154785,55.73097 0,-0.243164 c 0.188476,0.08398 0.36914,0.125977 0.541992,0.125977 0.268554,0 0.402831,-0.0791 0.402832,-0.237305 -10e-7,-0.05566 -0.02393,-0.104003 -0.07178,-0.14502 -0.04785,-0.04102 -0.158204,-0.09277 -0.331055,-0.155273 -0.227539,-0.08496 -0.371094,-0.162597 -0.430664,-0.23291 -0.05859,-0.07129 -0.08789,-0.155272 -0.08789,-0.251953 -1e-6,-0.132811 0.0542,-0.236815 0.162597,-0.312012 0.109375,-0.07617 0.260253,-0.114256 0.452637,-0.114258 0.193358,2e-6 0.373534,0.03613 0.540527,0.108399 l -0.08789,0.218261 c -0.177736,-0.07031 -0.333497,-0.105467 -0.467285,-0.105468 -0.23047,1e-6 -0.345704,0.06494 -0.345704,0.194824 0,0.05957 0.02441,0.107423 0.07324,0.143554 0.0498,0.03516 0.163573,0.08447 0.341308,0.14795 0.206054,0.0752 0.342772,0.149415 0.410156,0.222656 0.06836,0.07227 0.102538,0.161133 0.10254,0.266602 -2e-6,0.146484 -0.05713,0.261718 -0.171387,0.345703 -0.114259,0.08301 -0.27588,0.124511 -0.484863,0.124511 -0.242189,0 -0.425294,-0.03369 -0.549317,-0.101074"
       style="fill:#ffffff;fill-opacity:1"
       id="path4147" />
    <path
       d="m 34.555664,54.153333 c 0.124022,2e-6 0.186034,0.06787 0.186035,0.203614 -10e-7,0.135743 -0.06201,0.203614 -0.186035,0.203613 -0.124024,10e-7 -0.186036,-0.06787 -0.186035,-0.203613 -1e-6,-0.135741 0.06201,-0.203612 0.186035,-0.203614 m 0,1.283204 c 0.124022,0 0.186034,0.06787 0.186035,0.203613 -10e-7,0.136719 -0.06201,0.205078 -0.186035,0.205078 -0.124024,0 -0.186036,-0.06836 -0.186035,-0.205078 -1e-6,-0.135742 0.06201,-0.203613 0.186035,-0.203613"
       style="fill:#ffffff;fill-opacity:1"
       id="path4149" />
    <path
       d="m 36.024902,53.661146 0.918457,2.141601 -0.260742,0 -0.918457,-2.141601 0.260742,0"
       style="fill:#ffffff;fill-opacity:1"
       id="path4151" />
    <path
       d="m 38.553223,55.802747 0,-1.035644 c -2e-6,-0.253905 -0.116212,-0.380858 -0.348633,-0.380859 -0.299805,1e-6 -0.449708,0.194337 -0.449707,0.583007 l 0,0.833496 -0.266602,0 0,-1.608398 0.215332,0 0.03955,0.216797 0.01465,0 c 0.100586,-0.164061 0.264648,-0.246092 0.492188,-0.246094 0.379881,2e-6 0.569823,0.195802 0.569824,0.587403 l 0,1.050292 -0.266601,0"
       style="fill:#ffffff;fill-opacity:1"
       id="path4153" />
  </g>
  <path
     d="M 34,64 60,33 c -2.32857,2.776369 -4.36141,3 -11,3 H 37 v 15 c 0,6.64407 0.04437,9.37018 -3,13 z"
     id="path4278"
     style="fill:url(#linearGradient4280);fill-rule:nonzero"
     inkscape:connector-curvature="0" />
  <path
     d="m 59,32 c -2.32857,2.776369 -4.36141,3 -11,3 H 36 v 15 c 0,6.64407 0.04437,9.37018 -3,13 4,-5 4.000382,-8.35667 4,-13 V 36 h 11 c 5,0 8.0414,-0.38188 11,-4 z"
     id="path4282"
     style="fill:#e9cf96;fill-opacity:1;fill-rule:nonzero"
     inkscape:connector-curvature="0" />
  <path
     style="color:#000000;fill:url(#linearGradient3068-7-8-8);fill-opacity:1;fill-rule:nonzero;stroke:none;stroke-width:1;marker:none;visibility:visible;display:inline;overflow:visible;enable-background:accumulate"
     d="m 9,11 0,21 3,3 3,0 15,0 -3,-3 -12,0 0,-18 9,0 -3,-3 -6,0 -3,0 -3,0 z"
     id="rect3038-0"
     inkscape:connector-curvature="0" />
</svg>
