<?xml version="1.0" encoding="UTF-8" standalone="no"?>
<!-- Created with Inkscape (http://www.inkscape.org/) -->

<svg
   xmlns:dc="http://purl.org/dc/elements/1.1/"
   xmlns:cc="http://creativecommons.org/ns#"
   xmlns:rdf="http://www.w3.org/1999/02/22-rdf-syntax-ns#"
   xmlns:svg="http://www.w3.org/2000/svg"
   xmlns="http://www.w3.org/2000/svg"
   xmlns:xlink="http://www.w3.org/1999/xlink"
   xmlns:sodipodi="http://sodipodi.sourceforge.net/DTD/sodipodi-0.dtd"
   xmlns:inkscape="http://www.inkscape.org/namespaces/inkscape"
   version="1.1"
   width="64"
   height="64"
   id="svg13094"
   inkscape:version="0.48.3.1 r9886"
   sodipodi:docname="text-calendar.svg">
  <sodipodi:namedview
     pagecolor="#cbcdd6"
     bordercolor="#666666"
     borderopacity="1"
     objecttolerance="10"
     gridtolerance="10"
     guidetolerance="10"
     inkscape:pageopacity="1"
     inkscape:pageshadow="2"
     inkscape:window-width="1920"
     inkscape:window-height="1033"
     id="namedview81"
     showgrid="true"
     inkscape:zoom="7.375"
     inkscape:cx="26.205393"
     inkscape:cy="30.842571"
     inkscape:window-x="-10"
     inkscape:window-y="25"
     inkscape:window-maximized="1"
     inkscape:current-layer="svg13094"
     inkscape:snap-bbox="true"
     inkscape:bbox-paths="true"
     inkscape:bbox-nodes="true"
     inkscape:snap-bbox-midpoints="true"
     inkscape:snap-bbox-edge-midpoints="true"
     inkscape:object-paths="true"
     inkscape:snap-intersection-paths="true"
     inkscape:object-nodes="true"
     inkscape:snap-smooth-nodes="true"
     inkscape:snap-midpoints="true"
     inkscape:snap-object-midpoints="true"
     inkscape:snap-center="true">
    <inkscape:grid
       type="xygrid"
       id="grid3139"
       empspacing="5"
       visible="true"
       enabled="true"
       snapvisiblegridlinesonly="true" />
  </sodipodi:namedview>
  <defs
     id="defs11">
    <radialGradient
       cx="60.561817"
       cy="21.045019"
       r="2"
       fx="59.603962"
       fy="21.240686"
       id="radialGradient3811-9"
       xlink:href="#radialGradient3996-8"
       gradientUnits="userSpaceOnUse"
       gradientTransform="matrix(0,19.318815,-3.4300596,0,132.74749,-1136.9636)" />
    <radialGradient
       cx="48.30785"
       cy="47.141338"
       r="14.16129"
       id="radialGradient3996-8"
       gradientUnits="userSpaceOnUse"
       gradientTransform="matrix(0.93962333,0.77477937,-1.7975241,2.1799696,88.130548,-93.365748)">
      <stop
         id="stop3954-2"
         style="stop-color:#000000;stop-opacity:0.22264875"
         offset="0" />
      <stop
         id="stop3958-1"
         style="stop-color:#000000;stop-opacity:0.0678183"
         offset="0.5" />
      <stop
         id="stop3956-7"
         style="stop-color:#000000;stop-opacity:0.02431222"
         offset="1" />
    </radialGradient>
    <linearGradient
       x1="45"
       y1="52"
       x2="73"
       y2="4"
       id="linearGradient4308-8"
       gradientUnits="userSpaceOnUse">
      <stop
         id="stop4304-9"
         style="stop-color:#000000;stop-opacity:0.10677083"
         offset="0" />
      <stop
         id="stop4306-3"
         style="stop-color:#000000;stop-opacity:0"
         offset="1" />
    </linearGradient>
    <linearGradient
       x1="48.917568"
       y1="46.213669"
       x2="32.669781"
       y2="24"
       id="linearGradient4259-6"
       gradientUnits="userSpaceOnUse">
      <stop
         id="stop3988-6"
         style="stop-color:#ffffff;stop-opacity:0.52975047"
         offset="0" />
      <stop
         id="stop3990-9"
         style="stop-color:#ffffff;stop-opacity:0"
         offset="1" />
    </linearGradient>
    <linearGradient
       x1="50.730347"
       y1="49.730347"
       x2="38.438183"
       y2="39.259884"
       id="linearGradient4280-7"
       gradientUnits="userSpaceOnUse">
      <stop
         id="stop4293-9"
         style="stop-color:#cfcfcf;stop-opacity:1"
         offset="0" />
      <stop
         id="stop4295-94"
         style="stop-color:#b7b7b7;stop-opacity:1"
         offset="0.2098622" />
      <stop
         id="stop4297-8"
         style="stop-color:#c9c9c9;stop-opacity:1"
         offset="1" />
    </linearGradient>
    <radialGradient
       cx="48.30785"
       cy="47.141338"
       r="14.16129"
       id="radialGradient3168"
       xlink:href="#radialGradient3996-8"
       gradientUnits="userSpaceOnUse"
       gradientTransform="matrix(0.93962333,0.77477937,-1.7975241,2.1799696,88.130548,-93.365748)" />
    <linearGradient
       inkscape:collect="always"
       xlink:href="#linearGradient3918-8"
       id="linearGradient4549-8-1-3"
       gradientUnits="userSpaceOnUse"
       gradientTransform="translate(-3117.6016,-1600.2279)"
       x1="3113.439"
       y1="1664.3622"
       x2="3113.439"
       y2="1615.2279" />
    <linearGradient
       x1="31"
       y1="64"
       x2="31"
       y2="2"
       id="linearGradient3918-8"
       gradientUnits="userSpaceOnUse">
      <stop
         id="stop3920-3"
         style="stop-color:#d4d4d4;stop-opacity:1"
         offset="0" />
      <stop
         id="stop3922-3"
         style="stop-color:#e4e4e4;stop-opacity:1"
         offset="0.50050378" />
      <stop
         id="stop3924-1"
         style="stop-color:#d4d4d4;stop-opacity:1"
         offset="0.51612902" />
      <stop
         id="stop3926-6"
         style="stop-color:#e4e4e4;stop-opacity:1"
         offset="1" />
    </linearGradient>
    <linearGradient
       id="linearGradient4014">
      <stop
         style="stop-color:#00122b;stop-opacity:0.405947;"
         offset="0"
         id="stop4016" />
      <stop
         style="stop-color:#00122b;stop-opacity:0.18010753"
         offset="1"
         id="stop4018" />
    </linearGradient>
    <linearGradient
       inkscape:collect="always"
       xlink:href="#linearGradient3827-0-4"
       id="linearGradient3922-2-9"
       gradientUnits="userSpaceOnUse"
       x1="11"
       y1="11"
       x2="11"
       y2="0" />
    <linearGradient
       id="linearGradient3827-0-4">
      <stop
         style="stop-color:#70869a;stop-opacity:1;"
         offset="0"
         id="stop3829-7-8" />
      <stop
         id="stop3835-0-9"
         offset="0.81818181"
         style="stop-color:#edf0f4;stop-opacity:1;" />
      <stop
         style="stop-color:#d8dee4;stop-opacity:1;"
         offset="1"
         id="stop3831-9-9" />
    </linearGradient>
    <linearGradient
       inkscape:collect="always"
       xlink:href="#linearGradient3843-8-1"
       id="linearGradient3924-9-2"
       gradientUnits="userSpaceOnUse"
       x1="-10"
       y1="0"
       x2="-10"
       y2="11" />
    <linearGradient
       inkscape:collect="always"
       id="linearGradient3843-8-1">
      <stop
         style="stop-color:#ffffff;stop-opacity:0.07885305"
         offset="0"
         id="stop3845-0-9" />
      <stop
         id="stop3851-0-5"
         offset="0.18181853"
         style="stop-color:#ffffff;stop-opacity:0.34498209" />
      <stop
         style="stop-color:#ffffff;stop-opacity:0;"
         offset="1"
         id="stop3847-8-3" />
    </linearGradient>
    <linearGradient
       inkscape:collect="always"
       xlink:href="#linearGradient3827-0-4"
       id="linearGradient3918-2-8"
       gradientUnits="userSpaceOnUse"
       x1="11"
       y1="11"
       x2="11"
       y2="0" />
    <linearGradient
       inkscape:collect="always"
       xlink:href="#linearGradient3843-8-1"
       id="linearGradient3920-1-2"
       gradientUnits="userSpaceOnUse"
       x1="-10"
       y1="0"
       x2="-10"
       y2="11" />
    <linearGradient
       inkscape:collect="always"
       xlink:href="#linearGradient4482"
       id="linearGradient4488"
       x1="32"
       y1="15"
       x2="32"
       y2="18"
       gradientUnits="userSpaceOnUse"
       gradientTransform="matrix(1.1034483,0,0,1,-3.3103448,0)" />
    <linearGradient
       inkscape:collect="always"
       id="linearGradient4482">
      <stop
         style="stop-color:#000000;stop-opacity:0.22759856"
         offset="0"
         id="stop4484" />
      <stop
         style="stop-color:#000000;stop-opacity:0.07168459"
         offset="1"
         id="stop4486" />
    </linearGradient>
    <linearGradient
       id="linearGradient4490">
      <stop
         style="stop-color:#b95e55;stop-opacity:1"
         offset="0"
         id="stop4492" />
      <stop
         style="stop-color:#a4564f;stop-opacity:1;"
         offset="1"
         id="stop4494" />
    </linearGradient>
    <radialGradient
       r="32"
       fy="41.500004"
       fx="32"
       cy="41.500004"
       cx="32"
       gradientTransform="matrix(-2.1000745e-8,1.59375,-1.4375,-1.8941848e-8,91.656257,-35.999999)"
       gradientUnits="userSpaceOnUse"
       id="radialGradient5246"
       xlink:href="#linearGradient4490"
       inkscape:collect="always" />
    <radialGradient
       inkscape:collect="always"
       xlink:href="#linearGradient4014"
       id="radialGradient3477"
       gradientUnits="userSpaceOnUse"
       gradientTransform="matrix(2,0,0,2,-10,-23)"
       cx="10"
       cy="23"
       fx="10"
       fy="23"
       r="2" />
    <radialGradient
       inkscape:collect="always"
       xlink:href="#linearGradient4014"
       id="radialGradient4258"
       gradientUnits="userSpaceOnUse"
       gradientTransform="matrix(2,0,0,2,-10,-23)"
       cx="10"
       cy="23"
       fx="10"
       fy="23"
       r="2" />
  </defs>
  <metadata
     id="metadata13099">
    <rdf:RDF>
      <cc:Work
         rdf:about="">
        <dc:format>image/svg+xml</dc:format>
        <dc:type
           rdf:resource="http://purl.org/dc/dcmitype/StillImage" />
        <dc:title />
      </cc:Work>
    </rdf:RDF>
  </metadata>
  <path
     d="M 4,1 64,1 64,62 4,62 z"
     id="path3960"
     style="fill:#b4b4b4;fill-opacity:1;fill-rule:nonzero"
     inkscape:connector-curvature="0"
     sodipodi:nodetypes="ccccc" />
  <path
     d="m 60,2 4,4 0,31 -4,-4 z"
     id="path3900"
     style="fill:url(#radialGradient3811-9);fill-rule:nonzero" />
  <path
     d="m 60,33 4,4 0,25 -28.32258,0 z"
     id="path3934"
     style="fill:url(#radialGradient3168);fill-rule:nonzero" />
  <path
     style="fill:url(#linearGradient4308-8);fill-rule:nonzero"
     d="M 64 33 L 39 62 L 41 62 L 64 34.59375 L 64 33 z "
     id="path3922" />
  <path
     d="M 0,2 60,2 60,33 34,64 0,64 z"
     id="path4257"
     style="fill:url(#linearGradient4259-6);fill-rule:nonzero" />
  <path
     d="M 0,2 64,2 64,33 38,64 0,64 z"
     id="path3982"
     style="fill:url(#linearGradient4549-8-1-3);fill-rule:nonzero;color:#000000;fill-opacity:1;stroke:none;stroke-width:1;marker:none;visibility:visible;display:inline;overflow:visible;enable-background:accumulate"
     inkscape:connector-curvature="0"
     sodipodi:nodetypes="cccccc" />
  <path
     d="m 0,63 39,0 -1,1 -38,0 z"
     id="path4255"
     style="fill:#000000;fill-opacity:0.15547707;fill-rule:nonzero"
     inkscape:connector-curvature="0"
     sodipodi:nodetypes="ccccc" />
  <g
     transform="translate(40,28)"
     id="use3962">
    <rect
       ry="1"
       rx="1"
       style="color:#000000;fill:url(#radialGradient4258);fill-opacity:1;fill-rule:nonzero;stroke:none;stroke-width:2.28571415;marker:none;visibility:visible;display:inline;overflow:visible;enable-background:accumulate"
       id="rect4252"
       width="4"
       height="4"
       x="9"
       y="22" />
    <path
       inkscape:connector-curvature="0"
       id="path4254"
       d="m 10,22 c -0.554,0 -1,0.446 -1,1 l 0,2 c 0,0.554 0.446,1 1,1 l 0,-2 c 0,-0.554 0.446,-1 1,-1 l 2,0 c 0,-0.554 -0.446,-1 -1,-1 l -2,0 z"
       style="color:#000000;fill:#00122b;fill-opacity:0.13172045;fill-rule:nonzero;stroke:none;stroke-width:2.28571415;marker:none;visibility:visible;display:inline;overflow:visible;enable-background:accumulate" />
    <path
       inkscape:connector-curvature="0"
       id="path4256"
       d="m 13,23 0,2 c 0,0.554 -0.446,1 -1,1 l -2,0 c 0,0.554 0.446,1 1,1 l 2,0 c 0.554,0 1,-0.446 1,-1 l 0,-2 c 0,-0.554 -0.446,-1 -1,-1 z"
       style="color:#000000;fill:#ffffff;fill-opacity:0.1469534;fill-rule:nonzero;stroke:none;stroke-width:2.28571415000000000;marker:none;visibility:visible;display:inline;overflow:visible;enable-background:accumulate" />
  </g>
  <path
     sodipodi:nodetypes="cccccc"
     inkscape:connector-curvature="0"
     style="color:#000000;fill:url(#radialGradient5246);fill-opacity:1;fill-rule:nonzero;stroke:none;stroke-width:2.28571415;marker:none;visibility:visible;display:inline;overflow:visible;enable-background:accumulate"
     d="m 0,4 c 0,18.153961 0,43.296552 0,11 l 64,0 c 0,32.296552 0,7.153961 0,-11 L 32,4 z"
     id="path3786" />
  <path
     id="path6538"
     d="m 1.6362304e-8,18 c 0,-4.95108 0,-11.8081509 0,-3 L 64,15 c 0,-8.8081509 0,-1.95108 0,3 l -32,0 z"
     style="color:#000000;fill:url(#linearGradient4488);fill-opacity:1;fill-rule:nonzero;stroke:none;stroke-width:2.28571415;marker:none;visibility:visible;display:inline;overflow:visible;enable-background:accumulate"
     inkscape:connector-curvature="0"
     sodipodi:nodetypes="cccccc" />
  <path
     style="color:#000000;fill:#df8075;fill-opacity:1;fill-rule:nonzero;stroke:none;marker:none;visibility:visible;display:inline;overflow:visible;enable-background:accumulate"
     d="M 2,1 0,2 0,4 19.5625,4 39.125,4 64,4 64,2 62,1 39.125,1 19.5625,1 z"
     id="path6688"
     inkscape:connector-curvature="0"
     sodipodi:nodetypes="ccccccccccc" />
  <path
     style="fill:#ffffff;fill-opacity:0.16077737;fill-rule:nonzero"
     d="M 0,3 0,6 2,4 32,4 62,4 64,3 32,3 z"
     id="path4298"
     inkscape:connector-curvature="0"
     sodipodi:nodetypes="cccccccc" />
  <g
     id="g3870"
     transform="translate(4,0)">
    <rect
       y="0"
       x="9"
       height="11"
       width="4"
       id="rect3872"
       style="color:#000000;fill:url(#linearGradient3918-2-8);fill-opacity:1;fill-rule:nonzero;stroke:none;stroke-width:2.28571415;marker:none;visibility:visible;display:inline;overflow:visible;enable-background:accumulate" />
    <rect
       y="0"
       x="12"
       height="11"
       width="1"
       id="rect3874"
       style="color:#000000;fill:#000000;fill-opacity:0.15232975;fill-rule:nonzero;stroke:none;stroke-width:2.28571415;marker:none;visibility:visible;display:inline;overflow:visible;enable-background:accumulate" />
    <rect
       style="color:#000000;fill:url(#linearGradient3920-1-2);fill-opacity:1;fill-rule:nonzero;stroke:none;stroke-width:2.28571415;marker:none;visibility:visible;display:inline;overflow:visible;enable-background:accumulate"
       id="rect3876"
       width="1"
       height="11"
       x="-10"
       y="0"
       transform="scale(-1,1)" />
    <path
       style="color:#000000;fill:#000000;fill-opacity:0.18906812;fill-rule:nonzero;stroke:none;stroke-width:2.28571415;marker:none;visibility:visible;display:inline;overflow:visible;enable-background:accumulate"
       d="m 13,1 0,3.78125 C 13.447171,5.5060967 13.71875,6.3033913 13.71875,7 13.71875,7.6956056 13.446032,8.1672498 13,8.375 L 13,11 9.21875,11 c 0.6048231,0.520892 1.246914,0.994332 1.90625,1.375 C 14.926914,14.570036 18,13.270664 18,9.46875 18,7.7620839 17.370811,5.8533042 16.335855,4.0670776 15.435734,2.91762 14.316763,1.8994722 13,1 z"
       id="path3878"
       inkscape:connector-curvature="0"
       sodipodi:nodetypes="ccscccsscc" />
  </g>
  <g
     id="g3864"
     transform="translate(38,0)">
    <rect
       style="color:#000000;fill:url(#linearGradient3922-2-9);fill-opacity:1;fill-rule:nonzero;stroke:none;stroke-width:2.28571415;marker:none;visibility:visible;display:inline;overflow:visible;enable-background:accumulate"
       id="rect3837"
       width="4"
       height="11"
       x="9"
       y="0" />
    <rect
       style="color:#000000;fill:#000000;fill-opacity:0.15232975;fill-rule:nonzero;stroke:none;stroke-width:2.28571415;marker:none;visibility:visible;display:inline;overflow:visible;enable-background:accumulate"
       id="rect3841"
       width="1"
       height="11"
       x="12"
       y="0" />
    <rect
       transform="scale(-1,1)"
       y="0"
       x="-10"
       height="11"
       width="1"
       id="rect3825"
       style="color:#000000;fill:url(#linearGradient3924-9-2);fill-opacity:1;fill-rule:nonzero;stroke:none;stroke-width:2.28571415;marker:none;visibility:visible;display:inline;overflow:visible;enable-background:accumulate" />
    <path
       sodipodi:nodetypes="ccscccsscc"
       inkscape:connector-curvature="0"
       id="path3855"
       d="m 13,1 0,3.78125 C 13.447171,5.5060967 13.71875,6.3033913 13.71875,7 13.71875,7.6956056 13.446032,8.1672498 13,8.375 L 13,11 9.21875,11 c 0.6048231,0.520892 1.246914,0.994332 1.90625,1.375 C 14.926914,14.570036 18,13.270664 18,9.46875 18,7.7620839 17.370811,5.8533042 16.335855,4.0670776 15.435734,2.91762 14.316763,1.8994722 13,1 z"
       style="color:#000000;fill:#000000;fill-opacity:0.18906812;fill-rule:nonzero;stroke:none;stroke-width:2.28571415;marker:none;visibility:visible;display:inline;overflow:visible;enable-background:accumulate" />
  </g>
  <path
     d="M 64,6 62,4 64,3 z"
     id="path3028"
     style="fill:#000000;fill-opacity:0.10215053"
     inkscape:connector-curvature="0"
     sodipodi:nodetypes="cccc" />
  <g
     id="g3959"
     transform="translate(2,1)">
    <rect
       y="22"
       x="9"
       height="4"
       width="4"
       id="rect4227"
       style="color:#000000;fill:url(#radialGradient3477);fill-opacity:1;fill-rule:nonzero;stroke:none;stroke-width:2.28571415;marker:none;visibility:visible;display:inline;overflow:visible;enable-background:accumulate"
       rx="1"
       ry="1" />
    <path
       style="color:#000000;fill:#00122b;fill-opacity:0.13172045;fill-rule:nonzero;stroke:none;stroke-width:2.28571415;marker:none;visibility:visible;display:inline;overflow:visible;enable-background:accumulate"
       d="m 10,22 c -0.554,0 -1,0.446 -1,1 l 0,2 c 0,0.554 0.446,1 1,1 l 0,-2 c 0,-0.554 0.446,-1 1,-1 l 2,0 c 0,-0.554 -0.446,-1 -1,-1 l -2,0 z"
       id="rect4180"
       inkscape:connector-curvature="0" />
    <path
       style="color:#000000;fill:#ffffff;fill-opacity:0.43817204;fill-rule:nonzero;stroke:none;stroke-width:2.28571415;marker:none;visibility:visible;display:inline;overflow:visible;enable-background:accumulate"
       d="m 13,23 0,2 c 0,0.554 -0.446,1 -1,1 l -2,0 c 0,0.554 0.446,1 1,1 l 2,0 c 0.554,0 1,-0.446 1,-1 l 0,-2 c 0,-0.554 -0.446,-1 -1,-1 z"
       id="rect3955"
       inkscape:connector-curvature="0" />
  </g>
  <use
     x="0"
     y="0"
     xlink:href="#g3959"
     id="use3973"
     transform="translate(13,0)"
     width="64"
     height="64" />
  <use
     height="64"
     width="64"
     transform="translate(13,9)"
     id="use3991"
     xlink:href="#g3959"
     y="0"
     x="0" />
  <use
     x="0"
     y="0"
     xlink:href="#g3959"
     id="use3979"
     transform="translate(0,9)"
     width="64"
     height="64" />
  <use
     height="64"
     width="64"
     transform="translate(13,18)"
     id="use3993"
     xlink:href="#g3959"
     y="0"
     x="0" />
  <use
     x="0"
     y="0"
     xlink:href="#g3959"
     id="use3985"
     transform="translate(0,18)"
     width="64"
     height="64" />
  <use
     x="0"
     y="0"
     xlink:href="#g3959"
     id="use3995"
     transform="translate(13,27)"
     width="64"
     height="64" />
  <use
     height="64"
     width="64"
     transform="translate(0,27)"
     id="use3969"
     xlink:href="#g3959"
     y="0"
     x="0" />
  <use
     x="0"
     y="0"
     xlink:href="#g3959"
     id="use3975"
     transform="translate(25,0)"
     width="64"
     height="64" />
  <use
     x="0"
     y="0"
     xlink:href="#g3959"
     id="use3981"
     transform="translate(25,9)"
     width="64"
     height="64" />
  <use
     x="0"
     y="0"
     xlink:href="#g3959"
     id="use3987"
     transform="translate(25,18)"
     width="64"
     height="64" />
  <use
     height="64"
     width="64"
     transform="translate(25,27)"
     id="use3971"
     xlink:href="#g3959"
     y="0"
     x="0" />
  <use
     height="64"
     width="64"
     transform="translate(38,0)"
     id="use3977"
     xlink:href="#g3959"
     y="0"
     x="0" />
  <use
     height="64"
     width="64"
     transform="translate(38,9)"
     id="use3983"
     xlink:href="#g3959"
     y="0"
     x="0" />
  <path
     d="m 63,32 c -2.328567,2.776369 -4.36141,3 -11,3 l -12,0 0,15 c 0,6.644068 0.04437,9.370179 -3,13 4,-5 4.000382,-8.356667 4,-13 l 0,-14 11,0 c 5,0 8.041405,-0.381883 11,-4 z"
     id="path4282"
     style="fill:#ffffff;fill-opacity:0.77120146;fill-rule:nonzero"
     inkscape:connector-curvature="0"
     sodipodi:nodetypes="cscscccsc" />
  <path
     d="M 38,64 64,33 c -2.328567,2.776369 -4.36141,3 -11,3 l -12,0 0,15 c 0,6.644068 0.04437,9.370179 -3,13 z"
     id="path4278"
     style="fill:url(#linearGradient4280-7);fill-rule:nonzero"
     inkscape:connector-curvature="0"
     sodipodi:nodetypes="ccscsc" />
  <path
     style="color:#000000;fill:#ffffff;fill-opacity:0.30107529999999999;fill-rule:nonzero;stroke:none;stroke-width:1;marker:none;visibility:visible;display:inline;overflow:visible;enable-background:accumulate;stroke-linecap:butt;stroke-linejoin:miter;stroke-miterlimit:4;stroke-opacity:1;stroke-dasharray:none;stroke-dashoffset:0"
     d="M 1 1.5 L 0 2 L 0 4 L 0 64 L 1 64 L 1 1.5 z "
     id="rect4260" />
  <path
     d="M 63,3 63,61 40.542373,61 39.677419,62 63,62 l 1,0 0,-1 0,-58 z"
     id="path4299"
     style="fill:#000000;fill-opacity:0.0715548;fill-rule:nonzero"
     inkscape:connector-curvature="0"
     sodipodi:nodetypes="ccccccccc" />
</svg>
