<?xml version="1.0" encoding="UTF-8" standalone="no"?>
<!-- Created with Inkscape (http://www.inkscape.org/) -->

<svg
   xmlns:dc="http://purl.org/dc/elements/1.1/"
   xmlns:cc="http://creativecommons.org/ns#"
   xmlns:rdf="http://www.w3.org/1999/02/22-rdf-syntax-ns#"
   xmlns:svg="http://www.w3.org/2000/svg"
   xmlns="http://www.w3.org/2000/svg"
   xmlns:xlink="http://www.w3.org/1999/xlink"
   xmlns:sodipodi="http://sodipodi.sourceforge.net/DTD/sodipodi-0.dtd"
   xmlns:inkscape="http://www.inkscape.org/namespaces/inkscape"
   version="1.1"
   width="64"
   height="64"
   id="svg13094"
   inkscape:version="0.48.3.1 r9886"
   sodipodi:docname="svg.svg">
  <sodipodi:namedview
     pagecolor="#ffffff"
     bordercolor="#666666"
     borderopacity="1"
     objecttolerance="10"
     gridtolerance="10"
     guidetolerance="10"
     inkscape:pageopacity="0"
     inkscape:pageshadow="2"
     inkscape:window-width="1920"
     inkscape:window-height="1033"
     id="namedview49"
     showgrid="false"
     inkscape:zoom="10.429825"
     inkscape:cx="33.217952"
     inkscape:cy="31.45912"
     inkscape:window-x="-10"
     inkscape:window-y="25"
     inkscape:window-maximized="1"
     inkscape:current-layer="svg13094" />
  <defs
     id="defs11">
    <linearGradient
       gradientTransform="translate(0,-64)"
       gradientUnits="userSpaceOnUse"
       id="linearGradient4027"
       y2="88"
       x2="32.669781"
       y1="110.2137"
       x1="48.917568">
      <stop
         offset="0"
         style="stop-color:#6bb8db;stop-opacity:1"
         id="stop4029" />
      <stop
         offset="0.50050378"
         style="stop-color:#85caea;stop-opacity:1"
         id="stop4031" />
      <stop
         offset="0.51600277"
         style="stop-color:#6bb8db;stop-opacity:1"
         id="stop4033" />
      <stop
         offset="1"
         style="stop-color:#85caea;stop-opacity:1"
         id="stop4035" />
    </linearGradient>
    <linearGradient
       gradientUnits="userSpaceOnUse"
       id="linearGradient3978"
       y2="2"
       x2="31"
       y1="64"
       x1="31">
      <stop
         offset="0"
         style="stop-color:#5380b2;stop-opacity:1"
         id="stop3980" />
      <stop
         offset="0.5"
         style="stop-color:#5a96cc;stop-opacity:1"
         id="stop3982" />
      <stop
         offset="0.51612902"
         style="stop-color:#5380b2;stop-opacity:1"
         id="stop3984" />
      <stop
         offset="1"
         style="stop-color:#5a96cc;stop-opacity:1"
         id="stop3986" />
    </linearGradient>
    <radialGradient
       cx="60.561817"
       cy="21.045019"
       r="2"
       fx="59.603962"
       fy="21.240686"
       id="radialGradient3811-3"
       xlink:href="#radialGradient3996"
       gradientUnits="userSpaceOnUse"
       gradientTransform="matrix(0,19.318815,-3.4300596,0,132.74749,-1136.9636)" />
    <radialGradient
       cx="48.30785"
       cy="47.141338"
       r="14.16129"
       id="radialGradient3996"
       gradientUnits="userSpaceOnUse"
       gradientTransform="matrix(0.93962333,0.77477937,-1.7975241,2.1799696,88.130548,-93.365748)">
      <stop
         id="stop3954"
         style="stop-color:#000000;stop-opacity:0.22264875"
         offset="0" />
      <stop
         id="stop3958"
         style="stop-color:#000000;stop-opacity:0.0678183"
         offset="0.5" />
      <stop
         id="stop3956"
         style="stop-color:#000000;stop-opacity:0.02431222"
         offset="1" />
    </radialGradient>
    <linearGradient
       x1="45"
       y1="52"
       x2="73"
       y2="4"
       id="linearGradient4308"
       gradientUnits="userSpaceOnUse">
      <stop
         id="stop4304"
         style="stop-color:#000000;stop-opacity:0.10677083"
         offset="0" />
      <stop
         id="stop4306"
         style="stop-color:#000000;stop-opacity:0"
         offset="1" />
    </linearGradient>
    <linearGradient
       x1="48.917568"
       y1="46.213669"
       x2="32.669781"
       y2="24"
       id="linearGradient4259"
       gradientUnits="userSpaceOnUse">
      <stop
         id="stop3988"
         style="stop-color:#ffffff;stop-opacity:0.52975047"
         offset="0" />
      <stop
         id="stop3990"
         style="stop-color:#ffffff;stop-opacity:0"
         offset="1" />
    </linearGradient>
    <linearGradient
       x1="48.992088"
       y1="46.124821"
       x2="37"
       y2="36"
       id="linearGradient4280"
       gradientUnits="userSpaceOnUse">
      <stop
         id="stop4293"
         style="stop-color:#4c79aa;stop-opacity:1"
         offset="0" />
      <stop
         id="stop4295"
         style="stop-color:#466b95;stop-opacity:1"
         offset="0.2098622" />
      <stop
         id="stop4297"
         style="stop-color:#4a7aae;stop-opacity:1"
         offset="1" />
    </linearGradient>
    <radialGradient
       cx="48.30785"
       cy="47.141338"
       r="14.16129"
       id="radialGradient3220"
       xlink:href="#radialGradient3996"
       gradientUnits="userSpaceOnUse"
       gradientTransform="matrix(0.93962333,0.77477937,-1.7975241,2.1799696,88.130548,-93.365748)" />
    <linearGradient
       x1="31"
       y1="64"
       x2="31"
       y2="2"
       id="linearGradient3918"
       gradientUnits="userSpaceOnUse">
      <stop
         id="stop3920"
         style="stop-color:#d4d4d4;stop-opacity:1"
         offset="0" />
      <stop
         id="stop3922"
         style="stop-color:#e4e4e4;stop-opacity:1"
         offset="0.50050378" />
      <stop
         id="stop3924"
         style="stop-color:#d4d4d4;stop-opacity:1"
         offset="0.51612902" />
      <stop
         id="stop3926"
         style="stop-color:#e4e4e4;stop-opacity:1"
         offset="1" />
    </linearGradient>
    <linearGradient
       inkscape:collect="always"
       xlink:href="#linearGradient3918-1"
       id="linearGradient4549-8-1-7"
       gradientUnits="userSpaceOnUse"
       gradientTransform="translate(-3117.6016,-1600.2279)"
       x1="3113.439"
       y1="1664.3622"
       x2="3113.439"
       y2="1602.3622" />
    <linearGradient
       x1="31"
       y1="64"
       x2="31"
       y2="2"
       id="linearGradient3918-1"
       gradientUnits="userSpaceOnUse">
      <stop
         id="stop3920-8"
         style="stop-color:#d4d4d4;stop-opacity:1"
         offset="0" />
      <stop
         id="stop3922-0"
         style="stop-color:#e4e4e4;stop-opacity:1"
         offset="0.50050378" />
      <stop
         id="stop3924-0"
         style="stop-color:#d4d4d4;stop-opacity:1"
         offset="0.51612902" />
      <stop
         id="stop3926-8"
         style="stop-color:#e4e4e4;stop-opacity:1"
         offset="1" />
    </linearGradient>
    <linearGradient
       inkscape:collect="always"
       xlink:href="#linearGradient3918"
       id="linearGradient4424"
       gradientUnits="userSpaceOnUse"
       gradientTransform="matrix(-0.76971459,0,0,0.76971459,2443.1329,-1224.311)"
       x1="3146.6721"
       y1="1673.7533"
       x2="3146.6721"
       y2="1593.2551" />
    <linearGradient
       inkscape:collect="always"
       xlink:href="#linearGradient3978"
       id="linearGradient4366-4"
       gradientUnits="userSpaceOnUse"
       x1="-12.208954"
       y1="64.001335"
       x2="-12.208954"
       y2="2.0407369"
       gradientTransform="translate(33.302414,-9.8049317e-7)" />
    <linearGradient
       inkscape:collect="always"
       xlink:href="#linearGradient4027"
       id="linearGradient3350"
       gradientUnits="userSpaceOnUse"
       gradientTransform="translate(-5885.1372,-63.865697)"
       x1="5913.1045"
       y1="162.56892"
       x2="5913.1045"
       y2="35.112801" />
  </defs>
  <metadata
     id="metadata13099">
    <rdf:RDF>
      <cc:Work
         rdf:about="">
        <dc:format>image/svg+xml</dc:format>
        <dc:type
           rdf:resource="http://purl.org/dc/dcmitype/StillImage" />
        <dc:title />
      </cc:Work>
    </rdf:RDF>
  </metadata>
  <path
     d="M 4,0 64,0 64,62 4,62 z"
     id="path3960"
     style="fill:#40668f;fill-opacity:1;fill-rule:nonzero" />
  <path
     d="m 60,2 4,4 0,31 -4,-4 z"
     id="path3900"
     style="fill:url(#radialGradient3811-3);fill-rule:nonzero" />
  <path
     d="M 63,0 V 61 H 4 v 1 h 59 1 V 61 0 h -1 z"
     id="path4299"
     style="fill:#000000;fill-opacity:0.0715548;fill-rule:nonzero" />
  <path
     d="M 60,2 60,33 35,62 37,62 60.78125,33.65625 61,33.375 61,33 61,3 z"
     id="path3922"
     style="fill:url(#linearGradient4308);fill-rule:nonzero" />
  <path
     d="M 0,2 60,2 60,33 34,64 0,64 z"
     id="path4257"
     style="fill:url(#linearGradient4259);fill-rule:nonzero" />
  <path
     d="M 0,2 60,2 60,33 34,64 0,64 z"
     id="path3982"
     style="fill:url(#linearGradient4366-4);fill-rule:nonzero;color:#000000;fill-opacity:1;stroke:none;stroke-width:1;marker:none;visibility:visible;display:inline;overflow:visible;enable-background:accumulate" />
  <path
     d="M 0,2 60,2 60,3 0,3 z"
     id="path4253"
     style="fill:#8ac0e7;fill-opacity:1;fill-rule:nonzero" />
  <path
     d="m 0,63 35,0 -1,1 -34,0 z"
     id="path4255"
     style="fill:#000000;fill-opacity:0.15547707;fill-rule:nonzero" />
  <path
     d="M 4,0 64,0 64,1 4,1 z"
     id="path3878"
     style="fill:#8ac0e7;fill-opacity:1;fill-rule:nonzero" />
  <path
     inkscape:connector-curvature="0"
     style="fill:#ffffff;fill-opacity:0.0415194;fill-rule:nonzero"
     id="path3948"
     d="m 0,2 0,3 0,1 0,4 0,1 0,4 0,1 0,4 0,1 0,4 0,1 0,4 0,1 0,4 0,1 0,4 0,1 0,4 0,1 0,4 0,1 0,4 0,1 0,4 0,1 0,3 1,0 0,-3 4,0 0,3 1,0 0,-3 4,0 0,3 1,0 0,-3 4,0 0,3 1,0 0,-3 4,0 0,3 1,0 0,-3 4,0 0,3 1,0 0,-3 4,0 0,3 1,0 0,-3 4,0 0,1.8125 1,-1.1875 0,-0.625 0.53125,0 0.8125,-1 L 36,60 l 0,-4 4,0 0,0.84375 L 41.5625,55 41,55 41,51 44.90625,51 46,49.6875 46,46 49.09375,46 49.9375,45 46,45 l 0,-4 4,0 0,3.9375 1,-1.21875 L 51,41 53.28125,41 54.125,40 51,40 l 0,-4 4,0 0,2.96875 1,-1.1875 L 56,36 57.46875,36 58.3125,35 56,35 l 0,-4 4,0 0,-1 -4,0 0,-4 4,0 0,-1 -4,0 0,-4 4,0 0,-1 -4,0 0,-4 4,0 0,-1 -4,0 0,-4 4,0 0,-1 -4,0 0,-4 4,0 0,-1 -4,0 0,-3 -1,0 0,3 -4,0 0,-3 -1,0 0,3 -4,0 0,-3 -1,0 0,3 -4,0 0,-3 -1,0 0,3 -4,0 0,-3 -1,0 0,3 -4,0 0,-3 -1,0 0,3 -4,0 0,-3 -1,0 0,3 -4,0 0,-3 -1,0 0,3 -4,0 0,-3 -1,0 0,3 -4,0 0,-3 -1,0 0,3 L 6,5 6,2 5,2 5,5 1,5 1,2 0,2 z m 1,4 4,0 0,4 -4,0 0,-4 z m 5,0 4,0 0,4 -4,0 0,-4 z m 5,0 4,0 0,4 -4,0 0,-4 z m 5,0 4,0 0,4 -4,0 0,-4 z m 5,0 4,0 0,4 -4,0 0,-4 z m 5,0 4,0 0,4 -4,0 0,-4 z m 5,0 4,0 0,4 -4,0 0,-4 z m 5,0 4,0 0,4 -4,0 0,-4 z m 5,0 4,0 0,4 -4,0 0,-4 z m 5,0 4,0 0,4 -4,0 0,-4 z m 5,0 4,0 0,4 -4,0 0,-4 z m -50,5 4,0 0,4 -4,0 0,-4 z m 5,0 4,0 0,4 -4,0 0,-4 z m 5,0 4,0 0,4 -4,0 0,-4 z m 5,0 4,0 0,4 -4,0 0,-4 z m 5,0 4,0 0,4 -4,0 0,-4 z m 5,0 4,0 0,4 -4,0 0,-4 z m 5,0 4,0 0,4 -4,0 0,-4 z m 5,0 4,0 0,4 -4,0 0,-4 z m 5,0 4,0 0,4 -4,0 0,-4 z m 5,0 4,0 0,4 -4,0 0,-4 z m 5,0 4,0 0,4 -4,0 0,-4 z m -50,5 4,0 0,4 -4,0 0,-4 z m 5,0 4,0 0,4 -4,0 0,-4 z m 5,0 4,0 0,4 -4,0 0,-4 z m 5,0 4,0 0,4 -4,0 0,-4 z m 5,0 4,0 0,4 -4,0 0,-4 z m 5,0 4,0 0,4 -4,0 0,-4 z m 5,0 4,0 0,4 -4,0 0,-4 z m 5,0 4,0 0,4 -4,0 0,-4 z m 5,0 4,0 0,4 -4,0 0,-4 z m 5,0 4,0 0,4 -4,0 0,-4 z m 5,0 4,0 0,4 -4,0 0,-4 z m -50,5 4,0 0,4 -4,0 0,-4 z m 5,0 4,0 0,4 -4,0 0,-4 z m 5,0 4,0 0,4 -4,0 0,-4 z m 5,0 4,0 0,4 -4,0 0,-4 z m 5,0 4,0 0,4 -4,0 0,-4 z m 5,0 4,0 0,4 -4,0 0,-4 z m 5,0 4,0 0,4 -4,0 0,-4 z m 5,0 4,0 0,4 -4,0 0,-4 z m 5,0 4,0 0,4 -4,0 0,-4 z m 5,0 4,0 0,4 -4,0 0,-4 z m 5,0 4,0 0,4 -4,0 0,-4 z m -50,5 4,0 0,4 -4,0 0,-4 z m 5,0 4,0 0,4 -4,0 0,-4 z m 5,0 4,0 0,4 -4,0 0,-4 z m 5,0 4,0 0,4 -4,0 0,-4 z m 5,0 4,0 0,4 -4,0 0,-4 z m 5,0 4,0 0,4 -4,0 0,-4 z m 5,0 4,0 0,4 -4,0 0,-4 z m 5,0 4,0 0,4 -4,0 0,-4 z m 5,0 4,0 0,4 -4,0 0,-4 z m 5,0 4,0 0,4 -4,0 0,-4 z m 5,0 4,0 0,4 -4,0 0,-4 z m -50,5 4,0 0,4 -4,0 0,-4 z m 5,0 4,0 0,4 -4,0 0,-4 z m 5,0 4,0 0,4 -4,0 0,-4 z m 5,0 4,0 0,4 -4,0 0,-4 z m 5,0 4,0 0,4 -4,0 0,-4 z m 5,0 4,0 0,4 -4,0 0,-4 z m 5,0 4,0 0,4 -4,0 0,-4 z m 5,0 4,0 0,4 -4,0 0,-4 z m 5,0 4,0 0,4 -4,0 0,-4 z m 5,0 4,0 0,4 -4,0 0,-4 z m 5,0 4,0 0,4 -4,0 0,-4 z m -50,5 4,0 0,4 -4,0 0,-4 z m 5,0 4,0 0,4 -4,0 0,-4 z m 5,0 4,0 0,4 -4,0 0,-4 z m 5,0 4,0 0,4 -4,0 0,-4 z m 5,0 4,0 0,4 -4,0 0,-4 z m 5,0 4,0 0,4 -4,0 0,-4 z m 5,0 4,0 0,4 -4,0 0,-4 z m 5,0 4,0 0,4 -4,0 0,-4 z m 5,0 4,0 0,4 -4,0 0,-4 z m 5,0 4,0 0,4 -4,0 0,-4 z m -45,5 4,0 0,4 -4,0 0,-4 z m 5,0 4,0 0,4 -4,0 0,-4 z m 5,0 4,0 0,4 -4,0 0,-4 z m 5,0 4,0 0,4 -4,0 0,-4 z m 5,0 4,0 0,4 -4,0 0,-4 z m 5,0 4,0 0,4 -4,0 0,-4 z m 5,0 4,0 0,4 -4,0 0,-4 z m 5,0 4,0 0,4 -4,0 0,-4 z m 5,0 4,0 0,4 -4,0 0,-4 z m -40,5 4,0 0,4 -4,0 0,-4 z m 5,0 4,0 0,4 -4,0 0,-4 z m 5,0 4,0 0,4 -4,0 0,-4 z m 5,0 4,0 0,4 -4,0 0,-4 z m 5,0 4,0 0,4 -4,0 0,-4 z m 5,0 4,0 0,4 -4,0 0,-4 z m 5,0 4,0 0,4 -4,0 0,-4 z m 5,0 4,0 0,4 -4,0 0,-4 z m 5,0 4,0 0,4 -4,0 0,-4 z m -40,5 4,0 0,4 -4,0 0,-4 z m 5,0 4,0 0,4 -4,0 0,-4 z m 5,0 4,0 0,4 -4,0 0,-4 z m 5,0 4,0 0,4 -4,0 0,-4 z m 5,0 4,0 0,4 -4,0 0,-4 z m 5,0 4,0 0,4 -4,0 0,-4 z m 5,0 4,0 0,4 -4,0 0,-4 z m 5,0 4,0 0,4 -4,0 0,-4 z m -35,5 4,0 0,4 -4,0 0,-4 z m 5,0 4,0 0,4 -4,0 0,-4 z m 5,0 4,0 0,4 -4,0 0,-4 z m 5,0 4,0 0,4 -4,0 0,-4 z m 5,0 4,0 0,4 -4,0 0,-4 z m 5,0 4,0 0,4 -4,0 0,-4 z m 5,0 4,0 0,4 -4,0 0,-4 z" />
  <path
     transform="matrix(-0.48613273,0,0,0.48613273,34.689276,16.01846)"
     style="color:#000000;fill:url(#linearGradient3350);fill-opacity:1;fill-rule:nonzero;stroke:none;stroke-width:2.05705136999999993;marker:none;visibility:visible;display:inline;overflow:visible;enable-background:accumulate"
     inkscape:transform-center-x="2.1194157"
     inkscape:transform-center-y="-2.3616347"
     d="m 32.940523,-0.94444303 c 0.02157,3.02817183 0.04314,6.05634373 0.06471,9.08451553 0,0 -0.459021,-0.019423 -1.323828,0.024794 -0.864807,0.044217 -2.141285,0.1584016 -3.734601,0.5260274 -1.593315,0.3676259 -3.509418,0.9943306 -5.518728,2.0729028 -2.00931,1.078573 -4.11437,2.6129 -5.88477,4.732947 -1.398409,1.635059 -2.602366,3.67404 -3.425014,6.000918 -0.822649,2.326878 -1.262987,4.940525 -1.124746,7.603916 0.118333,2.308257 0.707478,4.703907 1.763431,6.925243 1.055953,2.221335 2.578228,4.26605 4.522616,5.829274 3.007478,2.483148 7.202864,3.849442 11.263217,3.588916 3.997092,-0.254652 8.013299,-2.233615 10.38701,-5.353411 1.946761,-2.489173 2.879403,-5.818344 2.620962,-8.909454 -0.134431,-1.609396 -0.628915,-3.195339 -1.394254,-4.579041 -0.765339,-1.383701 -1.801317,-2.564603 -3.025295,-3.412169 -1.910378,-1.3642 -4.360146,-1.909825 -6.545632,-1.652651 -1.193716,0.141557 -2.344071,0.567591 -3.306738,1.178305 -0.962668,0.610714 -1.737828,1.406116 -2.24967,2.305075 -0.772918,1.295298 -0.947831,2.877659 -0.695953,4.210041 0.147811,0.763764 0.509651,1.471761 0.965598,2.003477 0.455946,0.531715 1.006734,0.88898 1.575777,1.053356 0.340732,0.133284 0.734637,0.111991 1.108722,0.02869 0.374085,-0.0833 0.729175,-0.229445 1.033588,-0.385811 0.341893,-0.212997 0.599391,-0.409091 0.679367,-0.631388 0.151151,-0.241667 0.03214,-0.556816 -0.03803,-0.765753 -0.07017,-0.208938 -0.116745,-0.335671 -0.07289,-0.379523 0.04385,-0.04385 0.183418,-0.01429 0.383545,0.160952 0.100063,0.08762 0.213572,0.213897 0.307394,0.397367 0.09382,0.18347 0.16931,0.424598 0.152157,0.741912 -0.06682,0.471331 -0.360198,0.981724 -0.804871,1.328655 -0.320227,0.288295 -0.732712,0.57129 -1.246578,0.770581 -0.513866,0.199292 -1.12985,0.31578 -1.831729,0.217571 -0.86622,-0.154298 -1.752879,-0.555478 -2.527264,-1.22754 -0.774384,-0.672062 -1.437235,-1.616838 -1.784927,-2.769556 -0.548026,-1.761446 -0.554286,-3.930471 0.406799,-5.988526 0.641765,-1.331979 1.618664,-2.553108 2.880232,-3.531399 1.261568,-0.978291 2.808039,-1.713631 4.523166,-2.045881 2.960288,-0.580995 6.325315,-0.119993 9.248707,1.657198 1.797233,1.115871 3.359392,2.650225 4.556037,4.490538 1.196646,1.840313 2.027406,3.986084 2.353767,6.275881 0.607073,4.232819 -0.359256,8.81225 -2.957586,12.588742 -3.208639,4.575793 -8.453813,7.635361 -14.141323,8.276818 C 24.489895,52.132607 18.694859,50.580854 14.136962,47.207536 11.279343,45.053457 9.0025855,42.309465 7.3782545,39.28753 5.7539235,36.265595 4.7826288,32.968007 4.4752872,29.672703 c -0.3462151,-3.713952 0.096891,-7.346533 1.1137,-10.639493 1.0168086,-3.292961 2.6060763,-6.245174 4.5334888,-8.725463 2.45806,-3.1122174 5.308407,-5.3922171 8.050028,-7.0185375 2.741621,-1.6263204 5.376179,-2.60459463 7.596416,-3.20228206 2.220237,-0.59768743 4.031005,-0.82268536 5.267672,-0.92891975 1.236666,-0.10623439 1.903931,-0.10245072 1.903931,-0.10245072 z"
     id="path3031" />
  <path
     style="color:#000000;fill:url(#linearGradient4424);fill-opacity:1;fill-rule:nonzero;stroke:none;stroke-width:1.29918288999999998;marker:none;visibility:visible;display:inline;overflow:visible;enable-background:accumulate"
     d="M 17.0625 7.28125 C 14.617152 7.344561 12.24747 7.7837219 10.0625 8.5 C 7.1492065 9.4550375 4.5434499 10.903988 2.375 12.65625 C 1.5015287 13.37297 0.72472293 14.132927 0 14.90625 L 0 29.9375 C 0.044840998 29.589712 0.11547511 29.201369 0.1875 28.8125 C 0.47560032 27.257022 1.0103756 25.387653 2 23.40625 C 2.9896251 21.424846 4.4460751 19.34154 6.5 17.59375 C 8.0205057 16.272104 9.8996597 15.124104 12.0625 14.34375 C 14.22534 13.563396 16.66887 13.13268 19.15625 13.25 C 21.306569 13.350175 23.515052 13.907144 25.59375 14.875 C 27.672447 15.842856 29.597326 17.22567 31.09375 19.03125 C 33.514352 21.889132 34.877 25.909908 34.65625 29.84375 C 34.443176 33.673446 32.61179 37.552739 29.625 39.9375 C 27.167196 41.943394 23.838555 42.936902 20.6875 42.71875 C 17.463509 42.496529 14.346957 40.88628 12.5 38.4375 C 10.950092 36.428735 10.251517 33.796306 10.46875 31.375 C 10.584331 30.087433 10.97862 28.838934 11.59375 27.75 C 12.208879 26.661066 13.033209 25.724406 14 25.0625 C 15.535346 23.984231 17.471367 23.597198 19.1875 23.8125 C 20.139838 23.932914 21.0561 24.25883 21.8125 24.75 C 22.5689 25.24117 23.163625 25.881468 23.5625 26.59375 C 24.16922 27.63589 24.303353 28.892125 24.09375 29.9375 C 23.968514 30.548415 23.649662 31.115095 23.28125 31.53125 C 22.912838 31.947405 22.483616 32.218371 22.03125 32.34375 C 21.749122 32.444553 21.420254 32.41424 21.125 32.34375 C 20.829747 32.27326 20.578336 32.158368 20.34375 32.03125 C 20.074926 31.859932 19.873197 31.683903 19.8125 31.5 C 19.702068 31.292851 19.783004 31.065104 19.84375 30.90625 C 19.904496 30.747396 19.966691 30.654192 19.9375 30.625 C 19.908305 30.595805 19.803423 30.613695 19.65625 30.75 C 19.582665 30.818166 19.505968 30.923772 19.4375 31.0625 C 19.369034 31.201229 19.296137 31.390359 19.3125 31.625 C 19.364656 31.97434 19.600135 32.333543 19.9375 32.59375 C 20.182697 32.808174 20.48699 33.008974 20.875 33.15625 C 21.263011 33.303526 21.727859 33.39027 22.25 33.3125 C 22.898753 33.193395 23.577144 32.884245 24.15625 32.375 C 24.735356 31.865755 25.211266 31.150603 25.46875 30.28125 C 25.872952 28.952581 25.888525 27.328565 25.15625 25.78125 C 24.671394 24.7845 23.92249 23.858438 22.96875 23.125 C 22.015011 22.391561 20.829286 21.839885 19.53125 21.59375 C 17.306564 21.167156 14.767772 21.522301 12.5625 22.875 C 11.221543 23.712862 10.054927 24.860858 9.15625 26.25 C 8.257572 27.639142 7.6482983 29.292588 7.40625 31.03125 C 6.9632846 34.196502 7.6732636 37.638468 9.65625 40.5 C 10.850552 42.195092 12.424117 43.620271 14.25 44.6875 C 16.075882 45.754728 18.168477 46.448177 20.34375 46.6875 C 24.493289 47.144866 28.847786 46.040505 32.34375 43.4375 C 36.483686 40.305354 39.122389 35.398909 39.59375 30.21875 C 40.068106 25.00225 38.490137 19.694339 35.3125 15.625 C 33.322279 13.116229 30.813278 11.169924 28.09375 9.78125 C 25.374221 8.3925757 22.449763 7.5700359 19.53125 7.34375 C 18.701348 7.27958 17.877616 7.2601463 17.0625 7.28125 z "
     id="path3942" />
  <path
     style="font-size:medium;font-style:normal;font-variant:normal;font-weight:normal;font-stretch:normal;text-indent:0;text-align:start;text-decoration:none;line-height:normal;letter-spacing:normal;word-spacing:normal;text-transform:none;direction:ltr;block-progression:tb;writing-mode:lr-tb;text-anchor:start;baseline-shift:baseline;color:#000000;fill:url(#linearGradient4549-8-1-7);fill-opacity:1;fill-rule:nonzero;stroke:none;stroke-width:1;marker:none;visibility:visible;display:inline;overflow:visible;enable-background:accumulate;font-family:Sans;-inkscape-font-specification:Sans"
     d="m 4.7965498,35.147554 c -0.7245503,-0.724549 -1.8974948,-0.74125 -2.6220444,-0.0167 -0.7245496,0.724551 -0.7245496,1.914196 8e-7,2.638746 0.673692,0.673692 1.7415957,0.712723 2.4717352,0.133607 l 4.9601724,4.960172 -0.450925,0.450925 -0.267214,0.267215 0.267215,0.267214 1.6867912,1.686794 0.267215,0.267214 0.267214,-0.267215 0.450925,-0.450924 12.609193,12.609192 c -0.578459,0.730126 -0.539843,1.798286 0.133608,2.471736 0.724549,0.724551 1.914195,0.724551 2.638745,0 0.72455,-0.724549 0.707849,-1.897493 -0.0167,-2.622043 -0.587672,-0.587673 -1.471996,-0.695501 -2.171119,-0.334019 L 12.362066,44.550172 12.81299,44.099247 13.080205,43.832032 12.81299,43.564818 11.126197,41.878025 10.858982,41.610811 10.591768,41.878025 10.140843,42.32895 5.1305691,37.318674 c 0.3638008,-0.699699 0.254678,-1.582422 -0.3340186,-2.171119 z m -0.5344295,0.53443 c 0.3449474,0.344947 0.413969,0.843377 0.2171118,1.252569 l -0.400822,0.400822 0.033399,0.03341 c -0.4332479,0.299558 -1.0162276,0.253041 -1.4028769,-0.133607 -0.4357224,-0.435723 -0.4357239,-1.134163 0,-1.569886 0.4357232,-0.435724 1.1174622,-0.419023 1.5531853,0.0167 z M 26.65805,58.077915 c 0.435724,0.435723 0.452425,1.117462 0.0167,1.553186 -0.435724,0.435723 -1.134163,0.435722 -1.569886,0 -0.435723,-0.435723 -0.435724,-1.134163 0,-1.569887 0.435723,-0.435723 1.117462,-0.419022 1.553184,0.0167 z m -15.799068,-15.398246 1.152364,1.152363 -0.90185,0.901849 -1.1523625,-1.152363 0.9018485,-0.901849 z"
     id="path4178"
     inkscape:connector-curvature="0" />
  <path
     d="m 60,33 4,4 0,25 -28.32258,0 z"
     id="path3934"
     style="fill:url(#radialGradient3220);fill-rule:nonzero" />
  <path
     d="M 34,64 60,33 c -2.328567,2.776369 -4.36141,3 -11,3 H 37 v 15 c 0,6.644068 0.04437,9.370179 -3,13 z"
     id="path4278"
     style="fill:url(#linearGradient4280);fill-rule:nonzero" />
  <path
     d="m 59,32 c -2.328567,2.776369 -4.36141,3 -11,3 H 36 v 15 c 0,6.644068 0.04437,9.370179 -3,13 4,-5 4.000382,-8.356667 4,-13 V 36 h 11 c 5,0 8.041405,-0.381883 11,-4 z"
     id="path4282"
     style="fill:#8ac0e7;fill-opacity:1;fill-rule:nonzero"
     inkscape:connector-curvature="0" />
</svg>
