<?xml version="1.0" encoding="UTF-8" standalone="no"?>
<!-- Created with Inkscape (http://www.inkscape.org/) -->

<svg
   xmlns:dc="http://purl.org/dc/elements/1.1/"
   xmlns:cc="http://creativecommons.org/ns#"
   xmlns:rdf="http://www.w3.org/1999/02/22-rdf-syntax-ns#"
   xmlns:svg="http://www.w3.org/2000/svg"
   xmlns="http://www.w3.org/2000/svg"
   xmlns:xlink="http://www.w3.org/1999/xlink"
   xmlns:sodipodi="http://sodipodi.sourceforge.net/DTD/sodipodi-0.dtd"
   xmlns:inkscape="http://www.inkscape.org/namespaces/inkscape"
   version="1.1"
   width="64"
   height="64"
   id="svg13094"
   inkscape:version="0.48.3.1 r9886"
   sodipodi:docname="text-x-generic.svg">
  <sodipodi:namedview
     pagecolor="#cdd0d8"
     bordercolor="#666666"
     borderopacity="1"
     objecttolerance="10"
     gridtolerance="10"
     guidetolerance="10"
     inkscape:pageopacity="1"
     inkscape:pageshadow="2"
     inkscape:window-width="1680"
     inkscape:window-height="1029"
     id="namedview81"
     showgrid="false"
     inkscape:zoom="7.375"
     inkscape:cx="35.005229"
     inkscape:cy="26.967368"
     inkscape:window-x="1910"
     inkscape:window-y="79"
     inkscape:window-maximized="1"
     inkscape:current-layer="svg13094" />
  <defs
     id="defs11">
    <radialGradient
       cx="60.561817"
       cy="21.045019"
       r="2"
       fx="59.603962"
       fy="21.240686"
       id="radialGradient3811-9"
       xlink:href="#radialGradient3996-8"
       gradientUnits="userSpaceOnUse"
       gradientTransform="matrix(0,19.318815,-3.4300596,0,132.74749,-1136.9636)" />
    <radialGradient
       cx="48.30785"
       cy="47.141338"
       r="14.16129"
       id="radialGradient3996-8"
       gradientUnits="userSpaceOnUse"
       gradientTransform="matrix(0.93962333,0.77477937,-1.7975241,2.1799696,88.130548,-93.365748)">
      <stop
         id="stop3954-2"
         style="stop-color:#000000;stop-opacity:0.22264875"
         offset="0" />
      <stop
         id="stop3958-1"
         style="stop-color:#000000;stop-opacity:0.0678183"
         offset="0.5" />
      <stop
         id="stop3956-7"
         style="stop-color:#000000;stop-opacity:0.02431222"
         offset="1" />
    </radialGradient>
    <linearGradient
       x1="45"
       y1="52"
       x2="73"
       y2="4"
       id="linearGradient4308-8"
       gradientUnits="userSpaceOnUse">
      <stop
         id="stop4304-9"
         style="stop-color:#000000;stop-opacity:0.10677083"
         offset="0" />
      <stop
         id="stop4306-3"
         style="stop-color:#000000;stop-opacity:0"
         offset="1" />
    </linearGradient>
    <linearGradient
       x1="48.917568"
       y1="46.213669"
       x2="32.669781"
       y2="24"
       id="linearGradient4259-6"
       gradientUnits="userSpaceOnUse">
      <stop
         id="stop3988-6"
         style="stop-color:#ffffff;stop-opacity:0.52975047"
         offset="0" />
      <stop
         id="stop3990-9"
         style="stop-color:#ffffff;stop-opacity:0"
         offset="1" />
    </linearGradient>
    <linearGradient
       x1="31"
       y1="64"
       x2="31"
       y2="2"
       id="linearGradient3984-4"
       gradientUnits="userSpaceOnUse">
      <stop
         id="stop3099-4"
         style="stop-color:#e3e3e3;stop-opacity:1"
         offset="0" />
      <stop
         id="stop3875-55"
         style="stop-color:#ededed;stop-opacity:1"
         offset="0.5" />
      <stop
         id="stop3873-9"
         style="stop-color:#e4e4e4;stop-opacity:1"
         offset="0.51612902" />
      <stop
         id="stop3101-7"
         style="stop-color:#e9e9e9;stop-opacity:1"
         offset="1" />
    </linearGradient>
    <linearGradient
       x1="48.992088"
       y1="46.124821"
       x2="37"
       y2="36"
       id="linearGradient4280-7"
       gradientUnits="userSpaceOnUse">
      <stop
         id="stop4293-9"
         style="stop-color:#cacaca;stop-opacity:1"
         offset="0" />
      <stop
         id="stop4295-94"
         style="stop-color:#b7b7b7;stop-opacity:1"
         offset="0.2098622" />
      <stop
         id="stop4297-8"
         style="stop-color:#d6d6d6;stop-opacity:1"
         offset="1" />
    </linearGradient>
    <radialGradient
       cx="48.30785"
       cy="47.141338"
       r="14.16129"
       id="radialGradient3168"
       xlink:href="#radialGradient3996-8"
       gradientUnits="userSpaceOnUse"
       gradientTransform="matrix(0.93962333,0.77477937,-1.7975241,2.1799696,88.130548,-93.365748)" />
  </defs>
  <metadata
     id="metadata13099">
    <rdf:RDF>
      <cc:Work
         rdf:about="">
        <dc:format>image/svg+xml</dc:format>
        <dc:type
           rdf:resource="http://purl.org/dc/dcmitype/StillImage" />
        <dc:title />
      </cc:Work>
    </rdf:RDF>
  </metadata>
  <path
     d="M 4,0 64,0 64,62 4,62 z"
     id="path3960"
     style="fill:#c3c3c3;fill-opacity:1;fill-rule:nonzero" />
  <path
     d="m 60,2 4,4 0,31 -4,-4 z"
     id="path3900"
     style="fill:url(#radialGradient3811-9);fill-rule:nonzero" />
  <path
     d="m 60,33 4,4 0,25 -28.32258,0 z"
     id="path3934"
     style="fill:url(#radialGradient3168);fill-rule:nonzero" />
  <path
     d="M 63,0 V 61 H 4 v 1 h 59 1 V 61 0 h -1 z"
     id="path4299"
     style="fill:#000000;fill-opacity:0.0715548;fill-rule:nonzero" />
  <path
     d="M 60,2 60,33 35,62 37,62 60.78125,33.65625 61,33.375 61,33 61,3 z"
     id="path3922"
     style="fill:url(#linearGradient4308-8);fill-rule:nonzero" />
  <path
     d="M 0,2 60,2 60,33 34,64 0,64 z"
     id="path4257"
     style="fill:url(#linearGradient4259-6);fill-rule:nonzero" />
  <path
     d="M 0,2 60,2 60,33 34,64 0,64 z"
     id="path3982"
     style="fill:url(#linearGradient3984-4);fill-rule:nonzero" />
  <path
     d="M 0,2 60,2 60,3 0,3 z"
     id="path4253"
     style="fill:#ffffff;fill-opacity:0.56095402;fill-rule:nonzero" />
  <path
     d="m 0,63 35,0 -1,1 -34,0 z"
     id="path4255"
     style="fill:#000000;fill-opacity:0.15547707;fill-rule:nonzero" />
  <path
     d="M 4,0 64,0 64,1 4,1 z"
     id="path3878"
     style="fill:#ffffff;fill-opacity:0.56095402;fill-rule:nonzero" />
  <path
     d="M 6.03125,8.78125 5.6875,9.9375 H 6.09375 L 6.3125,8.78125 H 6.03125 z m 0.75,0 L 6.4375,9.9375 H 6.84375 L 7.0625,8.78125 H 6.78125 z M 42.96875,8.875 42.5625,8.90625 v 2.8125 c 0,0.34668 0.04883,0.57878 0.15625,0.71875 0.10905,0.13997 0.30208,0.21875 0.5625,0.21875 0.11393,0 0.23861,-0.0036 0.40625,-0.03125 v -0.34375 c -0.153,0.0195 -0.26042,0.03125 -0.3125,0.03125 -0.06347,0 -0.11231,0.0081 -0.15625,0 -0.04232,-0.0098 -0.09408,-0.03646 -0.125,-0.0625 -0.03092,-0.02767 -0.04622,-0.0612 -0.0625,-0.09375 C 43.01498,12.1237 43.0098,12.09473 43,12.03125 c -0.0097,-0.0651 -0.02795,-0.15202 -0.03125,-0.21875 -0.0016,-0.06673 0,-0.13932 0,-0.25 V 8.875 z M 8.9375,8.90625 c -0.416668,4e-6 -0.732748,0.08236 -0.96875,0.25 -0.236003,0.166019 -0.34375,0.406579 -0.34375,0.75 0,0.44759 0.263997,0.73666 0.8125,0.875 l 0.71875,0.1875 c 0.221352,0.05534 0.35449,0.1211 0.4375,0.21875 0.084633,0.09603 0.156248,0.21875 0.15625,0.375 -2e-6,0.48177 -0.283531,0.71875 -0.8125,0.71875 -0.429689,0 -0.842774,-0.06445 -1.21875,-0.25 l -0.125,0.34375 c 0.131836,0.08138 0.33789,0.15853 0.5625,0.21875 0.226236,0.05859 0.460285,0.0625 0.75,0.0625 0.387368,0 0.712888,-0.06445 0.9375,-0.25 0.22623,-0.18717 0.34375,-0.47591 0.34375,-0.84375 0,-0.2832 -0.09864,-0.50325 -0.25,-0.65625 C 9.78613,10.75163 9.574216,10.63249 9.28125,10.5625 L 8.59375,10.40625 C 8.413085,10.36231 8.278645,10.30176 8.1875,10.21875 8.097981,10.13412 8.062499,10.01335 8.0625,9.875 8.062499,9.466474 8.348306,9.250003 8.9375,9.25 9.121418,9.250003 9.289712,9.296553 9.46875,9.34375 9.649412,9.390954 9.797198,9.439782 9.90625,9.5 l 0.125,-0.34375 C 9.902666,9.076501 9.752927,9.015954 9.5625,8.96875 9.372068,8.921553 9.155597,8.906254 8.9375,8.90625 z M 34,9.3125 33.875,9.9375 33.5,9.96875 33.46875,10.25 H 33.875 v 1.59375 c 0.0065,0.28646 0.04557,0.49642 0.15625,0.625 0.11068,0.12858 0.29883,0.1875 0.5625,0.1875 0.10254,0 0.27506,0.0029 0.46875,-0.03125 l -0.03125,-0.34375 c -0.17904,0.02604 -0.29004,0.0625 -0.34375,0.0625 -0.14974,0 -0.25065,-0.04199 -0.3125,-0.125 -0.06185,-0.08301 -0.09375,-0.23405 -0.09375,-0.4375 V 10.25 h 0.75 V 9.9375 h -0.75 V 9.3125 H 34 z M 11.78125,9.875 c -0.35319,0.00489 -0.62728,0.14746 -0.84375,0.40625 -0.21647,0.25716 -0.34375,0.58496 -0.34375,1 0,0.42969 0.12077,0.78385 0.34375,1.03125 0.22461,0.2474 0.51725,0.34375 0.90625,0.34375 0.34831,0 0.66569,-0.08399 0.9375,-0.25 l -0.0625,-0.3125 c -0.28483,0.14974 -0.56055,0.21875 -0.84375,0.21875 -0.25716,0 -0.47201,-0.08073 -0.625,-0.25 -0.15136,-0.1709 -0.21385,-0.41439 -0.21875,-0.71875 H 12.875 V 11.25 c 0.0016,-0.05208 0,-0.10547 0,-0.125 0,-0.37923 -0.11719,-0.68001 -0.3125,-0.90625 C 12.36881,9.990888 12.11328,9.875003 11.78125,9.875 z m 2.71875,0 c -0.35319,0.00489 -0.65853,0.14746 -0.875,0.40625 -0.21647,0.25716 -0.3125,0.58496 -0.3125,1 0,0.42969 0.12077,0.78385 0.34375,1.03125 0.22461,0.2474 0.51725,0.34375 0.90625,0.34375 0.3483,0 0.66569,-0.08399 0.9375,-0.25 l -0.0625,-0.3125 c -0.28483,0.14974 -0.5918,0.21875 -0.875,0.21875 -0.25716,0 -0.44076,-0.08073 -0.59375,-0.25 -0.15137,-0.1709 -0.2451,-0.41439 -0.25,-0.71875 H 15.5625 V 11.25 c 0.0016,-0.05208 0,-0.10547 0,-0.125 0,-0.37923 -0.08594,-0.68001 -0.28125,-0.90625 C 15.08756,9.990888 14.83203,9.875003 14.5,9.875 z m 7.6875,0 c -0.389,3e-6 -0.68327,0.117841 -0.90625,0.375 -0.22298,0.25716 -0.34375,0.61458 -0.34375,1.03125 0,0.40853 0.1224,0.73958 0.34375,1 0.22298,0.26042 0.53027,0.375 0.90625,0.375 0.39062,0 0.68489,-0.11784 0.90625,-0.375 0.22135,-0.25879 0.34375,-0.58496 0.34375,-1 0,-0.41341 -0.12565,-0.74284 -0.34375,-1 C 22.87565,10.02246 22.56998,9.875003 22.1875,9.875 z m 7.0625,0 c -0.18392,3e-6 -0.37175,0.043622 -0.53125,0.125 -0.15788,0.07976 -0.30046,0.18067 -0.40625,0.3125 L 28.28125,9.9375 H 27.9375 v 2.6875 h 0.40625 v -1.46875 c -10e-6,-0.1416 0.01497,-0.26595 0.03125,-0.375 0.04232,-0.16113 0.14128,-0.30534 0.28125,-0.40625 0.13997,-0.10091 0.29004,-0.15625 0.5,-0.15625 0.20019,0 0.35286,0.05046 0.4375,0.15625 0.08626,0.1058 0.1185,0.27214 0.125,0.5 0.0016,0.0765 0.03125,0.67578 0.03125,1.75 h 0.40625 v -1.6875 c 0,-0.3597 -0.10189,-0.60872 -0.25,-0.78125 C 29.75814,9.982099 29.55924,9.875003 29.25,9.875 z m 2.6875,0 c -0.389,3e-6 -0.68327,0.117841 -0.90625,0.375 -0.22298,0.25716 -0.34375,0.61458 -0.34375,1.03125 0,0.40853 0.1224,0.73958 0.34375,1 0.22298,0.26042 0.53027,0.375 0.90625,0.375 0.39062,0 0.68489,-0.11784 0.90625,-0.375 0.22135,-0.25879 0.34375,-0.58496 0.34375,-1 0,-0.41341 -0.12565,-0.74284 -0.34375,-1 C 32.62565,10.02246 32.31998,9.875003 31.9375,9.875 z m 5.9375,0 c -0.389,3e-6 -0.71452,0.117841 -0.9375,0.375 -0.22298,0.25716 -0.3125,0.61458 -0.3125,1.03125 0,0.40853 0.09114,0.73958 0.3125,1 0.22298,0.26042 0.53027,0.375 0.90625,0.375 0.39062,0 0.68489,-0.11784 0.90625,-0.375 0.22135,-0.25879 0.34375,-0.58496 0.34375,-1 0,-0.41341 -0.0944,-0.74284 -0.3125,-1 C 38.56315,10.02246 38.25748,9.875003 37.875,9.875 z m 3.09375,0 c -0.18392,3e-6 -0.3405,0.043622 -0.5,0.125 -0.15788,0.07976 -0.30046,0.18067 -0.40625,0.3125 L 40,9.9375 h -0.34375 v 2.6875 h 0.4375 v -1.46875 c 0,-0.1416 -0.01628,-0.26595 0,-0.375 0.04232,-0.16113 0.14127,-0.30534 0.28125,-0.40625 0.13997,-0.10091 0.32129,-0.15625 0.53125,-0.15625 0.20019,0 0.35286,0.05046 0.4375,0.15625 0.08626,0.1058 0.1185,0.27214 0.125,0.5 0.0016,0.0765 0,0.67578 0,1.75 H 41.875 v -1.6875 c 0,-0.3597 -0.07064,-0.60872 -0.21875,-0.78125 C 41.50814,9.982099 41.27799,9.875003 40.96875,9.875 z m -22.6875,0.0625 1.0625,2.65625 C 19.3112,12.68652 19.25423,12.8291 19.1875,13 c -0.07487,0.18555 -0.15397,0.30827 -0.25,0.375 -0.0944,0.06836 -0.25358,0.09375 -0.4375,0.09375 -0.04557,0 -0.09635,0.0065 -0.1875,0 l 0.03125,0.34375 c 0.08626,0.01303 0.14062,0 0.21875,0 0.26042,0 0.49674,-0.05567 0.65625,-0.1875 0.15951,-0.13021 0.29394,-0.34342 0.40625,-0.625 0.02441,-0.06185 0.37109,-1.07357 1.09375,-3.0625 H 20.3125 l -0.75,2.21875 -0.84375,-2.21875 h -0.4375 z m 5.625,0 v 1.78125 c 0,0.13509 0.02344,0.26595 0.0625,0.375 0.03906,0.10905 0.08952,0.20801 0.15625,0.28125 0.06836,0.07162 0.15723,0.10742 0.25,0.15625 0.0944,0.0472 0.17708,0.10384 0.28125,0.125 0.10417,0.02116 0.22656,0.03125 0.34375,0.03125 0.11881,0 0.20996,-0.01009 0.3125,-0.03125 0.10416,-0.02116 0.21972,-0.0778 0.3125,-0.125 0.09277,-0.0472 0.15364,-0.08464 0.21875,-0.15625 0.06673,-0.07324 0.11719,-0.1722 0.15625,-0.28125 0.03906,-0.10905 0.0625,-0.23828 0.0625,-0.375 V 9.9375 h -0.40625 v 1.78125 c 0,0.22298 -0.03744,0.37598 -0.15625,0.46875 -0.11719,0.09277 -0.28841,0.15625 -0.5,0.15625 -0.10254,0 -0.2015,-0.01172 -0.28125,-0.03125 C 24.64062,12.29297 24.56348,12.2627 24.5,12.21875 24.43815,12.17318 24.40918,12.11263 24.375,12.03125 24.34245,11.94987 24.3125,11.83594 24.3125,11.71875 V 9.9375 h -0.40625 z m 19.6875,0 1.0625,2.65625 C 44.6237,12.68652 44.59798,12.8291 44.53125,13 c -0.07487,0.18555 -0.18522,0.30827 -0.28125,0.375 -0.0944,0.06836 -0.22233,0.09375 -0.40625,0.09375 -0.04557,0 -0.12761,0.0065 -0.21875,0 l 0.03125,0.34375 c 0.08626,0.01303 0.17187,0 0.25,0 0.26042,0 0.46549,-0.05567 0.625,-0.1875 0.1595,-0.13021 0.29395,-0.34342 0.40625,-0.625 0.02441,-0.06185 0.40234,-1.07357 1.125,-3.0625 H 45.625 l -0.75,2.21875 -0.84375,-2.21875 h -0.4375 z m -31.8125,0.28125 c 0.20833,0 0.38118,0.07552 0.5,0.21875 0.12044,0.1416 0.15625,0.32845 0.15625,0.59375 h -1.40625 c 0.02279,-0.25553 0.11816,-0.44726 0.25,-0.59375 0.13183,-0.14811 0.29167,-0.21875 0.5,-0.21875 z m 2.6875,0 c 0.20833,0 0.38118,0.07552 0.5,0.21875 0.12044,0.1416 0.1875,0.32845 0.1875,0.59375 H 13.75 c 0.02279,-0.25553 0.08691,-0.44726 0.21875,-0.59375 0.13183,-0.14811 0.29167,-0.21875 0.5,-0.21875 z m 7.71875,0 c 0.27506,0 0.46028,0.09245 0.59375,0.28125 C 22.91634,10.68718 23,10.9541 23,11.28125 c 0,0.32227 -0.08203,0.55957 -0.21875,0.75 -0.13509,0.19043 -0.32682,0.3125 -0.59375,0.3125 -0.27018,0 -0.4834,-0.12207 -0.625,-0.3125 -0.13997,-0.19206 -0.1875,-0.43262 -0.1875,-0.75 0,-0.32226 0.04753,-0.58919 0.1875,-0.78125 0.13997,-0.19206 0.35807,-0.28125 0.625,-0.28125 z m 9.75,0 c 0.27506,0 0.49154,0.09245 0.625,0.28125 0.13509,0.18718 0.1875,0.4541 0.1875,0.78125 0,0.32227 -0.05078,0.55957 -0.1875,0.75 -0.13509,0.19043 -0.35808,0.3125 -0.625,0.3125 -0.27018,0 -0.45215,-0.12207 -0.59375,-0.3125 -0.13997,-0.19206 -0.21875,-0.43262 -0.21875,-0.75 0,-0.32226 0.07878,-0.58919 0.21875,-0.78125 0.13997,-0.19206 0.32682,-0.28125 0.59375,-0.28125 z m 5.90625,0 c 0.27506,0 0.49153,0.09245 0.625,0.28125 0.13509,0.18718 0.21875,0.4541 0.21875,0.78125 0,0.32227 -0.08203,0.55957 -0.21875,0.75 -0.13509,0.19043 -0.32682,0.3125 -0.59375,0.3125 -0.27018,0 -0.4834,-0.12207 -0.625,-0.3125 -0.13997,-0.19206 -0.21875,-0.43262 -0.21875,-0.75 0,-0.32226 0.07877,-0.58919 0.21875,-0.78125 0.13997,-0.19206 0.32682,-0.28125 0.59375,-0.28125 z m -21.65625,1.8125 c -0.0065,0.10417 -0.01823,0.23665 -0.03125,0.375 -0.01302,0.13835 -0.03809,0.29818 -0.0625,0.5 -0.02278,0.20345 -0.02635,0.3278 -0.03125,0.375 h 0.25 c 0.15462,-0.43945 0.264,-0.80273 0.34375,-1.125 v -0.125 H 16.1875 z M 6.125,15.125 5.71875,15.15625 V 18.875 H 6.125 v -1.4375 c 0,-0.14974 0.016601,-0.28418 0.03125,-0.40625 0.042317,-0.16276 0.141275,-0.30371 0.28125,-0.40625 0.1416,-0.10254 0.29492,-0.15625 0.5,-0.15625 0.213214,0 0.384113,0.06543 0.46875,0.1875 0.08626,0.12207 0.124998,0.3252 0.125,0.59375 v 1.625 H 7.9375 v -1.6875 c -3e-6,-0.7015 -0.308922,-1.0625 -0.90625,-1.0625 -0.379233,0 -0.676759,0.1543 -0.90625,0.4375 0.00651,-0.13672 -1e-6,-0.25097 0,-0.34375 V 15.125 z m 17.75,0 -0.40625,0.03125 V 18.875 H 23.8125 L 23.875,18.5 c 0.09766,0.13184 0.19726,0.236 0.34375,0.3125 0.14648,0.0765 0.32259,0.09375 0.5,0.09375 0.24088,0 0.45247,-0.03581 0.625,-0.15625 0.17415,-0.12207 0.29036,-0.29004 0.375,-0.5 0.08626,-0.20996 0.125,-0.47331 0.125,-0.75 0,-0.26693 -0.03874,-0.48079 -0.125,-0.6875 -0.08627,-0.2067 -0.20248,-0.37956 -0.375,-0.5 -0.17253,-0.12044 -0.38737,-0.1875 -0.625,-0.1875 -0.1709,0 -0.31738,0.04525 -0.46875,0.125 -0.14974,0.07813 -0.2806,0.17741 -0.375,0.3125 0.0065,-0.15625 0,-0.3444 0,-0.5625 v -0.875 z m 21.4375,0 -0.375,0.03125 v 1.40625 c -0.07813,-0.13021 -0.21712,-0.236 -0.375,-0.3125 -0.15625,-0.07813 -0.32259,-0.125 -0.5,-0.125 -0.3418,0 -0.60905,0.11947 -0.8125,0.375 -0.20345,0.25391 -0.3125,0.58659 -0.3125,1 0,0.43294 0.1123,0.77897 0.3125,1.03125 0.2002,0.25065 0.49056,0.375 0.84375,0.375 0.18066,0 0.32226,-0.014 0.46875,-0.09375 0.14648,-0.07975 0.28711,-0.20866 0.375,-0.34375 l 0.03125,0.40625 h 0.34375 v -3.75 z m -27.5,0.4375 -0.125,0.625 -0.375,0.03125 L 17.28125,16.5 h 0.40625 v 1.59375 c 0.0065,0.28646 0.07682,0.49642 0.1875,0.625 0.11068,0.12858 0.29883,0.1875 0.5625,0.1875 0.10254,0 0.24381,0.0029 0.4375,-0.03125 l -0.03125,-0.34375 c -0.17904,0.02604 -0.29004,0.0625 -0.34375,0.0625 -0.14974,0 -0.25065,-0.04199 -0.3125,-0.125 -0.06185,-0.08301 -0.09375,-0.23405 -0.09375,-0.4375 V 16.5 h 0.75 v -0.3125 h -0.75 v -0.625 H 17.8125 z M 9.46875,16.125 c -0.169272,10e-6 -0.335613,0.02181 -0.5,0.0625 -0.162761,0.03906 -0.287435,0.08952 -0.40625,0.15625 0.00163,0.0033 -0.00293,0.06185 0.03125,0.15625 0.03418,0.09278 0.05436,0.13672 0.0625,0.15625 0.268554,-0.1302 0.548827,-0.1875 0.8125,-0.1875 0.1888,0 0.318358,0.03386 0.40625,0.125 0.087889,0.09115 0.124998,0.2487 0.125,0.4375 V 17.25 c -0.053713,0.0049 -0.109702,0.02145 -0.21875,0.03125 -0.107424,0.0081 -0.19629,0.02635 -0.25,0.03125 -0.390626,0.03255 -0.697917,0.11817 -0.90625,0.25 -0.206706,0.13184 -0.3125,0.32031 -0.3125,0.59375 0,0.24577 0.067382,0.43067 0.21875,0.5625 0.152994,0.13021 0.374348,0.1875 0.625,0.1875 0.17578,0 0.33854,-0.0055 0.46875,-0.0625 0.130207,-0.05697 0.258136,-0.16439 0.40625,-0.3125 0.02278,0.12044 0.03808,0.23958 0.0625,0.34375 h 0.3125 v -1.78125 c 0,-0.34993 -0.07064,-0.60514 -0.21875,-0.75 C 10.04101,16.19726 9.802407,16.125 9.46875,16.125 z m 5.21875,0 c -0.35319,0.0049 -0.65853,0.14746 -0.875,0.40625 -0.21647,0.25716 -0.3125,0.58496 -0.3125,1 0,0.42969 0.08952,0.78385 0.3125,1.03125 0.22461,0.2474 0.5485,0.34375 0.9375,0.34375 0.3483,0 0.66569,-0.08399 0.9375,-0.25 l -0.0625,-0.3125 c -0.28483,0.14974 -0.5918,0.21875 -0.875,0.21875 -0.25716,0 -0.44076,-0.08073 -0.59375,-0.25 -0.15137,-0.1709 -0.2451,-0.41439 -0.25,-0.71875 H 15.75 V 17.5 c 0.0016,-0.05208 0,-0.10547 0,-0.125 0,-0.37923 -0.08594,-0.68001 -0.28125,-0.90625 C 15.27506,16.24089 15.01953,16.125 14.6875,16.125 z m 5.71875,0 c -0.389,0 -0.68327,0.11784 -0.90625,0.375 -0.22298,0.25716 -0.34375,0.61458 -0.34375,1.03125 0,0.40853 0.1224,0.73958 0.34375,1 0.22298,0.26042 0.49902,0.375 0.875,0.375 0.39062,0 0.71614,-0.11784 0.9375,-0.375 0.22135,-0.25879 0.3125,-0.58496 0.3125,-1 0,-0.41341 -0.0944,-0.74284 -0.3125,-1 C 21.0944,16.27246 20.78874,16.125 20.40625,16.125 z m 7.0625,0 c -0.35319,0.0049 -0.62728,0.14746 -0.84375,0.40625 -0.21647,0.25716 -0.3125,0.58496 -0.3125,1 0,0.42969 0.08952,0.78385 0.3125,1.03125 0.22461,0.2474 0.5485,0.34375 0.9375,0.34375 0.3483,0 0.66569,-0.08399 0.9375,-0.25 l -0.0625,-0.3125 c -0.28483,0.14974 -0.5918,0.21875 -0.875,0.21875 -0.25716,0 -0.44076,-0.08073 -0.59375,-0.25 -0.15137,-0.1709 -0.2451,-0.41439 -0.25,-0.71875 H 28.5625 V 17.5 c 0.0016,-0.05208 0,-0.10547 0,-0.125 0,-0.37923 -0.08594,-0.68001 -0.28125,-0.90625 C 28.08756,16.24089 27.80078,16.125 27.46875,16.125 z m 3.9375,0 c -0.16927,10e-6 -0.33561,0.02181 -0.5,0.0625 -0.16276,0.03906 -0.28744,0.08952 -0.40625,0.15625 0.0016,0.0033 0.02832,0.06185 0.0625,0.15625 0.03418,0.09278 0.0544,0.13672 0.0625,0.15625 0.26855,-0.1302 0.51758,-0.1875 0.78125,-0.1875 0.1888,0 0.31836,0.03386 0.40625,0.125 0.08789,0.09115 0.15625,0.2487 0.15625,0.4375 V 17.25 c -0.05371,0.0049 -0.14095,0.02145 -0.25,0.03125 -0.10742,0.0081 -0.19629,0.02635 -0.25,0.03125 -0.39063,0.03255 -0.69792,0.11817 -0.90625,0.25 -0.20671,0.13184 -0.3125,0.32031 -0.3125,0.59375 0,0.24577 0.09863,0.43067 0.25,0.5625 0.15299,0.13021 0.3431,0.1875 0.59375,0.1875 0.17578,0 0.33854,-0.0055 0.46875,-0.0625 0.13021,-0.05697 0.25814,-0.16439 0.40625,-0.3125 0.02278,0.12044 0.03808,0.23958 0.0625,0.34375 H 32.375 v -1.78125 c 0,-0.34993 -0.10189,-0.60514 -0.25,-0.75 C 31.97851,16.19726 31.73991,16.125 31.40625,16.125 z m 3.90625,0 c -0.19857,0 -0.37663,0.05013 -0.53125,0.125 -0.153,0.07324 -0.24935,0.18229 -0.34375,0.3125 -0.0944,0.13021 -0.16992,0.27149 -0.21875,0.4375 -0.0472,0.16602 -0.09375,0.33594 -0.09375,0.53125 0,0.12533 0.03483,0.2513 0.0625,0.375 0.0293,0.1237 0.06315,0.25944 0.125,0.375 0.06348,0.11556 0.13086,0.19336 0.21875,0.28125 0.08952,0.08789 0.21517,0.16504 0.34375,0.21875 0.13021,0.05209 0.25325,0.09375 0.40625,0.09375 0.19857,0 0.37142,-0.05013 0.5,-0.125 0.12858,-0.0765 0.24609,-0.17252 0.34375,-0.3125 v 0.21875 c 0,0.1237 0.0081,0.22786 0,0.3125 -0.0065,0.08626 -0.03972,0.16374 -0.0625,0.25 -0.02117,0.08789 -0.05143,0.16504 -0.09375,0.21875 -0.04232,0.05534 -0.08789,0.1123 -0.15625,0.15625 -0.06836,0.04558 -0.14746,0.07422 -0.25,0.09375 -0.10254,0.0195 -0.23666,0.03125 -0.375,0.03125 h -0.5 l 0.03125,0.375 h 0.46875 c 0.17415,-10e-6 0.3304,-0.0332 0.46875,-0.0625 0.13834,-0.0293 0.25097,-0.04655 0.34375,-0.09375 0.0944,-0.04557 0.18327,-0.111 0.25,-0.1875 0.06836,-0.07487 0.11881,-0.14388 0.15625,-0.21875 0.03743,-0.07487 0.07259,-0.17708 0.09375,-0.28125 0.02278,-0.10417 0.02635,-0.19499 0.03125,-0.28125 0.0065,-0.08463 0,-0.19857 0,-0.3125 V 16.1875 H 36.125 v 0.34375 C 36.02083,16.39128 35.91308,16.28548 35.78125,16.21875 35.65104,16.15039 35.48828,16.125 35.3125,16.125 z m 3.03125,0 c -0.389,0 -0.68327,0.11784 -0.90625,0.375 -0.22298,0.25716 -0.34375,0.61458 -0.34375,1.03125 0,0.40853 0.1224,0.73958 0.34375,1 0.22298,0.26042 0.49902,0.375 0.875,0.375 0.39062,0 0.71614,-0.11784 0.9375,-0.375 0.22135,-0.25879 0.3125,-0.58496 0.3125,-1 0,-0.41341 -0.0944,-0.74284 -0.3125,-1 C 39.0319,16.27246 38.72624,16.125 38.34375,16.125 z m 2.9375,0 c -0.389,0 -0.71452,0.11784 -0.9375,0.375 -0.22298,0.25716 -0.3125,0.61458 -0.3125,1.03125 0,0.40853 0.09115,0.73958 0.3125,1 0.22298,0.26042 0.53027,0.375 0.90625,0.375 0.39062,0 0.68489,-0.11784 0.90625,-0.375 0.22135,-0.25879 0.34375,-0.58496 0.34375,-1 0,-0.41341 -0.0944,-0.74284 -0.3125,-1 C 41.9694,16.27246 41.66374,16.125 41.28125,16.125 z m -30.5,0.0625 1.03125,2.6875 H 12.25 l 1.03125,-2.6875 h -0.4375 c -0.26042,0.71778 -0.4388,1.24707 -0.5625,1.59375 -0.09766,0.27507 -0.19466,0.51335 -0.25,0.6875 L 11.8125,17.78125 11.21875,16.1875 h -0.4375 z m 3.875,0.28125 c 0.20833,0 0.38118,0.07552 0.5,0.21875 0.12044,0.1416 0.1875,0.32845 0.1875,0.59375 H 13.9375 c 0.02278,-0.25553 0.08691,-0.44726 0.21875,-0.59375 0.13183,-0.14811 0.29167,-0.21875 0.5,-0.21875 z m 5.75,0 c 0.27506,0 0.46028,0.09245 0.59375,0.28125 0.13509,0.18718 0.21875,0.4541 0.21875,0.78125 0,0.32227 -0.08203,0.55957 -0.21875,0.75 -0.13509,0.19043 -0.32682,0.3125 -0.59375,0.3125 -0.27018,0 -0.4834,-0.12207 -0.625,-0.3125 -0.13997,-0.19206 -0.21875,-0.43262 -0.21875,-0.75 0,-0.32226 0.07878,-0.58919 0.21875,-0.78125 0.13997,-0.19206 0.35807,-0.28125 0.625,-0.28125 z m 4.28125,0 c 0.17578,0 0.32194,0.06022 0.4375,0.15625 0.11556,0.09603 0.17155,0.22201 0.21875,0.375 0.04882,0.153 0.09375,0.32617 0.09375,0.53125 -10e-6,0.15137 -0.0332,0.28255 -0.0625,0.40625 -0.02767,0.1237 -0.06641,0.24447 -0.125,0.34375 -0.05697,0.09766 -0.11784,0.16341 -0.21875,0.21875 -0.09929,0.05371 -0.21191,0.09375 -0.34375,0.09375 -0.53223,0 -0.8125,-0.35612 -0.8125,-1.0625 0,-0.34505 0.08203,-0.60384 0.21875,-0.78125 0.13835,-0.17904 0.33496,-0.28125 0.59375,-0.28125 z m 2.78125,0 c 0.20833,0 0.38118,0.07552 0.5,0.21875 0.12044,0.1416 0.1875,0.32845 0.1875,0.59375 H 26.75 c 0.02278,-0.25553 0.08691,-0.44726 0.21875,-0.59375 0.13183,-0.14811 0.29167,-0.21875 0.5,-0.21875 z m 7.90625,0 c 0.13509,0 0.24284,0.04492 0.34375,0.09375 0.10254,0.04883 0.18978,0.09961 0.25,0.1875 0.06185,0.08626 0.0957,0.20182 0.125,0.3125 0.02929,0.10905 0.03125,0.21354 0.03125,0.34375 v 0.1875 c 0,0.12533 -0.002,0.23796 -0.03125,0.34375 -0.02767,0.1058 -0.06641,0.22624 -0.125,0.3125 -0.05859,0.08626 -0.14584,0.13867 -0.25,0.1875 -0.10417,0.04883 -0.23665,0.0625 -0.375,0.0625 -0.10742,0 -0.19011,0.0094 -0.28125,-0.03125 -0.08952,-0.04069 -0.15853,-0.12239 -0.21875,-0.1875 C 34.78353,18.21452 34.72982,18.15039 34.6875,18.0625 34.64518,17.97461 34.61328,17.87402 34.59375,17.78125 34.57425,17.68848 34.5625,17.5944 34.5625,17.5 c 0,-0.09603 0.01335,-0.18685 0.03125,-0.28125 0.0179,-0.0944 0.05306,-0.1901 0.09375,-0.28125 0.04232,-0.09277 0.0664,-0.15039 0.125,-0.21875 0.06022,-0.06999 0.15885,-0.14518 0.25,-0.1875 0.09277,-0.04232 0.20019,-0.0625 0.3125,-0.0625 z m 2.96875,0 c 0.27506,0 0.46028,0.09245 0.59375,0.28125 0.13509,0.18718 0.21875,0.4541 0.21875,0.78125 0,0.32227 -0.08203,0.55957 -0.21875,0.75 -0.13509,0.19043 -0.32682,0.3125 -0.59375,0.3125 -0.27018,0 -0.4834,-0.12207 -0.625,-0.3125 -0.13997,-0.19206 -0.1875,-0.43262 -0.1875,-0.75 0,-0.32226 0.04753,-0.58919 0.1875,-0.78125 0.13997,-0.19206 0.35807,-0.28125 0.625,-0.28125 z m 2.9375,0 c 0.27506,0 0.46029,0.09245 0.59375,0.28125 0.13509,0.18718 0.21875,0.4541 0.21875,0.78125 0,0.32227 -0.08203,0.55957 -0.21875,0.75 -0.13509,0.19043 -0.32682,0.3125 -0.59375,0.3125 -0.27018,0 -0.4834,-0.12207 -0.625,-0.3125 -0.13997,-0.19206 -0.21875,-0.43262 -0.21875,-0.75 0,-0.32226 0.07878,-0.58919 0.21875,-0.78125 0.13997,-0.19206 0.35807,-0.28125 0.625,-0.28125 z m 2.84375,0 c 0.28157,0 0.46842,0.09733 0.59375,0.28125 0.12695,0.18229 0.1875,0.45117 0.1875,0.8125 0,0.32064 -0.05567,0.57748 -0.1875,0.75 -0.13021,0.17253 -0.3252,0.25 -0.59375,0.25 -0.16764,0 -0.32357,-0.03385 -0.4375,-0.125 -0.11393,-0.09115 -0.19792,-0.222 -0.25,-0.375 -0.05045,-0.15299 -0.0625,-0.32292 -0.0625,-0.53125 0,-0.14811 0.002,-0.28255 0.03125,-0.40625 0.03092,-0.12532 0.09766,-0.24772 0.15625,-0.34375 0.05859,-0.09603 0.12272,-0.16504 0.21875,-0.21875 0.09603,-0.05371 0.21842,-0.09375 0.34375,-0.09375 z M 9.6875,17.5625 c 0.027668,-0.0016 0.09798,0.0081 0.1875,0 0.091144,-0.0081 0.1169,0 0.125,0 V 18 c -0.04232,0.18066 -0.13314,0.33008 -0.28125,0.4375 -0.146486,0.10579 -0.306316,0.15625 -0.5,0.15625 -0.148113,0 -0.259115,-0.05176 -0.34375,-0.125 -0.084636,-0.07324 -0.125001,-0.16927 -0.125,-0.3125 -10e-7,-0.18717 0.049153,-0.32161 0.1875,-0.40625 0.139973,-0.08463 0.396809,-0.15657 0.75,-0.1875 z m 21.9375,0 c 0.02767,-0.0016 0.09798,0.0081 0.1875,0 0.09114,-0.0081 0.1169,0 0.125,0 V 18 c -0.04232,0.18066 -0.13314,0.33008 -0.28125,0.4375 -0.14649,0.10579 -0.30632,0.15625 -0.5,0.15625 -0.14811,0 -0.25912,-0.05176 -0.34375,-0.125 -0.08463,-0.07324 -0.125,-0.16927 -0.125,-0.3125 0,-0.18717 0.04915,-0.32161 0.1875,-0.40625 0.13997,-0.08463 0.39681,-0.15657 0.75,-0.1875 z M 13.28125,21.375 12.875,21.40625 V 22.8125 C 12.79687,22.68229 12.68913,22.5765 12.53125,22.5 12.375,22.42187 12.17741,22.375 12,22.375 c -0.3418,0 -0.60905,0.11947 -0.8125,0.375 -0.20345,0.25391 -0.28125,0.58659 -0.28125,1 0,0.43294 0.08105,0.77897 0.28125,1.03125 0.2002,0.25065 0.49056,0.375 0.84375,0.375 0.18066,0 0.32226,-0.014 0.46875,-0.09375 0.14648,-0.07975 0.28711,-0.20866 0.375,-0.34375 l 0.03125,0.40625 h 0.375 v -3.75 z M 20,21.8125 19.875,22.4375 19.5,22.46875 19.46875,22.75 H 19.875 v 1.59375 c 0.0065,0.28646 0.07682,0.49642 0.1875,0.625 0.11068,0.12858 0.29883,0.1875 0.5625,0.1875 0.10254,0 0.24381,0.0029 0.4375,-0.03125 l -0.03125,-0.34375 c -0.17904,0.02604 -0.29004,0.0625 -0.34375,0.0625 -0.14974,0 -0.25065,-0.04199 -0.3125,-0.125 -0.06185,-0.08301 -0.09375,-0.23405 -0.09375,-0.4375 V 22.75 h 0.75 v -0.3125 h -0.75 v -0.625 H 20 z m 15.40625,0 -0.15625,0.625 -0.375,0.03125 V 22.75 h 0.375 v 1.59375 c 0.0065,0.28646 0.07682,0.49642 0.1875,0.625 0.11068,0.12858 0.29883,0.1875 0.5625,0.1875 0.10254,0 0.24381,0.0029 0.4375,-0.03125 v -0.34375 c -0.17904,0.02604 -0.29004,0.0625 -0.34375,0.0625 -0.14974,0 -0.2819,-0.04199 -0.34375,-0.125 -0.06185,-0.08301 -0.09375,-0.23405 -0.09375,-0.4375 V 22.75 h 0.75 v -0.3125 h -0.75 v -0.625 h -0.25 z M 6.875,22.375 c -0.392254,0 -0.711264,0.14584 -0.9375,0.40625 -0.22461,0.25879 -0.34212,0.58333 -0.34375,1 0,0.41341 0.122396,0.74447 0.34375,1 0.222981,0.25553 0.512369,0.375 0.90625,0.375 0.289712,0 0.541339,-0.05892 0.71875,-0.1875 L 7.5,24.65625 C 7.280272,24.77018 7.084959,24.8125 6.875,24.8125 6.611327,24.8125 6.399739,24.7168 6.25,24.53125 6.101887,24.34408 6.031249,24.10026 6.03125,23.78125 6.031249,23.4541 6.10026,23.1888 6.25,23 c 0.151366,-0.1888 0.36621,-0.28125 0.625,-0.28125 0.211587,0 0.403318,0.05371 0.59375,0.15625 L 7.5625,22.5625 C 7.487628,22.50716 7.411456,22.47168 7.28125,22.4375 7.152668,22.40332 7.013345,22.375 6.875,22.375 z m 2.34375,0 c -0.388998,0 -0.683269,0.11784 -0.90625,0.375 -0.222982,0.25716 -0.34375,0.61458 -0.34375,1.03125 0,0.40853 0.091146,0.73958 0.3125,1 0.222981,0.26042 0.530272,0.375 0.90625,0.375 0.390623,0 0.716144,-0.11784 0.9375,-0.375 0.22135,-0.25879 0.3125,-0.58496 0.3125,-1 0,-0.41341 -0.0944,-0.74284 -0.3125,-1 C 9.906899,22.52246 9.601235,22.375 9.21875,22.375 z m 5.8125,0 c -0.35319,0.0049 -0.62728,0.14746 -0.84375,0.40625 -0.21647,0.25716 -0.34375,0.58496 -0.34375,1 0,0.42969 0.12077,0.78385 0.34375,1.03125 0.22461,0.2474 0.51725,0.34375 0.90625,0.34375 0.34831,0 0.66569,-0.08399 0.9375,-0.25 l -0.0625,-0.3125 c -0.28483,0.14974 -0.56055,0.21875 -0.84375,0.21875 -0.25716,0 -0.47201,-0.08073 -0.625,-0.25 -0.15136,-0.1709 -0.21385,-0.41439 -0.21875,-0.71875 H 16.125 V 23.75 c 0.0016,-0.05208 0,-0.10547 0,-0.125 0,-0.37923 -0.11719,-0.68001 -0.3125,-0.90625 C 15.61881,22.49089 15.36328,22.375 15.03125,22.375 z m 7.5625,0 c -0.389,0 -0.68327,0.11784 -0.90625,0.375 -0.22298,0.25716 -0.34375,0.61458 -0.34375,1.03125 0,0.40853 0.1224,0.73958 0.34375,1 0.22298,0.26042 0.49902,0.375 0.875,0.375 0.39062,0 0.71614,-0.11784 0.9375,-0.375 0.22135,-0.25879 0.3125,-0.58496 0.3125,-1 0,-0.41341 -0.0944,-0.74284 -0.3125,-1 C 23.2819,22.52246 22.97624,22.375 22.59375,22.375 z m 4.1875,0 c -0.39225,0 -0.68001,0.14584 -0.90625,0.40625 -0.22461,0.25879 -0.34215,0.58333 -0.34375,1 0,0.41341 0.09115,0.74447 0.3125,1 0.22298,0.25553 0.54362,0.375 0.9375,0.375 0.28971,0 0.51009,-0.05892 0.6875,-0.1875 l -0.03125,-0.3125 c -0.21973,0.11393 -0.44629,0.15625 -0.65625,0.15625 -0.26367,0 -0.47526,-0.0957 -0.625,-0.28125 -0.14811,-0.18717 -0.21875,-0.43099 -0.21875,-0.75 0,-0.32715 0.06901,-0.59245 0.21875,-0.78125 0.15137,-0.1888 0.36621,-0.28125 0.625,-0.28125 0.21159,0 0.40332,0.05371 0.59375,0.15625 L 27.5,22.5625 C 27.42513,22.50716 27.31771,22.47168 27.1875,22.4375 27.05892,22.40332 26.9196,22.375 26.78125,22.375 z m 4.0625,0 c -0.35319,0.0049 -0.62728,0.14746 -0.84375,0.40625 -0.21647,0.25716 -0.34375,0.58496 -0.34375,1 0,0.42969 0.12077,0.78385 0.34375,1.03125 0.22461,0.2474 0.51725,0.34375 0.90625,0.34375 0.34831,0 0.66569,-0.08399 0.9375,-0.25 l -0.0625,-0.3125 c -0.28483,0.14974 -0.56055,0.21875 -0.84375,0.21875 -0.25716,0 -0.47201,-0.08073 -0.625,-0.25 -0.15136,-0.1709 -0.21385,-0.41439 -0.21875,-0.71875 H 31.9375 V 23.75 c 0.0016,-0.05208 0,-0.10547 0,-0.125 0,-0.37923 -0.11719,-0.68001 -0.3125,-0.90625 C 31.43131,22.49089 31.17578,22.375 30.84375,22.375 z m 2.65625,0 c -0.16927,10e-6 -0.33561,0.02181 -0.5,0.0625 -0.16276,0.03906 -0.31868,0.08952 -0.4375,0.15625 0.0016,0.0033 0.02832,0.06185 0.0625,0.15625 0.03418,0.09278 0.0544,0.13672 0.0625,0.15625 0.26855,-0.1302 0.54883,-0.1875 0.8125,-0.1875 0.1888,0 0.31836,0.03386 0.40625,0.125 0.08789,0.09115 0.125,0.2487 0.125,0.4375 V 23.5 c -0.05371,0.0049 -0.14095,0.02145 -0.25,0.03125 -0.10742,0.0081 -0.16504,0.02635 -0.21875,0.03125 -0.39063,0.03255 -0.69792,0.11817 -0.90625,0.25 -0.20671,0.13184 -0.3125,0.32031 -0.3125,0.59375 0,0.24577 0.06738,0.43067 0.21875,0.5625 0.15299,0.13021 0.37435,0.1875 0.625,0.1875 0.17578,0 0.30729,-0.0055 0.4375,-0.0625 0.13021,-0.05697 0.28939,-0.16439 0.4375,-0.3125 0.02278,0.12044 0.03808,0.23958 0.0625,0.34375 h 0.3125 v -1.78125 c 0,-0.34993 -0.07064,-0.60514 -0.21875,-0.75 C 34.07226,22.44726 33.83366,22.375 33.5,22.375 z m 4.40625,0 c -0.35319,0.0049 -0.62728,0.14746 -0.84375,0.40625 -0.21647,0.25716 -0.3125,0.58496 -0.3125,1 0,0.42969 0.08952,0.78385 0.3125,1.03125 0.22461,0.2474 0.5485,0.34375 0.9375,0.34375 0.34831,0 0.63444,-0.08399 0.90625,-0.25 l -0.0625,-0.3125 C 38.55892,24.74349 38.2832,24.8125 38,24.8125 c -0.25716,0 -0.47201,-0.08073 -0.625,-0.25 -0.15136,-0.1709 -0.21385,-0.41439 -0.21875,-0.71875 H 39 V 23.75 c 0.0016,-0.05208 0,-0.10547 0,-0.125 0,-0.37923 -0.11719,-0.68001 -0.3125,-0.90625 C 38.49381,22.49089 38.23828,22.375 37.90625,22.375 z m 3.9375,0 c -0.16927,10e-6 -0.33561,0.02181 -0.5,0.0625 -0.16276,0.03906 -0.28743,0.08952 -0.40625,0.15625 0.0016,0.0033 -0.0029,0.06185 0.03125,0.15625 0.03418,0.09278 0.0544,0.13672 0.0625,0.15625 0.26855,-0.1302 0.54883,-0.1875 0.8125,-0.1875 0.1888,0 0.31836,0.03386 0.40625,0.125 0.08789,0.09115 0.125,0.2487 0.125,0.4375 V 23.5 c -0.05371,0.0049 -0.1097,0.02145 -0.21875,0.03125 -0.10742,0.0081 -0.19629,0.02635 -0.25,0.03125 -0.39063,0.03255 -0.69792,0.11817 -0.90625,0.25 -0.20671,0.13184 -0.3125,0.32031 -0.3125,0.59375 0,0.24577 0.06738,0.43067 0.21875,0.5625 0.15299,0.13021 0.37435,0.1875 0.625,0.1875 0.17578,0 0.30729,-0.0055 0.4375,-0.0625 0.13021,-0.05697 0.28939,-0.16439 0.4375,-0.3125 0.02278,0.12044 0.03808,0.23958 0.0625,0.34375 h 0.3125 v -1.78125 c 0,-0.34993 -0.07064,-0.60514 -0.21875,-0.75 C 42.41601,22.44726 42.17741,22.375 41.84375,22.375 z M 17.875,22.40625 c -0.16113,0 -0.29427,0.06348 -0.4375,0.15625 -0.14323,0.09278 -0.28223,0.19238 -0.375,0.34375 L 17.03125,22.4375 H 16.6875 c 0,0.1416 -0.0016,1.04362 0,2.6875 h 0.40625 v -1.5 c 0,-0.23437 0.07715,-0.43587 0.21875,-0.59375 0.14323,-0.15951 0.33463,-0.25 0.5625,-0.25 0.05534,0 0.11263,0.01823 0.1875,0.03125 l 0.03125,-0.375 C 18.03353,22.42775 17.94824,22.40625 17.875,22.40625 z m 11.34375,0 c -0.16113,0 -0.32552,0.06348 -0.46875,0.15625 -0.14323,0.09278 -0.25098,0.19238 -0.34375,0.34375 L 28.375,22.4375 h -0.34375 c 0,0.1416 -0.0016,1.04362 0,2.6875 h 0.40625 v -1.5 c 0,-0.23437 0.07715,-0.43587 0.21875,-0.59375 0.14323,-0.15951 0.30338,-0.25 0.53125,-0.25 0.05534,0 0.14388,0.01823 0.21875,0.03125 v -0.375 c -0.06022,-0.0098 -0.11426,-0.03125 -0.1875,-0.03125 z m -20,0.3125 c 0.275063,0 0.460284,0.09245 0.59375,0.28125 0.135089,0.18718 0.21875,0.4541 0.21875,0.78125 0,0.32227 -0.082034,0.55957 -0.21875,0.75 -0.135093,0.19043 -0.326825,0.3125 -0.59375,0.3125 -0.270184,0 -0.483399,-0.12207 -0.625,-0.3125 C 8.453775,24.33919 8.374999,24.09863 8.375,23.78125 8.374999,23.45899 8.453775,23.19206 8.59375,23 c 0.139973,-0.19206 0.358072,-0.28125 0.625,-0.28125 z m 2.84375,0 c 0.28157,0 0.46842,0.09733 0.59375,0.28125 0.12695,0.18229 0.1875,0.45117 0.1875,0.8125 0,0.32064 -0.05567,0.57748 -0.1875,0.75 -0.13021,0.17253 -0.3252,0.25 -0.59375,0.25 -0.16764,0 -0.32357,-0.03385 -0.4375,-0.125 -0.11393,-0.09115 -0.19792,-0.222 -0.25,-0.375 -0.05045,-0.15299 -0.0625,-0.32292 -0.0625,-0.53125 0,-0.14811 0.002,-0.28255 0.03125,-0.40625 0.03092,-0.12532 0.09766,-0.24772 0.15625,-0.34375 0.05859,-0.09603 0.12272,-0.16504 0.21875,-0.21875 0.09603,-0.05371 0.21842,-0.09375 0.34375,-0.09375 z m 2.96875,0 c 0.20833,0 0.38118,0.07552 0.5,0.21875 0.12044,0.1416 0.15625,0.32845 0.15625,0.59375 h -1.40625 c 0.02279,-0.25553 0.11816,-0.44726 0.25,-0.59375 0.13183,-0.14811 0.29167,-0.21875 0.5,-0.21875 z m 7.5625,0 c 0.27506,0 0.46028,0.09245 0.59375,0.28125 0.13509,0.18718 0.21875,0.4541 0.21875,0.78125 0,0.32227 -0.08203,0.55957 -0.21875,0.75 -0.13509,0.19043 -0.32682,0.3125 -0.59375,0.3125 -0.27018,0 -0.4834,-0.12207 -0.625,-0.3125 -0.13997,-0.19206 -0.21875,-0.43262 -0.21875,-0.75 0,-0.32226 0.07878,-0.58919 0.21875,-0.78125 0.13997,-0.19206 0.35807,-0.28125 0.625,-0.28125 z m 8.25,0 c 0.20833,0 0.38118,0.07552 0.5,0.21875 0.12044,0.1416 0.15625,0.32845 0.15625,0.59375 h -1.40625 c 0.02279,-0.25553 0.11816,-0.44726 0.25,-0.59375 0.13183,-0.14811 0.29167,-0.21875 0.5,-0.21875 z m 7.0625,0 c 0.20833,0 0.38118,0.07552 0.5,0.21875 0.12044,0.1416 0.1875,0.32845 0.1875,0.59375 h -1.4375 c 0.02279,-0.25553 0.11816,-0.44726 0.25,-0.59375 0.13183,-0.14811 0.29167,-0.21875 0.5,-0.21875 z m -4.1875,1.09375 c 0.02767,-0.0016 0.06673,0.0081 0.15625,0 0.09115,-0.0081 0.14815,0 0.15625,0 V 24.25 c -0.04232,0.18066 -0.13314,0.33008 -0.28125,0.4375 -0.14649,0.10579 -0.30632,0.15625 -0.5,0.15625 -0.14811,0 -0.29036,-0.05176 -0.375,-0.125 -0.08463,-0.07324 -0.125,-0.16927 -0.125,-0.3125 0,-0.18717 0.0804,-0.32161 0.21875,-0.40625 0.13997,-0.08463 0.39681,-0.15657 0.75,-0.1875 z m 8.34375,0 c 0.02767,-0.0016 0.06673,0.0081 0.15625,0 0.09115,-0.0081 0.14815,0 0.15625,0 V 24.25 c -0.04232,0.18066 -0.13314,0.33008 -0.28125,0.4375 -0.14649,0.10579 -0.30632,0.15625 -0.5,0.15625 -0.14811,0 -0.25911,-0.05176 -0.34375,-0.125 -0.08463,-0.07324 -0.125,-0.16927 -0.125,-0.3125 0,-0.18717 0.04915,-0.32161 0.1875,-0.40625 0.13997,-0.08463 0.39681,-0.15657 0.75,-0.1875 z M 23.28125,27.625 22.875,27.65625 v 2.8125 c 0,0.34668 0.04883,0.57878 0.15625,0.71875 0.10905,0.13997 0.30208,0.21875 0.5625,0.21875 0.11393,0 0.23861,-0.0036 0.40625,-0.03125 l -0.03125,-0.34375 c -0.153,0.0195 -0.22917,0.03125 -0.28125,0.03125 -0.06347,0 -0.14356,0.0081 -0.1875,0 -0.04232,-0.0098 -0.06283,-0.03646 -0.09375,-0.0625 -0.03092,-0.02767 -0.04622,-0.0612 -0.0625,-0.09375 -0.01627,-0.03255 -0.0527,-0.06152 -0.0625,-0.125 -0.0097,-0.0651 0.0033,-0.15202 0,-0.21875 -0.0016,-0.06673 0,-0.13932 0,-0.25 V 27.625 z m 2.625,0 L 25.5,27.65625 V 31.375 h 0.40625 v -1.0625 l 0.3125,-0.28125 0.96875,1.34375 h 0.5 L 26.5,29.8125 27.625,28.6875 H 27.09375 C 26.50293,29.28158 26.1416,29.65788 26,29.8125 c -0.0114,0.0114 -0.01172,0.03972 -0.03125,0.0625 -0.01954,0.02279 -0.0527,0.02145 -0.0625,0.03125 V 27.625 z m -1.59375,0.09375 v 0.46875 h 0.40625 V 27.71875 H 24.3125 z m 10.1875,0 v 0.46875 h 0.40625 V 27.71875 H 34.5 z M 32.03125,27.75 v 3.625 h 2 V 31 H 32.4375 V 27.75 H 32.03125 z M 13.125,28.0625 13,28.6875 12.59375,28.71875 V 29 H 13 v 1.59375 c 0.0065,0.28646 0.04557,0.49642 0.15625,0.625 0.11068,0.12858 0.29883,0.1875 0.5625,0.1875 0.10254,0 0.24381,0.0029 0.4375,-0.03125 v -0.34375 c -0.17904,0.02604 -0.29004,0.0625 -0.34375,0.0625 -0.14974,0 -0.25065,-0.04199 -0.3125,-0.125 -0.06185,-0.08301 -0.09375,-0.23405 -0.09375,-0.4375 V 29 H 14.125 v -0.3125 h -0.71875 v -0.625 H 13.125 z M 6.5625,28.625 c -0.29297,0 -0.51823,0.08041 -0.6875,0.21875 -0.167644,0.13835 -0.25,0.32129 -0.25,0.53125 0.00163,0.17253 0.056966,0.29069 0.15625,0.40625 0.100911,0.11556 0.265624,0.23437 0.5,0.3125 l 0.1875,0.0625 c 0.247394,0.08464 0.415363,0.15039 0.5,0.21875 0.084634,0.06836 0.124998,0.16244 0.125,0.28125 -0.011395,0.27995 -0.196616,0.4375 -0.59375,0.4375 -0.262045,0 -0.540691,-0.07389 -0.8125,-0.21875 l -0.03125,0.34375 c 0.096028,0.06185 0.222005,0.11719 0.375,0.15625 0.154622,0.03906 0.317707,0.03125 0.5,0.03125 0.296223,0 0.513345,-0.05241 0.6875,-0.1875 0.174151,-0.13672 0.27799,-0.3151 0.28125,-0.5625 -2e-6,-0.20345 -0.075197,-0.38118 -0.1875,-0.5 C 7.200194,30.03581 7.020181,29.93164 6.75,29.84375 6.668618,29.81771 6.61621,29.80078 6.5625,29.78125 6.352538,29.70964 6.194986,29.64909 6.125,29.59375 c -0.069987,-0.05534 -0.093751,-0.14583 -0.09375,-0.25 -1e-6,-0.12207 0.028971,-0.21452 0.125,-0.28125 0.097655,-0.06836 0.23535,-0.09375 0.40625,-0.09375 0.219725,0 0.46647,0.05209 0.71875,0.15625 l 0.125,-0.3125 C 7.157225,28.69532 6.865233,28.625 6.5625,28.625 z m 4.84375,0 c -0.29297,0 -0.54948,0.08041 -0.71875,0.21875 -0.16764,0.13835 -0.25,0.32129 -0.25,0.53125 0.0016,0.17253 0.05697,0.29069 0.15625,0.40625 0.10091,0.11556 0.26563,0.23438 0.5,0.3125 l 0.21875,0.0625 c 0.2474,0.08464 0.41536,0.15039 0.5,0.21875 0.08463,0.06836 0.125,0.16244 0.125,0.28125 -0.0114,0.27995 -0.22787,0.4375 -0.625,0.4375 -0.26204,0 -0.50944,-0.07389 -0.78125,-0.21875 l -0.0625,0.34375 c 0.09603,0.06185 0.222,0.11719 0.375,0.15625 0.15462,0.03906 0.31771,0.03125 0.5,0.03125 0.29622,0 0.54459,-0.05241 0.71875,-0.1875 0.17415,-0.13672 0.2467,-0.3151 0.25,-0.5625 0,-0.20345 -0.04395,-0.38118 -0.15625,-0.5 -0.11231,-0.12044 -0.32357,-0.22461 -0.59375,-0.3125 -0.08138,-0.02604 -0.13379,-0.04297 -0.1875,-0.0625 -0.20996,-0.07161 -0.33626,-0.13216 -0.40625,-0.1875 -0.06999,-0.05534 -0.125,-0.14583 -0.125,-0.25 0,-0.12207 0.06022,-0.21452 0.15625,-0.28125 0.09766,-0.06836 0.23535,-0.09375 0.40625,-0.09375 0.21973,0 0.43522,0.05209 0.6875,0.15625 l 0.125,-0.3125 C 11.96972,28.69532 11.70898,28.625 11.40625,28.625 z m 4.21875,0 c -0.35319,0.0049 -0.62728,0.14746 -0.84375,0.40625 -0.21647,0.25716 -0.3125,0.58496 -0.3125,1 0,0.42969 0.08952,0.78385 0.3125,1.03125 0.22461,0.2474 0.5485,0.34375 0.9375,0.34375 0.34831,0 0.66569,-0.08399 0.9375,-0.25 l -0.0625,-0.3125 c -0.28483,0.14974 -0.5918,0.21875 -0.875,0.21875 -0.25716,0 -0.44076,-0.08073 -0.59375,-0.25 -0.15136,-0.1709 -0.2451,-0.41439 -0.25,-0.71875 h 1.84375 V 30 c 0.0016,-0.05208 0,-0.10547 0,-0.125 0,-0.37923 -0.08594,-0.68001 -0.28125,-0.90625 C 16.24381,28.74089 15.95703,28.625 15.625,28.625 z m 2.90625,0 c -0.19043,0 -0.35026,0.04037 -0.5,0.125 -0.14974,0.08464 -0.26237,0.1888 -0.34375,0.3125 l -0.0625,-0.375 h -0.34375 c 0,0.11068 -0.0033,1.0127 0,2.6875 h 0.40625 v -1.4375 c 0,-0.14648 0.0166,-0.28092 0.03125,-0.40625 C 17.76432,29.36686 17.86816,29.22429 18,29.125 c 0.13346,-0.09928 0.27344,-0.15625 0.46875,-0.15625 0.08789,10e-6 0.18652,0.03158 0.25,0.0625 0.06348,0.03093 0.08756,0.07292 0.125,0.125 0.03906,0.05209 0.07096,0.10287 0.09375,0.1875 0.02279,0.08301 0.0544,0.19173 0.0625,0.28125 0.0081,0.08789 0,0.19206 0,0.3125 v 1.4375 h 0.40625 v -1.46875 c -10e-6,-0.13346 0.0166,-0.25781 0.03125,-0.375 0.05371,-0.17415 0.15592,-0.31022 0.28125,-0.40625 0.12695,-0.09602 0.25846,-0.15625 0.4375,-0.15625 0.09114,0 0.18489,0.02832 0.25,0.0625 0.0651,0.03255 0.12044,0.07129 0.15625,0.125 0.03743,0.05209 0.04296,0.12761 0.0625,0.21875 0.02115,0.09115 0.0576,0.19336 0.0625,0.28125 0.0065,0.08789 0,0.18229 0,0.3125 V 31.375 h 0.40625 v -1.75 c 0,-0.33366 -0.07878,-0.58073 -0.21875,-0.75 -0.13835,-0.1709 -0.3584,-0.25 -0.65625,-0.25 -0.40202,0 -0.67969,0.15137 -0.875,0.46875 -0.01628,-0.04557 -0.03809,-0.08431 -0.0625,-0.125 -0.02442,-0.04231 -0.08106,-0.08268 -0.125,-0.125 C 19.1123,28.7998 19.08821,28.78093 19.03125,28.75 18.97591,28.71908 18.89713,28.67578 18.8125,28.65625 18.72949,28.63509 18.63053,28.625 18.53125,28.625 z m 10.5,0 c -0.35319,0.0049 -0.62728,0.14746 -0.84375,0.40625 -0.21647,0.25716 -0.3125,0.58496 -0.3125,1 0,0.42969 0.08952,0.78385 0.3125,1.03125 0.22461,0.2474 0.5485,0.34375 0.9375,0.34375 0.3483,0 0.66569,-0.08399 0.9375,-0.25 L 30,30.84375 c -0.28483,0.14974 -0.5918,0.21875 -0.875,0.21875 -0.25716,0 -0.44076,-0.08073 -0.59375,-0.25 -0.15137,-0.1709 -0.2451,-0.41439 -0.25,-0.71875 H 30.125 V 30 c 0.0016,-0.05208 0,-0.10547 0,-0.125 0,-0.37923 -0.08594,-0.68001 -0.28125,-0.90625 C 29.65006,28.74089 29.36328,28.625 29.03125,28.625 z m 7.96875,0 c -0.18392,0 -0.37175,0.04362 -0.53125,0.125 -0.15788,0.07976 -0.26921,0.18067 -0.375,0.3125 l -0.0625,-0.375 H 35.6875 v 2.6875 h 0.40625 v -1.46875 c 0,-0.1416 0.01497,-0.26595 0.03125,-0.375 0.04232,-0.16113 0.14128,-0.30534 0.28125,-0.40625 0.13997,-0.10091 0.29004,-0.15625 0.5,-0.15625 0.20019,0 0.35286,0.05046 0.4375,0.15625 0.08626,0.1058 0.14975,0.27214 0.15625,0.5 0.0016,0.0765 0,0.67578 0,1.75 h 0.40625 v -1.6875 c 0,-0.3597 -0.07064,-0.60872 -0.21875,-0.78125 C 37.53939,28.7321 37.30924,28.625 37,28.625 z m 12.90625,0 c -0.389,0 -0.71452,0.11784 -0.9375,0.375 -0.22298,0.25716 -0.3125,0.61458 -0.3125,1.03125 0,0.40853 0.09115,0.73958 0.3125,1 0.22298,0.26042 0.53027,0.375 0.90625,0.375 0.39062,0 0.68489,-0.11784 0.90625,-0.375 0.22135,-0.25879 0.34375,-0.58496 0.34375,-1 0,-0.41341 -0.0944,-0.74284 -0.3125,-1 C 50.5944,28.77246 50.28874,28.625 49.90625,28.625 z m -42.1875,0.0625 1.0625,2.65625 C 8.748697,31.43652 8.691731,31.5791 8.625,31.75 c -0.074871,0.18555 -0.153972,0.30827 -0.25,0.375 -0.094402,0.06836 -0.253581,0.09375 -0.4375,0.09375 -0.045573,0 -0.096354,0.0065 -0.1875,0 v 0.34375 c 0.086263,0.01303 0.171875,0 0.25,0 0.260416,0 0.465494,-0.05567 0.625,-0.1875 0.159504,-0.13021 0.325194,-0.34342 0.4375,-0.625 0.024413,-0.06185 0.371092,-1.07357 1.09375,-3.0625 H 9.75 L 8.96875,30.90625 8.125,28.6875 H 7.71875 z m 16.59375,0 v 2.6875 h 0.40625 V 28.6875 H 24.3125 z m 10.1875,0 v 2.6875 h 0.40625 V 28.6875 H 34.5 z m 3.96875,0 v 1.78125 c 0,0.13509 0.02344,0.26595 0.0625,0.375 0.03906,0.10905 0.08952,0.20801 0.15625,0.28125 0.06836,0.07162 0.15722,0.10742 0.25,0.15625 0.0944,0.0472 0.20833,0.10384 0.3125,0.125 0.10417,0.02116 0.19531,0.03125 0.3125,0.03125 0.11881,0 0.24121,-0.01009 0.34375,-0.03125 0.10416,-0.02116 0.18847,-0.0778 0.28125,-0.125 0.09277,-0.0472 0.18489,-0.08464 0.25,-0.15625 0.06673,-0.07324 0.11718,-0.1722 0.15625,-0.28125 0.03906,-0.10905 0.0625,-0.23828 0.0625,-0.375 V 28.6875 H 40.25 v 1.78125 c 0,0.22298 -0.06869,0.37598 -0.1875,0.46875 -0.11719,0.09277 -0.28841,0.15625 -0.5,0.15625 -0.10254,0 -0.17025,-0.01172 -0.25,-0.03125 -0.07813,-0.01954 -0.15527,-0.0498 -0.21875,-0.09375 -0.06185,-0.04557 -0.12207,-0.10612 -0.15625,-0.1875 -0.03255,-0.08138 -0.03125,-0.19531 -0.03125,-0.3125 V 28.6875 h -0.4375 z m 2.5625,0 L 41.96875,30 41,31.375 h 0.46875 l 0.75,-1.09375 0.75,1.09375 h 0.4375 L 42.4375,30 43.375,28.6875 H 42.9375 L 42.21875,29.71875 41.5,28.6875 h -0.46875 z m 4.9375,0 1.0625,2.65625 C 46.9987,31.43652 46.94173,31.5791 46.875,31.75 c -0.07487,0.18555 -0.15397,0.30827 -0.25,0.375 -0.0944,0.06836 -0.22233,0.09375 -0.40625,0.09375 -0.04557,0 -0.1276,0.0065 -0.21875,0 l 0.03125,0.34375 c 0.08626,0.01303 0.17187,0 0.25,0 0.26042,0 0.46549,-0.05567 0.625,-0.1875 0.1595,-0.13021 0.29394,-0.34342 0.40625,-0.625 0.02441,-0.06185 0.40234,-1.07357 1.125,-3.0625 H 48 l -0.75,2.21875 -0.84375,-2.21875 h -0.4375 z m 5.625,0 v 1.78125 c 0,0.13509 0.02344,0.26595 0.0625,0.375 0.03906,0.10905 0.08952,0.20801 0.15625,0.28125 0.06836,0.07162 0.15722,0.10742 0.25,0.15625 0.0944,0.0472 0.20833,0.10384 0.3125,0.125 0.10417,0.02116 0.19531,0.03125 0.3125,0.03125 0.11881,0 0.24121,-0.01009 0.34375,-0.03125 0.10416,-0.02116 0.18847,-0.0778 0.28125,-0.125 0.09277,-0.0472 0.18489,-0.08464 0.25,-0.15625 0.06673,-0.07324 0.11718,-0.1722 0.15625,-0.28125 0.03906,-0.10905 0.0625,-0.23828 0.0625,-0.375 V 28.6875 H 53.375 v 1.78125 c 0,0.22298 -0.06869,0.37598 -0.1875,0.46875 -0.11719,0.09277 -0.28841,0.15625 -0.5,0.15625 -0.10254,0 -0.17025,-0.01172 -0.25,-0.03125 -0.07813,-0.01954 -0.15527,-0.0498 -0.21875,-0.09375 -0.06185,-0.04557 -0.12207,-0.10612 -0.15625,-0.1875 -0.03255,-0.08138 -0.03125,-0.19531 -0.03125,-0.3125 V 28.6875 h -0.4375 z M 15.625,28.96875 c 0.20833,0 0.38118,0.07552 0.5,0.21875 0.12044,0.1416 0.1875,0.32845 0.1875,0.59375 h -1.40625 c 0.02279,-0.25553 0.08691,-0.44726 0.21875,-0.59375 0.13184,-0.14811 0.29167,-0.21875 0.5,-0.21875 z m 13.40625,0 c 0.20833,0 0.38118,0.07552 0.5,0.21875 0.12044,0.1416 0.1875,0.32845 0.1875,0.59375 H 28.3125 c 0.02278,-0.25553 0.08691,-0.44726 0.21875,-0.59375 0.13183,-0.14811 0.29167,-0.21875 0.5,-0.21875 z m 20.84375,0 c 0.27506,0 0.49154,0.09245 0.625,0.28125 0.13509,0.18718 0.21875,0.4541 0.21875,0.78125 0,0.32227 -0.08203,0.55957 -0.21875,0.75 -0.13509,0.19043 -0.32682,0.3125 -0.59375,0.3125 -0.27018,0 -0.4834,-0.12207 -0.625,-0.3125 -0.13997,-0.19206 -0.21875,-0.43262 -0.21875,-0.75 0,-0.32226 0.07878,-0.58919 0.21875,-0.78125 0.13997,-0.19206 0.32682,-0.28125 0.59375,-0.28125 z m -6,1.8125 c -0.0065,0.10417 -0.01823,0.23665 -0.03125,0.375 -0.01302,0.13835 -0.0068,0.29818 -0.03125,0.5 -0.02278,0.20345 -0.0576,0.3278 -0.0625,0.375 H 44 c 0.15462,-0.43945 0.29525,-0.80273 0.375,-1.125 v -0.125 h -0.5 z M 6.125,33.875 5.71875,33.90625 V 37.625 H 6.125 v -1.4375 c 0,-0.14974 0.016601,-0.28418 0.03125,-0.40625 0.042317,-0.16276 0.141275,-0.30371 0.28125,-0.40625 0.1416,-0.10254 0.29492,-0.15625 0.5,-0.15625 0.213214,0 0.384113,0.06543 0.46875,0.1875 0.08626,0.12207 0.124998,0.3252 0.125,0.59375 v 1.625 H 7.9375 v -1.6875 c -3e-6,-0.7015 -0.308922,-1.0625 -0.90625,-1.0625 -0.379233,0 -0.676759,0.1543 -0.90625,0.4375 0.00651,-0.13672 -1e-6,-0.25097 0,-0.34375 V 33.875 z m 17.75,0 -0.40625,0.03125 V 37.625 H 23.8125 L 23.875,37.25 c 0.09766,0.13184 0.19726,0.236 0.34375,0.3125 0.14648,0.0765 0.32259,0.09375 0.5,0.09375 0.24088,0 0.45247,-0.03581 0.625,-0.15625 0.17415,-0.12207 0.29036,-0.29004 0.375,-0.5 0.08626,-0.20996 0.125,-0.47331 0.125,-0.75 0,-0.26693 -0.03874,-0.48079 -0.125,-0.6875 -0.08627,-0.2067 -0.20248,-0.37956 -0.375,-0.5 -0.17253,-0.12044 -0.38737,-0.1875 -0.625,-0.1875 -0.1709,0 -0.31738,0.04525 -0.46875,0.125 -0.14974,0.07813 -0.2806,0.17741 -0.375,0.3125 0.0065,-0.15625 0,-0.3444 0,-0.5625 v -0.875 z m 21.4375,0 -0.40625,0.03125 V 37.625 h 0.40625 v -1.0625 l 0.28125,-0.28125 1,1.34375 h 0.5 L 45.90625,36.0625 47,34.9375 h -0.5 c -0.59082,0.59408 -0.95215,0.97038 -1.09375,1.125 -0.0114,0.0114 -0.04297,0.03972 -0.0625,0.0625 -0.01954,0.02279 -0.02145,0.02145 -0.03125,0.03125 V 33.875 z m -27.5,0.4375 -0.125,0.625 -0.375,0.03125 -0.03125,0.28125 h 0.40625 v 1.59375 c 0.0065,0.28646 0.07682,0.49642 0.1875,0.625 0.11068,0.12858 0.29883,0.1875 0.5625,0.1875 0.10254,0 0.24381,0.0029 0.4375,-0.03125 l -0.03125,-0.34375 c -0.17904,0.02604 -0.29004,0.0625 -0.34375,0.0625 -0.14974,0 -0.25065,-0.04199 -0.3125,-0.125 -0.06185,-0.08301 -0.09375,-0.23405 -0.09375,-0.4375 V 35.25 h 0.75 v -0.3125 h -0.75 v -0.625 H 17.8125 z M 9.46875,34.875 c -0.169272,1e-5 -0.335613,0.02181 -0.5,0.0625 -0.162761,0.03906 -0.287435,0.08952 -0.40625,0.15625 0.00163,0.0033 -0.00293,0.06185 0.03125,0.15625 0.03418,0.09278 0.05436,0.13672 0.0625,0.15625 0.268554,-0.1302 0.548827,-0.1875 0.8125,-0.1875 0.1888,0 0.318358,0.03386 0.40625,0.125 0.087889,0.09115 0.124998,0.2487 0.125,0.4375 V 36 c -0.053713,0.0049 -0.109702,0.02145 -0.21875,0.03125 -0.107424,0.0081 -0.19629,0.02635 -0.25,0.03125 -0.390626,0.03255 -0.697917,0.11817 -0.90625,0.25 -0.206706,0.13184 -0.3125,0.32031 -0.3125,0.59375 0,0.24577 0.067382,0.43067 0.21875,0.5625 0.152994,0.13021 0.374348,0.1875 0.625,0.1875 0.17578,0 0.33854,-0.0055 0.46875,-0.0625 0.130207,-0.05697 0.258136,-0.16439 0.40625,-0.3125 0.02278,0.12044 0.03808,0.23958 0.0625,0.34375 h 0.3125 v -1.78125 c 0,-0.34993 -0.07064,-0.60514 -0.21875,-0.75 C 10.04101,34.94726 9.802407,34.875 9.46875,34.875 z m 5.21875,0 c -0.35319,0.0049 -0.65853,0.14746 -0.875,0.40625 -0.21647,0.25716 -0.3125,0.58496 -0.3125,1 0,0.42969 0.08952,0.78385 0.3125,1.03125 0.22461,0.2474 0.5485,0.34375 0.9375,0.34375 0.3483,0 0.66569,-0.08399 0.9375,-0.25 l -0.0625,-0.3125 c -0.28483,0.14974 -0.5918,0.21875 -0.875,0.21875 -0.25716,0 -0.44076,-0.08073 -0.59375,-0.25 -0.15137,-0.1709 -0.2451,-0.41439 -0.25,-0.71875 H 15.75 V 36.25 c 0.0016,-0.05208 0,-0.10547 0,-0.125 0,-0.37923 -0.08594,-0.68001 -0.28125,-0.90625 C 15.27506,34.99089 15.01953,34.875 14.6875,34.875 z m 5.71875,0 c -0.389,0 -0.68327,0.11784 -0.90625,0.375 -0.22298,0.25716 -0.34375,0.61458 -0.34375,1.03125 0,0.40853 0.1224,0.73958 0.34375,1 0.22298,0.26042 0.49902,0.375 0.875,0.375 0.39062,0 0.71614,-0.11784 0.9375,-0.375 0.22135,-0.25879 0.3125,-0.58496 0.3125,-1 0,-0.41341 -0.0944,-0.74284 -0.3125,-1 C 21.0944,35.02246 20.78874,34.875 20.40625,34.875 z m 7.0625,0 c -0.35319,0.0049 -0.62728,0.14746 -0.84375,0.40625 -0.21647,0.25716 -0.3125,0.58496 -0.3125,1 0,0.42969 0.08952,0.78385 0.3125,1.03125 0.22461,0.2474 0.5485,0.34375 0.9375,0.34375 0.3483,0 0.66569,-0.08399 0.9375,-0.25 l -0.0625,-0.3125 c -0.28483,0.14974 -0.5918,0.21875 -0.875,0.21875 -0.25716,0 -0.44076,-0.08073 -0.59375,-0.25 -0.15137,-0.1709 -0.2451,-0.41439 -0.25,-0.71875 H 28.5625 V 36.25 c 0.0016,-0.05208 0,-0.10547 0,-0.125 0,-0.37923 -0.08594,-0.68001 -0.28125,-0.90625 C 28.08756,34.99089 27.80078,34.875 27.46875,34.875 z m 3.9375,0 c -0.16927,1e-5 -0.33561,0.02181 -0.5,0.0625 -0.16276,0.03906 -0.28744,0.08952 -0.40625,0.15625 0.0016,0.0033 0.02832,0.06185 0.0625,0.15625 0.03418,0.09278 0.0544,0.13672 0.0625,0.15625 0.26855,-0.1302 0.51758,-0.1875 0.78125,-0.1875 0.1888,0 0.31836,0.03386 0.40625,0.125 0.08789,0.09115 0.15625,0.2487 0.15625,0.4375 V 36 c -0.05371,0.0049 -0.14095,0.02145 -0.25,0.03125 -0.10742,0.0081 -0.19629,0.02635 -0.25,0.03125 -0.39063,0.03255 -0.69792,0.11817 -0.90625,0.25 -0.20671,0.13184 -0.3125,0.32031 -0.3125,0.59375 0,0.24577 0.09863,0.43067 0.25,0.5625 0.15299,0.13021 0.3431,0.1875 0.59375,0.1875 0.17578,0 0.33854,-0.0055 0.46875,-0.0625 0.13021,-0.05697 0.25814,-0.16439 0.40625,-0.3125 0.02278,0.12044 0.03808,0.23958 0.0625,0.34375 H 32.375 v -1.78125 c 0,-0.34993 -0.10189,-0.60514 -0.25,-0.75 C 31.97851,34.94726 31.73991,34.875 31.40625,34.875 z m 3.75,0 c -0.29297,0 -0.51823,0.08041 -0.6875,0.21875 -0.16765,0.13835 -0.25,0.32129 -0.25,0.53125 0.0016,0.17253 0.05697,0.29069 0.15625,0.40625 0.10091,0.11556 0.26562,0.23438 0.5,0.3125 l 0.1875,0.0625 c 0.2474,0.08464 0.41536,0.15039 0.5,0.21875 0.08463,0.06836 0.125,0.16244 0.125,0.28125 -0.0114,0.27995 -0.19662,0.4375 -0.59375,0.4375 -0.26205,0 -0.54069,-0.07389 -0.8125,-0.21875 L 34.25,37.46875 c 0.09603,0.06185 0.222,0.11719 0.375,0.15625 0.15462,0.03906 0.31771,0.03125 0.5,0.03125 0.29622,0 0.51334,-0.05241 0.6875,-0.1875 0.17415,-0.13672 0.27795,-0.3151 0.28125,-0.5625 0,-0.20345 -0.0752,-0.38118 -0.1875,-0.5 -0.11231,-0.12044 -0.29232,-0.22461 -0.5625,-0.3125 -0.08138,-0.02604 -0.13379,-0.04297 -0.1875,-0.0625 -0.20996,-0.07161 -0.36751,-0.13216 -0.4375,-0.1875 -0.06999,-0.05534 -0.09375,-0.14583 -0.09375,-0.25 0,-0.12207 0.02897,-0.21452 0.125,-0.28125 0.09766,-0.06836 0.23535,-0.09375 0.40625,-0.09375 0.21973,0 0.46647,0.05209 0.71875,0.15625 L 36,35.0625 C 35.75098,34.94532 35.45898,34.875 35.15625,34.875 z m 2.78125,0 c -0.18392,0 -0.3405,0.04362 -0.5,0.125 -0.15788,0.07976 -0.30046,0.18067 -0.40625,0.3125 l -0.0625,-0.375 h -0.3125 v 2.6875 h 0.40625 v -1.46875 c 0,-0.1416 0.01497,-0.26595 0.03125,-0.375 0.04232,-0.16113 0.11003,-0.30534 0.25,-0.40625 0.13997,-0.10091 0.32129,-0.15625 0.53125,-0.15625 0.20019,0 0.35286,0.05046 0.4375,0.15625 0.08626,0.1058 0.1185,0.27214 0.125,0.5 0.0016,0.0765 0,0.67578 0,1.75 h 0.40625 v -1.6875 c 0,-0.3597 -0.07064,-0.60872 -0.21875,-0.78125 C 38.47689,34.9821 38.24674,34.875 37.9375,34.875 z m 2.65625,0 c -0.35319,0.0049 -0.62728,0.14746 -0.84375,0.40625 -0.21647,0.25716 -0.34375,0.58496 -0.34375,1 0,0.42969 0.12077,0.78385 0.34375,1.03125 0.22461,0.2474 0.51725,0.34375 0.90625,0.34375 0.34831,0 0.66569,-0.08399 0.9375,-0.25 l -0.0625,-0.3125 c -0.28483,0.14974 -0.56055,0.21875 -0.84375,0.21875 -0.25716,0 -0.47201,-0.08073 -0.625,-0.25 -0.15136,-0.1709 -0.21385,-0.41439 -0.21875,-0.71875 h 1.8125 V 36.25 c 0.0016,-0.05208 0,-0.10547 0,-0.125 0,-0.37923 -0.08594,-0.68001 -0.28125,-0.90625 C 41.18131,34.99089 40.92578,34.875 40.59375,34.875 z m 2.65625,0 c -0.16927,1e-5 -0.33561,0.02181 -0.5,0.0625 -0.16276,0.03906 -0.31869,0.08952 -0.4375,0.15625 0.0016,0.0033 0.02832,0.06185 0.0625,0.15625 0.03418,0.09278 0.0544,0.13672 0.0625,0.15625 0.26855,-0.1302 0.54883,-0.1875 0.8125,-0.1875 0.1888,0 0.31836,0.03386 0.40625,0.125 0.08789,0.09115 0.125,0.2487 0.125,0.4375 V 36 c -0.05371,0.0049 -0.14095,0.02145 -0.25,0.03125 -0.10742,0.0081 -0.16504,0.02635 -0.21875,0.03125 -0.39063,0.03255 -0.69792,0.11817 -0.90625,0.25 -0.20671,0.13184 -0.3125,0.32031 -0.3125,0.59375 0,0.24577 0.06738,0.43067 0.21875,0.5625 0.15299,0.13021 0.3431,0.1875 0.59375,0.1875 0.17578,0 0.33854,-0.0055 0.46875,-0.0625 0.13021,-0.05697 0.28939,-0.16439 0.4375,-0.3125 0.02278,0.12044 0.03808,0.23958 0.0625,0.34375 h 0.3125 v -1.78125 c 0,-0.34993 -0.07064,-0.60514 -0.21875,-0.75 C 43.82226,34.94726 43.58366,34.875 43.25,34.875 z M 10.78125,34.9375 11.8125,37.625 H 12.25 l 1.03125,-2.6875 h -0.4375 c -0.26042,0.71778 -0.4388,1.24707 -0.5625,1.59375 -0.09766,0.27507 -0.19466,0.51335 -0.25,0.6875 L 11.8125,36.53125 11.21875,34.9375 h -0.4375 z m 36.3125,0 1.0625,2.65625 C 48.1237,37.68652 48.06673,37.8291 48,38 c -0.07487,0.18555 -0.15397,0.30827 -0.25,0.375 -0.0944,0.06836 -0.22233,0.09375 -0.40625,0.09375 -0.04557,0 -0.1276,0.0065 -0.21875,0 l 0.03125,0.34375 c 0.08626,0.01303 0.17187,0 0.25,0 0.26042,0 0.46549,-0.05567 0.625,-0.1875 0.1595,-0.13021 0.29394,-0.34342 0.40625,-0.625 0.02441,-0.06185 0.40234,-1.07357 1.125,-3.0625 H 49.125 l -0.75,2.21875 -0.84375,-2.21875 h -0.4375 z m -32.4375,0.28125 c 0.20833,0 0.38118,0.07552 0.5,0.21875 0.12044,0.1416 0.1875,0.32845 0.1875,0.59375 H 13.9375 c 0.02278,-0.25553 0.08691,-0.44726 0.21875,-0.59375 0.13183,-0.14811 0.29167,-0.21875 0.5,-0.21875 z m 5.75,0 c 0.27506,0 0.46028,0.09245 0.59375,0.28125 0.13509,0.18718 0.21875,0.4541 0.21875,0.78125 0,0.32227 -0.08203,0.55957 -0.21875,0.75 -0.13509,0.19043 -0.32682,0.3125 -0.59375,0.3125 -0.27018,0 -0.4834,-0.12207 -0.625,-0.3125 -0.13997,-0.19206 -0.21875,-0.43262 -0.21875,-0.75 0,-0.32226 0.07878,-0.58919 0.21875,-0.78125 0.13997,-0.19206 0.35807,-0.28125 0.625,-0.28125 z m 4.28125,0 c 0.17578,0 0.32194,0.06022 0.4375,0.15625 0.11556,0.09603 0.17155,0.22201 0.21875,0.375 0.04882,0.153 0.09375,0.32617 0.09375,0.53125 -10e-6,0.15137 -0.0332,0.28255 -0.0625,0.40625 -0.02767,0.1237 -0.06641,0.24447 -0.125,0.34375 -0.05697,0.09766 -0.11784,0.16341 -0.21875,0.21875 -0.09929,0.05372 -0.21191,0.09375 -0.34375,0.09375 -0.53223,0 -0.8125,-0.35612 -0.8125,-1.0625 0,-0.34505 0.08203,-0.60384 0.21875,-0.78125 0.13835,-0.17904 0.33496,-0.28125 0.59375,-0.28125 z m 2.78125,0 c 0.20833,0 0.38118,0.07552 0.5,0.21875 0.12044,0.1416 0.1875,0.32845 0.1875,0.59375 H 26.75 c 0.02278,-0.25553 0.08691,-0.44726 0.21875,-0.59375 0.13183,-0.14811 0.29167,-0.21875 0.5,-0.21875 z m 13.125,0 c 0.20833,0 0.34993,0.07552 0.46875,0.21875 0.12044,0.1416 0.1875,0.32845 0.1875,0.59375 h -1.40625 c 0.02279,-0.25553 0.08691,-0.44726 0.21875,-0.59375 0.13184,-0.14811 0.32292,-0.21875 0.53125,-0.21875 z M 9.6875,36.3125 c 0.027668,-0.0016 0.09798,0.0081 0.1875,0 0.091144,-0.0081 0.1169,0 0.125,0 V 36.75 c -0.04232,0.18066 -0.13314,0.33008 -0.28125,0.4375 -0.146486,0.10579 -0.306316,0.15625 -0.5,0.15625 -0.148113,0 -0.259115,-0.05176 -0.34375,-0.125 C 8.790364,37.14551 8.749999,37.04948 8.75,36.90625 8.749999,36.71908 8.799153,36.58464 8.9375,36.5 c 0.139973,-0.08463 0.396809,-0.15657 0.75,-0.1875 z m 21.9375,0 c 0.02767,-0.0016 0.09798,0.0081 0.1875,0 0.09114,-0.0081 0.1169,0 0.125,0 V 36.75 c -0.04232,0.18066 -0.13314,0.33008 -0.28125,0.4375 -0.14649,0.10579 -0.30632,0.15625 -0.5,0.15625 -0.14811,0 -0.25912,-0.05176 -0.34375,-0.125 -0.08463,-0.07324 -0.125,-0.16927 -0.125,-0.3125 0,-0.18717 0.04915,-0.32161 0.1875,-0.40625 0.13997,-0.08463 0.39681,-0.15657 0.75,-0.1875 z m 11.84375,0 c 0.02767,-0.0016 0.06673,0.0081 0.15625,0 0.09114,-0.0081 0.14815,0 0.15625,0 V 36.75 c -0.04232,0.18066 -0.13314,0.33008 -0.28125,0.4375 -0.14649,0.10579 -0.33757,0.15625 -0.53125,0.15625 -0.14811,0 -0.25912,-0.05176 -0.34375,-0.125 -0.08463,-0.07324 -0.125,-0.16927 -0.125,-0.3125 0,-0.18717 0.0804,-0.32161 0.21875,-0.40625 0.13997,-0.08463 0.39681,-0.15657 0.75,-0.1875 z M 6.15625,40.125 5.75,40.15625 V 43.875 H 6.09375 L 6.125,43.5 c 0.097655,0.13184 0.228515,0.236 0.375,0.3125 0.146483,0.0765 0.29134,0.09375 0.46875,0.09375 0.240884,0 0.452472,-0.03581 0.625,-0.15625 C 7.767901,43.62793 7.915362,43.45996 8,43.25 8.08626,43.04004 8.124997,42.77669 8.125,42.5 8.124997,42.23307 8.08626,42.01921 8,41.8125 7.913734,41.6058 7.766274,41.43294 7.59375,41.3125 7.421222,41.19206 7.206378,41.125 6.96875,41.125 6.79785,41.125 6.651366,41.17025 6.5,41.25 6.350259,41.32813 6.2194,41.42741 6.125,41.5625 6.13151,41.40625 6.156249,41.2181 6.15625,41 v -0.875 z m 15.9375,0 -0.40625,0.03125 v 1.15625 l 0.03125,0.25 c -0.07813,-0.13021 -0.21712,-0.236 -0.375,-0.3125 -0.15625,-0.07812 -0.32259,-0.125 -0.5,-0.125 -0.3418,0 -0.60905,0.11947 -0.8125,0.375 -0.20345,0.25391 -0.3125,0.58659 -0.3125,1 0,0.43294 0.1123,0.77897 0.3125,1.03125 0.20019,0.25065 0.49056,0.375 0.84375,0.375 0.18066,0 0.32226,-0.014 0.46875,-0.09375 0.14648,-0.07975 0.25586,-0.20866 0.34375,-0.34375 h 0.03125 L 21.75,43.875 h 0.34375 v -3.75 z m -8.1875,0.4375 -0.125,0.625 -0.375,0.03125 L 13.375,41.5 h 0.40625 v 1.59375 c 0.0065,0.28646 0.07682,0.49642 0.1875,0.625 0.11068,0.12858 0.29883,0.1875 0.5625,0.1875 0.10254,0 0.24381,0.0029 0.4375,-0.03125 L 14.9375,43.53125 c -0.17904,0.02604 -0.29004,0.0625 -0.34375,0.0625 -0.14974,0 -0.25065,-0.04199 -0.3125,-0.125 C 14.2194,43.38574 14.1875,43.2347 14.1875,43.03125 V 41.5 h 0.75 v -0.3125 h -0.75 v -0.625 h -0.28125 z m 10.40625,0 -0.125,0.625 -0.375,0.03125 L 23.78125,41.5 h 0.40625 v 1.59375 c 0.0065,0.28646 0.04557,0.49642 0.15625,0.625 0.11068,0.12858 0.29883,0.1875 0.5625,0.1875 0.10254,0 0.27506,0.0029 0.46875,-0.03125 l -0.03125,-0.34375 c -0.17904,0.02604 -0.29004,0.0625 -0.34375,0.0625 -0.14974,0 -0.25065,-0.04199 -0.3125,-0.125 -0.06185,-0.08301 -0.09375,-0.23405 -0.09375,-0.4375 V 41.5 h 0.75 v -0.3125 h -0.75 v -0.625 H 24.3125 z M 9.6875,41.125 c -0.169272,1e-5 -0.335613,0.02181 -0.5,0.0625 -0.162761,0.03906 -0.287436,0.08952 -0.40625,0.15625 0.00163,0.0033 -0.00293,0.06185 0.03125,0.15625 0.03418,0.09278 0.05436,0.13672 0.0625,0.15625 0.268554,-0.1302 0.548827,-0.1875 0.8125,-0.1875 0.1888,0 0.31836,0.03386 0.40625,0.125 0.08789,0.09115 0.125,0.2487 0.125,0.4375 V 42.25 c -0.05371,0.0049 -0.1097,0.02145 -0.21875,0.03125 -0.107423,0.0081 -0.196291,0.02635 -0.25,0.03125 -0.390626,0.03255 -0.697917,0.11817 -0.90625,0.25 -0.206706,0.13184 -0.3125,0.32031 -0.3125,0.59375 0,0.24577 0.067382,0.43067 0.21875,0.5625 0.152994,0.13021 0.374348,0.1875 0.625,0.1875 0.17578,0 0.30729,-0.0055 0.4375,-0.0625 0.130207,-0.05697 0.28939,-0.16439 0.4375,-0.3125 0.02278,0.12044 0.03808,0.23958 0.0625,0.34375 h 0.3125 v -1.78125 c 0,-0.34993 -0.07064,-0.60514 -0.21875,-0.75 C 10.25976,41.19726 10.02116,41.125 9.6875,41.125 z m 2.5,0 c -0.29297,0 -0.51823,0.08041 -0.6875,0.21875 -0.16764,0.13835 -0.25,0.32129 -0.25,0.53125 0.0016,0.17253 0.05697,0.29069 0.15625,0.40625 0.10091,0.11556 0.26562,0.23438 0.5,0.3125 l 0.1875,0.0625 c 0.24739,0.08464 0.41536,0.15039 0.5,0.21875 0.08463,0.06836 0.125,0.16244 0.125,0.28125 -0.01139,0.27995 -0.19662,0.4375 -0.59375,0.4375 -0.26204,0 -0.54069,-0.07389 -0.8125,-0.21875 L 11.25,43.71875 c 0.09603,0.06185 0.222,0.11719 0.375,0.15625 0.15462,0.03906 0.31771,0.03125 0.5,0.03125 0.29622,0 0.54459,-0.05241 0.71875,-0.1875 0.17415,-0.13672 0.27795,-0.3151 0.28125,-0.5625 0,-0.20345 -0.0752,-0.38118 -0.1875,-0.5 -0.11231,-0.12044 -0.29232,-0.22461 -0.5625,-0.3125 -0.08138,-0.02604 -0.16504,-0.04297 -0.21875,-0.0625 -0.20996,-0.07161 -0.33626,-0.13216 -0.40625,-0.1875 -0.06999,-0.05534 -0.125,-0.14583 -0.125,-0.25 0,-0.12207 0.06022,-0.21452 0.15625,-0.28125 0.09766,-0.06836 0.23535,-0.09375 0.40625,-0.09375 0.21973,0 0.46647,0.05209 0.71875,0.15625 L 13,41.3125 C 12.75098,41.19532 12.49023,41.125 12.1875,41.125 z m 4.25,0 c -0.16927,1e-5 -0.33561,0.02181 -0.5,0.0625 -0.16276,0.03906 -0.31869,0.08952 -0.4375,0.15625 0.0016,0.0033 0.02832,0.06185 0.0625,0.15625 0.03418,0.09278 0.0544,0.13672 0.0625,0.15625 0.26855,-0.1302 0.51758,-0.1875 0.78125,-0.1875 0.1888,0 0.34961,0.03386 0.4375,0.125 0.08789,0.09115 0.125,0.2487 0.125,0.4375 V 42.25 c -0.05371,0.0049 -0.14095,0.02145 -0.25,0.03125 -0.10742,0.0081 -0.19629,0.02635 -0.25,0.03125 -0.39063,0.03255 -0.66667,0.11817 -0.875,0.25 -0.20671,0.13184 -0.3125,0.32031 -0.3125,0.59375 0,0.24577 0.06738,0.43067 0.21875,0.5625 0.15299,0.13021 0.3431,0.1875 0.59375,0.1875 0.17578,0 0.33854,-0.0055 0.46875,-0.0625 0.13021,-0.05697 0.25814,-0.16439 0.40625,-0.3125 0.02278,0.12044 0.06933,0.23958 0.09375,0.34375 h 0.3125 v -1.78125 c 0,-0.34993 -0.07064,-0.60514 -0.21875,-0.75 C 17.00976,41.19726 16.77116,41.125 16.4375,41.125 z m 10.46875,0 c -0.389,0 -0.71452,0.11784 -0.9375,0.375 -0.22298,0.25716 -0.3125,0.61458 -0.3125,1.03125 0,0.40853 0.09115,0.73958 0.3125,1 0.22298,0.26042 0.53027,0.375 0.90625,0.375 0.39062,0 0.68489,-0.11784 0.90625,-0.375 0.22135,-0.25879 0.34375,-0.58496 0.34375,-1 0,-0.41341 -0.0944,-0.74284 -0.3125,-1 C 27.5944,41.27246 27.28874,41.125 26.90625,41.125 z m 2.9375,0 c -0.389,0 -0.71452,0.11784 -0.9375,0.375 -0.22298,0.25716 -0.3125,0.61458 -0.3125,1.03125 0,0.40853 0.09115,0.73958 0.3125,1 0.22298,0.26042 0.53027,0.375 0.90625,0.375 0.39062,0 0.68489,-0.11784 0.90625,-0.375 0.22135,-0.25879 0.34375,-0.58496 0.34375,-1 0,-0.41341 -0.12565,-0.74284 -0.34375,-1 -0.2181,-0.25879 -0.49251,-0.40625 -0.875,-0.40625 z m -10.5625,0.03125 c -0.16113,0 -0.32552,0.06348 -0.46875,0.15625 -0.14323,0.09278 -0.25098,0.19238 -0.34375,0.34375 L 18.4375,41.1875 h -0.34375 c 0,0.1416 -0.0016,1.04362 0,2.6875 H 18.5 v -1.5 c 0,-0.23437 0.07715,-0.43587 0.21875,-0.59375 0.14323,-0.15951 0.33463,-0.25 0.5625,-0.25 0.05534,0 0.11263,0.01823 0.1875,0.03125 v -0.375 c -0.06022,-0.0097 -0.11426,-0.03125 -0.1875,-0.03125 z M 6.9375,41.46875 c 0.17578,0 0.321938,0.06022 0.4375,0.15625 0.115558,0.09603 0.202797,0.22201 0.25,0.375 0.048826,0.153 0.062498,0.32617 0.0625,0.53125 -2e-6,0.15137 -0.00195,0.28255 -0.03125,0.40625 -0.027672,0.1237 -0.066408,0.24447 -0.125,0.34375 -0.056968,0.09766 -0.149091,0.16341 -0.25,0.21875 -0.099286,0.05372 -0.211916,0.09375 -0.34375,0.09375 -0.532228,0 -0.781251,-0.35612 -0.78125,-1.0625 -1e-6,-0.34505 0.05078,-0.60384 0.1875,-0.78125 0.138345,-0.17904 0.33496,-0.28125 0.59375,-0.28125 z m 13.96875,0 c 0.28157,0 0.46842,0.09733 0.59375,0.28125 0.12695,0.18229 0.1875,0.45117 0.1875,0.8125 0,0.32064 -0.05567,0.57748 -0.1875,0.75 -0.13021,0.17253 -0.3252,0.25 -0.59375,0.25 -0.16764,0 -0.32357,-0.03385 -0.4375,-0.125 -0.11393,-0.09115 -0.19792,-0.222 -0.25,-0.375 -0.05045,-0.15299 -0.0625,-0.32292 -0.0625,-0.53125 0,-0.14811 0.002,-0.28255 0.03125,-0.40625 0.03092,-0.12532 0.09765,-0.24772 0.15625,-0.34375 0.05859,-0.09603 0.12272,-0.16504 0.21875,-0.21875 0.09603,-0.05371 0.21842,-0.09375 0.34375,-0.09375 z m 6,0 c 0.27506,0 0.46029,0.09245 0.59375,0.28125 0.13509,0.18718 0.21875,0.4541 0.21875,0.78125 0,0.32227 -0.08203,0.55957 -0.21875,0.75 -0.13509,0.19043 -0.32682,0.3125 -0.59375,0.3125 -0.27018,0 -0.4834,-0.12207 -0.625,-0.3125 -0.13997,-0.19206 -0.21875,-0.43262 -0.21875,-0.75 0,-0.32226 0.07878,-0.58919 0.21875,-0.78125 0.13997,-0.19206 0.35807,-0.28125 0.625,-0.28125 z m 2.90625,0 c 0.27506,0 0.49153,0.09245 0.625,0.28125 0.13509,0.18718 0.1875,0.4541 0.1875,0.78125 0,0.32227 -0.05078,0.55957 -0.1875,0.75 -0.13509,0.19043 -0.35808,0.3125 -0.625,0.3125 -0.27018,0 -0.45215,-0.12207 -0.59375,-0.3125 C 29.07878,43.08919 29,42.84863 29,42.53125 29,42.20899 29.07878,41.94206 29.21875,41.75 29.35872,41.55794 29.54557,41.46875 29.8125,41.46875 z M 9.90625,42.5625 c 0.027668,-0.0016 0.06673,0.0081 0.15625,0 0.09115,-0.0081 0.14815,0 0.15625,0 V 43 c -0.04232,0.18066 -0.13314,0.33008 -0.28125,0.4375 -0.146486,0.10579 -0.306316,0.15625 -0.5,0.15625 -0.148113,0 -0.259116,-0.05176 -0.34375,-0.125 -0.084636,-0.07324 -0.156251,-0.16927 -0.15625,-0.3125 -10e-7,-0.18717 0.080403,-0.32161 0.21875,-0.40625 0.139973,-0.08463 0.396809,-0.15657 0.75,-0.1875 z m 6.71875,0 c 0.02767,-0.0016 0.09798,0.0081 0.1875,0 0.09115,-0.0081 0.14815,0 0.15625,0 V 43 c -0.04232,0.18066 -0.13314,0.33008 -0.28125,0.4375 -0.14649,0.10579 -0.33757,0.15625 -0.53125,0.15625 -0.14811,0 -0.25912,-0.05176 -0.34375,-0.125 -0.08463,-0.07324 -0.125,-0.16927 -0.125,-0.3125 0,-0.18717 0.0804,-0.32161 0.21875,-0.40625 0.13997,-0.08463 0.36556,-0.15657 0.71875,-0.1875 z M 31.8125,43.25 c -0.10254,1e-5 -0.19303,0.03027 -0.25,0.09375 -0.05697,0.06348 -0.09375,0.13086 -0.09375,0.21875 0,0.08626 0.03678,0.1849 0.09375,0.25 0.05859,0.06347 0.14909,0.09375 0.25,0.09375 0.10254,0 0.16178,-0.03027 0.21875,-0.09375 0.05697,-0.06348 0.09375,-0.16211 0.09375,-0.25 0,-0.08789 -0.03678,-0.15527 -0.09375,-0.21875 C 31.97428,43.28027 31.91504,43.25 31.8125,43.25 z m -0.28125,9.375 -0.40625,0.03125 v 2.8125 c 0,0.34668 0.04883,0.57878 0.15625,0.71875 0.10905,0.13997 0.30208,0.21875 0.5625,0.21875 0.11393,0 0.26985,-0.0036 0.4375,-0.03125 L 32.25,56.03125 c -0.153,0.0195 -0.26042,0.03125 -0.3125,0.03125 -0.06348,0 -0.11231,0.0081 -0.15625,0 -0.04232,-0.0098 -0.09408,-0.03646 -0.125,-0.0625 -0.03092,-0.02767 -0.04622,-0.0612 -0.0625,-0.09375 -0.01627,-0.03255 -0.02145,-0.06152 -0.03125,-0.125 -0.0097,-0.0651 -0.02795,-0.15202 -0.03125,-0.21875 -0.0016,-0.06673 0,-0.13932 0,-0.25 V 52.625 z m 3.21875,0 -0.40625,0.03125 v 1.15625 l 0.03125,0.25 C 34.29687,53.93229 34.15788,53.8265 34,53.75 c -0.15625,-0.07812 -0.32259,-0.125 -0.5,-0.125 -0.3418,0 -0.60905,0.11947 -0.8125,0.375 -0.20345,0.25391 -0.3125,0.58659 -0.3125,1 0,0.43294 0.1123,0.77897 0.3125,1.03125 0.20019,0.25065 0.49056,0.375 0.84375,0.375 0.18066,0 0.32226,-0.014 0.46875,-0.09375 0.14648,-0.07975 0.25586,-0.20866 0.34375,-0.34375 H 34.375 L 34.40625,56.375 H 34.75 v -3.75 z M 8.28125,52.71875 V 53.1875 H 8.6875 V 52.71875 H 8.28125 z M 5.8125,52.75 v 3.625 h 2 V 56 H 6.21875 V 52.75 H 5.8125 z m 12.46875,0 v 0.375 h 1.125 v 3.25 h 0.40625 v -3.25 h 1.125 V 52.75 h -2.65625 z m -7.5,0.875 c -0.18392,0 -0.37175,0.04362 -0.53125,0.125 -0.15788,0.07976 -0.300457,0.18067 -0.40625,0.3125 L 9.8125,53.6875 H 9.46875 V 56.375 H 9.875 v -1.46875 c -10e-7,-0.1416 0.014973,-0.26595 0.03125,-0.375 0.042317,-0.16113 0.14127,-0.30534 0.28125,-0.40625 0.13997,-0.10091 0.29004,-0.15625 0.5,-0.15625 0.20019,0 0.35286,0.05046 0.4375,0.15625 0.08626,0.1058 0.14975,0.27214 0.15625,0.5 0.0016,0.0765 0,0.67578 0,1.75 h 0.40625 v -1.6875 c 0,-0.3597 -0.07064,-0.60872 -0.21875,-0.78125 C 11.32064,53.7321 11.09049,53.625 10.78125,53.625 z m 5.09375,0 c -0.29297,0 -0.51823,0.08041 -0.6875,0.21875 -0.16764,0.13835 -0.25,0.32129 -0.25,0.53125 0.0016,0.17253 0.05697,0.29069 0.15625,0.40625 0.10091,0.11556 0.26562,0.23438 0.5,0.3125 l 0.21875,0.0625 c 0.24739,0.08464 0.41536,0.15039 0.5,0.21875 0.08463,0.06836 0.125,0.16244 0.125,0.28125 -0.0114,0.27995 -0.22787,0.4375 -0.625,0.4375 -0.26204,0 -0.54069,-0.07389 -0.8125,-0.21875 l -0.03125,0.34375 c 0.09603,0.06185 0.22201,0.11719 0.375,0.15625 0.15462,0.03906 0.31771,0.03125 0.5,0.03125 0.29622,0 0.51334,-0.05241 0.6875,-0.1875 0.17415,-0.13672 0.27795,-0.3151 0.28125,-0.5625 0,-0.20345 -0.04395,-0.38118 -0.15625,-0.5 -0.11231,-0.12044 -0.32357,-0.22461 -0.59375,-0.3125 -0.08138,-0.02604 -0.13379,-0.04297 -0.1875,-0.0625 -0.20996,-0.07161 -0.36751,-0.13216 -0.4375,-0.1875 -0.06999,-0.05534 -0.09375,-0.14583 -0.09375,-0.25 0,-0.12207 0.06022,-0.21452 0.15625,-0.28125 0.09766,-0.06836 0.2041,-0.09375 0.375,-0.09375 0.21972,0 0.46647,0.05209 0.71875,0.15625 l 0.125,-0.3125 C 16.46972,53.69532 16.17773,53.625 15.875,53.625 z m 6.4375,0 c -0.389,0 -0.68327,0.11784 -0.90625,0.375 -0.22298,0.25716 -0.34375,0.61458 -0.34375,1.03125 0,0.40853 0.1224,0.73958 0.34375,1 0.22298,0.26042 0.53027,0.375 0.90625,0.375 0.39062,0 0.68489,-0.11784 0.90625,-0.375 0.22135,-0.25879 0.34375,-0.58496 0.34375,-1 0,-0.41341 -0.12565,-0.74284 -0.34375,-1 C 23.00065,53.77246 22.69498,53.625 22.3125,53.625 z m 7.15625,0 c -0.16927,1e-5 -0.33561,0.02181 -0.5,0.0625 -0.16276,0.03906 -0.28744,0.08952 -0.40625,0.15625 0.0016,0.0033 -0.0029,0.06185 0.03125,0.15625 0.03418,0.09278 0.0544,0.13672 0.0625,0.15625 0.26855,-0.1302 0.54883,-0.1875 0.8125,-0.1875 0.1888,0 0.31836,0.03386 0.40625,0.125 0.08789,0.09115 0.125,0.2487 0.125,0.4375 V 54.75 c -0.05371,0.0049 -0.1097,0.02145 -0.21875,0.03125 -0.10742,0.0081 -0.19629,0.02635 -0.25,0.03125 -0.39063,0.03255 -0.69792,0.11817 -0.90625,0.25 -0.20671,0.13184 -0.3125,0.32031 -0.3125,0.59375 0,0.24577 0.06738,0.43067 0.21875,0.5625 0.15299,0.13021 0.37435,0.1875 0.625,0.1875 0.17578,0 0.33854,-0.0055 0.46875,-0.0625 0.13021,-0.05697 0.25814,-0.16439 0.40625,-0.3125 0.02278,0.12044 0.03808,0.23958 0.0625,0.34375 h 0.3125 v -1.78125 c 0,-0.34993 -0.07064,-0.60514 -0.21875,-0.75 C 30.04101,53.69726 29.80241,53.625 29.46875,53.625 z m 6.84375,0 c -0.29297,0 -0.51823,0.08041 -0.6875,0.21875 -0.16764,0.13835 -0.25,0.32129 -0.25,0.53125 0.0016,0.17253 0.05697,0.29069 0.15625,0.40625 0.10091,0.11556 0.26563,0.23438 0.5,0.3125 l 0.1875,0.0625 c 0.24739,0.08464 0.41536,0.15039 0.5,0.21875 0.08463,0.06836 0.125,0.16244 0.125,0.28125 -0.01139,0.27995 -0.19662,0.4375 -0.59375,0.4375 -0.26204,0 -0.54069,-0.07389 -0.8125,-0.21875 l -0.0625,0.34375 c 0.09603,0.06185 0.222,0.11719 0.375,0.15625 0.15462,0.03906 0.34896,0.03125 0.53125,0.03125 0.29622,0 0.51335,-0.05241 0.6875,-0.1875 0.17415,-0.13672 0.27795,-0.3151 0.28125,-0.5625 0,-0.20345 -0.0752,-0.38118 -0.1875,-0.5 -0.11231,-0.12044 -0.29232,-0.22461 -0.5625,-0.3125 -0.08138,-0.02604 -0.16504,-0.04297 -0.21875,-0.0625 -0.20996,-0.07161 -0.33626,-0.13216 -0.40625,-0.1875 -0.06999,-0.05534 -0.09375,-0.14583 -0.09375,-0.25 0,-0.12207 0.02897,-0.21452 0.125,-0.28125 0.09765,-0.06836 0.23535,-0.09375 0.40625,-0.09375 0.21972,0 0.46647,0.05209 0.71875,0.15625 l 0.125,-0.3125 C 36.90722,53.69532 36.61523,53.625 36.3125,53.625 z m -11,0.03125 c -0.16113,0 -0.29427,0.06348 -0.4375,0.15625 -0.14323,0.09278 -0.28223,0.19238 -0.375,0.34375 L 24.46875,53.6875 H 24.125 c 0,0.1416 -0.0016,1.04362 0,2.6875 h 0.40625 v -1.5 c 0,-0.23437 0.07715,-0.43587 0.21875,-0.59375 0.14323,-0.15951 0.33463,-0.25 0.5625,-0.25 0.05534,0 0.11263,0.01823 0.1875,0.03125 l 0.03125,-0.375 C 25.47103,53.67775 25.38574,53.65625 25.3125,53.65625 z M 8.28125,53.6875 V 56.375 H 8.6875 V 53.6875 H 8.28125 z m 3.96875,0 v 1.78125 c 0,0.13509 0.02344,0.26595 0.0625,0.375 0.03906,0.10905 0.08952,0.20801 0.15625,0.28125 0.06836,0.07162 0.15723,0.10742 0.25,0.15625 0.0944,0.0472 0.20833,0.10384 0.3125,0.125 0.10417,0.02116 0.19531,0.03125 0.3125,0.03125 0.11881,0 0.24121,-0.01009 0.34375,-0.03125 0.10416,-0.02116 0.18847,-0.0778 0.28125,-0.125 0.09277,-0.0472 0.18489,-0.08463 0.25,-0.15625 0.06673,-0.07324 0.11719,-0.1722 0.15625,-0.28125 0.03906,-0.10905 0.0625,-0.23828 0.0625,-0.375 V 53.6875 h -0.40625 v 1.78125 c 0,0.22298 -0.06869,0.37598 -0.1875,0.46875 -0.11719,0.09277 -0.28841,0.15625 -0.5,0.15625 -0.10254,0 -0.2015,-0.01172 -0.28125,-0.03125 C 12.98437,56.04296 12.93848,56.0127 12.875,55.96875 12.81315,55.92318 12.75293,55.86263 12.71875,55.78125 12.6862,55.69987 12.6875,55.58594 12.6875,55.46875 V 53.6875 H 12.25 z m 13.34375,0 1.03125,2.6875 h 0.46875 L 28.125,53.6875 h -0.4375 c -0.26042,0.71778 -0.47005,1.24707 -0.59375,1.59375 -0.09766,0.27507 -0.16341,0.51335 -0.21875,0.6875 l -0.25,-0.6875 -0.59375,-1.59375 h -0.4375 z m -3.28125,0.28125 c 0.27506,0 0.49154,0.09245 0.625,0.28125 0.13509,0.18718 0.1875,0.4541 0.1875,0.78125 0,0.32227 -0.08203,0.55957 -0.21875,0.75 -0.13509,0.19043 -0.32682,0.3125 -0.59375,0.3125 -0.27018,0 -0.4834,-0.12207 -0.625,-0.3125 -0.13997,-0.19206 -0.1875,-0.43262 -0.1875,-0.75 0,-0.32226 0.04752,-0.58919 0.1875,-0.78125 0.13997,-0.19206 0.35807,-0.28125 0.625,-0.28125 z m 11.25,0 c 0.28157,0 0.46842,0.09733 0.59375,0.28125 0.12695,0.18229 0.1875,0.45117 0.1875,0.8125 0,0.32064 -0.05567,0.57748 -0.1875,0.75 -0.13021,0.17253 -0.3252,0.25 -0.59375,0.25 -0.16764,0 -0.32357,-0.03385 -0.4375,-0.125 -0.11393,-0.09115 -0.19792,-0.222 -0.25,-0.375 -0.05045,-0.15299 -0.0625,-0.32292 -0.0625,-0.53125 0,-0.14811 0.002,-0.28255 0.03125,-0.40625 0.03092,-0.12532 0.09766,-0.24772 0.15625,-0.34375 0.05859,-0.09603 0.12272,-0.16504 0.21875,-0.21875 0.09603,-0.05371 0.21842,-0.09375 0.34375,-0.09375 z m -3.875,1.09375 c 0.02767,-0.0016 0.09798,0.0081 0.1875,0 0.09115,-0.0081 0.1169,0 0.125,0 V 55.5 c -0.04232,0.18066 -0.13314,0.33008 -0.28125,0.4375 -0.14649,0.10579 -0.30632,0.15625 -0.5,0.15625 -0.14811,0 -0.25912,-0.05176 -0.34375,-0.125 -0.08463,-0.07324 -0.125,-0.16927 -0.125,-0.3125 0,-0.18717 0.04915,-0.32161 0.1875,-0.40625 0.13997,-0.08463 0.39681,-0.15657 0.75,-0.1875 z"
     id="rect4228"
     style="fill:#000000;fill-opacity:0.38339221;fill-rule:nonzero" />
  <path
     d="M 34,64 60,33 c -2.328567,2.776369 -4.36141,3 -11,3 H 37 v 15 c 0,6.644068 0.04437,9.370179 -3,13 z"
     id="path4278"
     style="fill:url(#linearGradient4280-7);fill-rule:nonzero" />
  <path
     d="m 59,32 c -2.328567,2.776369 -4.36141,3 -11,3 H 36 v 15 c 0,6.644068 0.04437,9.370179 -3,13 4,-5 4.000382,-8.356667 4,-13 V 36 h 11 c 5,0 8.041405,-0.381883 11,-4 z"
     id="path4282"
     style="fill:#f9f9f9;fill-opacity:1;fill-rule:nonzero"
     inkscape:connector-curvature="0" />
</svg>
