<?xml version="1.0" encoding="UTF-8" standalone="no"?>
<!-- Created with Inkscape (http://www.inkscape.org/) -->

<svg
   xmlns:dc="http://purl.org/dc/elements/1.1/"
   xmlns:cc="http://creativecommons.org/ns#"
   xmlns:rdf="http://www.w3.org/1999/02/22-rdf-syntax-ns#"
   xmlns:svg="http://www.w3.org/2000/svg"
   xmlns="http://www.w3.org/2000/svg"
   xmlns:xlink="http://www.w3.org/1999/xlink"
   xmlns:sodipodi="http://sodipodi.sourceforge.net/DTD/sodipodi-0.dtd"
   xmlns:inkscape="http://www.inkscape.org/namespaces/inkscape"
   version="1.1"
   width="64"
   height="64"
   id="svg13094"
   inkscape:version="0.48.3.1 r9886"
   sodipodi:docname="video-x-wmv.svg">
  <sodipodi:namedview
     pagecolor="#ffffff"
     bordercolor="#666666"
     borderopacity="1"
     objecttolerance="10"
     gridtolerance="10"
     guidetolerance="10"
     inkscape:pageopacity="0"
     inkscape:pageshadow="2"
     inkscape:window-width="1920"
     inkscape:window-height="1033"
     id="namedview70"
     showgrid="true"
     inkscape:zoom="10.429825"
     inkscape:cx="36.89144"
     inkscape:cy="30.782011"
     inkscape:window-x="-10"
     inkscape:window-y="25"
     inkscape:window-maximized="1"
     inkscape:current-layer="svg13094"
     fit-margin-top="0"
     fit-margin-left="0"
     fit-margin-right="0"
     fit-margin-bottom="0">
    <inkscape:grid
       type="xygrid"
       id="grid3062"
       empspacing="5"
       visible="true"
       enabled="true"
       snapvisiblegridlinesonly="true"
       originx="0px"
       originy="0px" />
  </sodipodi:namedview>
  <defs
     id="defs11">
    <linearGradient
       inkscape:collect="always"
       id="linearGradient4112">
      <stop
         style="stop-color:#8bbdf4;stop-opacity:1;"
         offset="0"
         id="stop4114" />
      <stop
         style="stop-color:#6294cf;stop-opacity:1"
         offset="1"
         id="stop4116" />
    </linearGradient>
    <linearGradient
       inkscape:collect="always"
       id="linearGradient4104">
      <stop
         style="stop-color:#8bbdf4;stop-opacity:1;"
         offset="0"
         id="stop4106" />
      <stop
         style="stop-color:#4bb9b2;stop-opacity:1"
         offset="1"
         id="stop4108" />
    </linearGradient>
    <linearGradient
       id="linearGradient3884">
      <stop
         style="stop-color:#00ff00;stop-opacity:0.20038785;"
         offset="0"
         id="stop3886" />
      <stop
         style="stop-color:#00ff00;stop-opacity:0;"
         offset="1"
         id="stop3888" />
    </linearGradient>
    <linearGradient
       id="linearGradient3866">
      <stop
         id="stop3868"
         offset="0"
         style="stop-color:#8400e2;stop-opacity:0.1926309;" />
      <stop
         id="stop3870"
         offset="1"
         style="stop-color:#9100ff;stop-opacity:0;" />
    </linearGradient>
    <linearGradient
       id="linearGradient3078">
      <stop
         style="stop-color:#00f7ff;stop-opacity:0.32062057;"
         offset="0"
         id="stop3080" />
      <stop
         style="stop-color:#00f9ff;stop-opacity:0;"
         offset="1"
         id="stop3082" />
    </linearGradient>
    <linearGradient
       id="linearGradient3835">
      <stop
         style="stop-color:#74ade7;stop-opacity:0;"
         offset="0"
         id="stop3837" />
      <stop
         style="stop-color:#5fbeff;stop-opacity:1"
         offset="1"
         id="stop3839" />
    </linearGradient>
    <radialGradient
       cx="72.138252"
       cy="18.31076"
       r="14.16129"
       fx="63.999298"
       id="radialGradient3946"
       gradientUnits="userSpaceOnUse"
       gradientTransform="matrix(-2.491188e-8,2.4715265,-0.51242273,0,69.382849,-145.2916)">
      <stop
         id="stop4130"
         style="stop-color:#000000;stop-opacity:0.21961807"
         offset="0" />
      <stop
         id="stop4132"
         style="stop-color:#000000;stop-opacity:0.08737245"
         offset="0.5" />
      <stop
         id="stop4134"
         style="stop-color:#000000;stop-opacity:0"
         offset="1" />
    </radialGradient>
    <radialGradient
       cx="48.30785"
       cy="47.141338"
       r="14.16129"
       id="radialGradient3996"
       gradientUnits="userSpaceOnUse"
       gradientTransform="matrix(0.93962333,0.77477937,-1.7975241,2.1799696,88.130548,-93.365748)">
      <stop
         id="stop3954"
         style="stop-color:#000000;stop-opacity:0.24565972"
         offset="0" />
      <stop
         id="stop3958"
         style="stop-color:#000000;stop-opacity:0.07378472"
         offset="0.5" />
      <stop
         id="stop3956"
         style="stop-color:#000000;stop-opacity:0"
         offset="1" />
    </radialGradient>
    <linearGradient
       x1="48.992088"
       y1="46.124821"
       x2="37"
       y2="36"
       id="linearGradient4280"
       gradientUnits="userSpaceOnUse">
      <stop
         id="stop4293"
         style="stop-color:#586ebd;stop-opacity:1"
         offset="0" />
      <stop
         id="stop4295"
         style="stop-color:#4459ab;stop-opacity:1"
         offset="0.2098622" />
      <stop
         id="stop4297"
         style="stop-color:#3d75ba;stop-opacity:1"
         offset="1" />
    </linearGradient>
    <linearGradient
       x1="45"
       y1="52"
       x2="73"
       y2="4"
       id="linearGradient4308"
       gradientUnits="userSpaceOnUse">
      <stop
         id="stop4304"
         style="stop-color:#000000;stop-opacity:0.10677083"
         offset="0" />
      <stop
         id="stop4306"
         style="stop-color:#000000;stop-opacity:0"
         offset="1" />
    </linearGradient>
    <linearGradient
       inkscape:collect="always"
       xlink:href="#linearGradient3835"
       id="linearGradient3841"
       x1="5"
       y1="43"
       x2="0"
       y2="43"
       gradientUnits="userSpaceOnUse" />
    <radialGradient
       inkscape:collect="always"
       xlink:href="#linearGradient3866"
       id="radialGradient3084"
       cx="12"
       cy="15.774194"
       fx="12"
       fy="15.774194"
       r="30"
       gradientTransform="matrix(0.44444445,0,0,0.45925925,-33.4,49.755556)"
       gradientUnits="userSpaceOnUse" />
    <radialGradient
       inkscape:collect="always"
       xlink:href="#linearGradient3078"
       id="radialGradient3860"
       gradientUnits="userSpaceOnUse"
       gradientTransform="matrix(0.44444445,0,0,0.45925925,-33.2,8.755556)"
       cx="12"
       cy="15.774194"
       fx="12"
       fy="15.774194"
       r="30" />
    <radialGradient
       inkscape:collect="always"
       xlink:href="#linearGradient3078"
       id="radialGradient3864"
       gradientUnits="userSpaceOnUse"
       gradientTransform="matrix(1.6666667,0,0,1.7222222,-10,-13.166666)"
       cx="12"
       cy="15.774194"
       fx="12"
       fy="15.774194"
       r="30" />
    <radialGradient
       inkscape:collect="always"
       xlink:href="#linearGradient3866"
       id="radialGradient3882"
       gradientUnits="userSpaceOnUse"
       gradientTransform="matrix(1.6666667,0,0,1.7222222,-10,-13.166666)"
       cx="23.4"
       cy="39"
       fx="23.4"
       fy="39"
       r="30" />
    <radialGradient
       inkscape:collect="always"
       xlink:href="#linearGradient3884"
       id="radialGradient3890"
       cx="54.333336"
       cy="18.483871"
       fx="54.333336"
       fy="18.483871"
       r="30"
       gradientTransform="matrix(1.4999998,0,0,1.55,-23.499991,-13.65)"
       gradientUnits="userSpaceOnUse" />
    <radialGradient
       inkscape:collect="always"
       xlink:href="#linearGradient3884"
       id="radialGradient3894"
       gradientUnits="userSpaceOnUse"
       gradientTransform="matrix(0.44444445,0,0,0.45925925,-33.4,29.755556)"
       cx="12"
       cy="15.774194"
       fx="12"
       fy="15.774194"
       r="30" />
    <linearGradient
       inkscape:collect="always"
       xlink:href="#linearGradient4104"
       id="linearGradient4110"
       x1="23"
       y1="2"
       x2="23"
       y2="5"
       gradientUnits="userSpaceOnUse" />
    <linearGradient
       inkscape:collect="always"
       xlink:href="#linearGradient4112"
       id="linearGradient4118"
       x1="27"
       y1="2"
       x2="27"
       y2="0"
       gradientUnits="userSpaceOnUse" />
    <linearGradient
       inkscape:collect="always"
       xlink:href="#linearGradient3918-5"
       id="linearGradient4549-8-1-0"
       gradientUnits="userSpaceOnUse"
       gradientTransform="translate(-3117.6016,-1600.2279)"
       x1="3165.6016"
       y1="1754.8943"
       x2="3165.6016"
       y2="1561.5615" />
    <linearGradient
       x1="31"
       y1="64"
       x2="31"
       y2="2"
       id="linearGradient3918-5"
       gradientUnits="userSpaceOnUse">
      <stop
         id="stop3920-7"
         style="stop-color:#d4d4d4;stop-opacity:1"
         offset="0" />
      <stop
         id="stop3922-4"
         style="stop-color:#e4e4e4;stop-opacity:1"
         offset="0.50050378" />
      <stop
         id="stop3924-8"
         style="stop-color:#d4d4d4;stop-opacity:1"
         offset="0.51612902" />
      <stop
         id="stop3926-8"
         style="stop-color:#e4e4e4;stop-opacity:1"
         offset="1" />
    </linearGradient>
    <linearGradient
       inkscape:collect="always"
       xlink:href="#linearGradient3978-3"
       id="linearGradient4366-4"
       gradientUnits="userSpaceOnUse"
       x1="-20.071127"
       y1="62.849762"
       x2="-20.071127"
       y2="5.000001"
       gradientTransform="translate(49.953457,-9.8049317e-7)" />
    <linearGradient
       gradientUnits="userSpaceOnUse"
       id="linearGradient3978-3"
       y2="2"
       x2="31"
       y1="64"
       x1="31">
      <stop
         offset="0"
         style="stop-color:#5380b2;stop-opacity:1"
         id="stop3980-0" />
      <stop
         offset="0.5"
         style="stop-color:#5a96cc;stop-opacity:1"
         id="stop3982-7" />
      <stop
         offset="0.51612902"
         style="stop-color:#5380b2;stop-opacity:1"
         id="stop3984-4" />
      <stop
         offset="1"
         style="stop-color:#5a96cc;stop-opacity:1"
         id="stop3986-8" />
    </linearGradient>
    <linearGradient
       inkscape:collect="always"
       xlink:href="#linearGradient4280"
       id="linearGradient4220"
       gradientUnits="userSpaceOnUse"
       x1="48.992088"
       y1="46.124821"
       x2="37"
       y2="36" />
    <linearGradient
       inkscape:collect="always"
       xlink:href="#linearGradient4280"
       id="linearGradient4224"
       gradientUnits="userSpaceOnUse"
       x1="48.992088"
       y1="46.124821"
       x2="37"
       y2="36" />
    <linearGradient
       inkscape:collect="always"
       xlink:href="#linearGradient4280"
       id="linearGradient4226"
       gradientUnits="userSpaceOnUse"
       x1="48.992088"
       y1="46.124821"
       x2="37"
       y2="36"
       gradientTransform="translate(1,1)" />
  </defs>
  <metadata
     id="metadata13099">
    <rdf:RDF>
      <cc:Work
         rdf:about="">
        <dc:format>image/svg+xml</dc:format>
        <dc:type
           rdf:resource="http://purl.org/dc/dcmitype/StillImage" />
        <dc:title />
      </cc:Work>
    </rdf:RDF>
  </metadata>
  <path
     d="M 3,0 C 1,0 0,1 0,2 l 0,58 64,0 0,-3 -3,0 0,-7 3,0 0,-40 -3,0 0,-7 3,0 L 64,0 5,0 4,0 3,0 z m 3,3 8,0 0,7 -8,0 0,-7 z m 11,0 8,0 0,7 -8,0 0,-7 z m 11,0 8,0 0,7 -8,0 0,-7 z m 11,0 8,0 0,7 -8,0 0,-7 z m 11,0 8,0 0,7 -8,0 0,-7 z m -44,47 8,0 0,7 -8,0 0,-7 z m 11,0 8,0 0,7 -8,0 0,-7 z m 11,0 8,0 0,7 -8,0 0,-7 z m 11,0 8,0 0,7 -8,0 0,-7 z m 11,0 8,0 0,7 -8,0 0,-7 z"
     id="path3960"
     style="fill:#4577b2;fill-opacity:1;fill-rule:nonzero"
     inkscape:connector-curvature="0" />
  <path
     style="color:#000000;fill:#000000;fill-opacity:0.13799283;fill-rule:nonzero;stroke:none;stroke-width:1;marker:none;visibility:visible;display:inline;overflow:visible;enable-background:accumulate"
     d="M 3 0 C 1 0 0 1 0 2 L 0 14 L 64 14 L 64 10 L 61 10 L 61 3 L 64 3 L 64 0 L 5 0 L 4 0 L 3 0 z M 6 3 L 14 3 L 14 10 L 6 10 L 6 3 z M 17 3 L 25 3 L 25 10 L 17 10 L 17 3 z M 28 3 L 36 3 L 36 10 L 28 10 L 28 3 z M 39 3 L 47 3 L 47 10 L 39 10 L 39 3 z M 50 3 L 58 3 L 58 10 L 50 10 L 50 3 z "
     id="rect4028" />
  <path
     style="color:#000000;fill:#000000;fill-opacity:0.13799283;fill-rule:nonzero;stroke:none;stroke-width:1;marker:none;visibility:visible;display:inline;overflow:visible;enable-background:accumulate"
     d="M 2 46 L 2 60 L 64 60 L 64 57 L 61 57 L 61 50 L 64 50 L 64 46 L 2 46 z M 6 50 L 14 50 L 14 57 L 6 57 L 6 50 z M 17 50 L 25 50 L 25 57 L 17 57 L 17 50 z M 28 50 L 36 50 L 36 57 L 28 57 L 28 50 z M 39 50 L 47 50 L 47 57 L 39 57 L 39 50 z M 50 50 L 58 50 L 58 57 L 50 57 L 50 50 z "
     id="rect3950" />
  <path
     d="m 60,33 4,4 0,-23 -4,0 z"
     id="path3900"
     style="fill:url(#radialGradient3946);fill-rule:nonzero"
     inkscape:connector-curvature="0"
     sodipodi:nodetypes="ccccc" />
  <path
     d="M 60,33 45.78125,50 47,50 l 0,7 -7.0625,0 -2.5,3 26.5625,0 0,-3 -3,0 0,-7 3,0 0,-13 -4,-4 z m -10,17 8,0 0,7 -8,0 0,-7 z"
     id="path3934"
     style="fill:url(#radialGradient3996);fill-rule:nonzero"
     inkscape:connector-curvature="0" />
  <path
     d="m 6,10 0,1 8,0 0,-1 -8,0 z m 11,0 0,1 8,0 0,-1 -8,0 z m 11,0 0,1 8,0 0,-1 -8,0 z m 11,0 0,1 8,0 0,-1 -8,0 z m 11,0 0,1 8,0 0,-1 -8,0 z m 11,0 0,1 3,0 0,-1 -3,0 z m -55,47 0,1 8,0 0,-1 -8,0 z m 11,0 0,1 8,0 0,-1 -8,0 z m 11,0 0,1 8,0 0,-1 -8,0 z m 11,0 0,1 8,0 0,-1 -8,0 z m 11,0 0,1 8,0 0,-1 -8,0 z m 11,0 0,1 3,0 0,-1 -3,0 z"
     id="path3912"
     style="fill:#6294cf;fill-opacity:1;fill-rule:nonzero;stroke:none"
     inkscape:connector-curvature="0" />
  <path
     d="m 6,2 0,1 8,0 0,-1 -8,0 z m 11,0 0,1 8,0 0,-1 -8,0 z m 11,0 0,1 8,0 0,-1 -8,0 z m 11,0 0,1 8,0 0,-1 -8,0 z m 11,0 0,1 8,0 0,-1 -8,0 z m 11,0 0,1 3,0 0,-1 -3,0 z m -55,47 0,1 8,0 0,-1 -8,0 z m 11,0 0,1 8,0 0,-1 -8,0 z m 11,0 0,1 8,0 0,-1 -8,0 z m 11,0 0,1 8,0 0,-1 -8,0 z m 11,0 0,1 8,0 0,-1 -8,0 z m 11,0 0,1 3,0 0,-1 -3,0 z"
     id="path3884"
     style="opacity:0.96999996;fill:#000000;fill-opacity:0.14986854;fill-rule:nonzero;stroke:none"
     inkscape:connector-curvature="0" />
  <path
     d="m 63,0 0,3 1,0 0,-3 -1,0 z m 0,10 0,40 1,0 0,-40 -1,0 z m 0,47 0,2 -63,0 0,1 63,0 1,0 0,-1 0,-2 -1,0 z"
     id="path4299"
     style="fill:#000000;fill-opacity:0.15600353;fill-rule:nonzero"
     inkscape:connector-curvature="0" />
  <path
     d="M 60,14 60,33 45.375,50 47,50 47,50.125 60.78125,33.65625 61,33.375 61,33 61,15 z M 39.34375,57 36.75,60 l 2,0 2.5,-3 z"
     id="path3922"
     style="fill:url(#linearGradient4308);fill-rule:nonzero"
     inkscape:connector-curvature="0"
     sodipodi:nodetypes="ccccccccccccccc" />
  <path
     inkscape:connector-curvature="0"
     id="path3074"
     d="m 0,2 0,60 c 0,1 1,2 3,2 L 34,64 36.53125,61 36,61 36,54 42.375,54 60,33 60,14 58,14 58,7 60,7 60,4 3,4 C 1,4 0,3 0,2 z m 3,5 8,0 0,7 -8,0 0,-7 z m 11,0 8,0 0,7 -8,0 0,-7 z m 11,0 8,0 0,7 -8,0 0,-7 z m 11,0 8,0 0,7 -8,0 0,-7 z m 11,0 8,0 0,7 -8,0 0,-7 z m -44,47 8,0 0,7 -8,0 0,-7 z m 11,0 8,0 0,7 -8,0 0,-7 z m 11,0 8,0 0,7 -8,0 0,-7 z"
     style="fill:url(#linearGradient4366-4);fill-opacity:1;fill-rule:nonzero;stroke:none;color:#000000;stroke-width:1;marker:none;visibility:visible;display:inline;overflow:visible;enable-background:accumulate" />
  <path
     style="fill:url(#radialGradient3864);fill-opacity:1;fill-rule:nonzero;stroke:none"
     d="m 0,2 0,60 c 0,1 1,2 3,2 L 34,64 36.53125,61 36,61 36,54 42.375,54 60,33 60,14 58,14 58,7 60,7 60,4 3,4 C 1,4 0,3 0,2 z m 3,5 8,0 0,7 -8,0 0,-7 z m 11,0 8,0 0,7 -8,0 0,-7 z m 11,0 8,0 0,7 -8,0 0,-7 z m 11,0 8,0 0,7 -8,0 0,-7 z m 11,0 8,0 0,7 -8,0 0,-7 z m -44,47 8,0 0,7 -8,0 0,-7 z m 11,0 8,0 0,7 -8,0 0,-7 z m 11,0 8,0 0,7 -8,0 0,-7 z"
     id="path3862"
     inkscape:connector-curvature="0" />
  <path
     inkscape:connector-curvature="0"
     id="path3854"
     d="m 0,2 0,60 c 0,1 1,2 3,2 L 34,64 36.53125,61 36,61 36,54 42.375,54 60,33 60,14 58,14 58,7 60,7 60,4 3,4 C 1,4 0,3 0,2 z m 3,5 8,0 0,7 -8,0 0,-7 z m 11,0 8,0 0,7 -8,0 0,-7 z m 11,0 8,0 0,7 -8,0 0,-7 z m 11,0 8,0 0,7 -8,0 0,-7 z m 11,0 8,0 0,7 -8,0 0,-7 z m -44,47 8,0 0,7 -8,0 0,-7 z m 11,0 8,0 0,7 -8,0 0,-7 z m 11,0 8,0 0,7 -8,0 0,-7 z"
     style="fill:url(#radialGradient3890);fill-opacity:1;fill-rule:nonzero;stroke:none" />
  <path
     style="fill:url(#radialGradient3882);fill-opacity:1;fill-rule:nonzero;stroke:none"
     d="m 0,2 0,60 c 0,1 1,2 3,2 L 34,64 36.53125,61 36,61 36,54 42.375,54 60,33 60,14 58,14 58,7 60,7 60,4 3,4 C 1,4 0,3 0,2 z m 3,5 8,0 0,7 -8,0 0,-7 z m 11,0 8,0 0,7 -8,0 0,-7 z m 11,0 8,0 0,7 -8,0 0,-7 z m 11,0 8,0 0,7 -8,0 0,-7 z m 11,0 8,0 0,7 -8,0 0,-7 z m -44,47 8,0 0,7 -8,0 0,-7 z m 11,0 8,0 0,7 -8,0 0,-7 z m 11,0 8,0 0,7 -8,0 0,-7 z"
     id="path3880"
     inkscape:connector-curvature="0" />
  <path
     inkscape:connector-curvature="0"
     id="path3858"
     d="m -30.533333,12.8 0,16 c 0,0.266667 0.266667,0.533334 0.8,0.533334 l 8.266667,0 0.675,-0.8 -0.141667,0 0,-1.866667 1.7,0 4.7,-5.6 0,-5.066667 -0.533333,0 0,-1.866666 0.533333,0 0,-0.8 -15.2,0 c -0.533333,0 -0.8,-0.266667 -0.8,-0.533334 z m 0.8,1.333334 2.133333,0 0,1.866666 -2.133333,0 0,-1.866666 z m 2.933333,0 2.133334,0 0,1.866666 -2.133334,0 0,-1.866666 z m 2.933334,0 2.133333,0 0,1.866666 -2.133333,0 0,-1.866666 z m 2.933333,0 2.133333,0 0,1.866666 -2.133333,0 0,-1.866666 z m 2.933333,0 2.133334,0 0,1.866666 L -18,16 l 0,-1.866666 z m -11.733333,12.533333 2.133333,0 0,1.866667 -2.133333,0 0,-1.866667 z m 2.933333,0 2.133334,0 0,1.866667 -2.133334,0 0,-1.866667 z m 2.933334,0 2.133333,0 0,1.866667 -2.133333,0 0,-1.866667 z"
     style="fill:url(#radialGradient3860);fill-opacity:1;fill-rule:nonzero;stroke:none" />
  <path
     inkscape:connector-curvature="0"
     id="path3892"
     d="m -30.733333,33.8 0,16 c 0,0.266667 0.266667,0.533334 0.8,0.533334 l 8.266667,0 0.675,-0.8 -0.141667,0 0,-1.866667 1.7,0 4.7,-5.6 0,-5.066667 -0.533333,0 0,-1.866666 0.533333,0 0,-0.8 -15.2,0 c -0.533333,0 -0.8,-0.266667 -0.8,-0.533334 z m 0.8,1.333334 2.133333,0 0,1.866666 -2.133333,0 0,-1.866666 z m 2.933333,0 2.133334,0 0,1.866666 L -27,37 l 0,-1.866666 z m 2.933334,0 2.133333,0 0,1.866666 -2.133333,0 0,-1.866666 z m 2.933333,0 2.133333,0 0,1.866666 -2.133333,0 0,-1.866666 z m 2.933333,0 2.133334,0 0,1.866666 -2.133334,0 0,-1.866666 z m -11.733333,12.533333 2.133333,0 0,1.866667 -2.133333,0 0,-1.866667 z m 2.933333,0 2.133334,0 0,1.866667 -2.133334,0 0,-1.866667 z m 2.933334,0 2.133333,0 0,1.866667 -2.133333,0 0,-1.866667 z"
     style="fill:url(#radialGradient3894);fill-opacity:1;fill-rule:nonzero;stroke:none" />
  <path
     style="fill:url(#radialGradient3084);fill-opacity:1;fill-rule:nonzero;stroke:none"
     d="m -30.733333,53.8 0,16 c 0,0.266667 0.266667,0.533334 0.8,0.533334 l 8.266667,0 0.675,-0.8 -0.141667,0 0,-1.866667 1.7,0 4.7,-5.6 0,-5.066667 -0.533333,0 0,-1.866666 0.533333,0 0,-0.8 -15.2,0 c -0.533333,0 -0.8,-0.266667 -0.8,-0.533334 z m 0.8,1.333334 2.133333,0 0,1.866666 -2.133333,0 0,-1.866666 z m 2.933333,0 2.133334,0 0,1.866666 L -27,57 l 0,-1.866666 z m 2.933334,0 2.133333,0 0,1.866666 -2.133333,0 0,-1.866666 z m 2.933333,0 2.133333,0 0,1.866666 -2.133333,0 0,-1.866666 z m 2.933333,0 2.133334,0 0,1.866666 -2.133334,0 0,-1.866666 z m -11.733333,12.533333 2.133333,0 0,1.866667 -2.133333,0 0,-1.866667 z m 2.933333,0 2.133334,0 0,1.866667 -2.133334,0 0,-1.866667 z m 2.933334,0 2.133333,0 0,1.866667 -2.133333,0 0,-1.866667 z"
     id="rect3929"
     inkscape:connector-curvature="0" />
  <path
     style="fill:url(#linearGradient3841);fill-opacity:1;fill-rule:nonzero;stroke:none"
     d="m 0,2 0,60 c 0,1 1,2 3,2 L 5,64 5,61 3,61 3,54 5,54 5,14 3,14 3,7 5,7 5,4 3,4 C 1,4 0,3 0,2 z"
     id="rect3064"
     inkscape:connector-curvature="0" />
  <path
     style="color:#000000;fill:#000000;fill-opacity:0.13799283;fill-rule:nonzero;stroke:none;stroke-width:1;marker:none;visibility:visible;display:inline;overflow:visible;enable-background:accumulate"
     d="m 0,2 0,14 c 0,1.051831 1.2702034,2 3,2 l 57,0 0,-4 -2,0 0,-7 2,0 L 60,4 3,4 C 1,4 0,3 0,2 z m 3,5 8,0 0,7 -8,0 z m 11,0 8,0 0,7 -8,0 z m 11,0 8,0 0,7 -8,0 z m 11,0 8,0 0,7 -8,0 z m 11,0 8,0 0,7 -8,0 z"
     id="rect3971"
     inkscape:connector-curvature="0"
     sodipodi:nodetypes="cssccccccscccccccccccccccccccccccccc" />
  <path
     inkscape:connector-curvature="0"
     style="fill:url(#linearGradient4110);fill-opacity:1;fill-rule:nonzero"
     id="path4102"
     d="M 0,2 0,3 C 0,4 1,5 3,5 L 60,5 60,4 3,4 C 2,4 1,3.539601 1,3 L 1,2 z"
     sodipodi:nodetypes="cssccsscc" />
  <path
     d="M 0,2 1,2 C 1,1.338983 2,1 3,1 L 64,1 64,0 5,0 3,0 C 1,0 0,1 0,2 z"
     id="path4253"
     style="fill:url(#linearGradient4118);fill-opacity:1;fill-rule:nonzero"
     inkscape:connector-curvature="0"
     sodipodi:nodetypes="ccscccsc" />
  <path
     d="m 0,62 c 0,1 2,1 3,1 l 32,0 -1,1 -31,0 C 1,64 0,63 0,62 z"
     id="path4255"
     style="fill:#000000;fill-opacity:0.10341803;fill-rule:nonzero"
     inkscape:connector-curvature="0" />
  <path
     style="color:#000000;fill:#000000;fill-opacity:0.13799283;fill-rule:nonzero;stroke:none;stroke-width:1;marker:none;visibility:visible;display:inline;overflow:visible;enable-background:accumulate"
     d="m 0,48 0,14 c 0,1 1,2 3,2 L 34,64 36.53125,61 36,61 36,54 42.375,54 45.71875,50 3,50 C 1.4267549,49.88282 0,49.342523 0,48 z m 3,6 8,0 0,7 -8,0 z m 11,0 8,0 0,7 -8,0 z m 11,0 8,0 0,7 -8,0 z"
     id="rect3913"
     inkscape:connector-curvature="0"
     sodipodi:nodetypes="cssccccccccccccccccccccccc" />
  <path
     d="m 3,6 0,1 8,0 0,-1 z m 11,0 0,1 8,0 0,-1 z m 11,0 0,1 8,0 0,-1 z m 11,0 0,1 8,0 0,-1 z m 11,0 0,1 8,0 0,-1 z m 11,0 0,1 2,0 0,-1 z m -55,47 0,1 8,0 0,-1 z m 11,0 0,1 8,0 0,-1 z m 11,0 0,1 8,0 0,-1 z m 11,0 0,1 6.375,0 0.84375,-1 z"
     id="path3939"
     style="opacity:0.96999996;fill:#000000;fill-opacity:0.16564415;fill-rule:nonzero;stroke:none"
     inkscape:connector-curvature="0" />
  <path
     style="fill:#49a4a5;fill-opacity:1;fill-rule:nonzero;stroke:none"
     d="M 3 14 L 3 15 L 11 15 L 11 14 L 3 14 z M 14 14 L 14 15 L 22 15 L 22 14 L 14 14 z M 25 14 L 25 15 L 33 15 L 33 14 L 25 14 z M 36 14 L 36 15 L 44 15 L 44 14 L 36 14 z M 47 14 L 47 15 L 55 15 L 55 14 L 47 14 z M 58 14 L 58 15 L 60 15 L 60 14 L 58 14 z "
     id="path4024" />
  <path
     style="fill:#7a87da;fill-opacity:1;fill-rule:nonzero;stroke:none"
     d="M 3 61 L 3 62 L 11 62 L 11 61 L 3 61 z M 14 61 L 14 62 L 22 62 L 22 61 L 14 61 z M 25 61 L 25 62 L 33 62 L 33 61 L 25 61 z "
     id="path4012" />
  <rect
     style="color:#000000;fill:#000000;fill-opacity:0.13799283;fill-rule:nonzero;stroke:none;stroke-width:1;marker:none;visibility:visible;display:inline;overflow:visible;enable-background:accumulate"
     id="rect4131"
     width="3"
     height="32"
     x="44"
     y="18" />
  <rect
     style="color:#000000;fill:#000000;fill-opacity:0.13799283;fill-rule:nonzero;stroke:none;stroke-width:1;marker:none;visibility:visible;display:inline;overflow:visible;enable-background:accumulate"
     id="rect4139"
     width="3"
     height="32"
     x="11"
     y="18" />
  <polygon
     transform="matrix(0.33333333,0,0,0.30000074,9,16.599957)"
     style="color:#000000;fill:url(#linearGradient4549-8-1-0);fill-opacity:1;fill-rule:nonzero;stroke:none;stroke-width:3.16227378000000003;marker:none;visibility:visible;display:inline;overflow:visible;enable-background:accumulate"
     id="polygon53"
     points="42,26 42,26 90,58 42,90 " />
  <path
     style="fill:#899fee;fill-opacity:1;fill-rule:nonzero"
     d="M 58.125,32.9375 C 56.085181,34.840255 53.808766,35 48,35 l -2,0 0,2 -6,0 0,1 7,0 0,-2 1,0 c 4.522569,0 7.419136,-0.32534 10.125,-3.0625 z M 36,35 36,50 c 0,5.39831 0.0282,8.21964 -1.59375,11.03125 C 36.982456,57.05346 37.00033,54.00989 37,50 l 0,-14 3,0 -1,-1 z m 10,6 0,7 -6,0 0,1 6.6045,0 L 47,48.563288 47,41 z"
     id="path4282"
     inkscape:connector-curvature="0"
     sodipodi:nodetypes="csccccccsccscccccccccccccc" />
  <path
     inkscape:connector-curvature="0"
     style="fill:url(#linearGradient4220);fill-rule:nonzero"
     id="path4218"
     d="m 60,33 c -2.328567,2.776369 -4.36141,3 -11,3 l -2,0 0,2 -7,0 0,-2 -3,0 0,15 c 0,6.64407 0.04437,9.37018 -3,13 L 40,56.84375 40,52 44.0625,52 46.59375,49 40,49 l 0,-8 7,0 0,7.5 L 60,33 z" />
  <path
     style="opacity:0.96999996;color:#000000;fill:#000000;fill-opacity:0.16564415;fill-rule:nonzero;stroke:none;marker:none;visibility:visible;display:inline;overflow:visible;enable-background:accumulate"
     d="m 39,36 0,1 1,0 0,-1 z m 0,4 0,8 1,0 0,-7 6,0 0,-1 z m 6,11 -6,0 0,7 1,-1.15625 L 40,52 l 4.0625,0 z"
     id="path4278"
     inkscape:connector-curvature="0"
     sodipodi:nodetypes="ccccccccccccccccccc" />
</svg>
