<?xml version="1.0" encoding="UTF-8" standalone="no"?>
<!-- Created with Inkscape (http://www.inkscape.org/) -->

<svg
   xmlns:dc="http://purl.org/dc/elements/1.1/"
   xmlns:cc="http://creativecommons.org/ns#"
   xmlns:rdf="http://www.w3.org/1999/02/22-rdf-syntax-ns#"
   xmlns:svg="http://www.w3.org/2000/svg"
   xmlns="http://www.w3.org/2000/svg"
   xmlns:xlink="http://www.w3.org/1999/xlink"
   xmlns:sodipodi="http://sodipodi.sourceforge.net/DTD/sodipodi-0.dtd"
   xmlns:inkscape="http://www.inkscape.org/namespaces/inkscape"
   version="1.1"
   width="64"
   height="64"
   id="svg13094"
   inkscape:version="0.48.3.1 r9886"
   sodipodi:docname="application-x-siag.svg">
  <sodipodi:namedview
     pagecolor="#ffffff"
     bordercolor="#666666"
     borderopacity="1"
     objecttolerance="10"
     gridtolerance="10"
     guidetolerance="10"
     inkscape:pageopacity="0"
     inkscape:pageshadow="2"
     inkscape:window-width="1920"
     inkscape:window-height="1033"
     id="namedview58"
     showgrid="false"
     inkscape:zoom="10.429825"
     inkscape:cx="33.389753"
     inkscape:cy="30.283592"
     inkscape:window-x="-2"
     inkscape:window-y="25"
     inkscape:window-maximized="1"
     inkscape:current-layer="svg13094" />
  <defs
     id="defs11">
    <linearGradient
       x1="31"
       y1="64"
       x2="31"
       y2="2"
       id="linearGradient3984"
       gradientUnits="userSpaceOnUse">
      <stop
         id="stop3099"
         style="stop-color:#7eb14d;stop-opacity:1;"
         offset="0" />
      <stop
         id="stop3875"
         style="stop-color:#80b04e;stop-opacity:1;"
         offset="0.5" />
      <stop
         id="stop3873"
         style="stop-color:#709a4b;stop-opacity:1;"
         offset="0.51612902" />
      <stop
         id="stop3101"
         style="stop-color:#76a150;stop-opacity:1;"
         offset="1" />
    </linearGradient>
    <radialGradient
       cx="48.30785"
       cy="47.141338"
       r="14.16129"
       id="radialGradient3996"
       gradientUnits="userSpaceOnUse"
       gradientTransform="matrix(0.93962333,0.77477937,-1.7975241,2.1799696,88.130548,-93.365748)">
      <stop
         id="stop3954"
         style="stop-color:#0e2500;stop-opacity:0.40690979;"
         offset="0" />
      <stop
         id="stop3958"
         style="stop-color:#0f2700;stop-opacity:0.15611005;"
         offset="0.5" />
      <stop
         id="stop3956"
         style="stop-color:#349200;stop-opacity:0;"
         offset="1" />
    </radialGradient>
    <linearGradient
       x1="35"
       y1="29"
       x2="55"
       y2="49"
       id="linearGradient4276"
       gradientUnits="userSpaceOnUse">
      <stop
         id="stop4272"
         style="stop-color:#618946;stop-opacity:1;"
         offset="0" />
      <stop
         id="stop4274"
         style="stop-color:#73a054;stop-opacity:1;"
         offset="1" />
    </linearGradient>
    <linearGradient
       x1="48.992088"
       y1="46.124821"
       x2="37"
       y2="36"
       id="linearGradient4280"
       gradientUnits="userSpaceOnUse">
      <stop
         id="stop4293"
         style="stop-color:#72994a;stop-opacity:1;"
         offset="0" />
      <stop
         id="stop4295"
         style="stop-color:#5a7f3e;stop-opacity:1;"
         offset="0.2098622" />
      <stop
         id="stop4297"
         style="stop-color:#709e41;stop-opacity:1;"
         offset="1" />
    </linearGradient>
    <linearGradient
       x1="45"
       y1="52"
       x2="73"
       y2="4"
       id="linearGradient4308"
       gradientUnits="userSpaceOnUse">
      <stop
         id="stop4304"
         style="stop-color:#000000;stop-opacity:0.10677083"
         offset="0" />
      <stop
         id="stop4306"
         style="stop-color:#000000;stop-opacity:0"
         offset="1" />
    </linearGradient>
    <radialGradient
       cx="48.24176"
       cy="40.919418"
       r="14.16129"
       fx="40.959122"
       fy="40.608799"
       id="radialGradient3822"
       xlink:href="#radialGradient3996"
       gradientUnits="userSpaceOnUse"
       gradientTransform="matrix(-2.0491578e-7,2.1591248,-0.51856169,-3.8905836e-8,81.125244,-70.945917)" />
    <radialGradient
       cx="48.30785"
       cy="47.141338"
       r="14.16129"
       id="radialGradient3373"
       xlink:href="#radialGradient3996"
       gradientUnits="userSpaceOnUse"
       gradientTransform="matrix(0.93962333,0.77477937,-1.7975241,2.1799696,88.130548,-93.365748)" />
    <linearGradient
       x1="47.832821"
       y1="-16.837179"
       x2="31.585039"
       y2="-39.05085"
       id="linearGradient3554"
       gradientUnits="userSpaceOnUse"
       gradientTransform="translate(0,64)">
      <stop
         id="stop3988"
         style="stop-color:#a4d671;stop-opacity:0.60524631;"
         offset="0" />
      <stop
         id="stop3990"
         style="stop-color:#879041;stop-opacity:0;"
         offset="1" />
    </linearGradient>
    <linearGradient
       inkscape:collect="always"
       xlink:href="#linearGradient3051-2-8"
       id="linearGradient3238"
       gradientUnits="userSpaceOnUse"
       gradientTransform="translate(-55.89739,0)"
       x1="18.312868"
       y1="2.3480074"
       x2="18.312868"
       y2="63.818436" />
    <linearGradient
       id="linearGradient3051-2-8">
      <stop
         id="stop3053-6-1"
         style="stop-color:#d8d8d8;stop-opacity:1;"
         offset="0" />
      <stop
         id="stop3059-8-7"
         style="stop-color:#c5c5c5;stop-opacity:1;"
         offset="0.47965544" />
      <stop
         id="stop3061-2-5"
         style="stop-color:#e4e4e4;stop-opacity:1;"
         offset="0.50227195" />
      <stop
         id="stop3055-1-9"
         style="stop-color:#e7e7e7;stop-opacity:1;"
         offset="1" />
    </linearGradient>
    <radialGradient
       cx="48.24176"
       cy="40.919418"
       r="14.16129"
       fx="40.959122"
       fy="40.608799"
       id="radialGradient3822-5"
       xlink:href="#radialGradient3996-0"
       gradientUnits="userSpaceOnUse"
       gradientTransform="matrix(-2.0491578e-7,2.1591248,-0.51856169,-3.8905836e-8,81.125244,-70.945917)" />
    <radialGradient
       cx="48.30785"
       cy="47.141338"
       r="14.16129"
       id="radialGradient3996-0"
       gradientUnits="userSpaceOnUse"
       gradientTransform="matrix(0.93962333,0.77477937,-1.7975241,2.1799696,88.130548,-93.365748)">
      <stop
         id="stop3954-6"
         style="stop-color:#0e2500;stop-opacity:0.40690979;"
         offset="0" />
      <stop
         id="stop3958-7"
         style="stop-color:#0f2700;stop-opacity:0.15611005;"
         offset="0.5" />
      <stop
         id="stop3956-2"
         style="stop-color:#349200;stop-opacity:0;"
         offset="1" />
    </radialGradient>
    <radialGradient
       cx="48.30785"
       cy="47.141338"
       r="14.16129"
       id="radialGradient3373-0"
       xlink:href="#radialGradient3996-0"
       gradientUnits="userSpaceOnUse"
       gradientTransform="matrix(0.93962333,0.77477937,-1.7975241,2.1799696,88.130548,-93.365748)" />
    <linearGradient
       x1="45"
       y1="52"
       x2="73"
       y2="4"
       id="linearGradient4308-9"
       gradientUnits="userSpaceOnUse">
      <stop
         id="stop4304-2"
         style="stop-color:#000000;stop-opacity:0.10677083"
         offset="0" />
      <stop
         id="stop4306-8"
         style="stop-color:#000000;stop-opacity:0"
         offset="1" />
    </linearGradient>
    <linearGradient
       x1="31"
       y1="64"
       x2="31"
       y2="2"
       id="linearGradient3984-4"
       gradientUnits="userSpaceOnUse">
      <stop
         id="stop3099-5"
         style="stop-color:#749d4c;stop-opacity:1;"
         offset="0" />
      <stop
         id="stop3875-5"
         style="stop-color:#80b04e;stop-opacity:1;"
         offset="0.5" />
      <stop
         id="stop3873-8"
         style="stop-color:#709a4b;stop-opacity:1;"
         offset="0.51612902" />
      <stop
         id="stop3101-9"
         style="stop-color:#76a150;stop-opacity:1;"
         offset="1" />
    </linearGradient>
    <linearGradient
       x1="48.992088"
       y1="46.124821"
       x2="37"
       y2="36"
       id="linearGradient4280-6"
       gradientUnits="userSpaceOnUse">
      <stop
         id="stop4293-9"
         style="stop-color:#6e9447;stop-opacity:1;"
         offset="0" />
      <stop
         id="stop4295-7"
         style="stop-color:#56763e;stop-opacity:1;"
         offset="0.2098622" />
      <stop
         id="stop4297-0"
         style="stop-color:#678944;stop-opacity:1;"
         offset="1" />
    </linearGradient>
  </defs>
  <metadata
     id="metadata13099">
    <rdf:RDF>
      <cc:Work
         rdf:about="">
        <dc:format>image/svg+xml</dc:format>
        <dc:type
           rdf:resource="http://purl.org/dc/dcmitype/StillImage" />
        <dc:title />
      </cc:Work>
    </rdf:RDF>
  </metadata>
  <path
     inkscape:connector-curvature="0"
     d="M 4,0 64,0 64,62 4,62 z"
     id="path3960"
     style="fill:#587642;fill-opacity:1;fill-rule:nonzero" />
  <path
     inkscape:connector-curvature="0"
     d="m 60,2 4,4 0,31 -4,-4 z"
     id="path3900"
     style="fill:url(#radialGradient3822-5);fill-rule:nonzero" />
  <path
     inkscape:connector-curvature="0"
     d="m 60,33 4,4 0,25 -28.32258,0 z"
     id="path3934"
     style="fill:url(#radialGradient3373-0);fill-rule:nonzero" />
  <path
     inkscape:connector-curvature="0"
     d="M 63,0 V 61 H 4 v 1 H 64 V 0 h -1 z"
     id="path4299"
     style="fill:#000000;fill-opacity:0.07887819;fill-rule:nonzero" />
  <path
     inkscape:connector-curvature="0"
     d="M 60,2 60,33 35,62 37,62 60.78125,33.65625 61,33.375 61,33 61,3 z"
     id="path3922"
     style="fill:url(#linearGradient4308-9);fill-rule:nonzero" />
  <path
     inkscape:connector-curvature="0"
     d="M 0,2 60,2 60,33 34,64 0,64 z"
     id="path3982"
     style="fill:url(#linearGradient3984-4);fill-rule:nonzero" />
  <path
     inkscape:connector-curvature="0"
     d="M 0,2 60,2 60,3 0,3 z"
     id="path4052"
     style="color:#000000;fill:#a4c672;fill-opacity:1;fill-rule:nonzero;stroke-width:1;stroke-linecap:butt;stroke-linejoin:miter;stroke-miterlimit:4;stroke-opacity:1;stroke-dasharray:none;stroke-dashoffset:0;marker:none;visibility:visible;display:inline;overflow:visible;enable-background:accumulate" />
  <path
     inkscape:connector-curvature="0"
     d="m 0,63 35,0 -1,1 -34,0 z"
     id="path4255"
     style="fill:#000000;fill-opacity:0.10341803;fill-rule:nonzero" />
  <path
     inkscape:connector-curvature="0"
     d="M 4,0 64,0 64,1 4,1 z"
     id="path3878"
     style="color:#000000;fill:#a4c672;fill-opacity:1;fill-rule:nonzero;stroke-width:1;stroke-linecap:butt;stroke-linejoin:miter;stroke-miterlimit:4;stroke-opacity:1;stroke-dasharray:none;stroke-dashoffset:0;marker:none;visibility:visible;display:inline;overflow:visible;enable-background:accumulate" />
  <path
     inkscape:connector-curvature="0"
     d="M 34,64 60,33 c -2.328567,2.776369 -4.36141,3 -11,3 H 37 v 15 c 0,6.64407 0.04437,9.37018 -3,13 z"
     id="path4278"
     style="fill:url(#linearGradient4280-6);fill-rule:nonzero" />
  <path
     inkscape:connector-curvature="0"
     d="m 59,32 c -2.328567,2.776369 -4.36141,3 -11,3 H 36 v 15 c 0,6.64407 0.04437,9.37018 -3,13 4,-5 4.000382,-8.35667 4,-13 V 36 h 11 c 5,0 8.041405,-0.38188 11,-4 z"
     id="path4282"
     style="fill:#a4c672;fill-opacity:1;fill-rule:nonzero" />
  <path
     d="m 5,8 0,19 28,0 0,-19 z m 42.03125,0 2.5625,3.71875 -3.125,4.28125 2.5,0 L 50.8125,13.375 52.5,16 55,16 52.03125,11.71875 54.59375,8 52.03125,8 50.8125,10.0625 49.59375,8 z M 8,11 30,11 30,24 8,24 z M 27.78125,12 24.9375,16.25 22.8125,13.40625 21.875,12.1875 21.125,13.5 17.84375,19.21875 14.78125,15.375 13.96875,14.34375 13.1875,15.40625 9,21.28125 9,23 l 1.25,0 3.8125,-5.34375 3.15625,3.96875 0.90625,1.15625 0.75,-1.28125 3.25,-5.65625 2.0625,2.75 0.875,1.125 L 25.84375,18.5625 29,13.8125 29,12 z M 5,31 5,50 33,50 33,31 z m 3,3 22,0 0,13 -22,0 z m 3,1 0,1 -2,0 0,1 2,0 0,3 -2,0 0,1 2,0 0,3 -2,0 0,1 2,0 0,1 1,0 0,-1 4,0 0,1 1,0 0,-1 4,0 0,1 1,0 0,-1 4,0 0,1 1,0 0,-1 2,0 0,-1 -2,0 0,-3 2,0 0,-1 -2,0 0,-3 2,0 0,-1 -2,0 0,-1 -1,0 0,1 -4,0 0,-1 -1,0 0,1 -4,0 0,-1 -1,0 0,1 -4,0 0,-1 z m 1,2 4,0 0,3 -4,0 z m 5,0 4,0 0,3 -4,0 z m 5,0 4,0 0,3 -4,0 z m -10,4 4,0 0,3 -4,0 z m 5,0 4,0 0,3 -4,0 z m 5,0 4,0 0,3 -4,0 z"
     id="path3858"
     style="color:#000000;fill:url(#linearGradient3238);fill-opacity:1;fill-rule:nonzero;stroke-width:1;stroke-linecap:butt;stroke-linejoin:miter;stroke-miterlimit:4;stroke-opacity:1;stroke-dasharray:none;stroke-dashoffset:0;marker:none;visibility:visible;display:inline;overflow:visible;enable-background:accumulate;stroke:none"
     inkscape:connector-curvature="0"
     sodipodi:nodetypes="ccccccccccccccccccccccccccccccccccccccccccccccccccccccccccccccccccccccccccccccccccccccccccccccccccccccccccccccccccccccccccccccccccccccccccc" />
</svg>
