<?xml version="1.0" encoding="UTF-8" standalone="no"?>
<!-- Created with Inkscape (http://www.inkscape.org/) -->

<svg
   xmlns:dc="http://purl.org/dc/elements/1.1/"
   xmlns:cc="http://creativecommons.org/ns#"
   xmlns:rdf="http://www.w3.org/1999/02/22-rdf-syntax-ns#"
   xmlns:svg="http://www.w3.org/2000/svg"
   xmlns="http://www.w3.org/2000/svg"
   xmlns:xlink="http://www.w3.org/1999/xlink"
   xmlns:sodipodi="http://sodipodi.sourceforge.net/DTD/sodipodi-0.dtd"
   xmlns:inkscape="http://www.inkscape.org/namespaces/inkscape"
   version="1.1"
   width="64"
   height="64"
   id="svg13094"
   inkscape:version="0.48.3.1 r9886"
   sodipodi:docname="database.svg">
  <sodipodi:namedview
     pagecolor="#ffffff"
     bordercolor="#666666"
     borderopacity="1"
     objecttolerance="10"
     gridtolerance="10"
     guidetolerance="10"
     inkscape:pageopacity="0"
     inkscape:pageshadow="2"
     inkscape:window-width="1920"
     inkscape:window-height="1021"
     id="namedview72"
     showgrid="true"
     inkscape:snap-bbox="true"
     inkscape:bbox-paths="true"
     inkscape:bbox-nodes="true"
     inkscape:snap-bbox-edge-midpoints="true"
     inkscape:snap-bbox-midpoints="true"
     inkscape:object-paths="true"
     inkscape:snap-intersection-paths="true"
     inkscape:object-nodes="true"
     inkscape:snap-smooth-nodes="true"
     inkscape:snap-midpoints="true"
     inkscape:snap-object-midpoints="true"
     inkscape:snap-center="true"
     inkscape:zoom="20.85965"
     inkscape:cx="31.458484"
     inkscape:cy="35.138874"
     inkscape:window-x="-4"
     inkscape:window-y="32"
     inkscape:window-maximized="1"
     inkscape:current-layer="svg13094">
    <inkscape:grid
       type="xygrid"
       id="grid3049" />
  </sodipodi:namedview>
  <defs
     id="defs11">
    <linearGradient
       y1="15"
       x2="64"
       y2="15"
       id="linearGradient3972"
       gradientUnits="userSpaceOnUse"
       gradientTransform="translate(0,64)">
      <stop
         id="stop3974"
         style="stop-color:#ffffff;stop-opacity:0"
         offset="0" />
      <stop
         id="stop3978"
         style="stop-color:#ffffff;stop-opacity:0.73660713"
         offset="0.4986577" />
      <stop
         id="stop3976"
         style="stop-color:#ffffff;stop-opacity:0"
         offset="1" />
    </linearGradient>
    <linearGradient
       id="linearGradient3888">
      <stop
         id="stop3890"
         style="stop-color:#d3d6d8;stop-opacity:1"
         offset="0" />
      <stop
         id="stop3892"
         style="stop-color:#acb1b5;stop-opacity:1"
         offset="1" />
    </linearGradient>
    <linearGradient
       y1="15"
       x2="64"
       y2="15"
       id="linearGradient3856"
       gradientUnits="userSpaceOnUse"
       gradientTransform="translate(0,64)">
      <stop
         id="stop3858"
         style="stop-color:#000000;stop-opacity:0.20089285"
         offset="0" />
      <stop
         id="stop3860"
         style="stop-color:#000000;stop-opacity:0"
         offset="1" />
    </linearGradient>
    <linearGradient
       id="linearGradient3832">
      <stop
         id="stop3834"
         style="stop-color:#878e95;stop-opacity:1"
         offset="0" />
      <stop
         id="stop3840"
         style="stop-color:#a7aeb5;stop-opacity:1"
         offset="0.5" />
      <stop
         id="stop3836"
         style="stop-color:#89929b;stop-opacity:1"
         offset="1" />
    </linearGradient>
    <linearGradient
       id="linearGradient3824">
      <stop
         id="stop3826"
         style="stop-color:#ffffff;stop-opacity:1"
         offset="0" />
      <stop
         id="stop3828"
         style="stop-color:#c0c4c7;stop-opacity:1"
         offset="1" />
    </linearGradient>
    <linearGradient
       id="linearGradient3817">
      <stop
         id="stop3819"
         style="stop-color:#800000;stop-opacity:0.11670918"
         offset="0" />
      <stop
         id="stop3821"
         style="stop-color:#800000;stop-opacity:0"
         offset="1" />
    </linearGradient>
    <linearGradient
       y1="15"
       x2="64"
       y2="15"
       id="linearGradient4322"
       gradientUnits="userSpaceOnUse"
       gradientTransform="translate(0,64)">
      <stop
         id="stop4312"
         style="stop-color:#ffffff;stop-opacity:0.72130102"
         offset="0" />
      <stop
         id="stop4314"
         style="stop-color:#ffffff;stop-opacity:0"
         offset="1" />
    </linearGradient>
    <radialGradient
       cx="29.99848"
       cy="52.804661"
       r="16"
       id="radialGradient3823"
       xlink:href="#linearGradient3817"
       gradientUnits="userSpaceOnUse"
       gradientTransform="matrix(1.9776652e-8,-0.44005103,1.4375,-4.0708531e-6,-30.8125,86.174921)" />
    <radialGradient
       cx="46.159752"
       cy="36.935829"
       r="16"
       id="radialGradient3825"
       xlink:href="#linearGradient3817"
       gradientUnits="userSpaceOnUse"
       gradientTransform="matrix(2.096279e-8,-0.32631713,2.725932,-1.1477746e-5,-67.57524,80.90477)" />
    <radialGradient
       cx="47.140202"
       cy="17.89163"
       r="16"
       id="radialGradient3827"
       xlink:href="#linearGradient3817"
       gradientUnits="userSpaceOnUse"
       gradientTransform="matrix(2.1712014e-5,-0.67853516,2.2165484,0,-33.970716,97.417004)" />
    <radialGradient
       cx="29.0648"
       cy="42.199619"
       r="16"
       id="radialGradient3829"
       xlink:href="#linearGradient3817"
       gradientUnits="userSpaceOnUse"
       gradientTransform="matrix(1.9776659e-8,-0.44005103,1.4375,-4.0708531e-6,-30.8125,86.174921)" />
    <radialGradient
       cx="21.656981"
       cy="32.159531"
       r="16"
       id="radialGradient3837"
       xlink:href="#linearGradient3817"
       gradientUnits="userSpaceOnUse"
       gradientTransform="matrix(-1.6944878e-5,-1.8289871,-1.8289871,0,110.46182,162.82651)" />
    <radialGradient
       cx="29.60346"
       cy="37.68874"
       r="16"
       id="radialGradient3841"
       xlink:href="#linearGradient3817"
       gradientUnits="userSpaceOnUse"
       gradientTransform="matrix(-7.6994035e-6,-1.428625,-1.4294221,0,82.594548,144.12178)" />
    <radialGradient
       cx="39.004169"
       cy="18.503441"
       r="16"
       id="radialGradient3845"
       xlink:href="#linearGradient3817"
       gradientUnits="userSpaceOnUse"
       gradientTransform="matrix(-2.1712014e-5,-2.2165482,-2.2165484,0,97.970716,188.16221)" />
    <radialGradient
       cx="22.54682"
       cy="44.97562"
       r="16"
       id="radialGradient3849"
       xlink:href="#linearGradient3817"
       gradientUnits="userSpaceOnUse"
       gradientTransform="matrix(-1.9776652e-8,-1.4375,-1.4375,-1.329812e-5,94.8125,151.43807)" />
    <radialGradient
       cx="59.89941"
       cy="2.0516231"
       r="32"
       id="radialGradient3857"
       gradientUnits="userSpaceOnUse"
       gradientTransform="matrix(-2.298935e-8,1.2105557,-1.4259153,-2.7079188e-8,49.162732,41.262218)">
      <stop
         id="stop3853"
         style="stop-color:#ffda4f;stop-opacity:0.55612242"
         offset="0" />
      <stop
         id="stop3855"
         style="stop-color:#fff950;stop-opacity:0"
         offset="1" />
    </radialGradient>
    <linearGradient
       x1="0"
       y1="96"
       x2="64"
       y2="96"
       id="linearGradient3844"
       xlink:href="#linearGradient3832"
       gradientUnits="userSpaceOnUse"
       gradientTransform="translate(0,-64)" />
    <radialGradient
       cx="33.771145"
       cy="-16.195753"
       r="32"
       fx="33.771145"
       fy="-16.195753"
       id="radialGradient3846"
       xlink:href="#linearGradient3856"
       gradientUnits="userSpaceOnUse"
       gradientTransform="matrix(0,2.3455168,-0.11929732,0,45.53689,-0.21078533)" />
    <radialGradient
       cx="31.803631"
       cy="151.87801"
       r="32"
       fx="31.803631"
       fy="151.87801"
       id="radialGradient3850"
       xlink:href="#linearGradient4322"
       gradientUnits="userSpaceOnUse"
       gradientTransform="matrix(0,1.5,-0.1222559,0,41.658216,31)" />
    <radialGradient
       cx="33.771145"
       cy="80.234627"
       r="32"
       fx="33.771145"
       fy="80.234627"
       id="radialGradient3854"
       xlink:href="#linearGradient4322"
       gradientUnits="userSpaceOnUse"
       gradientTransform="matrix(0,2.3455168,-0.19116885,0,47.338361,-0.21078533)" />
    <radialGradient
       cx="33.771145"
       cy="37.120602"
       r="32"
       fx="33.771145"
       fy="37.120602"
       id="radialGradient3864"
       xlink:href="#linearGradient3856"
       gradientUnits="userSpaceOnUse"
       gradientTransform="matrix(0,2.3455168,-0.11929732,0,45.53689,-0.21078533)" />
    <radialGradient
       cx="55.640614"
       cy="245.27809"
       r="32"
       fx="55.640614"
       fy="245.27809"
       id="radialGradient3868"
       xlink:href="#linearGradient3856"
       gradientUnits="userSpaceOnUse"
       gradientTransform="matrix(0,2.3455168,-0.11929732,0,45.53689,-0.21078533)" />
    <radialGradient
       cx="50.563431"
       cy="106.16853"
       r="32"
       fx="50.563431"
       fy="106.16853"
       id="radialGradient3894"
       xlink:href="#linearGradient3888"
       gradientUnits="userSpaceOnUse"
       gradientTransform="matrix(2.3766856,0,1.5867032e-8,1.7874228,-88.173376,-174.76806)" />
    <radialGradient
       cx="32"
       cy="103.5"
       r="32"
       fx="32"
       fy="103.5"
       id="radialGradient3926"
       xlink:href="#linearGradient3824"
       gradientUnits="userSpaceOnUse"
       gradientTransform="matrix(1.4045018,0,0,0.46875,-12.944059,-33.515625)" />
    <radialGradient
       cx="33.771145"
       cy="-16.195753"
       r="32"
       fx="33.771145"
       fy="-16.195753"
       id="radialGradient3846-8"
       xlink:href="#linearGradient3856-4"
       gradientUnits="userSpaceOnUse"
       gradientTransform="matrix(0,2.3455168,-0.11929732,0,45.53689,-0.21078533)" />
    <linearGradient
       y1="15"
       x2="64"
       y2="15"
       id="linearGradient3856-4"
       gradientUnits="userSpaceOnUse"
       gradientTransform="translate(0,64)">
      <stop
         id="stop3858-8"
         style="stop-color:#000000;stop-opacity:0.26084185"
         offset="0" />
      <stop
         id="stop3860-7"
         style="stop-color:#000000;stop-opacity:0"
         offset="1" />
    </linearGradient>
    <radialGradient
       cx="33.771145"
       cy="-16.195753"
       r="32"
       fx="33.771145"
       fy="-16.195753"
       id="radialGradient3948"
       xlink:href="#linearGradient3856-4"
       gradientUnits="userSpaceOnUse"
       gradientTransform="matrix(0,2.3455168,-0.11929732,0,45.53689,-0.210785)" />
    <linearGradient
       x1="0"
       y1="92.5"
       x2="64"
       y2="92.5"
       id="linearGradient3970"
       xlink:href="#linearGradient3972"
       gradientUnits="userSpaceOnUse"
       gradientTransform="translate(0,-47)" />
    <linearGradient
       x1="0"
       y1="92.5"
       x2="64"
       y2="92.5"
       id="linearGradient3982"
       xlink:href="#linearGradient3972"
       gradientUnits="userSpaceOnUse"
       gradientTransform="translate(0,-64)" />
  </defs>
  <metadata
     id="metadata13099">
    <rdf:RDF>
      <cc:Work
         rdf:about="">
        <dc:format>image/svg+xml</dc:format>
        <dc:type
           rdf:resource="http://purl.org/dc/dcmitype/StillImage" />
        <dc:title></dc:title>
      </cc:Work>
    </rdf:RDF>
  </metadata>
  <path
     d="M 2,0 0,1 0,56.5 C 0,60.64214 14.326888,64 32,64 49.673112,64 64,60.64214 64,56.5 L 64,1 62,0 47.46875,0 l 0,3.4375 -30.9375,0 0,-3.4375 L 2,0 z"
     id="path3842"
     style="fill:url(#linearGradient3844);fill-rule:nonzero" />
  <g
     transform="translate(0,-64)"
     id="g3870">
    <path
       d="m 2,64 -2,1 0,55.5 c 0,4.14214 14.326888,7.5 32,7.5 17.673112,0 32,-3.35786 32,-7.5 l 0,-55.5 -2,-1 -14.53125,0 0,3.4375 -30.9375,0 0,-3.4375 L 2,64 z"
       id="path3848"
       style="fill:url(#radialGradient3850);fill-rule:nonzero" />
    <path
       d="m 2,64 -2,1 0,55.5 c 0,4.14214 14.326888,7.5 32,7.5 17.673112,0 32,-3.35786 32,-7.5 l 0,-55.5 -2,-1 -14.53125,0 0,3.4375 -30.9375,0 0,-3.4375 L 2,64 z"
       id="path3852"
       style="fill:url(#radialGradient3854);fill-rule:nonzero" />
    <path
       d="m 2,64 -2,1 0,55.5 c 0,4.14214 14.326888,7.5 32,7.5 17.673112,0 32,-3.35786 32,-7.5 l 0,-55.5 -2,-1 -14.53125,0 0,3.4375 -30.9375,0 0,-3.4375 L 2,64 z"
       id="path3862"
       style="fill:url(#radialGradient3864);fill-rule:nonzero" />
    <path
       d="m 2,64 -2,1 0,55.5 c 0,4.14214 14.326888,7.5 32,7.5 17.673112,0 32,-3.35786 32,-7.5 l 0,-55.5 -2,-1 -14.53125,0 0,3.4375 -30.9375,0 0,-3.4375 L 2,64 z"
       id="path3866"
       style="fill:url(#radialGradient3868);fill-rule:nonzero" />
    <path
       d="m 2,64 -2,1 0,55.5 c 0,4.14214 14.326888,7.5 32,7.5 17.673112,0 32,-3.35786 32,-7.5 l 0,-55.5 -2,-1 -14.53125,0 0,3.4375 -30.9375,0 0,-3.4375 L 2,64 z"
       id="path3809"
       style="fill:url(#radialGradient3846);fill-rule:nonzero" />
  </g>
  <path
     d="M 2,0 0,1 0,5.40625 C 2.3053108,3.059675 8.4228929,1.111852 16.53125,0 L 2,0 z M 32,0 C 14.326888,0 0,3.357864 0,7.5 0,11.642136 14.326888,15 32,15 49.673112,15 64,11.642136 64,7.5 64,3.357864 49.673112,0 32,0 z M 47.46875,0 C 55.577107,1.111852 61.694689,3.059675 64,5.40625 L 64,1 62,0 47.46875,0 z M 0,9.59375 0,15 16.53125,15 C 8.4201489,13.888784 2.3054588,11.940476 0,9.59375 z m 64,0 C 61.694541,11.940476 55.579851,13.888784 47.46875,15 L 64,15 64,9.59375 z"
     id="path3924"
     style="fill:url(#radialGradient3926);fill-opacity:1;fill-rule:nonzero" />
  <path
     d="m 0,14 0,1 16.53125,0 C 14.466743,14.717164 12.524295,14.384912 10.75,14 L 0,14 z m 16.09375,0 c 4.688762,0.631492 10.110445,1 15.90625,1 5.795805,0 11.217488,-0.368508 15.90625,-1 l -31.8125,0 z M 53.25,14 c -1.774295,0.384912 -3.716743,0.717164 -5.78125,1 L 64,15 64,14 53.25,14 z"
     id="path3878"
     style="fill:#ffffff;fill-rule:nonzero;fill-opacity:0.54864156" />
  <path
     d="m 0,24.5 0,1.4375 c 0.09001052,0.134458 0.17059217,0.279507 0.28125,0.40625 0.48168704,0.551706 1.1565822,1.032641 2,1.5 1.6868355,0.934717 4.0458131,1.752437 6.96875,2.4375 C 15.095874,31.651377 23.131778,32.5 32,32.5 c 8.868222,0 16.904126,-0.848623 22.75,-2.21875 2.922937,-0.685063 5.281914,-1.502783 6.96875,-2.4375 0.843418,-0.467359 1.518313,-0.948294 2,-1.5 C 63.829408,26.217007 63.909989,26.071958 64,25.9375 l 0,-1.4375 -0.5,0 c 0,0.37365 -0.1604,0.762742 -0.53125,1.1875 C 62.5979,26.112258 62.02587,26.538821 61.25,26.96875 59.698259,27.828608 57.367924,28.64033 54.5,29.3125 48.764152,30.656839 40.80489,31.5 32,31.5 23.19511,31.5 15.235848,30.656839 9.5,29.3125 6.6320759,28.64033 4.3017407,27.828608 2.75,26.96875 1.9741296,26.538821 1.4021002,26.112258 1.03125,25.6875 0.66039976,25.262742 0.5,24.87365 0.5,24.5 l -0.5,0 z"
     id="path3980"
     style="font-size:medium;font-style:normal;font-variant:normal;font-weight:normal;font-stretch:normal;text-indent:0;text-align:start;text-decoration:none;line-height:normal;letter-spacing:normal;word-spacing:normal;text-transform:none;direction:ltr;block-progression:tb;writing-mode:lr-tb;text-anchor:start;baseline-shift:baseline;color:#000000;fill:url(#linearGradient3982);fill-opacity:1;stroke:none;stroke-width:1;marker:none;visibility:visible;display:inline;overflow:visible;enable-background:accumulate;font-family:Sans;-inkscape-font-specification:Sans" />
  <path
     d="m 0,41.5 0,1.4375 c 0.09001052,0.13446 0.17059217,0.27951 0.28125,0.40625 0.48168704,0.55171 1.1565822,1.03264 2,1.5 1.6868355,0.93472 4.0458131,1.75244 6.96875,2.4375 C 15.095874,48.65138 23.131778,49.5 32,49.5 c 8.868222,0 16.904126,-0.84862 22.75,-2.21875 2.922937,-0.68506 5.281914,-1.50278 6.96875,-2.4375 0.843418,-0.46736 1.518313,-0.94829 2,-1.5 C 63.829408,43.21701 63.909989,43.07196 64,42.9375 l 0,-1.4375 -0.5,0 c 0,0.37365 -0.1604,0.76274 -0.53125,1.1875 C 62.5979,43.11226 62.02587,43.53882 61.25,43.96875 59.698259,44.82861 57.367924,45.64033 54.5,46.3125 48.764152,47.65684 40.80489,48.5 32,48.5 23.19511,48.5 15.235848,47.65684 9.5,46.3125 6.6320759,45.64033 4.3017407,44.82861 2.75,43.96875 1.9741296,43.53882 1.4021002,43.11226 1.03125,42.6875 0.66039976,42.26274 0.5,41.87365 0.5,41.5 l -0.5,0 z"
     id="path3820"
     style="font-size:medium;font-style:normal;font-variant:normal;font-weight:normal;font-stretch:normal;text-indent:0;text-align:start;text-decoration:none;line-height:normal;letter-spacing:normal;word-spacing:normal;text-transform:none;direction:ltr;block-progression:tb;writing-mode:lr-tb;text-anchor:start;baseline-shift:baseline;color:#000000;fill:url(#linearGradient3970);fill-opacity:1;stroke:none;stroke-width:1;marker:none;visibility:visible;display:inline;overflow:visible;enable-background:accumulate;font-family:Sans;-inkscape-font-specification:Sans"
     inkscape:connector-curvature="0" />
  <path
     d="m 0,23.5 0,1.4375 c 0.09001052,0.134458 0.17059217,0.279507 0.28125,0.40625 0.48168704,0.551706 1.1565822,1.032641 2,1.5 1.6868355,0.934717 4.0458131,1.752437 6.96875,2.4375 C 15.095874,30.651377 23.131778,31.5 32,31.5 c 8.868222,0 16.904126,-0.848623 22.75,-2.21875 2.922937,-0.685063 5.281914,-1.502783 6.96875,-2.4375 0.843418,-0.467359 1.518313,-0.948294 2,-1.5 C 63.829408,25.217007 63.909989,25.071958 64,24.9375 l 0,-1.4375 -0.5,0 c 0,0.37365 -0.1604,0.762742 -0.53125,1.1875 C 62.5979,25.112258 62.02587,25.538821 61.25,25.96875 59.698259,26.828608 57.367924,27.64033 54.5,28.3125 48.764152,29.656839 40.80489,30.5 32,30.5 23.19511,30.5 15.235848,29.656839 9.5,28.3125 6.6320759,27.64033 4.3017407,26.828608 2.75,25.96875 1.9741296,25.538821 1.4021002,25.112258 1.03125,24.6875 0.66039976,24.262742 0.5,23.87365 0.5,23.5 l -0.5,0 z"
     id="path3984"
     style="font-size:medium;font-style:normal;font-variant:normal;font-weight:normal;font-stretch:normal;text-indent:0;text-align:start;text-decoration:none;line-height:normal;letter-spacing:normal;word-spacing:normal;text-transform:none;direction:ltr;block-progression:tb;writing-mode:lr-tb;text-anchor:start;baseline-shift:baseline;color:#000000;fill:#000000;fill-opacity:0.14022785;stroke:none;stroke-width:1;marker:none;visibility:visible;display:inline;overflow:visible;enable-background:accumulate;font-family:Sans;-inkscape-font-specification:Sans" />
  <path
     d="m 0,40.5 0,1.4375 c 0.09001052,0.13446 0.17059217,0.27951 0.28125,0.40625 0.48168704,0.55171 1.1565822,1.03264 2,1.5 1.6868355,0.93472 4.0458131,1.75244 6.96875,2.4375 C 15.095874,47.65138 23.131778,48.5 32,48.5 c 8.868222,0 16.904126,-0.84862 22.75,-2.21875 2.922937,-0.68506 5.281914,-1.50278 6.96875,-2.4375 0.843418,-0.46736 1.518313,-0.94829 2,-1.5 C 63.829408,42.21701 63.909989,42.07196 64,41.9375 l 0,-1.4375 -0.5,0 c 0,0.37365 -0.1604,0.76274 -0.53125,1.1875 C 62.5979,42.11226 62.02587,42.53882 61.25,42.96875 59.698259,43.82861 57.367924,44.64033 54.5,45.3125 48.764152,46.65684 40.80489,47.5 32,47.5 23.19511,47.5 15.235848,46.65684 9.5,45.3125 6.6320759,44.64033 4.3017407,43.82861 2.75,42.96875 1.9741296,42.53882 1.4021002,42.11226 1.03125,41.6875 0.66039976,41.26274 0.5,40.87365 0.5,40.5 l -0.5,0 z"
     id="path3968"
     style="font-size:medium;font-style:normal;font-variant:normal;font-weight:normal;font-stretch:normal;text-indent:0;text-align:start;text-decoration:none;line-height:normal;letter-spacing:normal;word-spacing:normal;text-transform:none;direction:ltr;block-progression:tb;writing-mode:lr-tb;text-anchor:start;baseline-shift:baseline;color:#000000;fill:#000000;fill-opacity:0.14022785;stroke:none;stroke-width:1;marker:none;visibility:visible;display:inline;overflow:visible;enable-background:accumulate;font-family:Sans;-inkscape-font-specification:Sans"
     inkscape:connector-curvature="0" />
  <path
     d="m 0,15 0,47 2,2 14.53125,0 0,-49 L 0,15 z m 47.46875,0 0,49 L 62,64 64,62 64,15 47.46875,15 z"
     id="path3818"
     style="fill:url(#radialGradient3894);fill-opacity:1;fill-rule:nonzero" />
  <path
     d="M 1,63 1,0.5 0,1 0,62 z"
     id="path4299"
     style="fill:#ffffff;fill-opacity:0.58106923;fill-rule:nonzero" />
  <path
     d="M 63,0.5 63,63 1,63 2,64 62,64 64,62 64,1 z"
     id="path3807"
     style="fill:#000000;fill-opacity:0.11130587;fill-rule:nonzero" />
  <path
     d="m 64,17 -2,-2 2,-1 z"
     id="path3028"
     style="fill:#1f0700;fill-opacity:0.13759861" />
  <path
     d="M 0,17 2,15 0,14 z"
     id="path3028-3"
     style="fill:#ffffff;fill-opacity:1" />
  <path
     style="fill:#ffffff;fill-opacity:0.53111309;fill-rule:nonzero;stroke:none"
     d="M 0 31 L 0 32 L 16.53125 32 L 16.53125 31 L 0 31 z M 47.46875 31 L 47.46875 32 L 64 32 L 64 31 L 47.46875 31 z M 0 48 L 0 49 L 16.53125 49 L 16.53125 48 L 0 48 z M 47.46875 48 L 47.46875 49 L 64 49 L 64 48 L 47.46875 48 z "
     id="rect3827" />
  <path
     style="fill:#000000;fill-opacity:0.15775637;fill-rule:nonzero;stroke:none"
     d="M 0 30 L 0 31 L 16.53125 31 L 16.53125 30 L 0 30 z M 47.46875 30 L 47.46875 31 L 64 31 L 64 30 L 47.46875 30 z M 0 47 L 0 48 L 16.53125 48 L 16.53125 47 L 0 47 z M 47.46875 47 L 47.46875 48 L 64 48 L 64 47 L 47.46875 47 z "
     id="rect3831" />
</svg>
