<?xml version="1.0" encoding="UTF-8" standalone="no"?>
<!-- Created with Inkscape (http://www.inkscape.org/) -->

<svg
   xmlns:dc="http://purl.org/dc/elements/1.1/"
   xmlns:cc="http://creativecommons.org/ns#"
   xmlns:rdf="http://www.w3.org/1999/02/22-rdf-syntax-ns#"
   xmlns:svg="http://www.w3.org/2000/svg"
   xmlns="http://www.w3.org/2000/svg"
   xmlns:xlink="http://www.w3.org/1999/xlink"
   xmlns:sodipodi="http://sodipodi.sourceforge.net/DTD/sodipodi-0.dtd"
   xmlns:inkscape="http://www.inkscape.org/namespaces/inkscape"
   version="1.1"
   width="64"
   height="64"
   id="svg13094"
   inkscape:version="0.48.3.1 r9886"
   sodipodi:docname="pdf.svg">
  <sodipodi:namedview
     pagecolor="#cdd0d8"
     bordercolor="#666666"
     borderopacity="1"
     objecttolerance="10"
     gridtolerance="10"
     guidetolerance="10"
     inkscape:pageopacity="1"
     inkscape:pageshadow="2"
     inkscape:window-width="1920"
     inkscape:window-height="1033"
     id="namedview84"
     showgrid="false"
     inkscape:zoom="10.429825"
     inkscape:cx="28.235764"
     inkscape:cy="26.168239"
     inkscape:window-x="-10"
     inkscape:window-y="25"
     inkscape:window-maximized="1"
     inkscape:current-layer="svg13094" />
  <defs
     id="defs11">
    <linearGradient
       x1="31"
       y1="64"
       x2="31"
       y2="2"
       id="linearGradient3918"
       gradientUnits="userSpaceOnUse">
      <stop
         id="stop3920"
         style="stop-color:#d4d4d4;stop-opacity:1"
         offset="0" />
      <stop
         id="stop3922"
         style="stop-color:#e4e4e4;stop-opacity:1"
         offset="0.50050378" />
      <stop
         id="stop3924"
         style="stop-color:#d4d4d4;stop-opacity:1"
         offset="0.51612902" />
      <stop
         id="stop3926"
         style="stop-color:#e4e4e4;stop-opacity:1"
         offset="1" />
    </linearGradient>
    <linearGradient
       gradientTransform="translate(0,-64)"
       gradientUnits="userSpaceOnUse"
       id="linearGradient3849"
       y2="88"
       x2="32.669781"
       y1="110.2137"
       x1="48.917568">
      <stop
         offset="0"
         style="stop-color:#bf6455;stop-opacity:1"
         id="stop3851" />
      <stop
         offset="0.50050378"
         style="stop-color:#cb7a67;stop-opacity:1"
         id="stop3853" />
      <stop
         offset="0.51600277"
         style="stop-color:#bf6455;stop-opacity:1"
         id="stop3855" />
      <stop
         offset="1"
         style="stop-color:#cb7a67;stop-opacity:1"
         id="stop3857" />
    </linearGradient>
    <radialGradient
       cx="48.30785"
       cy="47.141338"
       r="14.16129"
       id="radialGradient3996"
       gradientUnits="userSpaceOnUse"
       gradientTransform="matrix(0.93962333,0.77477937,-1.7975241,2.1799696,88.130548,-93.365748)">
      <stop
         id="stop3954"
         style="stop-color:#3d0000;stop-opacity:0.5685764"
         offset="0" />
      <stop
         id="stop3958"
         style="stop-color:#6a0000;stop-opacity:0.17447917"
         offset="0.5" />
      <stop
         id="stop3956"
         style="stop-color:#840000;stop-opacity:0"
         offset="1" />
    </radialGradient>
    <linearGradient
       x1="48.992088"
       y1="46.124821"
       x2="37"
       y2="36"
       id="linearGradient4280"
       gradientUnits="userSpaceOnUse">
      <stop
         id="stop4293"
         style="stop-color:#b56454;stop-opacity:1"
         offset="0" />
      <stop
         id="stop4295"
         style="stop-color:#9b4f43;stop-opacity:1"
         offset="0.2098622" />
      <stop
         id="stop4297"
         style="stop-color:#b16457;stop-opacity:1"
         offset="1" />
    </linearGradient>
    <linearGradient
       x1="45"
       y1="52"
       x2="73"
       y2="4"
       id="linearGradient4308"
       gradientUnits="userSpaceOnUse">
      <stop
         id="stop4304"
         style="stop-color:#000000;stop-opacity:0.10677083"
         offset="0" />
      <stop
         id="stop4306"
         style="stop-color:#000000;stop-opacity:0"
         offset="1" />
    </linearGradient>
    <linearGradient
       x1="48.917568"
       y1="46.213669"
       x2="32.669781"
       y2="24"
       id="linearGradient3942"
       gradientUnits="userSpaceOnUse">
      <stop
         id="stop3988"
         style="stop-color:#e68262;stop-opacity:0.6647473"
         offset="0" />
      <stop
         id="stop3990"
         style="stop-color:#e1715d;stop-opacity:0"
         offset="1" />
    </linearGradient>
    <linearGradient
       x1="48.917568"
       y1="46.213669"
       x2="32.669781"
       y2="24"
       id="linearGradient3103"
       xlink:href="#linearGradient3942"
       gradientUnits="userSpaceOnUse" />
    <radialGradient
       cx="48.30785"
       cy="47.141338"
       r="14.16129"
       id="radialGradient3932"
       xlink:href="#radialGradient3996"
       gradientUnits="userSpaceOnUse"
       gradientTransform="matrix(0.93962333,0.77477937,-1.7975241,2.1799696,88.130548,-93.365748)" />
    <radialGradient
       cx="61.54129"
       cy="21.159468"
       r="2"
       fx="60.794033"
       fy="22.104719"
       id="radialGradient3940"
       xlink:href="#radialGradient3996"
       gradientUnits="userSpaceOnUse"
       gradientTransform="matrix(2.4334329e-5,18.320286,-3.8806529,-1.4147715e-7,142.11105,-1094.5727)" />
    <linearGradient
       inkscape:collect="always"
       xlink:href="#linearGradient3849"
       id="linearGradient5432"
       gradientUnits="userSpaceOnUse"
       gradientTransform="translate(-6059.9739,-63.865697)"
       x1="6072.4619"
       y1="127.99998"
       x2="6072.4619"
       y2="65.999985" />
    <linearGradient
       inkscape:collect="always"
       xlink:href="#linearGradient3918"
       id="linearGradient4549-8"
       gradientUnits="userSpaceOnUse"
       gradientTransform="translate(-3117.6016,-1600.2279)"
       x1="3113.439"
       y1="1664.3622"
       x2="3113.439"
       y2="1602.3622" />
  </defs>
  <metadata
     id="metadata13099">
    <rdf:RDF>
      <cc:Work
         rdf:about="">
        <dc:format>image/svg+xml</dc:format>
        <dc:type
           rdf:resource="http://purl.org/dc/dcmitype/StillImage" />
        <dc:title />
      </cc:Work>
    </rdf:RDF>
  </metadata>
  <path
     d="M 4,0 64,0 64,62 4,62 z"
     id="path3960"
     style="fill:#9f5649;fill-rule:nonzero;fill-opacity:1" />
  <path
     d="m 60,2 4,4 0,31 -4,-4 z"
     id="path3900"
     style="fill:url(#radialGradient3940);fill-opacity:1;fill-rule:nonzero" />
  <path
     d="m 60,33 4,4 0,25 -28.32258,0 z"
     id="path3934"
     style="fill:url(#radialGradient3932);fill-rule:nonzero" />
  <path
     d="M 63,0 V 61 H 4 v 1 H 64 V 0 h -1 z"
     id="path4299"
     style="fill:#000000;fill-opacity:0.07887819;fill-rule:nonzero" />
  <path
     d="M 60,2 60,33 35,62 37,62 60.78125,33.65625 61,33.375 61,33 61,3 z"
     id="path3922"
     style="fill:url(#linearGradient4308);fill-rule:nonzero" />
  <path
     d="M 0,2 60,2 60,33 34,64 0,64 z"
     id="path3101"
     style="fill:url(#linearGradient3103);fill-rule:nonzero" />
  <path
     d="M 0,2 60,2 60,33 34,64 0,64 z"
     id="path3982"
     style="color:#000000;fill:url(#linearGradient5432);fill-opacity:1;fill-rule:nonzero;stroke:none;stroke-width:1;marker:none;visibility:visible;display:inline;overflow:visible;enable-background:accumulate" />
  <path
     d="M 0,2 60,2 60,3 0,3 z"
     id="path3144"
     style="fill:#e69f8e;fill-opacity:1;fill-rule:nonzero" />
  <path
     d="M 29.125,2 C 29.27018,14.51844 19.848923,25.947074 0,31.625 l 0,0.5625 C 19.31671,27.368908 35.681742,17.394779 38.3125,2 L 29.125,2 z M 48.09375,16.90625 C 28.329433,16.93045 9.4501522,28.907462 0,59.8125 L 0,64 10.0625,64 C 16.842713,34.596891 34.655936,14.948758 60,19.375 l 0,-1.09375 c -0.481415,-0.109112 -0.955273,-0.216006 -1.4375,-0.3125 -3.488147,-0.697982 -6.988821,-1.066761 -10.46875,-1.0625 z"
     id="path3938"
     style="color:#000000;fill:url(#linearGradient4549-8);fill-opacity:1;fill-rule:nonzero;stroke:none;stroke-width:1;marker:none;visibility:visible;display:inline;overflow:visible;enable-background:accumulate" />
  <path
     d="m 29.125,2 c 0.0039,0.3383362 0.01007,0.6633479 0,1 l 9,0 C 38.19493,2.6709501 38.255397,2.334155 38.3125,2 L 29.125,2 z"
     id="path3852"
     style="fill:#f9f9f9;fill-rule:nonzero" />
  <path
     d="m 0,63 35,0 -1,1 -34,0 z"
     id="path4255"
     style="fill:#000000;fill-opacity:0.10341803;fill-rule:nonzero" />
  <path
     d="M 4,0 64,0 64,1 4,1 z"
     id="path3878"
     style="fill:#e69f8e;fill-opacity:1;fill-rule:nonzero" />
  <path
     d="M 34,64 60,33 c -2.328567,2.776369 -4.36141,3 -11,3 H 37 v 15 c 0,6.64407 0.04437,9.37018 -3,13 z"
     id="path4278"
     style="fill:url(#linearGradient4280);fill-rule:nonzero" />
  <path
     d="m 60,33 c -2.328567,2.776369 -4.36141,3 -11,3 H 37 v 15 c 0,6.64407 0.04437,9.37018 -3,13 4,-5 4.000382,-8.35667 4,-13 V 37 h 11 c 5,0 8.041405,-0.38188 11,-4 z"
     id="path4282"
     style="fill:#e69f8e;fill-opacity:1;fill-rule:nonzero" />
  <path
     d="m -154.2981,16.980373 -15.60478,4.640135 c 40.43204,23.072282 32.16618,63.703652 -29.3261,54.238152 35.06865,6.95463 90.25681,-6.98025 44.93088,-58.878287 z m 30.49384,54.119187 c -28.14444,-9.14435 -61.4119,10.77468 -60.14804,100.80204 l 17.77372,0.40616 c -19.25801,-65.53392 19.32403,-135.46434 68.187221,-82.87855 -6.877771,-8.46896 -16.036391,-15.15319 -25.812901,-18.32965 z"
     id="path5128-4"
     style="fill:#000000;fill-opacity:1;fill-rule:nonzero;stroke:none" />
</svg>
