<?xml version="1.0" encoding="UTF-8" standalone="no"?>
<!-- Created with Inkscape (http://www.inkscape.org/) -->

<svg
   xmlns:dc="http://purl.org/dc/elements/1.1/"
   xmlns:cc="http://creativecommons.org/ns#"
   xmlns:rdf="http://www.w3.org/1999/02/22-rdf-syntax-ns#"
   xmlns:svg="http://www.w3.org/2000/svg"
   xmlns="http://www.w3.org/2000/svg"
   xmlns:xlink="http://www.w3.org/1999/xlink"
   xmlns:sodipodi="http://sodipodi.sourceforge.net/DTD/sodipodi-0.dtd"
   xmlns:inkscape="http://www.inkscape.org/namespaces/inkscape"
   version="1.1"
   width="64"
   height="64"
   id="svg13094"
   inkscape:version="0.48.3.1 r9886"
   sodipodi:docname="office-presentation.svg">
  <sodipodi:namedview
     pagecolor="#ffffff"
     bordercolor="#666666"
     borderopacity="1"
     objecttolerance="10"
     gridtolerance="10"
     guidetolerance="10"
     inkscape:pageopacity="0"
     inkscape:pageshadow="2"
     inkscape:window-width="1920"
     inkscape:window-height="1033"
     id="namedview68"
     showgrid="true"
     inkscape:zoom="10.429825"
     inkscape:cx="35.890503"
     inkscape:cy="31.150344"
     inkscape:window-x="-10"
     inkscape:window-y="25"
     inkscape:window-maximized="1"
     inkscape:current-layer="svg13094"
     inkscape:snap-bbox="true"
     inkscape:bbox-paths="true"
     inkscape:bbox-nodes="true"
     inkscape:snap-bbox-edge-midpoints="true"
     inkscape:snap-bbox-midpoints="true"
     inkscape:object-paths="true"
     inkscape:snap-intersection-paths="true"
     inkscape:object-nodes="true"
     inkscape:snap-smooth-nodes="true"
     inkscape:snap-midpoints="true"
     inkscape:snap-object-midpoints="true"
     inkscape:snap-center="true">
    <inkscape:grid
       type="xygrid"
       id="grid3839" />
  </sodipodi:namedview>
  <defs
     id="defs11">
    <linearGradient
       gradientTransform="translate(0,-64)"
       gradientUnits="userSpaceOnUse"
       id="linearGradient3829"
       y2="88"
       x2="32.669781"
       y1="110.2137"
       x1="48.917568">
      <stop
         offset="0"
         style="stop-color:#c17a54;stop-opacity:1;"
         id="stop3831" />
      <stop
         offset="0.50050378"
         style="stop-color:#c88555;stop-opacity:1;"
         id="stop3833" />
      <stop
         offset="0.51600277"
         style="stop-color:#c17a54;stop-opacity:1;"
         id="stop3835" />
      <stop
         offset="1"
         style="stop-color:#c88555;stop-opacity:1;"
         id="stop3837" />
    </linearGradient>
    <radialGradient
       cx="48.24176"
       cy="40.919418"
       r="14.16129"
       fx="40.959122"
       fy="40.608799"
       id="radialGradient3822-5"
       xlink:href="#radialGradient3996-7"
       gradientUnits="userSpaceOnUse"
       gradientTransform="matrix(-2.0491578e-7,2.1591248,-0.51856169,-3.8905836e-8,81.125244,-70.945917)" />
    <radialGradient
       cx="48.30785"
       cy="47.141338"
       r="14.16129"
       id="radialGradient3996-7"
       gradientUnits="userSpaceOnUse"
       gradientTransform="matrix(0.93962333,0.77477937,-1.7975241,2.1799696,88.130548,-93.365748)">
      <stop
         id="stop3954-9"
         style="stop-color:#000000;stop-opacity:0.36716226;"
         offset="0" />
      <stop
         id="stop3958-7"
         style="stop-color:#000000;stop-opacity:0.16224952;"
         offset="0.5" />
      <stop
         id="stop3956-2"
         style="stop-color:#000000;stop-opacity:0;"
         offset="1" />
    </radialGradient>
    <radialGradient
       cx="48.30785"
       cy="47.141338"
       r="14.16129"
       id="radialGradient3373-7"
       xlink:href="#radialGradient3996-7"
       gradientUnits="userSpaceOnUse"
       gradientTransform="matrix(0.93962333,0.77477937,-1.7975241,2.1799696,88.130548,-93.365748)" />
    <linearGradient
       x1="45"
       y1="52"
       x2="73"
       y2="4"
       id="linearGradient4308-7"
       gradientUnits="userSpaceOnUse">
      <stop
         id="stop4304-4"
         style="stop-color:#000000;stop-opacity:0.10677083"
         offset="0" />
      <stop
         id="stop4306-0"
         style="stop-color:#000000;stop-opacity:0"
         offset="1" />
    </linearGradient>
    <linearGradient
       x1="48.992088"
       y1="46.124821"
       x2="37"
       y2="36"
       id="linearGradient4280-6"
       gradientUnits="userSpaceOnUse">
      <stop
         id="stop4293-8"
         style="stop-color:#b77857;stop-opacity:1"
         offset="0" />
      <stop
         id="stop4295-1"
         style="stop-color:#985b41;stop-opacity:1"
         offset="0.2098622" />
      <stop
         id="stop4297-0"
         style="stop-color:#b46543;stop-opacity:1"
         offset="1" />
    </linearGradient>
    <linearGradient
       inkscape:collect="always"
       xlink:href="#linearGradient3829"
       id="linearGradient4937-1"
       gradientUnits="userSpaceOnUse"
       gradientTransform="translate(66.99748,-63.865696)"
       x1="-104.46229"
       y1="127.99998"
       x2="-104.46211"
       y2="65.999985" />
    <linearGradient
       inkscape:collect="always"
       xlink:href="#linearGradient5478"
       id="linearGradient3716"
       gradientUnits="userSpaceOnUse"
       gradientTransform="translate(-3117.6016,-1600.2279)"
       x1="3113.439"
       y1="1664.3622"
       x2="3113.439"
       y2="1602.3622" />
    <linearGradient
       gradientUnits="userSpaceOnUse"
       id="linearGradient5478"
       y2="2"
       x2="31"
       y1="64"
       x1="31">
      <stop
         offset="0"
         style="stop-color:#e3e3e3;stop-opacity:1;"
         id="stop5480" />
      <stop
         offset="0.50050378"
         style="stop-color:#ededed;stop-opacity:1;"
         id="stop5482" />
      <stop
         offset="0.51612902"
         style="stop-color:#e4e4e4;stop-opacity:1;"
         id="stop5484" />
      <stop
         offset="1"
         style="stop-color:#e9e9e9;stop-opacity:1;"
         id="stop5486" />
    </linearGradient>
    <linearGradient
       gradientUnits="userSpaceOnUse"
       id="linearGradient5478-5"
       y2="2"
       x2="31"
       y1="64"
       x1="31">
      <stop
         offset="0"
         style="stop-color:#e3e3e3;stop-opacity:1;"
         id="stop5480-5" />
      <stop
         offset="0.50050378"
         style="stop-color:#ededed;stop-opacity:1;"
         id="stop5482-0" />
      <stop
         offset="0.51612902"
         style="stop-color:#e4e4e4;stop-opacity:1;"
         id="stop5484-06" />
      <stop
         offset="1"
         style="stop-color:#e9e9e9;stop-opacity:1;"
         id="stop5486-1" />
    </linearGradient>
    <linearGradient
       inkscape:collect="always"
       xlink:href="#linearGradient5478-4"
       id="linearGradient4549-8"
       gradientUnits="userSpaceOnUse"
       gradientTransform="translate(-3125.9271,-1600.2279)"
       x1="3113.439"
       y1="1664.3622"
       x2="3113.439"
       y2="1602.3622" />
    <linearGradient
       gradientUnits="userSpaceOnUse"
       id="linearGradient5478-4"
       y2="2"
       x2="31"
       y1="64"
       x1="31">
      <stop
         offset="0"
         style="stop-color:#d8d8d8;stop-opacity:1"
         id="stop5480-2" />
      <stop
         offset="0.50050378"
         style="stop-color:#e4e4e4;stop-opacity:1"
         id="stop5482-7" />
      <stop
         offset="0.51612902"
         style="stop-color:#d8d8d8;stop-opacity:1"
         id="stop5484-0" />
      <stop
         offset="1"
         style="stop-color:#e4e4e4;stop-opacity:1"
         id="stop5486-2" />
    </linearGradient>
    <linearGradient
       y2="1602.3622"
       x2="3113.439"
       y1="1664.3622"
       x1="3113.439"
       gradientTransform="translate(-3109.2761,-1602.3622)"
       gradientUnits="userSpaceOnUse"
       id="linearGradient3517"
       xlink:href="#linearGradient5478-4"
       inkscape:collect="always" />
  </defs>
  <metadata
     id="metadata13099">
    <rdf:RDF>
      <cc:Work
         rdf:about="">
        <dc:format>image/svg+xml</dc:format>
        <dc:type
           rdf:resource="http://purl.org/dc/dcmitype/StillImage" />
        <dc:title />
      </cc:Work>
    </rdf:RDF>
  </metadata>
  <path
     inkscape:connector-curvature="0"
     d="M 4,0 64,0 64,62 4,62 z"
     id="path3960"
     style="fill:#aa6649;fill-opacity:1;fill-rule:nonzero" />
  <path
     inkscape:connector-curvature="0"
     d="m 60,2 4,4 0,31 -4,-4 z"
     id="path3900"
     style="fill:url(#radialGradient3822-5);fill-rule:nonzero" />
  <path
     inkscape:connector-curvature="0"
     d="m 60,33 4,4 0,25 -28.32258,0 z"
     id="path3934"
     style="fill:url(#radialGradient3373-7);fill-rule:nonzero" />
  <path
     inkscape:connector-curvature="0"
     d="M 63,0 V 61 H 4 v 1 H 64 V 0 h -1 z"
     id="path4299"
     style="fill:#000000;fill-opacity:0.07887819;fill-rule:nonzero" />
  <path
     inkscape:connector-curvature="0"
     d="M 60,2 60,33 35,62 37,62 60.78125,33.65625 61,33.375 61,33 61,3 z"
     id="path3922"
     style="fill:url(#linearGradient4308-7);fill-rule:nonzero" />
  <path
     inkscape:connector-curvature="0"
     d="M 0,2 60,2 60,33 34,64 0,64 z"
     id="path3982"
     style="fill:url(#linearGradient4937-1);fill-rule:nonzero;color:#000000;fill-opacity:1;stroke:none;stroke-width:1;marker:none;visibility:visible;display:inline;overflow:visible;enable-background:accumulate" />
  <path
     inkscape:connector-curvature="0"
     d="M 0,2 60,2 60,3 0,3 z"
     id="path4052"
     style="color:#000000;fill:#eab48e;fill-opacity:1;fill-rule:nonzero;stroke-width:1;stroke-linecap:butt;stroke-linejoin:miter;stroke-miterlimit:4;stroke-opacity:1;stroke-dasharray:none;stroke-dashoffset:0;marker:none;visibility:visible;display:inline;overflow:visible;enable-background:accumulate" />
  <path
     inkscape:connector-curvature="0"
     d="m 0,63 35,0 -1,1 -34,0 z"
     id="path4255"
     style="fill:#000000;fill-opacity:0.10341803;fill-rule:nonzero" />
  <path
     inkscape:connector-curvature="0"
     d="M 4,0 64,0 64,1 4,1 z"
     id="path3878"
     style="color:#000000;fill:#eab48e;fill-opacity:1;fill-rule:nonzero;stroke-width:1;stroke-linecap:butt;stroke-linejoin:miter;stroke-miterlimit:4;stroke-opacity:1;stroke-dasharray:none;stroke-dashoffset:0;marker:none;visibility:visible;display:inline;overflow:visible;enable-background:accumulate" />
  <path
     inkscape:connector-curvature="0"
     d="M 34,64 60,33 c -2.328567,2.776369 -4.36141,3 -11,3 H 37 v 15 c 0,6.64407 0.04437,9.37018 -3,13 z"
     id="path4278"
     style="fill:url(#linearGradient4280-6);fill-rule:nonzero" />
  <path
     inkscape:connector-curvature="0"
     d="m 59,32 c -2.328567,2.776369 -4.36141,3 -11,3 H 36 v 15 c 0,6.64407 0.04437,9.37018 -3,13 4,-5 4.000382,-8.35667 4,-13 V 36 h 11 c 5,0 8.041405,-0.38188 11,-4 z"
     id="path4282"
     style="fill:#eab48e;fill-opacity:1;fill-rule:nonzero" />
  <path
     style="color:#000000;fill:url(#linearGradient4549-8);fill-opacity:1;fill-rule:nonzero;stroke:none;stroke-width:1;marker:none;visibility:visible;display:inline;overflow:visible;enable-background:accumulate"
     d="M 5 8 L 5 27 L 13.65625 27 L 14.46875 24 L 8 24 L 8 11 L 30 11 L 30 24 L 18.4375 24 L 19.09375 21.5625 C 19.290379 22.112602 19.449759 22.597515 19.5 22.59375 C 19.630483 22.583972 20.105431 19.471675 20.21875 19.40625 C 20.332069 19.340825 23.27004 20.483113 23.34375 20.375 C 23.41746 20.266887 21.261748 17.941888 21.28125 17.8125 C 21.300752 17.683112 24.038569 16.125036 24 16 C 23.961431 15.874964 20.80775 16.095919 20.71875 16 C 20.62975 15.904081 21.090554 12.797805 20.96875 12.75 C 20.846946 12.702195 19.067983 15.302722 18.9375 15.3125 C 18.807017 15.322278 16.675819 12.997075 16.5625 13.0625 C 16.449181 13.127925 17.35496 16.141887 17.28125 16.25 C 17.20754 16.358113 14.082002 16.620612 14.0625 16.75 C 14.042998 16.879388 16.961431 18.031214 17 18.15625 C 17.038569 18.281286 15.286 20.872831 15.375 20.96875 C 15.433406 21.031697 16.586894 20.41254 17.4375 19.96875 L 13.125 36.09375 L 15.0625 36.625 L 17.625 27 L 20.375 27 L 22.9375 36.625 L 24.875 36.09375 L 22.46875 27 L 33 27 L 33 8 L 5 8 z M 47 8 L 47 8.5 L 47 16 L 48.78125 16 L 49.28125 16 L 49.28125 15.5 L 49.28125 13.34375 C 49.458729 13.34995 49.599406 13.343751 49.8125 13.34375 C 50.35202 13.343753 50.862286 13.29178 51.28125 13.15625 C 51.696766 13.023032 52.04429 12.81858 52.3125 12.53125 C 52.551714 12.271093 52.735361 11.983474 52.84375 11.65625 L 52.84375 11.625 C 52.948736 11.304104 52.999994 10.970302 53 10.59375 C 52.999993 10.034343 52.859274 9.5398312 52.5625 9.125 C 52.279698 8.724167 51.87862 8.4200655 51.40625 8.25 C 50.947176 8.0809859 50.401807 8.0000075 49.8125 8 L 47.5 8 L 47 8 z M 49.28125 9.96875 L 49.84375 9.96875 C 50.218283 9.968755 50.431288 10.049599 50.5625 10.15625 C 50.687383 10.257764 50.749997 10.348396 50.75 10.625 C 50.749996 10.734398 50.73315 10.833795 50.71875 10.90625 C 50.71175 10.94632 50.70024 11.015739 50.65625 11.09375 C 50.62861 11.1452 50.58362 11.1811 50.53125 11.21875 L 50.53125 11.25 C 50.49952 11.27348 50.406232 11.30318 50.25 11.34375 C 50.111106 11.38041 49.917467 11.40625 49.6875 11.40625 C 49.5122 11.406251 49.405161 11.406851 49.28125 11.40625 L 49.28125 9.96875 z "
     id="path3548" />
</svg>
